<?xml version="1.0" encoding="utf-8" standalone="no"?>
<!DOCTYPE svg PUBLIC "-//W3C//DTD SVG 1.1//EN"
  "http://www.w3.org/Graphics/SVG/1.1/DTD/svg11.dtd">
<svg xmlns:xlink="http://www.w3.org/1999/xlink" width="460.8pt" height="345.6pt" viewBox="0 0 460.8 345.6" xmlns="http://www.w3.org/2000/svg" version="1.1">
 <metadata>
  <rdf:RDF xmlns:dc="http://purl.org/dc/elements/1.1/" xmlns:cc="http://creativecommons.org/ns#" xmlns:rdf="http://www.w3.org/1999/02/22-rdf-syntax-ns#">
   <cc:Work>
    <dc:type rdf:resource="http://purl.org/dc/dcmitype/StillImage"/>
    <dc:date>2023-07-03T17:36:02.885258</dc:date>
    <dc:format>image/svg+xml</dc:format>
    <dc:creator>
     <cc:Agent>
      <dc:title>Matplotlib v3.5.1, https://matplotlib.org/</dc:title>
     </cc:Agent>
    </dc:creator>
   </cc:Work>
  </rdf:RDF>
 </metadata>
 <defs>
  <style type="text/css">*{stroke-linejoin: round; stroke-linecap: butt}</style>
 </defs>
 <g id="figure_1">
  <g id="patch_1">
   <path d="M 0 345.6 
L 460.8 345.6 
L 460.8 0 
L 0 0 
z
" style="fill: #ffffff"/>
  </g>
  <g id="axes_1">
   <g id="patch_2">
    <path d="M 57.6 307.584 
L 414.72 307.584 
L 414.72 41.472 
L 57.6 41.472 
z
" style="fill: #ffffff"/>
   </g>
   <g id="matplotlib.axis_1">
    <g id="xtick_1">
     <g id="line2d_1">
      <defs>
       <path id="m124246c88f" d="M 0 0 
L 0 3.5 
" style="stroke: #000000; stroke-width: 0.8"/>
      </defs>
      <g>
       <use xlink:href="#m124246c88f" x="74.238545" y="307.584" style="stroke: #000000; stroke-width: 0.8"/>
      </g>
     </g>
     <g id="text_1">
      <!-- −1500 -->
      <g transform="translate(57.323702 322.182437)scale(0.1 -0.1)">
       <defs>
        <path id="DejaVuSans-2212" d="M 678 2272 
L 4684 2272 
L 4684 1741 
L 678 1741 
L 678 2272 
z
" transform="scale(0.015625)"/>
        <path id="DejaVuSans-31" d="M 794 531 
L 1825 531 
L 1825 4091 
L 703 3866 
L 703 4441 
L 1819 4666 
L 2450 4666 
L 2450 531 
L 3481 531 
L 3481 0 
L 794 0 
L 794 531 
z
" transform="scale(0.015625)"/>
        <path id="DejaVuSans-35" d="M 691 4666 
L 3169 4666 
L 3169 4134 
L 1269 4134 
L 1269 2991 
Q 1406 3038 1543 3061 
Q 1681 3084 1819 3084 
Q 2600 3084 3056 2656 
Q 3513 2228 3513 1497 
Q 3513 744 3044 326 
Q 2575 -91 1722 -91 
Q 1428 -91 1123 -41 
Q 819 9 494 109 
L 494 744 
Q 775 591 1075 516 
Q 1375 441 1709 441 
Q 2250 441 2565 725 
Q 2881 1009 2881 1497 
Q 2881 1984 2565 2268 
Q 2250 2553 1709 2553 
Q 1456 2553 1204 2497 
Q 953 2441 691 2322 
L 691 4666 
z
" transform="scale(0.015625)"/>
        <path id="DejaVuSans-30" d="M 2034 4250 
Q 1547 4250 1301 3770 
Q 1056 3291 1056 2328 
Q 1056 1369 1301 889 
Q 1547 409 2034 409 
Q 2525 409 2770 889 
Q 3016 1369 3016 2328 
Q 3016 3291 2770 3770 
Q 2525 4250 2034 4250 
z
M 2034 4750 
Q 2819 4750 3233 4129 
Q 3647 3509 3647 2328 
Q 3647 1150 3233 529 
Q 2819 -91 2034 -91 
Q 1250 -91 836 529 
Q 422 1150 422 2328 
Q 422 3509 836 4129 
Q 1250 4750 2034 4750 
z
" transform="scale(0.015625)"/>
       </defs>
       <use xlink:href="#DejaVuSans-2212"/>
       <use xlink:href="#DejaVuSans-31" x="83.789062"/>
       <use xlink:href="#DejaVuSans-35" x="147.412109"/>
       <use xlink:href="#DejaVuSans-30" x="211.035156"/>
       <use xlink:href="#DejaVuSans-30" x="274.658203"/>
      </g>
     </g>
    </g>
    <g id="xtick_2">
     <g id="line2d_2">
      <g>
       <use xlink:href="#m124246c88f" x="128.212364" y="307.584" style="stroke: #000000; stroke-width: 0.8"/>
      </g>
     </g>
     <g id="text_2">
      <!-- −1000 -->
      <g transform="translate(111.29752 322.182437)scale(0.1 -0.1)">
       <use xlink:href="#DejaVuSans-2212"/>
       <use xlink:href="#DejaVuSans-31" x="83.789062"/>
       <use xlink:href="#DejaVuSans-30" x="147.412109"/>
       <use xlink:href="#DejaVuSans-30" x="211.035156"/>
       <use xlink:href="#DejaVuSans-30" x="274.658203"/>
      </g>
     </g>
    </g>
    <g id="xtick_3">
     <g id="line2d_3">
      <g>
       <use xlink:href="#m124246c88f" x="182.186182" y="307.584" style="stroke: #000000; stroke-width: 0.8"/>
      </g>
     </g>
     <g id="text_3">
      <!-- −500 -->
      <g transform="translate(168.452588 322.182437)scale(0.1 -0.1)">
       <use xlink:href="#DejaVuSans-2212"/>
       <use xlink:href="#DejaVuSans-35" x="83.789062"/>
       <use xlink:href="#DejaVuSans-30" x="147.412109"/>
       <use xlink:href="#DejaVuSans-30" x="211.035156"/>
      </g>
     </g>
    </g>
    <g id="xtick_4">
     <g id="line2d_4">
      <g>
       <use xlink:href="#m124246c88f" x="236.16" y="307.584" style="stroke: #000000; stroke-width: 0.8"/>
      </g>
     </g>
     <g id="text_4">
      <!-- 0 -->
      <g transform="translate(232.97875 322.182437)scale(0.1 -0.1)">
       <use xlink:href="#DejaVuSans-30"/>
      </g>
     </g>
    </g>
    <g id="xtick_5">
     <g id="line2d_5">
      <g>
       <use xlink:href="#m124246c88f" x="290.133818" y="307.584" style="stroke: #000000; stroke-width: 0.8"/>
      </g>
     </g>
     <g id="text_5">
      <!-- 500 -->
      <g transform="translate(280.590068 322.182437)scale(0.1 -0.1)">
       <use xlink:href="#DejaVuSans-35"/>
       <use xlink:href="#DejaVuSans-30" x="63.623047"/>
       <use xlink:href="#DejaVuSans-30" x="127.246094"/>
      </g>
     </g>
    </g>
    <g id="xtick_6">
     <g id="line2d_6">
      <g>
       <use xlink:href="#m124246c88f" x="344.107636" y="307.584" style="stroke: #000000; stroke-width: 0.8"/>
      </g>
     </g>
     <g id="text_6">
      <!-- 1000 -->
      <g transform="translate(331.382636 322.182437)scale(0.1 -0.1)">
       <use xlink:href="#DejaVuSans-31"/>
       <use xlink:href="#DejaVuSans-30" x="63.623047"/>
       <use xlink:href="#DejaVuSans-30" x="127.246094"/>
       <use xlink:href="#DejaVuSans-30" x="190.869141"/>
      </g>
     </g>
    </g>
    <g id="xtick_7">
     <g id="line2d_7">
      <g>
       <use xlink:href="#m124246c88f" x="398.081455" y="307.584" style="stroke: #000000; stroke-width: 0.8"/>
      </g>
     </g>
     <g id="text_7">
      <!-- 1500 -->
      <g transform="translate(385.356455 322.182437)scale(0.1 -0.1)">
       <use xlink:href="#DejaVuSans-31"/>
       <use xlink:href="#DejaVuSans-35" x="63.623047"/>
       <use xlink:href="#DejaVuSans-30" x="127.246094"/>
       <use xlink:href="#DejaVuSans-30" x="190.869141"/>
      </g>
     </g>
    </g>
    <g id="text_8">
     <!-- z (nm) -->
     <g transform="translate(220.006094 335.860562)scale(0.1 -0.1)">
      <defs>
       <path id="DejaVuSans-7a" d="M 353 3500 
L 3084 3500 
L 3084 2975 
L 922 459 
L 3084 459 
L 3084 0 
L 275 0 
L 275 525 
L 2438 3041 
L 353 3041 
L 353 3500 
z
" transform="scale(0.015625)"/>
       <path id="DejaVuSans-20" transform="scale(0.015625)"/>
       <path id="DejaVuSans-28" d="M 1984 4856 
Q 1566 4138 1362 3434 
Q 1159 2731 1159 2009 
Q 1159 1288 1364 580 
Q 1569 -128 1984 -844 
L 1484 -844 
Q 1016 -109 783 600 
Q 550 1309 550 2009 
Q 550 2706 781 3412 
Q 1013 4119 1484 4856 
L 1984 4856 
z
" transform="scale(0.015625)"/>
       <path id="DejaVuSans-6e" d="M 3513 2113 
L 3513 0 
L 2938 0 
L 2938 2094 
Q 2938 2591 2744 2837 
Q 2550 3084 2163 3084 
Q 1697 3084 1428 2787 
Q 1159 2491 1159 1978 
L 1159 0 
L 581 0 
L 581 3500 
L 1159 3500 
L 1159 2956 
Q 1366 3272 1645 3428 
Q 1925 3584 2291 3584 
Q 2894 3584 3203 3211 
Q 3513 2838 3513 2113 
z
" transform="scale(0.015625)"/>
       <path id="DejaVuSans-6d" d="M 3328 2828 
Q 3544 3216 3844 3400 
Q 4144 3584 4550 3584 
Q 5097 3584 5394 3201 
Q 5691 2819 5691 2113 
L 5691 0 
L 5113 0 
L 5113 2094 
Q 5113 2597 4934 2840 
Q 4756 3084 4391 3084 
Q 3944 3084 3684 2787 
Q 3425 2491 3425 1978 
L 3425 0 
L 2847 0 
L 2847 2094 
Q 2847 2600 2669 2842 
Q 2491 3084 2119 3084 
Q 1678 3084 1418 2786 
Q 1159 2488 1159 1978 
L 1159 0 
L 581 0 
L 581 3500 
L 1159 3500 
L 1159 2956 
Q 1356 3278 1631 3431 
Q 1906 3584 2284 3584 
Q 2666 3584 2933 3390 
Q 3200 3197 3328 2828 
z
" transform="scale(0.015625)"/>
       <path id="DejaVuSans-29" d="M 513 4856 
L 1013 4856 
Q 1481 4119 1714 3412 
Q 1947 2706 1947 2009 
Q 1947 1309 1714 600 
Q 1481 -109 1013 -844 
L 513 -844 
Q 928 -128 1133 580 
Q 1338 1288 1338 2009 
Q 1338 2731 1133 3434 
Q 928 4138 513 4856 
z
" transform="scale(0.015625)"/>
      </defs>
      <use xlink:href="#DejaVuSans-7a"/>
      <use xlink:href="#DejaVuSans-20" x="52.490234"/>
      <use xlink:href="#DejaVuSans-28" x="84.277344"/>
      <use xlink:href="#DejaVuSans-6e" x="123.291016"/>
      <use xlink:href="#DejaVuSans-6d" x="186.669922"/>
      <use xlink:href="#DejaVuSans-29" x="284.082031"/>
     </g>
    </g>
   </g>
   <g id="matplotlib.axis_2">
    <g id="ytick_1">
     <g id="line2d_8">
      <defs>
       <path id="m1019d5d4ef" d="M 0 0 
L -3.5 0 
" style="stroke: #000000; stroke-width: 0.8"/>
      </defs>
      <g>
       <use xlink:href="#m1019d5d4ef" x="57.6" y="283.446128" style="stroke: #000000; stroke-width: 0.8"/>
      </g>
     </g>
     <g id="text_9">
      <!-- −200 -->
      <g transform="translate(23.132812 287.245346)scale(0.1 -0.1)">
       <defs>
        <path id="DejaVuSans-32" d="M 1228 531 
L 3431 531 
L 3431 0 
L 469 0 
L 469 531 
Q 828 903 1448 1529 
Q 2069 2156 2228 2338 
Q 2531 2678 2651 2914 
Q 2772 3150 2772 3378 
Q 2772 3750 2511 3984 
Q 2250 4219 1831 4219 
Q 1534 4219 1204 4116 
Q 875 4013 500 3803 
L 500 4441 
Q 881 4594 1212 4672 
Q 1544 4750 1819 4750 
Q 2544 4750 2975 4387 
Q 3406 4025 3406 3419 
Q 3406 3131 3298 2873 
Q 3191 2616 2906 2266 
Q 2828 2175 2409 1742 
Q 1991 1309 1228 531 
z
" transform="scale(0.015625)"/>
       </defs>
       <use xlink:href="#DejaVuSans-2212"/>
       <use xlink:href="#DejaVuSans-32" x="83.789062"/>
       <use xlink:href="#DejaVuSans-30" x="147.412109"/>
       <use xlink:href="#DejaVuSans-30" x="211.035156"/>
      </g>
     </g>
    </g>
    <g id="ytick_2">
     <g id="line2d_9">
      <g>
       <use xlink:href="#m1019d5d4ef" x="57.6" y="234.853313" style="stroke: #000000; stroke-width: 0.8"/>
      </g>
     </g>
     <g id="text_10">
      <!-- 0 -->
      <g transform="translate(44.2375 238.652532)scale(0.1 -0.1)">
       <use xlink:href="#DejaVuSans-30"/>
      </g>
     </g>
    </g>
    <g id="ytick_3">
     <g id="line2d_10">
      <g>
       <use xlink:href="#m1019d5d4ef" x="57.6" y="186.260499" style="stroke: #000000; stroke-width: 0.8"/>
      </g>
     </g>
     <g id="text_11">
      <!-- 200 -->
      <g transform="translate(31.5125 190.059717)scale(0.1 -0.1)">
       <use xlink:href="#DejaVuSans-32"/>
       <use xlink:href="#DejaVuSans-30" x="63.623047"/>
       <use xlink:href="#DejaVuSans-30" x="127.246094"/>
      </g>
     </g>
    </g>
    <g id="ytick_4">
     <g id="line2d_11">
      <g>
       <use xlink:href="#m1019d5d4ef" x="57.6" y="137.667684" style="stroke: #000000; stroke-width: 0.8"/>
      </g>
     </g>
     <g id="text_12">
      <!-- 400 -->
      <g transform="translate(31.5125 141.466903)scale(0.1 -0.1)">
       <defs>
        <path id="DejaVuSans-34" d="M 2419 4116 
L 825 1625 
L 2419 1625 
L 2419 4116 
z
M 2253 4666 
L 3047 4666 
L 3047 1625 
L 3713 1625 
L 3713 1100 
L 3047 1100 
L 3047 0 
L 2419 0 
L 2419 1100 
L 313 1100 
L 313 1709 
L 2253 4666 
z
" transform="scale(0.015625)"/>
       </defs>
       <use xlink:href="#DejaVuSans-34"/>
       <use xlink:href="#DejaVuSans-30" x="63.623047"/>
       <use xlink:href="#DejaVuSans-30" x="127.246094"/>
      </g>
     </g>
    </g>
    <g id="ytick_5">
     <g id="line2d_12">
      <g>
       <use xlink:href="#m1019d5d4ef" x="57.6" y="89.07487" style="stroke: #000000; stroke-width: 0.8"/>
      </g>
     </g>
     <g id="text_13">
      <!-- 600 -->
      <g transform="translate(31.5125 92.874088)scale(0.1 -0.1)">
       <defs>
        <path id="DejaVuSans-36" d="M 2113 2584 
Q 1688 2584 1439 2293 
Q 1191 2003 1191 1497 
Q 1191 994 1439 701 
Q 1688 409 2113 409 
Q 2538 409 2786 701 
Q 3034 994 3034 1497 
Q 3034 2003 2786 2293 
Q 2538 2584 2113 2584 
z
M 3366 4563 
L 3366 3988 
Q 3128 4100 2886 4159 
Q 2644 4219 2406 4219 
Q 1781 4219 1451 3797 
Q 1122 3375 1075 2522 
Q 1259 2794 1537 2939 
Q 1816 3084 2150 3084 
Q 2853 3084 3261 2657 
Q 3669 2231 3669 1497 
Q 3669 778 3244 343 
Q 2819 -91 2113 -91 
Q 1303 -91 875 529 
Q 447 1150 447 2328 
Q 447 3434 972 4092 
Q 1497 4750 2381 4750 
Q 2619 4750 2861 4703 
Q 3103 4656 3366 4563 
z
" transform="scale(0.015625)"/>
       </defs>
       <use xlink:href="#DejaVuSans-36"/>
       <use xlink:href="#DejaVuSans-30" x="63.623047"/>
       <use xlink:href="#DejaVuSans-30" x="127.246094"/>
      </g>
     </g>
    </g>
    <g id="text_14">
     <!-- Fz (fN) -->
     <g transform="translate(17.053125 191.019406)rotate(-90)scale(0.1 -0.1)">
      <defs>
       <path id="DejaVuSans-46" d="M 628 4666 
L 3309 4666 
L 3309 4134 
L 1259 4134 
L 1259 2759 
L 3109 2759 
L 3109 2228 
L 1259 2228 
L 1259 0 
L 628 0 
L 628 4666 
z
" transform="scale(0.015625)"/>
       <path id="DejaVuSans-66" d="M 2375 4863 
L 2375 4384 
L 1825 4384 
Q 1516 4384 1395 4259 
Q 1275 4134 1275 3809 
L 1275 3500 
L 2222 3500 
L 2222 3053 
L 1275 3053 
L 1275 0 
L 697 0 
L 697 3053 
L 147 3053 
L 147 3500 
L 697 3500 
L 697 3744 
Q 697 4328 969 4595 
Q 1241 4863 1831 4863 
L 2375 4863 
z
" transform="scale(0.015625)"/>
       <path id="DejaVuSans-4e" d="M 628 4666 
L 1478 4666 
L 3547 763 
L 3547 4666 
L 4159 4666 
L 4159 0 
L 3309 0 
L 1241 3903 
L 1241 0 
L 628 0 
L 628 4666 
z
" transform="scale(0.015625)"/>
      </defs>
      <use xlink:href="#DejaVuSans-46"/>
      <use xlink:href="#DejaVuSans-7a" x="57.519531"/>
      <use xlink:href="#DejaVuSans-20" x="110.009766"/>
      <use xlink:href="#DejaVuSans-28" x="141.796875"/>
      <use xlink:href="#DejaVuSans-66" x="180.810547"/>
      <use xlink:href="#DejaVuSans-4e" x="216.015625"/>
      <use xlink:href="#DejaVuSans-29" x="290.820312"/>
     </g>
    </g>
   </g>
   <g id="line2d_13">
    <path d="M 73.832727 194.584005 
L 77.079273 192.755458 
L 80.325818 190.887531 
L 83.572364 189.00011 
L 86.818909 187.111699 
L 90.065455 185.23794 
L 93.312 183.390141 
L 96.558545 181.573913 
L 99.805091 179.787983 
L 103.051636 178.02327 
L 106.298182 176.262302 
L 109.544727 174.479032 
L 112.791273 172.639105 
L 116.037818 170.70059 
L 119.284364 168.615213 
L 122.530909 166.330049 
L 125.777455 163.789646 
L 129.024 160.93852 
L 132.270545 157.723935 
L 135.517091 154.098865 
L 138.763636 150.025026 
L 142.010182 145.475834 
L 145.256727 140.439176 
L 148.503273 134.919841 
L 151.749818 128.941493 
L 154.996364 122.548068 
L 158.242909 115.804495 
L 161.489455 108.796667 
L 164.736 101.630615 
L 167.982545 94.430868 
L 171.229091 87.338012 
L 174.475636 80.505501 
L 177.722182 74.095794 
L 180.968727 68.275944 
L 184.215273 63.212756 
L 187.461818 59.067693 
L 190.708364 55.991703 
L 193.954909 54.120144 
L 197.201455 53.568 
L 200.448 54.425575 
L 203.694545 56.75483 
L 206.941091 60.586506 
L 210.187636 65.918165 
L 213.434182 72.713241 
L 216.680727 80.90114 
L 219.927273 90.378424 
L 223.173818 101.011041 
L 226.420364 112.637547 
L 229.666909 125.073214 
L 232.913455 138.114884 
L 236.16 151.546427 
L 239.406545 165.144593 
L 242.653091 178.685071 
L 245.899636 191.948552 
L 249.146182 204.726574 
L 252.392727 216.826973 
L 255.639273 228.078732 
L 258.885818 238.336102 
L 262.132364 247.481832 
L 265.378909 255.429449 
L 268.625455 262.124498 
L 271.872 267.544753 
L 275.118545 271.69939 
L 278.365091 274.627216 
L 281.611636 276.394004 
L 284.858182 277.089099 
L 288.104727 276.821405 
L 291.351273 275.714947 
L 294.597818 273.904162 
L 297.844364 271.529113 
L 301.090909 268.730789 
L 304.337455 265.646674 
L 307.584 262.406709 
L 310.830545 259.129798 
L 314.077091 255.92094 
L 317.323636 252.869062 
L 320.570182 250.045603 
L 323.816727 247.503832 
L 327.063273 245.278907 
L 330.309818 243.3886 
L 333.556364 241.834628 
L 336.802909 240.604482 
L 340.049455 239.673659 
L 343.296 239.008161 
L 346.542545 238.567141 
L 349.789091 238.305587 
L 353.035636 238.176906 
L 356.282182 238.135317 
L 359.528727 238.137966 
L 362.775273 238.146687 
L 366.021818 238.12936 
L 369.268364 238.060842 
L 372.514909 237.92346 
L 375.761455 237.707092 
L 379.008 237.408846 
L 382.254545 237.032409 
L 385.501091 236.587122 
L 388.747636 236.086836 
L 391.994182 235.548645 
L 395.240727 234.991557 
L 398.487273 234.435186 
" clip-path="url(#pbd93faf226)" style="fill: none; stroke: #1f77b4; stroke-width: 1.5; stroke-linecap: square"/>
   </g>
   <g id="line2d_14">
    <path d="M 237.429422 174.218626 
L 237.83524 175.43132 
L 238.241058 176.644014 
L 238.646876 177.856707 
L 239.052695 179.069401 
L 239.458513 180.282095 
L 239.864331 181.494789 
L 240.270149 182.707482 
L 240.675967 183.920176 
L 241.081786 185.13287 
L 241.487604 186.345564 
L 241.893422 187.558257 
L 242.29924 188.770951 
L 242.705058 189.983645 
L 243.110876 191.196338 
L 243.516695 192.409032 
L 243.922513 193.621726 
L 244.328331 194.83442 
L 244.734149 196.047113 
L 245.139967 197.259807 
L 245.545786 198.472501 
L 245.951604 199.685195 
L 246.357422 200.897888 
L 246.76324 202.110582 
L 247.169058 203.323276 
L 247.574876 204.53597 
L 247.980695 205.748663 
L 248.386513 206.961357 
L 248.792331 208.174051 
L 249.198149 209.386745 
L 249.603967 210.599438 
L 250.009786 211.812132 
L 250.415604 213.024826 
L 250.821422 214.23752 
L 251.22724 215.450213 
L 251.633058 216.662907 
L 252.038876 217.875601 
L 252.444695 219.088294 
L 252.850513 220.300988 
L 253.256331 221.513682 
L 253.662149 222.726376 
L 254.067967 223.939069 
L 254.473786 225.151763 
L 254.879604 226.364457 
L 255.285422 227.577151 
L 255.69124 228.789844 
L 256.097058 230.002538 
L 256.502876 231.215232 
L 256.908695 232.427926 
L 257.314513 233.640619 
L 257.720331 234.853313 
L 258.126149 236.066007 
L 258.531967 237.278701 
L 258.937786 238.491394 
L 259.343604 239.704088 
L 259.749422 240.916782 
L 260.15524 242.129476 
L 260.561058 243.342169 
L 260.966876 244.554863 
L 261.372695 245.767557 
L 261.778513 246.98025 
L 262.184331 248.192944 
L 262.590149 249.405638 
L 262.995967 250.618332 
L 263.401786 251.831025 
L 263.807604 253.043719 
L 264.213422 254.256413 
L 264.61924 255.469107 
L 265.025058 256.6818 
L 265.430876 257.894494 
L 265.836695 259.107188 
L 266.242513 260.319882 
L 266.648331 261.532575 
L 267.054149 262.745269 
L 267.459967 263.957963 
L 267.865786 265.170657 
L 268.271604 266.38335 
L 268.677422 267.596044 
L 269.08324 268.808738 
L 269.489058 270.021431 
L 269.894876 271.234125 
L 270.300695 272.446819 
L 270.706513 273.659513 
L 271.112331 274.872206 
L 271.518149 276.0849 
L 271.923967 277.297594 
L 272.329786 278.510288 
L 272.735604 279.722981 
L 273.141422 280.935675 
L 273.54724 282.148369 
L 273.953058 283.361063 
L 274.358876 284.573756 
L 274.764695 285.78645 
L 275.170513 286.999144 
L 275.576331 288.211838 
L 275.982149 289.424531 
L 276.387967 290.637225 
L 276.793786 291.849919 
L 277.199604 293.062613 
L 277.605422 294.275306 
L 278.01124 295.488 
" clip-path="url(#pbd93faf226)" style="fill: none; stroke-dasharray: 5.55,2.4; stroke-dashoffset: 0; stroke: #ff7f0e; stroke-width: 1.5"/>
   </g>
   <g id="line2d_15">
    <path d="M 73.832727 234.853313 
L 77.079273 234.853313 
L 80.325818 234.853313 
L 83.572364 234.853313 
L 86.818909 234.853313 
L 90.065455 234.853313 
L 93.312 234.853313 
L 96.558545 234.853313 
L 99.805091 234.853313 
L 103.051636 234.853313 
L 106.298182 234.853313 
L 109.544727 234.853313 
L 112.791273 234.853313 
L 116.037818 234.853313 
L 119.284364 234.853313 
L 122.530909 234.853313 
L 125.777455 234.853313 
L 129.024 234.853313 
L 132.270545 234.853313 
L 135.517091 234.853313 
L 138.763636 234.853313 
L 142.010182 234.853313 
L 145.256727 234.853313 
L 148.503273 234.853313 
L 151.749818 234.853313 
L 154.996364 234.853313 
L 158.242909 234.853313 
L 161.489455 234.853313 
L 164.736 234.853313 
L 167.982545 234.853313 
L 171.229091 234.853313 
L 174.475636 234.853313 
L 177.722182 234.853313 
L 180.968727 234.853313 
L 184.215273 234.853313 
L 187.461818 234.853313 
L 190.708364 234.853313 
L 193.954909 234.853313 
L 197.201455 234.853313 
L 200.448 234.853313 
L 203.694545 234.853313 
L 206.941091 234.853313 
L 210.187636 234.853313 
L 213.434182 234.853313 
L 216.680727 234.853313 
L 219.927273 234.853313 
L 223.173818 234.853313 
L 226.420364 234.853313 
L 229.666909 234.853313 
L 232.913455 234.853313 
L 236.16 234.853313 
L 239.406545 234.853313 
L 242.653091 234.853313 
L 245.899636 234.853313 
L 249.146182 234.853313 
L 252.392727 234.853313 
L 255.639273 234.853313 
L 258.885818 234.853313 
L 262.132364 234.853313 
L 265.378909 234.853313 
L 268.625455 234.853313 
L 271.872 234.853313 
L 275.118545 234.853313 
L 278.365091 234.853313 
L 281.611636 234.853313 
L 284.858182 234.853313 
L 288.104727 234.853313 
L 291.351273 234.853313 
L 294.597818 234.853313 
L 297.844364 234.853313 
L 301.090909 234.853313 
L 304.337455 234.853313 
L 307.584 234.853313 
L 310.830545 234.853313 
L 314.077091 234.853313 
L 317.323636 234.853313 
L 320.570182 234.853313 
L 323.816727 234.853313 
L 327.063273 234.853313 
L 330.309818 234.853313 
L 333.556364 234.853313 
L 336.802909 234.853313 
L 340.049455 234.853313 
L 343.296 234.853313 
L 346.542545 234.853313 
L 349.789091 234.853313 
L 353.035636 234.853313 
L 356.282182 234.853313 
L 359.528727 234.853313 
L 362.775273 234.853313 
L 366.021818 234.853313 
L 369.268364 234.853313 
L 372.514909 234.853313 
L 375.761455 234.853313 
L 379.008 234.853313 
L 382.254545 234.853313 
L 385.501091 234.853313 
L 388.747636 234.853313 
L 391.994182 234.853313 
L 395.240727 234.853313 
L 398.487273 234.853313 
" clip-path="url(#pbd93faf226)" style="fill: none; stroke-dasharray: 5.55,2.4; stroke-dashoffset: 0; stroke: #000000; stroke-width: 1.5"/>
   </g>
   <g id="patch_3">
    <path d="M 57.6 307.584 
L 57.6 41.472 
" style="fill: none; stroke: #000000; stroke-width: 0.8; stroke-linejoin: miter; stroke-linecap: square"/>
   </g>
   <g id="patch_4">
    <path d="M 414.72 307.584 
L 414.72 41.472 
" style="fill: none; stroke: #000000; stroke-width: 0.8; stroke-linejoin: miter; stroke-linecap: square"/>
   </g>
   <g id="patch_5">
    <path d="M 57.6 307.584 
L 414.72 307.584 
" style="fill: none; stroke: #000000; stroke-width: 0.8; stroke-linejoin: miter; stroke-linecap: square"/>
   </g>
   <g id="patch_6">
    <path d="M 57.6 41.472 
L 414.72 41.472 
" style="fill: none; stroke: #000000; stroke-width: 0.8; stroke-linejoin: miter; stroke-linecap: square"/>
   </g>
   <g id="text_15">
    <!-- $z-axis, \lambda_0 = 1000 nm, \lambda = \lambda_0/1.33, w0 = \lambda/ 2, I_0 = 25 GW/m^2$ -->
    <g transform="translate(63.48 35.472)scale(0.12 -0.12)">
     <defs>
      <path id="DejaVuSans-Oblique-7a" d="M 744 3500 
L 3475 3500 
L 3372 2975 
L 738 459 
L 2913 459 
L 2822 0 
L -19 0 
L 84 525 
L 2719 3041 
L 653 3041 
L 744 3500 
z
" transform="scale(0.015625)"/>
      <path id="DejaVuSans-Oblique-61" d="M 3438 1997 
L 3047 0 
L 2472 0 
L 2578 531 
Q 2325 219 2001 64 
Q 1678 -91 1281 -91 
Q 834 -91 548 182 
Q 263 456 263 884 
Q 263 1497 752 1853 
Q 1241 2209 2100 2209 
L 2900 2209 
L 2931 2363 
Q 2938 2388 2941 2417 
Q 2944 2447 2944 2509 
Q 2944 2788 2717 2942 
Q 2491 3097 2081 3097 
Q 1800 3097 1504 3025 
Q 1209 2953 897 2809 
L 997 3341 
Q 1322 3463 1633 3523 
Q 1944 3584 2234 3584 
Q 2853 3584 3176 3315 
Q 3500 3047 3500 2534 
Q 3500 2431 3484 2292 
Q 3469 2153 3438 1997 
z
M 2816 1759 
L 2241 1759 
Q 1534 1759 1195 1570 
Q 856 1381 856 984 
Q 856 709 1029 553 
Q 1203 397 1509 397 
Q 1978 397 2328 733 
Q 2678 1069 2791 1631 
L 2816 1759 
z
" transform="scale(0.015625)"/>
      <path id="DejaVuSans-Oblique-78" d="M 3841 3500 
L 2234 1784 
L 3219 0 
L 2559 0 
L 1819 1388 
L 531 0 
L -166 0 
L 1556 1844 
L 641 3500 
L 1300 3500 
L 1972 2234 
L 3144 3500 
L 3841 3500 
z
" transform="scale(0.015625)"/>
      <path id="DejaVuSans-Oblique-69" d="M 1172 4863 
L 1747 4863 
L 1606 4134 
L 1031 4134 
L 1172 4863 
z
M 909 3500 
L 1484 3500 
L 800 0 
L 225 0 
L 909 3500 
z
" transform="scale(0.015625)"/>
      <path id="DejaVuSans-Oblique-73" d="M 3200 3397 
L 3091 2853 
Q 2863 2978 2609 3040 
Q 2356 3103 2088 3103 
Q 1634 3103 1373 2948 
Q 1113 2794 1113 2528 
Q 1113 2219 1719 2053 
Q 1766 2041 1788 2034 
L 1972 1978 
Q 2547 1819 2739 1644 
Q 2931 1469 2931 1166 
Q 2931 609 2489 259 
Q 2047 -91 1331 -91 
Q 1053 -91 747 -37 
Q 441 16 72 128 
L 184 722 
Q 500 559 806 475 
Q 1113 391 1394 391 
Q 1816 391 2080 572 
Q 2344 753 2344 1031 
Q 2344 1331 1650 1516 
L 1591 1531 
L 1394 1581 
Q 956 1697 753 1886 
Q 550 2075 550 2369 
Q 550 2928 970 3256 
Q 1391 3584 2113 3584 
Q 2397 3584 2667 3537 
Q 2938 3491 3200 3397 
z
" transform="scale(0.015625)"/>
      <path id="DejaVuSans-2c" d="M 750 794 
L 1409 794 
L 1409 256 
L 897 -744 
L 494 -744 
L 750 256 
L 750 794 
z
" transform="scale(0.015625)"/>
      <path id="DejaVuSans-Oblique-3bb" d="M 2350 4316 
L 3125 0 
L 2516 0 
L 2038 2588 
L 328 0 
L -281 0 
L 1903 3356 
L 1794 3975 
Q 1725 4369 1391 4369 
L 1091 4369 
L 1184 4863 
L 1550 4856 
Q 2253 4847 2350 4316 
z
" transform="scale(0.015625)"/>
      <path id="DejaVuSans-3d" d="M 678 2906 
L 4684 2906 
L 4684 2381 
L 678 2381 
L 678 2906 
z
M 678 1631 
L 4684 1631 
L 4684 1100 
L 678 1100 
L 678 1631 
z
" transform="scale(0.015625)"/>
      <path id="DejaVuSans-Oblique-6e" d="M 3566 2113 
L 3156 0 
L 2578 0 
L 2988 2091 
Q 3016 2238 3031 2350 
Q 3047 2463 3047 2528 
Q 3047 2791 2881 2937 
Q 2716 3084 2419 3084 
Q 1956 3084 1622 2776 
Q 1288 2469 1184 1941 
L 800 0 
L 225 0 
L 903 3500 
L 1478 3500 
L 1363 2950 
Q 1603 3253 1940 3418 
Q 2278 3584 2650 3584 
Q 3113 3584 3367 3334 
Q 3622 3084 3622 2631 
Q 3622 2519 3608 2391 
Q 3594 2263 3566 2113 
z
" transform="scale(0.015625)"/>
      <path id="DejaVuSans-Oblique-6d" d="M 5747 2113 
L 5338 0 
L 4763 0 
L 5166 2094 
Q 5191 2228 5203 2325 
Q 5216 2422 5216 2491 
Q 5216 2772 5059 2928 
Q 4903 3084 4622 3084 
Q 4203 3084 3875 2770 
Q 3547 2456 3450 1953 
L 3066 0 
L 2491 0 
L 2900 2094 
Q 2925 2209 2937 2307 
Q 2950 2406 2950 2484 
Q 2950 2769 2794 2926 
Q 2638 3084 2363 3084 
Q 1938 3084 1609 2770 
Q 1281 2456 1184 1953 
L 800 0 
L 225 0 
L 909 3500 
L 1484 3500 
L 1375 2956 
Q 1609 3263 1923 3423 
Q 2238 3584 2597 3584 
Q 2978 3584 3223 3384 
Q 3469 3184 3519 2828 
Q 3781 3197 4126 3390 
Q 4472 3584 4856 3584 
Q 5306 3584 5551 3325 
Q 5797 3066 5797 2591 
Q 5797 2488 5784 2364 
Q 5772 2241 5747 2113 
z
" transform="scale(0.015625)"/>
      <path id="DejaVuSans-2f" d="M 1625 4666 
L 2156 4666 
L 531 -594 
L 0 -594 
L 1625 4666 
z
" transform="scale(0.015625)"/>
      <path id="DejaVuSans-2e" d="M 684 794 
L 1344 794 
L 1344 0 
L 684 0 
L 684 794 
z
" transform="scale(0.015625)"/>
      <path id="DejaVuSans-33" d="M 2597 2516 
Q 3050 2419 3304 2112 
Q 3559 1806 3559 1356 
Q 3559 666 3084 287 
Q 2609 -91 1734 -91 
Q 1441 -91 1130 -33 
Q 819 25 488 141 
L 488 750 
Q 750 597 1062 519 
Q 1375 441 1716 441 
Q 2309 441 2620 675 
Q 2931 909 2931 1356 
Q 2931 1769 2642 2001 
Q 2353 2234 1838 2234 
L 1294 2234 
L 1294 2753 
L 1863 2753 
Q 2328 2753 2575 2939 
Q 2822 3125 2822 3475 
Q 2822 3834 2567 4026 
Q 2313 4219 1838 4219 
Q 1578 4219 1281 4162 
Q 984 4106 628 3988 
L 628 4550 
Q 988 4650 1302 4700 
Q 1616 4750 1894 4750 
Q 2613 4750 3031 4423 
Q 3450 4097 3450 3541 
Q 3450 3153 3228 2886 
Q 3006 2619 2597 2516 
z
" transform="scale(0.015625)"/>
      <path id="DejaVuSans-Oblique-77" d="M 544 3500 
L 1113 3500 
L 1259 684 
L 2566 3500 
L 3231 3500 
L 3425 684 
L 4666 3500 
L 5241 3500 
L 3641 0 
L 2969 0 
L 2797 2900 
L 1459 0 
L 781 0 
L 544 3500 
z
" transform="scale(0.015625)"/>
      <path id="DejaVuSans-Oblique-49" d="M 1081 4666 
L 1716 4666 
L 806 0 
L 172 0 
L 1081 4666 
z
" transform="scale(0.015625)"/>
      <path id="DejaVuSans-Oblique-47" d="M 3494 697 
L 3738 1919 
L 2700 1919 
L 2797 2438 
L 4453 2438 
L 4050 384 
Q 3634 156 3143 32 
Q 2653 -91 2156 -91 
Q 1278 -91 783 396 
Q 288 884 288 1753 
Q 288 2475 589 3126 
Q 891 3778 1422 4213 
Q 1756 4484 2153 4617 
Q 2550 4750 3034 4750 
Q 3472 4750 3873 4639 
Q 4275 4528 4641 4306 
L 4513 3634 
Q 4231 3928 3853 4083 
Q 3475 4238 3047 4238 
Q 2550 4238 2172 4048 
Q 1794 3859 1497 3463 
Q 1244 3125 1098 2667 
Q 953 2209 953 1734 
Q 953 1081 1287 751 
Q 1622 422 2284 422 
Q 2616 422 2925 492 
Q 3234 563 3494 697 
z
" transform="scale(0.015625)"/>
      <path id="DejaVuSans-Oblique-57" d="M 616 4666 
L 1228 4666 
L 1453 697 
L 3213 4666 
L 3916 4666 
L 4147 697 
L 5888 4666 
L 6528 4666 
L 4453 0 
L 3659 0 
L 3444 3891 
L 1697 0 
L 903 0 
L 616 4666 
z
" transform="scale(0.015625)"/>
     </defs>
     <use xlink:href="#DejaVuSans-Oblique-7a" transform="translate(0 0.765625)"/>
     <use xlink:href="#DejaVuSans-2212" transform="translate(71.972656 0.765625)"/>
     <use xlink:href="#DejaVuSans-Oblique-61" transform="translate(175.244141 0.765625)"/>
     <use xlink:href="#DejaVuSans-Oblique-78" transform="translate(236.523438 0.765625)"/>
     <use xlink:href="#DejaVuSans-Oblique-69" transform="translate(295.703125 0.765625)"/>
     <use xlink:href="#DejaVuSans-Oblique-73" transform="translate(323.486328 0.765625)"/>
     <use xlink:href="#DejaVuSans-2c" transform="translate(375.585938 0.765625)"/>
     <use xlink:href="#DejaVuSans-Oblique-3bb" transform="translate(426.855469 0.765625)"/>
     <use xlink:href="#DejaVuSans-30" transform="translate(486.035156 -15.640625)scale(0.7)"/>
     <use xlink:href="#DejaVuSans-3d" transform="translate(552.788086 0.765625)"/>
     <use xlink:href="#DejaVuSans-31" transform="translate(656.05957 0.765625)"/>
     <use xlink:href="#DejaVuSans-30" transform="translate(719.682617 0.765625)"/>
     <use xlink:href="#DejaVuSans-30" transform="translate(783.305664 0.765625)"/>
     <use xlink:href="#DejaVuSans-30" transform="translate(846.928711 0.765625)"/>
     <use xlink:href="#DejaVuSans-Oblique-6e" transform="translate(910.551758 0.765625)"/>
     <use xlink:href="#DejaVuSans-Oblique-6d" transform="translate(973.930664 0.765625)"/>
     <use xlink:href="#DejaVuSans-2c" transform="translate(1071.342773 0.765625)"/>
     <use xlink:href="#DejaVuSans-Oblique-3bb" transform="translate(1122.612305 0.765625)"/>
     <use xlink:href="#DejaVuSans-3d" transform="translate(1201.274414 0.765625)"/>
     <use xlink:href="#DejaVuSans-Oblique-3bb" transform="translate(1304.545898 0.765625)"/>
     <use xlink:href="#DejaVuSans-30" transform="translate(1363.725586 -15.640625)scale(0.7)"/>
     <use xlink:href="#DejaVuSans-2f" transform="translate(1410.996094 0.765625)"/>
     <use xlink:href="#DejaVuSans-31" transform="translate(1444.6875 0.765625)"/>
     <use xlink:href="#DejaVuSans-2e" transform="translate(1508.310547 0.765625)"/>
     <use xlink:href="#DejaVuSans-33" transform="translate(1540.097656 0.765625)"/>
     <use xlink:href="#DejaVuSans-33" transform="translate(1603.720703 0.765625)"/>
     <use xlink:href="#DejaVuSans-2c" transform="translate(1667.34375 0.765625)"/>
     <use xlink:href="#DejaVuSans-Oblique-77" transform="translate(1718.613281 0.765625)"/>
     <use xlink:href="#DejaVuSans-30" transform="translate(1800.400391 0.765625)"/>
     <use xlink:href="#DejaVuSans-3d" transform="translate(1883.505859 0.765625)"/>
     <use xlink:href="#DejaVuSans-Oblique-3bb" transform="translate(1986.777344 0.765625)"/>
     <use xlink:href="#DejaVuSans-2f" transform="translate(2045.957031 0.765625)"/>
     <use xlink:href="#DejaVuSans-32" transform="translate(2076.023438 0.765625)"/>
     <use xlink:href="#DejaVuSans-2c" transform="translate(2139.646484 0.765625)"/>
     <use xlink:href="#DejaVuSans-Oblique-49" transform="translate(2190.916016 0.765625)"/>
     <use xlink:href="#DejaVuSans-30" transform="translate(2220.408203 -15.640625)scale(0.7)"/>
     <use xlink:href="#DejaVuSans-3d" transform="translate(2287.161133 0.765625)"/>
     <use xlink:href="#DejaVuSans-32" transform="translate(2390.432617 0.765625)"/>
     <use xlink:href="#DejaVuSans-35" transform="translate(2454.055664 0.765625)"/>
     <use xlink:href="#DejaVuSans-Oblique-47" transform="translate(2517.678711 0.765625)"/>
     <use xlink:href="#DejaVuSans-Oblique-57" transform="translate(2595.168945 0.765625)"/>
     <use xlink:href="#DejaVuSans-2f" transform="translate(2694.045898 0.765625)"/>
     <use xlink:href="#DejaVuSans-Oblique-6d" transform="translate(2727.737305 0.765625)"/>
     <use xlink:href="#DejaVuSans-32" transform="translate(2829.79931 39.046875)scale(0.7)"/>
    </g>
   </g>
   <g id="legend_1">
    <g id="patch_7">
     <path d="M 294.052813 64.150125 
L 407.72 64.150125 
Q 409.72 64.150125 409.72 62.150125 
L 409.72 48.472 
Q 409.72 46.472 407.72 46.472 
L 294.052813 46.472 
Q 292.052813 46.472 292.052813 48.472 
L 292.052813 62.150125 
Q 292.052813 64.150125 294.052813 64.150125 
z
" style="fill: #ffffff; opacity: 0.8; stroke: #cccccc; stroke-linejoin: miter"/>
    </g>
    <g id="line2d_16">
     <path d="M 296.052813 54.570438 
L 306.052813 54.570438 
L 316.052813 54.570438 
" style="fill: none; stroke-dasharray: 5.55,2.4; stroke-dashoffset: 0; stroke: #ff7f0e; stroke-width: 1.5"/>
    </g>
    <g id="text_16">
     <!-- kz = 1.33 fN/nm -->
     <g transform="translate(324.052813 58.070438)scale(0.1 -0.1)">
      <defs>
       <path id="DejaVuSans-6b" d="M 581 4863 
L 1159 4863 
L 1159 1991 
L 2875 3500 
L 3609 3500 
L 1753 1863 
L 3688 0 
L 2938 0 
L 1159 1709 
L 1159 0 
L 581 0 
L 581 4863 
z
" transform="scale(0.015625)"/>
      </defs>
      <use xlink:href="#DejaVuSans-6b"/>
      <use xlink:href="#DejaVuSans-7a" x="57.910156"/>
      <use xlink:href="#DejaVuSans-20" x="110.400391"/>
      <use xlink:href="#DejaVuSans-3d" x="142.1875"/>
      <use xlink:href="#DejaVuSans-20" x="225.976562"/>
      <use xlink:href="#DejaVuSans-31" x="257.763672"/>
      <use xlink:href="#DejaVuSans-2e" x="321.386719"/>
      <use xlink:href="#DejaVuSans-33" x="353.173828"/>
      <use xlink:href="#DejaVuSans-33" x="416.796875"/>
      <use xlink:href="#DejaVuSans-20" x="480.419922"/>
      <use xlink:href="#DejaVuSans-66" x="512.207031"/>
      <use xlink:href="#DejaVuSans-4e" x="547.412109"/>
      <use xlink:href="#DejaVuSans-2f" x="622.216797"/>
      <use xlink:href="#DejaVuSans-6e" x="655.908203"/>
      <use xlink:href="#DejaVuSans-6d" x="719.287109"/>
     </g>
    </g>
   </g>
  </g>
 </g>
 <defs>
  <clipPath id="pbd93faf226">
   <rect x="57.6" y="41.472" width="357.12" height="266.112"/>
  </clipPath>
 </defs>
</svg>
