<?xml version="1.0" encoding="utf-8" standalone="no"?>
<!DOCTYPE svg PUBLIC "-//W3C//DTD SVG 1.1//EN"
  "http://www.w3.org/Graphics/SVG/1.1/DTD/svg11.dtd">
<svg xmlns:xlink="http://www.w3.org/1999/xlink" width="460.8pt" height="345.6pt" viewBox="0 0 460.8 345.6" xmlns="http://www.w3.org/2000/svg" version="1.1">
 <metadata>
  <rdf:RDF xmlns:dc="http://purl.org/dc/elements/1.1/" xmlns:cc="http://creativecommons.org/ns#" xmlns:rdf="http://www.w3.org/1999/02/22-rdf-syntax-ns#">
   <cc:Work>
    <dc:type rdf:resource="http://purl.org/dc/dcmitype/StillImage"/>
    <dc:date>2023-07-04T14:16:49.334223</dc:date>
    <dc:format>image/svg+xml</dc:format>
    <dc:creator>
     <cc:Agent>
      <dc:title>Matplotlib v3.5.2, https://matplotlib.org/</dc:title>
     </cc:Agent>
    </dc:creator>
   </cc:Work>
  </rdf:RDF>
 </metadata>
 <defs>
  <style type="text/css">*{stroke-linejoin: round; stroke-linecap: butt}</style>
 </defs>
 <g id="figure_1">
  <g id="patch_1">
   <path d="M 0 345.6 
L 460.8 345.6 
L 460.8 0 
L 0 0 
z
" style="fill: #ffffff"/>
  </g>
  <g id="axes_1">
   <g id="patch_2">
    <path d="M 365.32 180.84 
C 365.32 163.122468 361.830033 145.577217 355.049827 129.208351 
C 348.269621 112.839486 338.331034 97.96534 325.802847 85.437153 
C 313.27466 72.908966 298.400514 62.970379 282.031649 56.190173 
C 265.662783 49.409967 248.117532 45.92 230.4 45.92 
C 212.682468 45.92 195.137217 49.409967 178.768351 56.190173 
C 162.399486 62.970379 147.52534 72.908966 134.997153 85.437153 
C 122.468966 97.96534 112.530379 112.839486 105.750173 129.208351 
C 98.969967 145.577217 95.48 163.122468 95.48 180.84 
C 95.48 198.557532 98.969967 216.102783 105.750173 232.471649 
C 112.530379 248.840514 122.468966 263.71466 134.997153 276.242847 
C 147.52534 288.771034 162.399486 298.709621 178.768351 305.489827 
C 195.137217 312.270033 212.682468 315.76 230.4 315.76 
C 248.117532 315.76 265.662783 312.270033 282.031649 305.489827 
C 298.400514 298.709621 313.27466 288.771034 325.802847 276.242847 
C 338.331034 263.71466 348.269621 248.840514 355.049827 232.471649 
C 361.830033 216.102783 365.32 198.557532 365.32 180.84 
M 230.4 180.84 
C 230.4 180.84 230.4 180.84 230.4 180.84 
C 230.4 180.84 230.4 180.84 230.4 180.84 
C 230.4 180.84 230.4 180.84 230.4 180.84 
C 230.4 180.84 230.4 180.84 230.4 180.84 
C 230.4 180.84 230.4 180.84 230.4 180.84 
C 230.4 180.84 230.4 180.84 230.4 180.84 
C 230.4 180.84 230.4 180.84 230.4 180.84 
C 230.4 180.84 230.4 180.84 230.4 180.84 
C 230.4 180.84 230.4 180.84 230.4 180.84 
C 230.4 180.84 230.4 180.84 230.4 180.84 
C 230.4 180.84 230.4 180.84 230.4 180.84 
C 230.4 180.84 230.4 180.84 230.4 180.84 
C 230.4 180.84 230.4 180.84 230.4 180.84 
C 230.4 180.84 230.4 180.84 230.4 180.84 
C 230.4 180.84 230.4 180.84 230.4 180.84 
C 230.4 180.84 230.4 180.84 230.4 180.84 
M 365.32 180.84 
z
" style="fill: #ffffff"/>
   </g>
   <g id="matplotlib.axis_1">
    <g id="xtick_1">
     <g id="line2d_1">
      <path d="M 230.4 180.84 
L 365.32 180.84 
" clip-path="url(#paedcaf84a5)" style="fill: none; stroke: #b0b0b0; stroke-width: 0.8; stroke-linecap: square"/>
     </g>
     <g id="text_1">
      <!-- 0° -->
      <g transform="translate(373.63875 183.599375)scale(0.1 -0.1)">
       <defs>
        <path id="DejaVuSans-30" d="M 2034 4250 
Q 1547 4250 1301 3770 
Q 1056 3291 1056 2328 
Q 1056 1369 1301 889 
Q 1547 409 2034 409 
Q 2525 409 2770 889 
Q 3016 1369 3016 2328 
Q 3016 3291 2770 3770 
Q 2525 4250 2034 4250 
z
M 2034 4750 
Q 2819 4750 3233 4129 
Q 3647 3509 3647 2328 
Q 3647 1150 3233 529 
Q 2819 -91 2034 -91 
Q 1250 -91 836 529 
Q 422 1150 422 2328 
Q 422 3509 836 4129 
Q 1250 4750 2034 4750 
z
" transform="scale(0.015625)"/>
        <path id="DejaVuSans-b0" d="M 1600 4347 
Q 1350 4347 1178 4173 
Q 1006 4000 1006 3750 
Q 1006 3503 1178 3333 
Q 1350 3163 1600 3163 
Q 1850 3163 2022 3333 
Q 2194 3503 2194 3750 
Q 2194 3997 2020 4172 
Q 1847 4347 1600 4347 
z
M 1600 4750 
Q 1800 4750 1984 4673 
Q 2169 4597 2303 4453 
Q 2447 4313 2519 4134 
Q 2591 3956 2591 3750 
Q 2591 3338 2302 3052 
Q 2013 2766 1594 2766 
Q 1172 2766 890 3047 
Q 609 3328 609 3750 
Q 609 4169 896 4459 
Q 1184 4750 1600 4750 
z
" transform="scale(0.015625)"/>
       </defs>
       <use xlink:href="#DejaVuSans-30"/>
       <use xlink:href="#DejaVuSans-b0" x="63.623047"/>
      </g>
     </g>
    </g>
    <g id="xtick_2">
     <g id="line2d_2">
      <path d="M 230.4 180.84 
L 325.802847 85.437153 
" clip-path="url(#paedcaf84a5)" style="fill: none; stroke: #b0b0b0; stroke-width: 0.8; stroke-linecap: square"/>
     </g>
     <g id="text_2">
      <!-- 45° -->
      <g transform="translate(326.839842 78.297033)scale(0.1 -0.1)">
       <defs>
        <path id="DejaVuSans-34" d="M 2419 4116 
L 825 1625 
L 2419 1625 
L 2419 4116 
z
M 2253 4666 
L 3047 4666 
L 3047 1625 
L 3713 1625 
L 3713 1100 
L 3047 1100 
L 3047 0 
L 2419 0 
L 2419 1100 
L 313 1100 
L 313 1709 
L 2253 4666 
z
" transform="scale(0.015625)"/>
        <path id="DejaVuSans-35" d="M 691 4666 
L 3169 4666 
L 3169 4134 
L 1269 4134 
L 1269 2991 
Q 1406 3038 1543 3061 
Q 1681 3084 1819 3084 
Q 2600 3084 3056 2656 
Q 3513 2228 3513 1497 
Q 3513 744 3044 326 
Q 2575 -91 1722 -91 
Q 1428 -91 1123 -41 
Q 819 9 494 109 
L 494 744 
Q 775 591 1075 516 
Q 1375 441 1709 441 
Q 2250 441 2565 725 
Q 2881 1009 2881 1497 
Q 2881 1984 2565 2268 
Q 2250 2553 1709 2553 
Q 1456 2553 1204 2497 
Q 953 2441 691 2322 
L 691 4666 
z
" transform="scale(0.015625)"/>
       </defs>
       <use xlink:href="#DejaVuSans-34"/>
       <use xlink:href="#DejaVuSans-35" x="63.623047"/>
       <use xlink:href="#DejaVuSans-b0" x="127.246094"/>
      </g>
     </g>
    </g>
    <g id="xtick_3">
     <g id="line2d_3">
      <path d="M 230.4 180.84 
L 230.4 45.92 
" clip-path="url(#paedcaf84a5)" style="fill: none; stroke: #b0b0b0; stroke-width: 0.8; stroke-linecap: square"/>
     </g>
     <g id="text_3">
      <!-- 90° -->
      <g transform="translate(221.5375 34.679375)scale(0.1 -0.1)">
       <defs>
        <path id="DejaVuSans-39" d="M 703 97 
L 703 672 
Q 941 559 1184 500 
Q 1428 441 1663 441 
Q 2288 441 2617 861 
Q 2947 1281 2994 2138 
Q 2813 1869 2534 1725 
Q 2256 1581 1919 1581 
Q 1219 1581 811 2004 
Q 403 2428 403 3163 
Q 403 3881 828 4315 
Q 1253 4750 1959 4750 
Q 2769 4750 3195 4129 
Q 3622 3509 3622 2328 
Q 3622 1225 3098 567 
Q 2575 -91 1691 -91 
Q 1453 -91 1209 -44 
Q 966 3 703 97 
z
M 1959 2075 
Q 2384 2075 2632 2365 
Q 2881 2656 2881 3163 
Q 2881 3666 2632 3958 
Q 2384 4250 1959 4250 
Q 1534 4250 1286 3958 
Q 1038 3666 1038 3163 
Q 1038 2656 1286 2365 
Q 1534 2075 1959 2075 
z
" transform="scale(0.015625)"/>
       </defs>
       <use xlink:href="#DejaVuSans-39"/>
       <use xlink:href="#DejaVuSans-30" x="63.623047"/>
       <use xlink:href="#DejaVuSans-b0" x="127.246094"/>
      </g>
     </g>
    </g>
    <g id="xtick_4">
     <g id="line2d_4">
      <path d="M 230.4 180.84 
L 134.997153 85.437153 
" clip-path="url(#paedcaf84a5)" style="fill: none; stroke: #b0b0b0; stroke-width: 0.8; stroke-linecap: square"/>
     </g>
     <g id="text_4">
      <!-- 135° -->
      <g transform="translate(113.053908 78.297033)scale(0.1 -0.1)">
       <defs>
        <path id="DejaVuSans-31" d="M 794 531 
L 1825 531 
L 1825 4091 
L 703 3866 
L 703 4441 
L 1819 4666 
L 2450 4666 
L 2450 531 
L 3481 531 
L 3481 0 
L 794 0 
L 794 531 
z
" transform="scale(0.015625)"/>
        <path id="DejaVuSans-33" d="M 2597 2516 
Q 3050 2419 3304 2112 
Q 3559 1806 3559 1356 
Q 3559 666 3084 287 
Q 2609 -91 1734 -91 
Q 1441 -91 1130 -33 
Q 819 25 488 141 
L 488 750 
Q 750 597 1062 519 
Q 1375 441 1716 441 
Q 2309 441 2620 675 
Q 2931 909 2931 1356 
Q 2931 1769 2642 2001 
Q 2353 2234 1838 2234 
L 1294 2234 
L 1294 2753 
L 1863 2753 
Q 2328 2753 2575 2939 
Q 2822 3125 2822 3475 
Q 2822 3834 2567 4026 
Q 2313 4219 1838 4219 
Q 1578 4219 1281 4162 
Q 984 4106 628 3988 
L 628 4550 
Q 988 4650 1302 4700 
Q 1616 4750 1894 4750 
Q 2613 4750 3031 4423 
Q 3450 4097 3450 3541 
Q 3450 3153 3228 2886 
Q 3006 2619 2597 2516 
z
" transform="scale(0.015625)"/>
       </defs>
       <use xlink:href="#DejaVuSans-31"/>
       <use xlink:href="#DejaVuSans-33" x="63.623047"/>
       <use xlink:href="#DejaVuSans-35" x="127.246094"/>
       <use xlink:href="#DejaVuSans-b0" x="190.869141"/>
      </g>
     </g>
    </g>
    <g id="xtick_5">
     <g id="line2d_5">
      <path d="M 230.4 180.84 
L 95.48 180.84 
" clip-path="url(#paedcaf84a5)" style="fill: none; stroke: #b0b0b0; stroke-width: 0.8; stroke-linecap: square"/>
     </g>
     <g id="text_5">
      <!-- 180° -->
      <g transform="translate(69.43625 183.599375)scale(0.1 -0.1)">
       <defs>
        <path id="DejaVuSans-38" d="M 2034 2216 
Q 1584 2216 1326 1975 
Q 1069 1734 1069 1313 
Q 1069 891 1326 650 
Q 1584 409 2034 409 
Q 2484 409 2743 651 
Q 3003 894 3003 1313 
Q 3003 1734 2745 1975 
Q 2488 2216 2034 2216 
z
M 1403 2484 
Q 997 2584 770 2862 
Q 544 3141 544 3541 
Q 544 4100 942 4425 
Q 1341 4750 2034 4750 
Q 2731 4750 3128 4425 
Q 3525 4100 3525 3541 
Q 3525 3141 3298 2862 
Q 3072 2584 2669 2484 
Q 3125 2378 3379 2068 
Q 3634 1759 3634 1313 
Q 3634 634 3220 271 
Q 2806 -91 2034 -91 
Q 1263 -91 848 271 
Q 434 634 434 1313 
Q 434 1759 690 2068 
Q 947 2378 1403 2484 
z
M 1172 3481 
Q 1172 3119 1398 2916 
Q 1625 2713 2034 2713 
Q 2441 2713 2670 2916 
Q 2900 3119 2900 3481 
Q 2900 3844 2670 4047 
Q 2441 4250 2034 4250 
Q 1625 4250 1398 4047 
Q 1172 3844 1172 3481 
z
" transform="scale(0.015625)"/>
       </defs>
       <use xlink:href="#DejaVuSans-31"/>
       <use xlink:href="#DejaVuSans-38" x="63.623047"/>
       <use xlink:href="#DejaVuSans-30" x="127.246094"/>
       <use xlink:href="#DejaVuSans-b0" x="190.869141"/>
      </g>
     </g>
    </g>
    <g id="xtick_6">
     <g id="line2d_6">
      <path d="M 230.4 180.84 
L 134.997153 276.242847 
" clip-path="url(#paedcaf84a5)" style="fill: none; stroke: #b0b0b0; stroke-width: 0.8; stroke-linecap: square"/>
     </g>
     <g id="text_6">
      <!-- 225° -->
      <g transform="translate(113.053908 288.901717)scale(0.1 -0.1)">
       <defs>
        <path id="DejaVuSans-32" d="M 1228 531 
L 3431 531 
L 3431 0 
L 469 0 
L 469 531 
Q 828 903 1448 1529 
Q 2069 2156 2228 2338 
Q 2531 2678 2651 2914 
Q 2772 3150 2772 3378 
Q 2772 3750 2511 3984 
Q 2250 4219 1831 4219 
Q 1534 4219 1204 4116 
Q 875 4013 500 3803 
L 500 4441 
Q 881 4594 1212 4672 
Q 1544 4750 1819 4750 
Q 2544 4750 2975 4387 
Q 3406 4025 3406 3419 
Q 3406 3131 3298 2873 
Q 3191 2616 2906 2266 
Q 2828 2175 2409 1742 
Q 1991 1309 1228 531 
z
" transform="scale(0.015625)"/>
       </defs>
       <use xlink:href="#DejaVuSans-32"/>
       <use xlink:href="#DejaVuSans-32" x="63.623047"/>
       <use xlink:href="#DejaVuSans-35" x="127.246094"/>
       <use xlink:href="#DejaVuSans-b0" x="190.869141"/>
      </g>
     </g>
    </g>
    <g id="xtick_7">
     <g id="line2d_7">
      <path d="M 230.4 180.84 
L 230.4 315.76 
" clip-path="url(#paedcaf84a5)" style="fill: none; stroke: #b0b0b0; stroke-width: 0.8; stroke-linecap: square"/>
     </g>
     <g id="text_7">
      <!-- 270° -->
      <g transform="translate(218.35625 332.519375)scale(0.1 -0.1)">
       <defs>
        <path id="DejaVuSans-37" d="M 525 4666 
L 3525 4666 
L 3525 4397 
L 1831 0 
L 1172 0 
L 2766 4134 
L 525 4134 
L 525 4666 
z
" transform="scale(0.015625)"/>
       </defs>
       <use xlink:href="#DejaVuSans-32"/>
       <use xlink:href="#DejaVuSans-37" x="63.623047"/>
       <use xlink:href="#DejaVuSans-30" x="127.246094"/>
       <use xlink:href="#DejaVuSans-b0" x="190.869141"/>
      </g>
     </g>
    </g>
    <g id="xtick_8">
     <g id="line2d_8">
      <path d="M 230.4 180.84 
L 325.802847 276.242847 
" clip-path="url(#paedcaf84a5)" style="fill: none; stroke: #b0b0b0; stroke-width: 0.8; stroke-linecap: square"/>
     </g>
     <g id="text_8">
      <!-- 315° -->
      <g transform="translate(323.658592 288.901717)scale(0.1 -0.1)">
       <use xlink:href="#DejaVuSans-33"/>
       <use xlink:href="#DejaVuSans-31" x="63.623047"/>
       <use xlink:href="#DejaVuSans-35" x="127.246094"/>
       <use xlink:href="#DejaVuSans-b0" x="190.869141"/>
      </g>
     </g>
    </g>
   </g>
   <g id="matplotlib.axis_2">
    <g id="ytick_1">
     <g id="line2d_9">
      <path d="M 244.324183 180.84 
C 244.324183 179.011493 243.964007 177.200766 243.264267 175.511446 
C 242.564528 173.822126 241.538834 172.287066 240.245884 170.994116 
C 238.952934 169.701166 237.417874 168.675472 235.728554 167.975733 
C 234.039234 167.275993 232.228507 166.915817 230.4 166.915817 
C 228.571493 166.915817 226.760766 167.275993 225.071446 167.975733 
C 223.382126 168.675472 221.847066 169.701166 220.554116 170.994116 
C 219.261166 172.287066 218.235472 173.822126 217.535733 175.511446 
C 216.835993 177.200766 216.475817 179.011493 216.475817 180.84 
C 216.475817 182.668507 216.835993 184.479234 217.535733 186.168554 
C 218.235472 187.857874 219.261166 189.392934 220.554116 190.685884 
C 221.847066 191.978834 223.382126 193.004528 225.071446 193.704267 
C 226.760766 194.404007 228.571493 194.764183 230.4 194.764183 
C 232.228507 194.764183 234.039234 194.404007 235.728554 193.704267 
C 237.417874 193.004528 238.952934 191.978834 240.245884 190.685884 
C 241.538834 189.392934 242.564528 187.857874 243.264267 186.168554 
C 243.964007 184.479234 244.324183 182.668507 244.324183 180.84 
" clip-path="url(#paedcaf84a5)" style="fill: none; stroke: #b0b0b0; stroke-width: 0.8; stroke-linecap: square"/>
     </g>
     <g id="text_9">
      <!-- −3.5 -->
      <g transform="translate(243.264267 173.431759)scale(0.1 -0.1)">
       <defs>
        <path id="DejaVuSans-2212" d="M 678 2272 
L 4684 2272 
L 4684 1741 
L 678 1741 
L 678 2272 
z
" transform="scale(0.015625)"/>
        <path id="DejaVuSans-2e" d="M 684 794 
L 1344 794 
L 1344 0 
L 684 0 
L 684 794 
z
" transform="scale(0.015625)"/>
       </defs>
       <use xlink:href="#DejaVuSans-2212"/>
       <use xlink:href="#DejaVuSans-33" x="83.789062"/>
       <use xlink:href="#DejaVuSans-2e" x="147.412109"/>
       <use xlink:href="#DejaVuSans-35" x="179.199219"/>
      </g>
     </g>
    </g>
    <g id="ytick_2">
     <g id="line2d_10">
      <path d="M 266.568999 180.84 
C 266.568999 176.090331 265.633418 171.386846 263.815798 166.998723 
C 261.998178 162.610601 259.333868 158.623179 255.975345 155.264655 
C 252.616821 151.906132 248.629399 149.241822 244.241277 147.424202 
C 239.853154 145.606582 235.149669 144.671001 230.4 144.671001 
C 225.650331 144.671001 220.946846 145.606582 216.558723 147.424202 
C 212.170601 149.241822 208.183179 151.906132 204.824655 155.264655 
C 201.466132 158.623179 198.801822 162.610601 196.984202 166.998723 
C 195.166582 171.386846 194.231001 176.090331 194.231001 180.84 
C 194.231001 185.589669 195.166582 190.293154 196.984202 194.681277 
C 198.801822 199.069399 201.466132 203.056821 204.824655 206.415345 
C 208.183179 209.773868 212.170601 212.438178 216.558723 214.255798 
C 220.946846 216.073418 225.650331 217.008999 230.4 217.008999 
C 235.149669 217.008999 239.853154 216.073418 244.241277 214.255798 
C 248.629399 212.438178 252.616821 209.773868 255.975345 206.415345 
C 259.333868 203.056821 261.998178 199.069399 263.815798 194.681277 
C 265.633418 190.293154 266.568999 185.589669 266.568999 180.84 
" clip-path="url(#paedcaf84a5)" style="fill: none; stroke: #b0b0b0; stroke-width: 0.8; stroke-linecap: square"/>
     </g>
     <g id="text_10">
      <!-- −3.0 -->
      <g transform="translate(263.815798 164.919036)scale(0.1 -0.1)">
       <use xlink:href="#DejaVuSans-2212"/>
       <use xlink:href="#DejaVuSans-33" x="83.789062"/>
       <use xlink:href="#DejaVuSans-2e" x="147.412109"/>
       <use xlink:href="#DejaVuSans-30" x="179.199219"/>
      </g>
     </g>
    </g>
    <g id="ytick_3">
     <g id="line2d_11">
      <path d="M 288.813816 180.84 
C 288.813816 173.169168 287.30283 165.572925 284.367329 158.486 
C 281.431829 151.399076 277.128903 144.959292 271.704806 139.535194 
C 266.280708 134.111097 259.840924 129.808171 252.754 126.872671 
C 245.667075 123.93717 238.070832 122.426184 230.4 122.426184 
C 222.729168 122.426184 215.132925 123.93717 208.046 126.872671 
C 200.959076 129.808171 194.519292 134.111097 189.095194 139.535194 
C 183.671097 144.959292 179.368171 151.399076 176.432671 158.486 
C 173.49717 165.572925 171.986184 173.169168 171.986184 180.84 
C 171.986184 188.510832 173.49717 196.107075 176.432671 203.194 
C 179.368171 210.280924 183.671097 216.720708 189.095194 222.144806 
C 194.519292 227.568903 200.959076 231.871829 208.046 234.807329 
C 215.132925 237.74283 222.729168 239.253816 230.4 239.253816 
C 238.070832 239.253816 245.667075 237.74283 252.754 234.807329 
C 259.840924 231.871829 266.280708 227.568903 271.704806 222.144806 
C 277.128903 216.720708 281.431829 210.280924 284.367329 203.194 
C 287.30283 196.107075 288.813816 188.510832 288.813816 180.84 
" clip-path="url(#paedcaf84a5)" style="fill: none; stroke: #b0b0b0; stroke-width: 0.8; stroke-linecap: square"/>
     </g>
     <g id="text_11">
      <!-- −2.5 -->
      <g transform="translate(284.367329 156.406313)scale(0.1 -0.1)">
       <use xlink:href="#DejaVuSans-2212"/>
       <use xlink:href="#DejaVuSans-32" x="83.789062"/>
       <use xlink:href="#DejaVuSans-2e" x="147.412109"/>
       <use xlink:href="#DejaVuSans-35" x="179.199219"/>
      </g>
     </g>
    </g>
    <g id="ytick_4">
     <g id="line2d_12">
      <path d="M 311.058633 180.84 
C 311.058633 170.248005 308.972241 159.759004 304.91886 149.973277 
C 300.865479 140.18755 294.923938 131.295405 287.434267 123.805733 
C 279.944595 116.316062 271.05245 110.374521 261.266723 106.32114 
C 251.480996 102.267759 240.991995 100.181367 230.4 100.181367 
C 219.808005 100.181367 209.319004 102.267759 199.533277 106.32114 
C 189.74755 110.374521 180.855405 116.316062 173.365733 123.805733 
C 165.876062 131.295405 159.934521 140.18755 155.88114 149.973277 
C 151.827759 159.759004 149.741367 170.248005 149.741367 180.84 
C 149.741367 191.431995 151.827759 201.920996 155.88114 211.706723 
C 159.934521 221.49245 165.876062 230.384595 173.365733 237.874267 
C 180.855405 245.363938 189.74755 251.305479 199.533277 255.35886 
C 209.319004 259.412241 219.808005 261.498633 230.4 261.498633 
C 240.991995 261.498633 251.480996 259.412241 261.266723 255.35886 
C 271.05245 251.305479 279.944595 245.363938 287.434267 237.874267 
C 294.923938 230.384595 300.865479 221.49245 304.91886 211.706723 
C 308.972241 201.920996 311.058633 191.431995 311.058633 180.84 
" clip-path="url(#paedcaf84a5)" style="fill: none; stroke: #b0b0b0; stroke-width: 0.8; stroke-linecap: square"/>
     </g>
     <g id="text_12">
      <!-- −2.0 -->
      <g transform="translate(304.91886 147.89359)scale(0.1 -0.1)">
       <use xlink:href="#DejaVuSans-2212"/>
       <use xlink:href="#DejaVuSans-32" x="83.789062"/>
       <use xlink:href="#DejaVuSans-2e" x="147.412109"/>
       <use xlink:href="#DejaVuSans-30" x="179.199219"/>
      </g>
     </g>
    </g>
    <g id="ytick_5">
     <g id="line2d_13">
      <path d="M 333.30345 180.84 
C 333.30345 167.326843 330.641653 153.945084 325.470391 141.460555 
C 320.29913 128.976025 312.718973 117.631518 303.163727 108.076273 
C 293.608482 98.521027 282.263975 90.94087 269.779445 85.769609 
C 257.294916 80.598347 243.913157 77.93655 230.4 77.93655 
C 216.886843 77.93655 203.505084 80.598347 191.020555 85.769609 
C 178.536025 90.94087 167.191518 98.521027 157.636273 108.076273 
C 148.081027 117.631518 140.50087 128.976025 135.329609 141.460555 
C 130.158347 153.945084 127.49655 167.326843 127.49655 180.84 
C 127.49655 194.353157 130.158347 207.734916 135.329609 220.219445 
C 140.50087 232.703975 148.081027 244.048482 157.636273 253.603727 
C 167.191518 263.158973 178.536025 270.73913 191.020555 275.910391 
C 203.505084 281.081653 216.886843 283.74345 230.4 283.74345 
C 243.913157 283.74345 257.294916 281.081653 269.779445 275.910391 
C 282.263975 270.73913 293.608482 263.158973 303.163727 253.603727 
C 312.718973 244.048482 320.29913 232.703975 325.470391 220.219445 
C 330.641653 207.734916 333.30345 194.353157 333.30345 180.84 
" clip-path="url(#paedcaf84a5)" style="fill: none; stroke: #b0b0b0; stroke-width: 0.8; stroke-linecap: square"/>
     </g>
     <g id="text_13">
      <!-- −1.5 -->
      <g transform="translate(325.470391 139.380867)scale(0.1 -0.1)">
       <use xlink:href="#DejaVuSans-2212"/>
       <use xlink:href="#DejaVuSans-31" x="83.789062"/>
       <use xlink:href="#DejaVuSans-2e" x="147.412109"/>
       <use xlink:href="#DejaVuSans-35" x="179.199219"/>
      </g>
     </g>
    </g>
    <g id="ytick_6">
     <g id="line2d_14">
      <path d="M 355.548267 180.84 
C 355.548267 164.40568 352.311064 148.131163 346.021922 132.947832 
C 339.73278 117.7645 330.514007 103.967631 318.893188 92.346812 
C 307.272369 80.725993 293.4755 71.50722 278.292168 65.218078 
C 263.108837 58.928936 246.83432 55.691733 230.4 55.691733 
C 213.96568 55.691733 197.691163 58.928936 182.507832 65.218078 
C 167.3245 71.50722 153.527631 80.725993 141.906812 92.346812 
C 130.285993 103.967631 121.06722 117.7645 114.778078 132.947832 
C 108.488936 148.131163 105.251733 164.40568 105.251733 180.84 
C 105.251733 197.27432 108.488936 213.548837 114.778078 228.732168 
C 121.06722 243.9155 130.285993 257.712369 141.906812 269.333188 
C 153.527631 280.954007 167.3245 290.17278 182.507832 296.461922 
C 197.691163 302.751064 213.96568 305.988267 230.4 305.988267 
C 246.83432 305.988267 263.108837 302.751064 278.292168 296.461922 
C 293.4755 290.17278 307.272369 280.954007 318.893188 269.333188 
C 330.514007 257.712369 339.73278 243.9155 346.021922 228.732168 
C 352.311064 213.548837 355.548267 197.27432 355.548267 180.84 
" clip-path="url(#paedcaf84a5)" style="fill: none; stroke: #b0b0b0; stroke-width: 0.8; stroke-linecap: square"/>
     </g>
     <g id="text_14">
      <!-- −1.0 -->
      <g transform="translate(346.021922 130.868144)scale(0.1 -0.1)">
       <use xlink:href="#DejaVuSans-2212"/>
       <use xlink:href="#DejaVuSans-31" x="83.789062"/>
       <use xlink:href="#DejaVuSans-2e" x="147.412109"/>
       <use xlink:href="#DejaVuSans-30" x="179.199219"/>
      </g>
     </g>
    </g>
   </g>
   <g id="line2d_15">
    <path d="M 359.187273 180.84 
L 358.853258 172.676555 
L 357.854064 164.574418 
L 356.198212 156.594382 
L 353.89983 148.796222 
L 350.978529 141.238192 
L 347.459248 133.976546 
L 343.372046 127.065071 
L 338.751855 120.554647 
L 333.638202 114.492836 
L 328.074888 108.923504 
L 322.109641 103.886474 
L 315.793748 99.417225 
L 309.181657 95.546633 
L 302.330574 92.300749 
L 295.300048 89.700635 
L 288.151554 87.762243 
L 280.948087 86.496341 
L 273.753768 85.908491 
L 266.633472 85.999071 
L 259.652497 86.763349 
L 252.876262 88.191587 
L 246.370077 90.269193 
L 240.198965 92.976895 
L 234.427568 96.290933 
L 229.120142 100.183248 
L 224.34064 104.621639 
L 220.152896 109.569824 
L 216.620849 114.987325 
L 213.808727 120.828969 
L 211.780916 127.043689 
L 210.600902 133.571945 
L 210.327905 140.340509 
L 211.008065 147.252184 
L 212.653568 154.166215 
L 215.197072 160.863585 
L 218.404835 166.996842 
L 221.757343 172.059114 
L 224.423056 175.492582 
L 225.579351 177.049 
L 224.975968 177.105827 
L 223.039454 176.433218 
L 220.422311 175.696144 
L 217.640126 175.255702 
L 215.006628 175.237271 
L 212.692235 175.640531 
L 210.785455 176.40986 
L 209.331527 177.468806 
L 208.353315 178.734797 
L 207.861945 180.124554 
L 207.861945 181.555446 
L 208.353315 182.945203 
L 209.331527 184.211194 
L 210.785455 185.27014 
L 212.692235 186.039469 
L 215.006628 186.442729 
L 217.640126 186.424298 
L 220.422311 185.983856 
L 223.039454 185.246782 
L 224.975968 184.574173 
L 225.579351 184.631 
L 224.423056 186.187418 
L 221.757343 189.620886 
L 218.404835 194.683158 
L 215.197072 200.816415 
L 212.653568 207.513785 
L 211.008065 214.427816 
L 210.327905 221.339491 
L 210.600902 228.108055 
L 211.780916 234.636311 
L 213.808727 240.851031 
L 216.620849 246.692675 
L 220.152896 252.110176 
L 224.34064 257.058361 
L 229.120142 261.496752 
L 234.427568 265.389067 
L 240.198965 268.703105 
L 246.370077 271.410807 
L 252.876262 273.488413 
L 259.652497 274.916651 
L 266.633472 275.680929 
L 273.753768 275.771509 
L 280.948087 275.183659 
L 288.151554 273.917757 
L 295.300048 271.979365 
L 302.330574 269.379251 
L 309.181657 266.133367 
L 315.793748 262.262775 
L 322.109641 257.793526 
L 328.074888 252.756496 
L 333.638202 247.187164 
L 338.751855 241.125353 
L 343.372046 234.614929 
L 347.459248 227.703454 
L 350.978529 220.441808 
L 353.89983 212.883778 
L 356.198212 205.085618 
L 357.854064 197.105582 
L 358.853258 189.003445 
L 359.187273 180.84 
" clip-path="url(#paedcaf84a5)" style="fill: none; stroke: #1f77b4; stroke-width: 1.5; stroke-linecap: square"/>
   </g>
   <g id="patch_3">
    <path d="M 365.32 180.84 
C 365.32 163.122468 361.830033 145.577217 355.049827 129.208351 
C 348.269621 112.839486 338.331034 97.96534 325.802847 85.437153 
C 313.27466 72.908966 298.400514 62.970379 282.031649 56.190173 
C 265.662783 49.409967 248.117532 45.92 230.4 45.92 
C 212.682468 45.92 195.137217 49.409967 178.768351 56.190173 
C 162.399486 62.970379 147.52534 72.908966 134.997153 85.437153 
C 122.468966 97.96534 112.530379 112.839486 105.750173 129.208351 
C 98.969967 145.577217 95.48 163.122468 95.48 180.84 
C 95.48 198.557532 98.969967 216.102783 105.750173 232.471649 
C 112.530379 248.840514 122.468966 263.71466 134.997153 276.242847 
C 147.52534 288.771034 162.399486 298.709621 178.768351 305.489827 
C 195.137217 312.270033 212.682468 315.76 230.4 315.76 
C 248.117532 315.76 265.662783 312.270033 282.031649 305.489827 
C 298.400514 298.709621 313.27466 288.771034 325.802847 276.242847 
C 338.331034 263.71466 348.269621 248.840514 355.049827 232.471649 
C 361.830033 216.102783 365.32 198.557532 365.32 180.84 
" style="fill: none; stroke: #000000; stroke-width: 0.8; stroke-linejoin: miter; stroke-linecap: square"/>
   </g>
   <g id="text_15">
    <!-- $log(d Q_{sca}/ d \Omega)$ -->
    <g transform="translate(190.38 21.080938)scale(0.12 -0.12)">
     <defs>
      <path id="DejaVuSans-Oblique-6c" d="M 1172 4863 
L 1747 4863 
L 800 0 
L 225 0 
L 1172 4863 
z
" transform="scale(0.015625)"/>
      <path id="DejaVuSans-Oblique-6f" d="M 1625 -91 
Q 1009 -91 651 289 
Q 294 669 294 1325 
Q 294 1706 417 2101 
Q 541 2497 738 2766 
Q 1047 3184 1428 3384 
Q 1809 3584 2291 3584 
Q 2888 3584 3255 3212 
Q 3622 2841 3622 2241 
Q 3622 1825 3500 1412 
Q 3378 1000 3181 728 
Q 2875 309 2494 109 
Q 2113 -91 1625 -91 
z
M 891 1344 
Q 891 869 1089 633 
Q 1288 397 1691 397 
Q 2269 397 2648 901 
Q 3028 1406 3028 2181 
Q 3028 2634 2825 2865 
Q 2622 3097 2228 3097 
Q 1903 3097 1650 2945 
Q 1397 2794 1197 2484 
Q 1050 2253 970 1956 
Q 891 1659 891 1344 
z
" transform="scale(0.015625)"/>
      <path id="DejaVuSans-Oblique-67" d="M 3816 3500 
L 3219 434 
Q 3047 -456 2561 -893 
Q 2075 -1331 1253 -1331 
Q 950 -1331 690 -1286 
Q 431 -1241 206 -1147 
L 313 -588 
Q 525 -725 762 -790 
Q 1000 -856 1269 -856 
Q 1816 -856 2167 -557 
Q 2519 -259 2631 300 
L 2681 563 
Q 2441 288 2122 144 
Q 1803 0 1434 0 
Q 903 0 598 351 
Q 294 703 294 1319 
Q 294 1803 478 2267 
Q 663 2731 997 3091 
Q 1219 3328 1514 3456 
Q 1809 3584 2131 3584 
Q 2484 3584 2746 3420 
Q 3009 3256 3138 2956 
L 3238 3500 
L 3816 3500 
z
M 2950 2216 
Q 2950 2641 2750 2872 
Q 2550 3103 2181 3103 
Q 1953 3103 1747 3012 
Q 1541 2922 1394 2759 
Q 1156 2491 1023 2127 
Q 891 1763 891 1375 
Q 891 944 1092 712 
Q 1294 481 1672 481 
Q 2219 481 2584 976 
Q 2950 1472 2950 2216 
z
" transform="scale(0.015625)"/>
      <path id="DejaVuSans-28" d="M 1984 4856 
Q 1566 4138 1362 3434 
Q 1159 2731 1159 2009 
Q 1159 1288 1364 580 
Q 1569 -128 1984 -844 
L 1484 -844 
Q 1016 -109 783 600 
Q 550 1309 550 2009 
Q 550 2706 781 3412 
Q 1013 4119 1484 4856 
L 1984 4856 
z
" transform="scale(0.015625)"/>
      <path id="DejaVuSans-Oblique-64" d="M 2675 525 
Q 2444 222 2128 65 
Q 1813 -91 1428 -91 
Q 903 -91 598 267 
Q 294 625 294 1247 
Q 294 1766 478 2236 
Q 663 2706 1013 3078 
Q 1244 3325 1534 3454 
Q 1825 3584 2144 3584 
Q 2481 3584 2739 3421 
Q 2997 3259 3138 2956 
L 3513 4863 
L 4091 4863 
L 3144 0 
L 2566 0 
L 2675 525 
z
M 891 1350 
Q 891 897 1095 644 
Q 1300 391 1663 391 
Q 1931 391 2161 520 
Q 2391 650 2566 903 
Q 2750 1166 2856 1509 
Q 2963 1853 2963 2188 
Q 2963 2622 2758 2865 
Q 2553 3109 2194 3109 
Q 1922 3109 1687 2981 
Q 1453 2853 1288 2613 
Q 1106 2353 998 2009 
Q 891 1666 891 1350 
z
" transform="scale(0.015625)"/>
      <path id="DejaVuSans-Oblique-51" d="M 2309 -84 
Q 2275 -88 2237 -89 
Q 2200 -91 2125 -91 
Q 1250 -91 756 411 
Q 263 913 263 1797 
Q 263 2319 452 2844 
Q 641 3369 978 3788 
Q 1369 4269 1858 4509 
Q 2347 4750 2938 4750 
Q 3794 4750 4287 4245 
Q 4781 3741 4781 2869 
Q 4781 1928 4265 1147 
Q 3750 366 2919 44 
L 3553 -825 
L 2847 -825 
L 2309 -84 
z
M 2919 4238 
Q 2400 4238 2003 3986 
Q 1606 3734 1313 3219 
Q 1125 2891 1026 2522 
Q 928 2153 928 1778 
Q 928 1128 1239 775 
Q 1550 422 2119 422 
Q 2631 422 3032 676 
Q 3434 931 3719 1434 
Q 3909 1772 4009 2142 
Q 4109 2513 4109 2881 
Q 4109 3528 3796 3883 
Q 3484 4238 2919 4238 
z
" transform="scale(0.015625)"/>
      <path id="DejaVuSans-Oblique-73" d="M 3200 3397 
L 3091 2853 
Q 2863 2978 2609 3040 
Q 2356 3103 2088 3103 
Q 1634 3103 1373 2948 
Q 1113 2794 1113 2528 
Q 1113 2219 1719 2053 
Q 1766 2041 1788 2034 
L 1972 1978 
Q 2547 1819 2739 1644 
Q 2931 1469 2931 1166 
Q 2931 609 2489 259 
Q 2047 -91 1331 -91 
Q 1053 -91 747 -37 
Q 441 16 72 128 
L 184 722 
Q 500 559 806 475 
Q 1113 391 1394 391 
Q 1816 391 2080 572 
Q 2344 753 2344 1031 
Q 2344 1331 1650 1516 
L 1591 1531 
L 1394 1581 
Q 956 1697 753 1886 
Q 550 2075 550 2369 
Q 550 2928 970 3256 
Q 1391 3584 2113 3584 
Q 2397 3584 2667 3537 
Q 2938 3491 3200 3397 
z
" transform="scale(0.015625)"/>
      <path id="DejaVuSans-Oblique-63" d="M 3431 3366 
L 3316 2797 
Q 3109 2947 2876 3022 
Q 2644 3097 2394 3097 
Q 2119 3097 1870 3000 
Q 1622 2903 1453 2725 
Q 1184 2453 1037 2087 
Q 891 1722 891 1331 
Q 891 859 1127 628 
Q 1363 397 1844 397 
Q 2081 397 2348 469 
Q 2616 541 2906 684 
L 2797 116 
Q 2547 13 2283 -39 
Q 2019 -91 1741 -91 
Q 1044 -91 669 257 
Q 294 606 294 1253 
Q 294 1797 489 2255 
Q 684 2713 1069 3078 
Q 1331 3328 1684 3456 
Q 2038 3584 2456 3584 
Q 2700 3584 2940 3529 
Q 3181 3475 3431 3366 
z
" transform="scale(0.015625)"/>
      <path id="DejaVuSans-Oblique-61" d="M 3438 1997 
L 3047 0 
L 2472 0 
L 2578 531 
Q 2325 219 2001 64 
Q 1678 -91 1281 -91 
Q 834 -91 548 182 
Q 263 456 263 884 
Q 263 1497 752 1853 
Q 1241 2209 2100 2209 
L 2900 2209 
L 2931 2363 
Q 2938 2388 2941 2417 
Q 2944 2447 2944 2509 
Q 2944 2788 2717 2942 
Q 2491 3097 2081 3097 
Q 1800 3097 1504 3025 
Q 1209 2953 897 2809 
L 997 3341 
Q 1322 3463 1633 3523 
Q 1944 3584 2234 3584 
Q 2853 3584 3176 3315 
Q 3500 3047 3500 2534 
Q 3500 2431 3484 2292 
Q 3469 2153 3438 1997 
z
M 2816 1759 
L 2241 1759 
Q 1534 1759 1195 1570 
Q 856 1381 856 984 
Q 856 709 1029 553 
Q 1203 397 1509 397 
Q 1978 397 2328 733 
Q 2678 1069 2791 1631 
L 2816 1759 
z
" transform="scale(0.015625)"/>
      <path id="DejaVuSans-2f" d="M 1625 4666 
L 2156 4666 
L 531 -594 
L 0 -594 
L 1625 4666 
z
" transform="scale(0.015625)"/>
      <path id="DejaVuSans-3a9" d="M 4647 556 
L 4647 0 
L 2772 0 
L 2772 556 
Q 3325 859 3634 1378 
Q 3944 1897 3944 2528 
Q 3944 3278 3531 3731 
Q 3119 4184 2444 4184 
Q 1769 4184 1355 3729 
Q 941 3275 941 2528 
Q 941 1897 1250 1378 
Q 1563 859 2119 556 
L 2119 0 
L 244 0 
L 244 556 
L 1241 556 
Q 747 991 519 1456 
Q 294 1922 294 2497 
Q 294 3491 894 4106 
Q 1491 4722 2444 4722 
Q 3391 4722 3994 4106 
Q 4594 3494 4594 2528 
Q 4594 1922 4372 1459 
Q 4150 997 3647 556 
L 4647 556 
z
" transform="scale(0.015625)"/>
      <path id="DejaVuSans-29" d="M 513 4856 
L 1013 4856 
Q 1481 4119 1714 3412 
Q 1947 2706 1947 2009 
Q 1947 1309 1714 600 
Q 1481 -109 1013 -844 
L 513 -844 
Q 928 -128 1133 580 
Q 1338 1288 1338 2009 
Q 1338 2731 1133 3434 
Q 928 4138 513 4856 
z
" transform="scale(0.015625)"/>
     </defs>
     <use xlink:href="#DejaVuSans-Oblique-6c" transform="translate(0 0.015625)"/>
     <use xlink:href="#DejaVuSans-Oblique-6f" transform="translate(27.783203 0.015625)"/>
     <use xlink:href="#DejaVuSans-Oblique-67" transform="translate(88.964844 0.015625)"/>
     <use xlink:href="#DejaVuSans-28" transform="translate(152.441406 0.015625)"/>
     <use xlink:href="#DejaVuSans-Oblique-64" transform="translate(191.455078 0.015625)"/>
     <use xlink:href="#DejaVuSans-Oblique-51" transform="translate(254.931641 0.015625)"/>
     <use xlink:href="#DejaVuSans-Oblique-73" transform="translate(333.642578 -16.390625)scale(0.7)"/>
     <use xlink:href="#DejaVuSans-Oblique-63" transform="translate(370.112305 -16.390625)scale(0.7)"/>
     <use xlink:href="#DejaVuSans-Oblique-61" transform="translate(408.598633 -16.390625)scale(0.7)"/>
     <use xlink:href="#DejaVuSans-2f" transform="translate(454.228516 0.015625)"/>
     <use xlink:href="#DejaVuSans-Oblique-64" transform="translate(487.919922 0.015625)"/>
     <use xlink:href="#DejaVuSans-3a9" transform="translate(551.396484 0.015625)"/>
     <use xlink:href="#DejaVuSans-29" transform="translate(627.8125 0.015625)"/>
    </g>
   </g>
  </g>
 </g>
 <defs>
  <clipPath id="paedcaf84a5">
   <path d="M 365.32 180.84 
C 365.32 163.122468 361.830033 145.577217 355.049827 129.208351 
C 348.269621 112.839486 338.331034 97.96534 325.802847 85.437153 
C 313.27466 72.908966 298.400514 62.970379 282.031649 56.190173 
C 265.662783 49.409967 248.117532 45.92 230.4 45.92 
C 212.682468 45.92 195.137217 49.409967 178.768351 56.190173 
C 162.399486 62.970379 147.52534 72.908966 134.997153 85.437153 
C 122.468966 97.96534 112.530379 112.839486 105.750173 129.208351 
C 98.969967 145.577217 95.48 163.122468 95.48 180.84 
C 95.48 198.557532 98.969967 216.102783 105.750173 232.471649 
C 112.530379 248.840514 122.468966 263.71466 134.997153 276.242847 
C 147.52534 288.771034 162.399486 298.709621 178.768351 305.489827 
C 195.137217 312.270033 212.682468 315.76 230.4 315.76 
C 248.117532 315.76 265.662783 312.270033 282.031649 305.489827 
C 298.400514 298.709621 313.27466 288.771034 325.802847 276.242847 
C 338.331034 263.71466 348.269621 248.840514 355.049827 232.471649 
C 361.830033 216.102783 365.32 198.557532 365.32 180.84 
M 230.4 180.84 
C 230.4 180.84 230.4 180.84 230.4 180.84 
C 230.4 180.84 230.4 180.84 230.4 180.84 
C 230.4 180.84 230.4 180.84 230.4 180.84 
C 230.4 180.84 230.4 180.84 230.4 180.84 
C 230.4 180.84 230.4 180.84 230.4 180.84 
C 230.4 180.84 230.4 180.84 230.4 180.84 
C 230.4 180.84 230.4 180.84 230.4 180.84 
C 230.4 180.84 230.4 180.84 230.4 180.84 
C 230.4 180.84 230.4 180.84 230.4 180.84 
C 230.4 180.84 230.4 180.84 230.4 180.84 
C 230.4 180.84 230.4 180.84 230.4 180.84 
C 230.4 180.84 230.4 180.84 230.4 180.84 
C 230.4 180.84 230.4 180.84 230.4 180.84 
C 230.4 180.84 230.4 180.84 230.4 180.84 
C 230.4 180.84 230.4 180.84 230.4 180.84 
C 230.4 180.84 230.4 180.84 230.4 180.84 
M 365.32 180.84 
z
"/>
  </clipPath>
 </defs>
</svg>
