<?xml version="1.0" encoding="utf-8" standalone="no"?>
<!DOCTYPE svg PUBLIC "-//W3C//DTD SVG 1.1//EN"
  "http://www.w3.org/Graphics/SVG/1.1/DTD/svg11.dtd">
<svg xmlns:xlink="http://www.w3.org/1999/xlink" width="460.8pt" height="345.6pt" viewBox="0 0 460.8 345.6" xmlns="http://www.w3.org/2000/svg" version="1.1">
 <metadata>
  <rdf:RDF xmlns:dc="http://purl.org/dc/elements/1.1/" xmlns:cc="http://creativecommons.org/ns#" xmlns:rdf="http://www.w3.org/1999/02/22-rdf-syntax-ns#">
   <cc:Work>
    <dc:type rdf:resource="http://purl.org/dc/dcmitype/StillImage"/>
    <dc:date>2024-02-16T13:32:46.194377</dc:date>
    <dc:format>image/svg+xml</dc:format>
    <dc:creator>
     <cc:Agent>
      <dc:title>Matplotlib v3.6.3, https://matplotlib.org/</dc:title>
     </cc:Agent>
    </dc:creator>
   </cc:Work>
  </rdf:RDF>
 </metadata>
 <defs>
  <style type="text/css">*{stroke-linejoin: round; stroke-linecap: butt}</style>
 </defs>
 <g id="figure_1">
  <g id="patch_1">
   <path d="M 0 345.6 
L 460.8 345.6 
L 460.8 0 
L 0 0 
z
" style="fill: #ffffff"/>
  </g>
  <g id="axes_1">
   <g id="patch_2">
    <path d="M 369.216 174.528 
C 369.216 157.055246 365.774248 139.752393 359.087715 123.609673 
C 352.401182 107.466954 342.599903 92.798303 330.2448 80.4432 
C 317.889697 68.088097 303.221046 58.286818 287.078327 51.600285 
C 270.935607 44.913752 253.632754 41.472 236.16 41.472 
C 218.687246 41.472 201.384393 44.913752 185.241673 51.600285 
C 169.098954 58.286818 154.430303 68.088097 142.0752 80.4432 
C 129.720097 92.798303 119.918818 107.466954 113.232285 123.609673 
C 106.545752 139.752393 103.104 157.055246 103.104 174.528 
C 103.104 192.000754 106.545752 209.303607 113.232285 225.446327 
C 119.918818 241.589046 129.720097 256.257697 142.0752 268.6128 
C 154.430303 280.967903 169.098954 290.769182 185.241673 297.455715 
C 201.384393 304.142248 218.687246 307.584 236.16 307.584 
C 253.632754 307.584 270.935607 304.142248 287.078327 297.455715 
C 303.221046 290.769182 317.889697 280.967903 330.2448 268.6128 
C 342.599903 256.257697 352.401182 241.589046 359.087715 225.446327 
C 365.774248 209.303607 369.216 192.000754 369.216 174.528 
M 236.16 174.528 
C 236.16 174.528 236.16 174.528 236.16 174.528 
C 236.16 174.528 236.16 174.528 236.16 174.528 
C 236.16 174.528 236.16 174.528 236.16 174.528 
C 236.16 174.528 236.16 174.528 236.16 174.528 
C 236.16 174.528 236.16 174.528 236.16 174.528 
C 236.16 174.528 236.16 174.528 236.16 174.528 
C 236.16 174.528 236.16 174.528 236.16 174.528 
C 236.16 174.528 236.16 174.528 236.16 174.528 
C 236.16 174.528 236.16 174.528 236.16 174.528 
C 236.16 174.528 236.16 174.528 236.16 174.528 
C 236.16 174.528 236.16 174.528 236.16 174.528 
C 236.16 174.528 236.16 174.528 236.16 174.528 
C 236.16 174.528 236.16 174.528 236.16 174.528 
C 236.16 174.528 236.16 174.528 236.16 174.528 
C 236.16 174.528 236.16 174.528 236.16 174.528 
C 236.16 174.528 236.16 174.528 236.16 174.528 
M 369.216 174.528 
z
" style="fill: #ffffff"/>
   </g>
   <g id="matplotlib.axis_1">
    <g id="xtick_1">
     <g id="line2d_1">
      <path d="M 236.16 174.528 
L 369.216 174.528 
" clip-path="url(#pcdbcacf582)" style="fill: none; stroke: #b0b0b0; stroke-width: 0.8; stroke-linecap: square"/>
     </g>
     <g id="text_1">
      <!-- 0° -->
      <g transform="translate(377.53475 177.287375) scale(0.1 -0.1)">
       <defs>
        <path id="DejaVuSans-30" d="M 2034 4250 
Q 1547 4250 1301 3770 
Q 1056 3291 1056 2328 
Q 1056 1369 1301 889 
Q 1547 409 2034 409 
Q 2525 409 2770 889 
Q 3016 1369 3016 2328 
Q 3016 3291 2770 3770 
Q 2525 4250 2034 4250 
z
M 2034 4750 
Q 2819 4750 3233 4129 
Q 3647 3509 3647 2328 
Q 3647 1150 3233 529 
Q 2819 -91 2034 -91 
Q 1250 -91 836 529 
Q 422 1150 422 2328 
Q 422 3509 836 4129 
Q 1250 4750 2034 4750 
z
" transform="scale(0.015625)"/>
        <path id="DejaVuSans-b0" d="M 1600 4347 
Q 1350 4347 1178 4173 
Q 1006 4000 1006 3750 
Q 1006 3503 1178 3333 
Q 1350 3163 1600 3163 
Q 1850 3163 2022 3333 
Q 2194 3503 2194 3750 
Q 2194 3997 2020 4172 
Q 1847 4347 1600 4347 
z
M 1600 4750 
Q 1800 4750 1984 4673 
Q 2169 4597 2303 4453 
Q 2447 4313 2519 4134 
Q 2591 3956 2591 3750 
Q 2591 3338 2302 3052 
Q 2013 2766 1594 2766 
Q 1172 2766 890 3047 
Q 609 3328 609 3750 
Q 609 4169 896 4459 
Q 1184 4750 1600 4750 
z
" transform="scale(0.015625)"/>
       </defs>
       <use xlink:href="#DejaVuSans-30"/>
       <use xlink:href="#DejaVuSans-b0" x="63.623047"/>
      </g>
     </g>
    </g>
    <g id="xtick_2">
     <g id="line2d_2">
      <path d="M 236.16 174.528 
L 330.2448 80.4432 
" clip-path="url(#pcdbcacf582)" style="fill: none; stroke: #b0b0b0; stroke-width: 0.8; stroke-linecap: square"/>
     </g>
     <g id="text_2">
      <!-- 45° -->
      <g transform="translate(331.281795 73.30308) scale(0.1 -0.1)">
       <defs>
        <path id="DejaVuSans-34" d="M 2419 4116 
L 825 1625 
L 2419 1625 
L 2419 4116 
z
M 2253 4666 
L 3047 4666 
L 3047 1625 
L 3713 1625 
L 3713 1100 
L 3047 1100 
L 3047 0 
L 2419 0 
L 2419 1100 
L 313 1100 
L 313 1709 
L 2253 4666 
z
" transform="scale(0.015625)"/>
        <path id="DejaVuSans-35" d="M 691 4666 
L 3169 4666 
L 3169 4134 
L 1269 4134 
L 1269 2991 
Q 1406 3038 1543 3061 
Q 1681 3084 1819 3084 
Q 2600 3084 3056 2656 
Q 3513 2228 3513 1497 
Q 3513 744 3044 326 
Q 2575 -91 1722 -91 
Q 1428 -91 1123 -41 
Q 819 9 494 109 
L 494 744 
Q 775 591 1075 516 
Q 1375 441 1709 441 
Q 2250 441 2565 725 
Q 2881 1009 2881 1497 
Q 2881 1984 2565 2268 
Q 2250 2553 1709 2553 
Q 1456 2553 1204 2497 
Q 953 2441 691 2322 
L 691 4666 
z
" transform="scale(0.015625)"/>
       </defs>
       <use xlink:href="#DejaVuSans-34"/>
       <use xlink:href="#DejaVuSans-35" x="63.623047"/>
       <use xlink:href="#DejaVuSans-b0" x="127.246094"/>
      </g>
     </g>
    </g>
    <g id="xtick_3">
     <g id="line2d_3">
      <path d="M 236.16 174.528 
L 236.16 41.472 
" clip-path="url(#pcdbcacf582)" style="fill: none; stroke: #b0b0b0; stroke-width: 0.8; stroke-linecap: square"/>
     </g>
     <g id="text_3">
      <!-- 90° -->
      <g transform="translate(227.2975 30.231375) scale(0.1 -0.1)">
       <defs>
        <path id="DejaVuSans-39" d="M 703 97 
L 703 672 
Q 941 559 1184 500 
Q 1428 441 1663 441 
Q 2288 441 2617 861 
Q 2947 1281 2994 2138 
Q 2813 1869 2534 1725 
Q 2256 1581 1919 1581 
Q 1219 1581 811 2004 
Q 403 2428 403 3163 
Q 403 3881 828 4315 
Q 1253 4750 1959 4750 
Q 2769 4750 3195 4129 
Q 3622 3509 3622 2328 
Q 3622 1225 3098 567 
Q 2575 -91 1691 -91 
Q 1453 -91 1209 -44 
Q 966 3 703 97 
z
M 1959 2075 
Q 2384 2075 2632 2365 
Q 2881 2656 2881 3163 
Q 2881 3666 2632 3958 
Q 2384 4250 1959 4250 
Q 1534 4250 1286 3958 
Q 1038 3666 1038 3163 
Q 1038 2656 1286 2365 
Q 1534 2075 1959 2075 
z
" transform="scale(0.015625)"/>
       </defs>
       <use xlink:href="#DejaVuSans-39"/>
       <use xlink:href="#DejaVuSans-30" x="63.623047"/>
       <use xlink:href="#DejaVuSans-b0" x="127.246094"/>
      </g>
     </g>
    </g>
    <g id="xtick_4">
     <g id="line2d_4">
      <path d="M 236.16 174.528 
L 142.0752 80.4432 
" clip-path="url(#pcdbcacf582)" style="fill: none; stroke: #b0b0b0; stroke-width: 0.8; stroke-linecap: square"/>
     </g>
     <g id="text_4">
      <!-- 135° -->
      <g transform="translate(120.131955 73.30308) scale(0.1 -0.1)">
       <defs>
        <path id="DejaVuSans-31" d="M 794 531 
L 1825 531 
L 1825 4091 
L 703 3866 
L 703 4441 
L 1819 4666 
L 2450 4666 
L 2450 531 
L 3481 531 
L 3481 0 
L 794 0 
L 794 531 
z
" transform="scale(0.015625)"/>
        <path id="DejaVuSans-33" d="M 2597 2516 
Q 3050 2419 3304 2112 
Q 3559 1806 3559 1356 
Q 3559 666 3084 287 
Q 2609 -91 1734 -91 
Q 1441 -91 1130 -33 
Q 819 25 488 141 
L 488 750 
Q 750 597 1062 519 
Q 1375 441 1716 441 
Q 2309 441 2620 675 
Q 2931 909 2931 1356 
Q 2931 1769 2642 2001 
Q 2353 2234 1838 2234 
L 1294 2234 
L 1294 2753 
L 1863 2753 
Q 2328 2753 2575 2939 
Q 2822 3125 2822 3475 
Q 2822 3834 2567 4026 
Q 2313 4219 1838 4219 
Q 1578 4219 1281 4162 
Q 984 4106 628 3988 
L 628 4550 
Q 988 4650 1302 4700 
Q 1616 4750 1894 4750 
Q 2613 4750 3031 4423 
Q 3450 4097 3450 3541 
Q 3450 3153 3228 2886 
Q 3006 2619 2597 2516 
z
" transform="scale(0.015625)"/>
       </defs>
       <use xlink:href="#DejaVuSans-31"/>
       <use xlink:href="#DejaVuSans-33" x="63.623047"/>
       <use xlink:href="#DejaVuSans-35" x="127.246094"/>
       <use xlink:href="#DejaVuSans-b0" x="190.869141"/>
      </g>
     </g>
    </g>
    <g id="xtick_5">
     <g id="line2d_5">
      <path d="M 236.16 174.528 
L 103.104 174.528 
" clip-path="url(#pcdbcacf582)" style="fill: none; stroke: #b0b0b0; stroke-width: 0.8; stroke-linecap: square"/>
     </g>
     <g id="text_5">
      <!-- 180° -->
      <g transform="translate(77.06025 177.287375) scale(0.1 -0.1)">
       <defs>
        <path id="DejaVuSans-38" d="M 2034 2216 
Q 1584 2216 1326 1975 
Q 1069 1734 1069 1313 
Q 1069 891 1326 650 
Q 1584 409 2034 409 
Q 2484 409 2743 651 
Q 3003 894 3003 1313 
Q 3003 1734 2745 1975 
Q 2488 2216 2034 2216 
z
M 1403 2484 
Q 997 2584 770 2862 
Q 544 3141 544 3541 
Q 544 4100 942 4425 
Q 1341 4750 2034 4750 
Q 2731 4750 3128 4425 
Q 3525 4100 3525 3541 
Q 3525 3141 3298 2862 
Q 3072 2584 2669 2484 
Q 3125 2378 3379 2068 
Q 3634 1759 3634 1313 
Q 3634 634 3220 271 
Q 2806 -91 2034 -91 
Q 1263 -91 848 271 
Q 434 634 434 1313 
Q 434 1759 690 2068 
Q 947 2378 1403 2484 
z
M 1172 3481 
Q 1172 3119 1398 2916 
Q 1625 2713 2034 2713 
Q 2441 2713 2670 2916 
Q 2900 3119 2900 3481 
Q 2900 3844 2670 4047 
Q 2441 4250 2034 4250 
Q 1625 4250 1398 4047 
Q 1172 3844 1172 3481 
z
" transform="scale(0.015625)"/>
       </defs>
       <use xlink:href="#DejaVuSans-31"/>
       <use xlink:href="#DejaVuSans-38" x="63.623047"/>
       <use xlink:href="#DejaVuSans-30" x="127.246094"/>
       <use xlink:href="#DejaVuSans-b0" x="190.869141"/>
      </g>
     </g>
    </g>
    <g id="xtick_6">
     <g id="line2d_6">
      <path d="M 236.16 174.528 
L 142.0752 268.6128 
" clip-path="url(#pcdbcacf582)" style="fill: none; stroke: #b0b0b0; stroke-width: 0.8; stroke-linecap: square"/>
     </g>
     <g id="text_6">
      <!-- 225° -->
      <g transform="translate(120.131955 281.27167) scale(0.1 -0.1)">
       <defs>
        <path id="DejaVuSans-32" d="M 1228 531 
L 3431 531 
L 3431 0 
L 469 0 
L 469 531 
Q 828 903 1448 1529 
Q 2069 2156 2228 2338 
Q 2531 2678 2651 2914 
Q 2772 3150 2772 3378 
Q 2772 3750 2511 3984 
Q 2250 4219 1831 4219 
Q 1534 4219 1204 4116 
Q 875 4013 500 3803 
L 500 4441 
Q 881 4594 1212 4672 
Q 1544 4750 1819 4750 
Q 2544 4750 2975 4387 
Q 3406 4025 3406 3419 
Q 3406 3131 3298 2873 
Q 3191 2616 2906 2266 
Q 2828 2175 2409 1742 
Q 1991 1309 1228 531 
z
" transform="scale(0.015625)"/>
       </defs>
       <use xlink:href="#DejaVuSans-32"/>
       <use xlink:href="#DejaVuSans-32" x="63.623047"/>
       <use xlink:href="#DejaVuSans-35" x="127.246094"/>
       <use xlink:href="#DejaVuSans-b0" x="190.869141"/>
      </g>
     </g>
    </g>
    <g id="xtick_7">
     <g id="line2d_7">
      <path d="M 236.16 174.528 
L 236.16 307.584 
" clip-path="url(#pcdbcacf582)" style="fill: none; stroke: #b0b0b0; stroke-width: 0.8; stroke-linecap: square"/>
     </g>
     <g id="text_7">
      <!-- 270° -->
      <g transform="translate(224.11625 324.343375) scale(0.1 -0.1)">
       <defs>
        <path id="DejaVuSans-37" d="M 525 4666 
L 3525 4666 
L 3525 4397 
L 1831 0 
L 1172 0 
L 2766 4134 
L 525 4134 
L 525 4666 
z
" transform="scale(0.015625)"/>
       </defs>
       <use xlink:href="#DejaVuSans-32"/>
       <use xlink:href="#DejaVuSans-37" x="63.623047"/>
       <use xlink:href="#DejaVuSans-30" x="127.246094"/>
       <use xlink:href="#DejaVuSans-b0" x="190.869141"/>
      </g>
     </g>
    </g>
    <g id="xtick_8">
     <g id="line2d_8">
      <path d="M 236.16 174.528 
L 330.2448 268.6128 
" clip-path="url(#pcdbcacf582)" style="fill: none; stroke: #b0b0b0; stroke-width: 0.8; stroke-linecap: square"/>
     </g>
     <g id="text_8">
      <!-- 315° -->
      <g transform="translate(328.100545 281.27167) scale(0.1 -0.1)">
       <use xlink:href="#DejaVuSans-33"/>
       <use xlink:href="#DejaVuSans-31" x="63.623047"/>
       <use xlink:href="#DejaVuSans-35" x="127.246094"/>
       <use xlink:href="#DejaVuSans-b0" x="190.869141"/>
      </g>
     </g>
    </g>
   </g>
   <g id="matplotlib.axis_2">
    <g id="ytick_1">
     <g id="line2d_9">
      <path d="M 254.90479 174.528 
C 254.90479 172.066457 254.41992 169.628849 253.477928 167.354679 
C 252.535936 165.08051 251.155142 163.014006 249.414568 161.273432 
C 247.673994 159.532858 245.60749 158.152064 243.333321 157.210072 
C 241.059151 156.26808 238.621543 155.78321 236.16 155.78321 
C 233.698457 155.78321 231.260849 156.26808 228.986679 157.210072 
C 226.71251 158.152064 224.646006 159.532858 222.905432 161.273432 
C 221.164858 163.014006 219.784064 165.08051 218.842072 167.354679 
C 217.90008 169.628849 217.41521 172.066457 217.41521 174.528 
C 217.41521 176.989543 217.90008 179.427151 218.842072 181.701321 
C 219.784064 183.97549 221.164858 186.041994 222.905432 187.782568 
C 224.646006 189.523142 226.71251 190.903936 228.986679 191.845928 
C 231.260849 192.78792 233.698457 193.27279 236.16 193.27279 
C 238.621543 193.27279 241.059151 192.78792 243.333321 191.845928 
C 245.60749 190.903936 247.673994 189.523142 249.414568 187.782568 
C 251.155142 186.041994 252.535936 183.97549 253.477928 181.701321 
C 254.41992 179.427151 254.90479 176.989543 254.90479 174.528 
" clip-path="url(#pcdbcacf582)" style="fill: none; stroke: #b0b0b0; stroke-width: 0.8; stroke-linecap: square"/>
     </g>
     <g id="text_9">
      <!-- 0.2 -->
      <g transform="translate(253.477928 165.274992) scale(0.1 -0.1)">
       <defs>
        <path id="DejaVuSans-2e" d="M 684 794 
L 1344 794 
L 1344 0 
L 684 0 
L 684 794 
z
" transform="scale(0.015625)"/>
       </defs>
       <use xlink:href="#DejaVuSans-30"/>
       <use xlink:href="#DejaVuSans-2e" x="63.623047"/>
       <use xlink:href="#DejaVuSans-32" x="95.410156"/>
      </g>
     </g>
    </g>
    <g id="ytick_2">
     <g id="line2d_10">
      <path d="M 273.649581 174.528 
C 273.649581 169.604913 272.67984 164.729698 270.795856 160.181359 
C 268.911873 155.63302 266.150285 151.500011 262.669137 148.018863 
C 259.187989 144.537715 255.05498 141.776127 250.506641 139.892144 
C 245.958302 138.00816 241.083087 137.038419 236.16 137.038419 
C 231.236913 137.038419 226.361698 138.00816 221.813359 139.892144 
C 217.26502 141.776127 213.132011 144.537715 209.650863 148.018863 
C 206.169715 151.500011 203.408127 155.63302 201.524144 160.181359 
C 199.64016 164.729698 198.670419 169.604913 198.670419 174.528 
C 198.670419 179.451087 199.64016 184.326302 201.524144 188.874641 
C 203.408127 193.42298 206.169715 197.555989 209.650863 201.037137 
C 213.132011 204.518285 217.26502 207.279873 221.813359 209.163856 
C 226.361698 211.04784 231.236913 212.017581 236.16 212.017581 
C 241.083087 212.017581 245.958302 211.04784 250.506641 209.163856 
C 255.05498 207.279873 259.187989 204.518285 262.669137 201.037137 
C 266.150285 197.555989 268.911873 193.42298 270.795856 188.874641 
C 272.67984 184.326302 273.649581 179.451087 273.649581 174.528 
" clip-path="url(#pcdbcacf582)" style="fill: none; stroke: #b0b0b0; stroke-width: 0.8; stroke-linecap: square"/>
     </g>
     <g id="text_10">
      <!-- 0.4 -->
      <g transform="translate(270.795856 158.101671) scale(0.1 -0.1)">
       <use xlink:href="#DejaVuSans-30"/>
       <use xlink:href="#DejaVuSans-2e" x="63.623047"/>
       <use xlink:href="#DejaVuSans-34" x="95.410156"/>
      </g>
     </g>
    </g>
    <g id="ytick_3">
     <g id="line2d_11">
      <path d="M 292.394371 174.528 
C 292.394371 167.14337 290.93976 159.830546 288.113785 153.008038 
C 285.287809 146.185529 281.145427 139.986017 275.923705 134.764295 
C 270.701983 129.542573 264.502471 125.400191 257.679962 122.574215 
C 250.857454 119.74824 243.54463 118.293629 236.16 118.293629 
C 228.77537 118.293629 221.462546 119.74824 214.640038 122.574215 
C 207.817529 125.400191 201.618017 129.542573 196.396295 134.764295 
C 191.174573 139.986017 187.032191 146.185529 184.206215 153.008038 
C 181.38024 159.830546 179.925629 167.14337 179.925629 174.528 
C 179.925629 181.91263 181.38024 189.225454 184.206215 196.047962 
C 187.032191 202.870471 191.174573 209.069983 196.396295 214.291705 
C 201.618017 219.513427 207.817529 223.655809 214.640038 226.481785 
C 221.462546 229.30776 228.77537 230.762371 236.16 230.762371 
C 243.54463 230.762371 250.857454 229.30776 257.679962 226.481785 
C 264.502471 223.655809 270.701983 219.513427 275.923705 214.291705 
C 281.145427 209.069983 285.287809 202.870471 288.113785 196.047962 
C 290.93976 189.225454 292.394371 181.91263 292.394371 174.528 
" clip-path="url(#pcdbcacf582)" style="fill: none; stroke: #b0b0b0; stroke-width: 0.8; stroke-linecap: square"/>
     </g>
     <g id="text_11">
      <!-- 0.6 -->
      <g transform="translate(288.113785 150.92835) scale(0.1 -0.1)">
       <defs>
        <path id="DejaVuSans-36" d="M 2113 2584 
Q 1688 2584 1439 2293 
Q 1191 2003 1191 1497 
Q 1191 994 1439 701 
Q 1688 409 2113 409 
Q 2538 409 2786 701 
Q 3034 994 3034 1497 
Q 3034 2003 2786 2293 
Q 2538 2584 2113 2584 
z
M 3366 4563 
L 3366 3988 
Q 3128 4100 2886 4159 
Q 2644 4219 2406 4219 
Q 1781 4219 1451 3797 
Q 1122 3375 1075 2522 
Q 1259 2794 1537 2939 
Q 1816 3084 2150 3084 
Q 2853 3084 3261 2657 
Q 3669 2231 3669 1497 
Q 3669 778 3244 343 
Q 2819 -91 2113 -91 
Q 1303 -91 875 529 
Q 447 1150 447 2328 
Q 447 3434 972 4092 
Q 1497 4750 2381 4750 
Q 2619 4750 2861 4703 
Q 3103 4656 3366 4563 
z
" transform="scale(0.015625)"/>
       </defs>
       <use xlink:href="#DejaVuSans-30"/>
       <use xlink:href="#DejaVuSans-2e" x="63.623047"/>
       <use xlink:href="#DejaVuSans-36" x="95.410156"/>
      </g>
     </g>
    </g>
    <g id="ytick_4">
     <g id="line2d_12">
      <path d="M 311.139162 174.528 
C 311.139162 164.681827 309.19968 154.931395 305.431713 145.834717 
C 301.663746 136.738039 296.14057 128.472022 289.178274 121.509726 
C 282.215978 114.54743 273.949961 109.024254 264.853283 105.256287 
C 255.756605 101.48832 246.006173 99.548838 236.16 99.548838 
C 226.313827 99.548838 216.563395 101.48832 207.466717 105.256287 
C 198.370039 109.024254 190.104022 114.54743 183.141726 121.509726 
C 176.17943 128.472022 170.656254 136.738039 166.888287 145.834717 
C 163.12032 154.931395 161.180838 164.681827 161.180838 174.528 
C 161.180838 184.374173 163.12032 194.124605 166.888287 203.221283 
C 170.656254 212.317961 176.17943 220.583978 183.141726 227.546274 
C 190.104022 234.50857 198.370039 240.031746 207.466717 243.799713 
C 216.563395 247.56768 226.313827 249.507162 236.16 249.507162 
C 246.006173 249.507162 255.756605 247.56768 264.853283 243.799713 
C 273.949961 240.031746 282.215978 234.50857 289.178274 227.546274 
C 296.14057 220.583978 301.663746 212.317961 305.431713 203.221283 
C 309.19968 194.124605 311.139162 184.374173 311.139162 174.528 
" clip-path="url(#pcdbcacf582)" style="fill: none; stroke: #b0b0b0; stroke-width: 0.8; stroke-linecap: square"/>
     </g>
     <g id="text_12">
      <!-- 0.8 -->
      <g transform="translate(305.431713 143.75503) scale(0.1 -0.1)">
       <use xlink:href="#DejaVuSans-30"/>
       <use xlink:href="#DejaVuSans-2e" x="63.623047"/>
       <use xlink:href="#DejaVuSans-38" x="95.410156"/>
      </g>
     </g>
    </g>
    <g id="ytick_5">
     <g id="line2d_13">
      <path d="M 329.883952 174.528 
C 329.883952 162.220283 327.4596 150.032244 322.749641 138.661396 
C 318.039682 127.290549 311.135712 116.958028 302.432842 108.255158 
C 293.729972 99.552288 283.397451 92.648318 272.026604 87.938359 
C 260.655756 83.2284 248.467717 80.804048 236.16 80.804048 
C 223.852283 80.804048 211.664244 83.2284 200.293396 87.938359 
C 188.922549 92.648318 178.590028 99.552288 169.887158 108.255158 
C 161.184288 116.958028 154.280318 127.290549 149.570359 138.661396 
C 144.8604 150.032244 142.436048 162.220283 142.436048 174.528 
C 142.436048 186.835717 144.8604 199.023756 149.570359 210.394604 
C 154.280318 221.765451 161.184288 232.097972 169.887158 240.800842 
C 178.590028 249.503712 188.922549 256.407682 200.293396 261.117641 
C 211.664244 265.8276 223.852283 268.251952 236.16 268.251952 
C 248.467717 268.251952 260.655756 265.8276 272.026604 261.117641 
C 283.397451 256.407682 293.729972 249.503712 302.432842 240.800842 
C 311.135712 232.097972 318.039682 221.765451 322.749641 210.394604 
C 327.4596 199.023756 329.883952 186.835717 329.883952 174.528 
" clip-path="url(#pcdbcacf582)" style="fill: none; stroke: #b0b0b0; stroke-width: 0.8; stroke-linecap: square"/>
     </g>
     <g id="text_13">
      <!-- 1.0 -->
      <g transform="translate(322.749641 136.581709) scale(0.1 -0.1)">
       <use xlink:href="#DejaVuSans-31"/>
       <use xlink:href="#DejaVuSans-2e" x="63.623047"/>
       <use xlink:href="#DejaVuSans-30" x="95.410156"/>
      </g>
     </g>
    </g>
    <g id="ytick_6">
     <g id="line2d_14">
      <path d="M 348.628743 174.528 
C 348.628743 159.75874 345.719521 145.133093 340.067569 131.488076 
C 334.415618 117.843059 326.130855 105.444033 315.687411 95.000589 
C 305.243967 84.557145 292.844941 76.272382 279.199924 70.620431 
C 265.554907 64.968479 250.92926 62.059257 236.16 62.059257 
C 221.39074 62.059257 206.765093 64.968479 193.120076 70.620431 
C 179.475059 76.272382 167.076033 84.557145 156.632589 95.000589 
C 146.189145 105.444033 137.904382 117.843059 132.252431 131.488076 
C 126.600479 145.133093 123.691257 159.75874 123.691257 174.528 
C 123.691257 189.29726 126.600479 203.922907 132.252431 217.567924 
C 137.904382 231.212941 146.189145 243.611967 156.632589 254.055411 
C 167.076033 264.498855 179.475059 272.783618 193.120076 278.435569 
C 206.765093 284.087521 221.39074 286.996743 236.16 286.996743 
C 250.92926 286.996743 265.554907 284.087521 279.199924 278.435569 
C 292.844941 272.783618 305.243967 264.498855 315.687411 254.055411 
C 326.130855 243.611967 334.415618 231.212941 340.067569 217.567924 
C 345.719521 203.922907 348.628743 189.29726 348.628743 174.528 
" clip-path="url(#pcdbcacf582)" style="fill: none; stroke: #b0b0b0; stroke-width: 0.8; stroke-linecap: square"/>
     </g>
     <g id="text_14">
      <!-- 1.2 -->
      <g transform="translate(340.067569 129.408388) scale(0.1 -0.1)">
       <use xlink:href="#DejaVuSans-31"/>
       <use xlink:href="#DejaVuSans-2e" x="63.623047"/>
       <use xlink:href="#DejaVuSans-32" x="95.410156"/>
      </g>
     </g>
    </g>
    <g id="ytick_7">
     <g id="line2d_15">
      <path d="M 367.373533 174.528 
C 367.373533 157.297197 363.979441 140.233941 357.385498 124.314755 
C 350.791555 108.395568 341.125997 93.930039 328.941979 81.746021 
C 316.757961 69.562003 302.292432 59.896445 286.373245 53.302502 
C 270.454059 46.708559 253.390803 43.314467 236.16 43.314467 
C 218.929197 43.314467 201.865941 46.708559 185.946755 53.302502 
C 170.027568 59.896445 155.562039 69.562003 143.378021 81.746021 
C 131.194003 93.930039 121.528445 108.395568 114.934502 124.314755 
C 108.340559 140.233941 104.946467 157.297197 104.946467 174.528 
C 104.946467 191.758803 108.340559 208.822059 114.934502 224.741245 
C 121.528445 240.660432 131.194003 255.125961 143.378021 267.309979 
C 155.562039 279.493997 170.027568 289.159555 185.946755 295.753498 
C 201.865941 302.347441 218.929197 305.741533 236.16 305.741533 
C 253.390803 305.741533 270.454059 302.347441 286.373245 295.753498 
C 302.292432 289.159555 316.757961 279.493997 328.941979 267.309979 
C 341.125997 255.125961 350.791555 240.660432 357.385498 224.741245 
C 363.979441 208.822059 367.373533 191.758803 367.373533 174.528 
" clip-path="url(#pcdbcacf582)" style="fill: none; stroke: #b0b0b0; stroke-width: 0.8; stroke-linecap: square"/>
     </g>
     <g id="text_15">
      <!-- 1.4 -->
      <g transform="translate(357.385498 122.235067) scale(0.1 -0.1)">
       <use xlink:href="#DejaVuSans-31"/>
       <use xlink:href="#DejaVuSans-2e" x="63.623047"/>
       <use xlink:href="#DejaVuSans-34" x="95.410156"/>
      </g>
     </g>
    </g>
   </g>
   <g id="line2d_16">
    <path d="M 362.882634 174.528 
L 361.557821 170.567399 
L 357.593308 166.84957 
L 351.028863 163.614804 
L 341.962929 161.094098 
L 330.596462 159.494311 
L 317.284346 158.973051 
L 302.582206 159.603789 
L 287.271497 161.335969 
L 272.342282 163.960305 
L 258.914372 167.094922 
L 248.086864 170.210654 
L 240.726054 172.710158 
L 237.230813 174.062006 
L 237.345223 173.967074 
L 240.105729 172.505767 
L 243.995904 170.194365 
L 247.32336 167.885505 
L 248.73665 166.496393 
L 247.70019 166.63459 
L 244.701596 168.280867 
L 241.034287 170.721167 
L 237.103174 173.690375 
L 237.716318 173.055384 
L 239.054055 171.61101 
L 239.894375 170.51844 
L 239.561038 170.63697 
L 238.312148 171.90296 
L 236.509512 174.042115 
L 236.79122 173.589339 
L 237.393376 172.417457 
L 236.453991 173.943042 
L 236.276555 174.27661 
L 236.459677 173.824237 
L 236.659881 173.242976 
L 236.230971 174.27768 
L 236.287305 174.018168 
L 236.399461 173.223538 
L 236.211092 174.098505 
L 236.208977 173.96535 
L 236.194847 173.056713 
L 236.118765 173.948542 
L 235.968581 173.110077 
L 236.04846 174.049275 
L 235.799502 173.453247 
L 236.065438 174.315309 
L 236.018595 174.235213 
L 235.848085 173.974372 
L 236.12699 174.483606 
L 235.977156 174.312026 
L 235.388978 173.775024 
L 235.809718 174.263224 
L 234.421161 173.378513 
L 232.846396 172.484807 
L 230.830967 171.469948 
L 228.627013 170.515857 
L 226.513863 169.774995 
L 224.726805 169.336352 
L 223.412801 169.218443 
L 222.619136 169.383221 
L 222.308504 169.759906 
L 222.388215 170.268626 
L 222.741576 170.837774 
L 223.826035 171.960556 
L 225.611231 173.693605 
L 225.921833 174.366358 
L 225.818626 175.018141 
L 225.299389 175.733097 
L 222.741576 178.218226 
L 222.388215 178.787374 
L 222.308504 179.296094 
L 222.619136 179.672779 
L 223.412801 179.837557 
L 224.726805 179.719648 
L 226.513863 179.281005 
L 228.627013 178.540143 
L 230.830967 177.586052 
L 234.421161 175.677487 
L 235.809718 174.792776 
L 235.572789 175.033144 
L 235.388978 175.280976 
L 236.12699 174.572394 
L 235.848085 175.081628 
L 235.993532 174.936717 
L 235.799502 175.602753 
L 236.04846 175.006725 
L 235.968581 175.945923 
L 236.134104 175.183805 
L 236.194847 175.999287 
L 236.211092 174.957495 
L 236.399461 175.832462 
L 236.230971 174.77832 
L 236.659881 175.813024 
L 236.453991 175.112958 
L 237.393376 176.638543 
L 237.296348 176.338754 
L 236.509512 175.013885 
L 238.312148 177.15304 
L 239.561038 178.41903 
L 239.894375 178.53756 
L 239.054055 177.44499 
L 237.103174 175.365625 
L 241.034287 178.334833 
L 244.701596 180.775133 
L 247.70019 182.42141 
L 248.73665 182.559607 
L 247.32336 181.170495 
L 243.995904 178.861635 
L 240.105729 176.550233 
L 237.230813 174.993994 
L 240.726054 176.345842 
L 248.086864 178.845346 
L 258.914372 181.961078 
L 272.342282 185.095695 
L 287.271497 187.720031 
L 302.582206 189.452211 
L 317.284346 190.082949 
L 330.596462 189.561689 
L 341.962929 187.961902 
L 351.028863 185.441196 
L 357.593308 182.20643 
L 361.557821 178.488601 
L 362.882634 174.528 
L 362.882634 174.528 
" clip-path="url(#pcdbcacf582)" style="fill: none; stroke: #1f77b4; stroke-width: 1.5; stroke-linecap: square"/>
   </g>
   <g id="patch_3">
    <path d="M 369.216 174.528 
C 369.216 157.055246 365.774248 139.752393 359.087715 123.609673 
C 352.401182 107.466954 342.599903 92.798303 330.2448 80.4432 
C 317.889697 68.088097 303.221046 58.286818 287.078327 51.600285 
C 270.935607 44.913752 253.632754 41.472 236.16 41.472 
C 218.687246 41.472 201.384393 44.913752 185.241673 51.600285 
C 169.098954 58.286818 154.430303 68.088097 142.0752 80.4432 
C 129.720097 92.798303 119.918818 107.466954 113.232285 123.609673 
C 106.545752 139.752393 103.104 157.055246 103.104 174.528 
C 103.104 192.000754 106.545752 209.303607 113.232285 225.446327 
C 119.918818 241.589046 129.720097 256.257697 142.0752 268.6128 
C 154.430303 280.967903 169.098954 290.769182 185.241673 297.455715 
C 201.384393 304.142248 218.687246 307.584 236.16 307.584 
C 253.632754 307.584 270.935607 304.142248 287.078327 297.455715 
C 303.221046 290.769182 317.889697 280.967903 330.2448 268.6128 
C 342.599903 256.257697 352.401182 241.589046 359.087715 225.446327 
C 365.774248 209.303607 369.216 192.000754 369.216 174.528 
" style="fill: none; stroke: #000000; stroke-width: 0.8; stroke-linejoin: miter; stroke-linecap: square"/>
   </g>
   <g id="text_16">
    <!-- $d P/ d \Omega\ (P_0)$ -->
    <g transform="translate(205.2 16.632938) scale(0.12 -0.12)">
     <defs>
      <path id="DejaVuSans-Oblique-64" d="M 2675 525 
Q 2444 222 2128 65 
Q 1813 -91 1428 -91 
Q 903 -91 598 267 
Q 294 625 294 1247 
Q 294 1766 478 2236 
Q 663 2706 1013 3078 
Q 1244 3325 1534 3454 
Q 1825 3584 2144 3584 
Q 2481 3584 2739 3421 
Q 2997 3259 3138 2956 
L 3513 4863 
L 4091 4863 
L 3144 0 
L 2566 0 
L 2675 525 
z
M 891 1350 
Q 891 897 1095 644 
Q 1300 391 1663 391 
Q 1931 391 2161 520 
Q 2391 650 2566 903 
Q 2750 1166 2856 1509 
Q 2963 1853 2963 2188 
Q 2963 2622 2758 2865 
Q 2553 3109 2194 3109 
Q 1922 3109 1687 2981 
Q 1453 2853 1288 2613 
Q 1106 2353 998 2009 
Q 891 1666 891 1350 
z
" transform="scale(0.015625)"/>
      <path id="DejaVuSans-Oblique-50" d="M 1081 4666 
L 2541 4666 
Q 3178 4666 3512 4369 
Q 3847 4072 3847 3500 
Q 3847 2731 3353 2303 
Q 2859 1875 1966 1875 
L 1172 1875 
L 806 0 
L 172 0 
L 1081 4666 
z
M 1613 4147 
L 1275 2394 
L 2069 2394 
Q 2606 2394 2893 2669 
Q 3181 2944 3181 3456 
Q 3181 3784 2986 3965 
Q 2791 4147 2438 4147 
L 1613 4147 
z
" transform="scale(0.015625)"/>
      <path id="DejaVuSans-2f" d="M 1625 4666 
L 2156 4666 
L 531 -594 
L 0 -594 
L 1625 4666 
z
" transform="scale(0.015625)"/>
      <path id="DejaVuSans-3a9" d="M 4647 556 
L 4647 0 
L 2772 0 
L 2772 556 
Q 3325 859 3634 1378 
Q 3944 1897 3944 2528 
Q 3944 3278 3531 3731 
Q 3119 4184 2444 4184 
Q 1769 4184 1355 3729 
Q 941 3275 941 2528 
Q 941 1897 1250 1378 
Q 1563 859 2119 556 
L 2119 0 
L 244 0 
L 244 556 
L 1241 556 
Q 747 991 519 1456 
Q 294 1922 294 2497 
Q 294 3491 894 4106 
Q 1491 4722 2444 4722 
Q 3391 4722 3994 4106 
Q 4594 3494 4594 2528 
Q 4594 1922 4372 1459 
Q 4150 997 3647 556 
L 4647 556 
z
" transform="scale(0.015625)"/>
      <path id="DejaVuSans-28" d="M 1984 4856 
Q 1566 4138 1362 3434 
Q 1159 2731 1159 2009 
Q 1159 1288 1364 580 
Q 1569 -128 1984 -844 
L 1484 -844 
Q 1016 -109 783 600 
Q 550 1309 550 2009 
Q 550 2706 781 3412 
Q 1013 4119 1484 4856 
L 1984 4856 
z
" transform="scale(0.015625)"/>
      <path id="DejaVuSans-29" d="M 513 4856 
L 1013 4856 
Q 1481 4119 1714 3412 
Q 1947 2706 1947 2009 
Q 1947 1309 1714 600 
Q 1481 -109 1013 -844 
L 513 -844 
Q 928 -128 1133 580 
Q 1338 1288 1338 2009 
Q 1338 2731 1133 3434 
Q 928 4138 513 4856 
z
" transform="scale(0.015625)"/>
     </defs>
     <use xlink:href="#DejaVuSans-Oblique-64" transform="translate(0 0.015625)"/>
     <use xlink:href="#DejaVuSans-Oblique-50" transform="translate(63.476562 0.015625)"/>
     <use xlink:href="#DejaVuSans-2f" transform="translate(123.779297 0.015625)"/>
     <use xlink:href="#DejaVuSans-Oblique-64" transform="translate(157.470703 0.015625)"/>
     <use xlink:href="#DejaVuSans-3a9" transform="translate(220.947266 0.015625)"/>
     <use xlink:href="#DejaVuSans-28" transform="translate(329.83366 0.015625)"/>
     <use xlink:href="#DejaVuSans-Oblique-50" transform="translate(368.847332 0.015625)"/>
     <use xlink:href="#DejaVuSans-30" transform="translate(429.150066 -16.390625) scale(0.7)"/>
     <use xlink:href="#DejaVuSans-29" transform="translate(476.420574 0.015625)"/>
    </g>
   </g>
   <g id="legend_1">
    <g id="patch_4">
     <path d="M 284.692563 64.150125 
L 362.216 64.150125 
Q 364.216 64.150125 364.216 62.150125 
L 364.216 48.472 
Q 364.216 46.472 362.216 46.472 
L 284.692563 46.472 
Q 282.692563 46.472 282.692563 48.472 
L 282.692563 62.150125 
Q 282.692563 64.150125 284.692563 64.150125 
z
" style="fill: #ffffff; opacity: 0.8; stroke: #cccccc; stroke-linejoin: miter"/>
    </g>
    <g id="line2d_17">
     <path d="M 286.692563 54.570438 
L 296.692563 54.570438 
L 306.692563 54.570438 
" style="fill: none; stroke: #1f77b4; stroke-width: 1.5; stroke-linecap: square"/>
    </g>
    <g id="text_17">
     <!-- y-z plane -->
     <g transform="translate(314.692563 58.070438) scale(0.1 -0.1)">
      <defs>
       <path id="DejaVuSans-79" d="M 2059 -325 
Q 1816 -950 1584 -1140 
Q 1353 -1331 966 -1331 
L 506 -1331 
L 506 -850 
L 844 -850 
Q 1081 -850 1212 -737 
Q 1344 -625 1503 -206 
L 1606 56 
L 191 3500 
L 800 3500 
L 1894 763 
L 2988 3500 
L 3597 3500 
L 2059 -325 
z
" transform="scale(0.015625)"/>
       <path id="DejaVuSans-2d" d="M 313 2009 
L 1997 2009 
L 1997 1497 
L 313 1497 
L 313 2009 
z
" transform="scale(0.015625)"/>
       <path id="DejaVuSans-7a" d="M 353 3500 
L 3084 3500 
L 3084 2975 
L 922 459 
L 3084 459 
L 3084 0 
L 275 0 
L 275 525 
L 2438 3041 
L 353 3041 
L 353 3500 
z
" transform="scale(0.015625)"/>
       <path id="DejaVuSans-20" transform="scale(0.015625)"/>
       <path id="DejaVuSans-70" d="M 1159 525 
L 1159 -1331 
L 581 -1331 
L 581 3500 
L 1159 3500 
L 1159 2969 
Q 1341 3281 1617 3432 
Q 1894 3584 2278 3584 
Q 2916 3584 3314 3078 
Q 3713 2572 3713 1747 
Q 3713 922 3314 415 
Q 2916 -91 2278 -91 
Q 1894 -91 1617 61 
Q 1341 213 1159 525 
z
M 3116 1747 
Q 3116 2381 2855 2742 
Q 2594 3103 2138 3103 
Q 1681 3103 1420 2742 
Q 1159 2381 1159 1747 
Q 1159 1113 1420 752 
Q 1681 391 2138 391 
Q 2594 391 2855 752 
Q 3116 1113 3116 1747 
z
" transform="scale(0.015625)"/>
       <path id="DejaVuSans-6c" d="M 603 4863 
L 1178 4863 
L 1178 0 
L 603 0 
L 603 4863 
z
" transform="scale(0.015625)"/>
       <path id="DejaVuSans-61" d="M 2194 1759 
Q 1497 1759 1228 1600 
Q 959 1441 959 1056 
Q 959 750 1161 570 
Q 1363 391 1709 391 
Q 2188 391 2477 730 
Q 2766 1069 2766 1631 
L 2766 1759 
L 2194 1759 
z
M 3341 1997 
L 3341 0 
L 2766 0 
L 2766 531 
Q 2569 213 2275 61 
Q 1981 -91 1556 -91 
Q 1019 -91 701 211 
Q 384 513 384 1019 
Q 384 1609 779 1909 
Q 1175 2209 1959 2209 
L 2766 2209 
L 2766 2266 
Q 2766 2663 2505 2880 
Q 2244 3097 1772 3097 
Q 1472 3097 1187 3025 
Q 903 2953 641 2809 
L 641 3341 
Q 956 3463 1253 3523 
Q 1550 3584 1831 3584 
Q 2591 3584 2966 3190 
Q 3341 2797 3341 1997 
z
" transform="scale(0.015625)"/>
       <path id="DejaVuSans-6e" d="M 3513 2113 
L 3513 0 
L 2938 0 
L 2938 2094 
Q 2938 2591 2744 2837 
Q 2550 3084 2163 3084 
Q 1697 3084 1428 2787 
Q 1159 2491 1159 1978 
L 1159 0 
L 581 0 
L 581 3500 
L 1159 3500 
L 1159 2956 
Q 1366 3272 1645 3428 
Q 1925 3584 2291 3584 
Q 2894 3584 3203 3211 
Q 3513 2838 3513 2113 
z
" transform="scale(0.015625)"/>
       <path id="DejaVuSans-65" d="M 3597 1894 
L 3597 1613 
L 953 1613 
Q 991 1019 1311 708 
Q 1631 397 2203 397 
Q 2534 397 2845 478 
Q 3156 559 3463 722 
L 3463 178 
Q 3153 47 2828 -22 
Q 2503 -91 2169 -91 
Q 1331 -91 842 396 
Q 353 884 353 1716 
Q 353 2575 817 3079 
Q 1281 3584 2069 3584 
Q 2775 3584 3186 3129 
Q 3597 2675 3597 1894 
z
M 3022 2063 
Q 3016 2534 2758 2815 
Q 2500 3097 2075 3097 
Q 1594 3097 1305 2825 
Q 1016 2553 972 2059 
L 3022 2063 
z
" transform="scale(0.015625)"/>
      </defs>
      <use xlink:href="#DejaVuSans-79"/>
      <use xlink:href="#DejaVuSans-2d" x="57.429688"/>
      <use xlink:href="#DejaVuSans-7a" x="93.513672"/>
      <use xlink:href="#DejaVuSans-20" x="146.003906"/>
      <use xlink:href="#DejaVuSans-70" x="177.791016"/>
      <use xlink:href="#DejaVuSans-6c" x="241.267578"/>
      <use xlink:href="#DejaVuSans-61" x="269.050781"/>
      <use xlink:href="#DejaVuSans-6e" x="330.330078"/>
      <use xlink:href="#DejaVuSans-65" x="393.708984"/>
     </g>
    </g>
   </g>
  </g>
 </g>
 <defs>
  <clipPath id="pcdbcacf582">
   <path d="M 369.216 174.528 
C 369.216 157.055246 365.774248 139.752393 359.087715 123.609673 
C 352.401182 107.466954 342.599903 92.798303 330.2448 80.4432 
C 317.889697 68.088097 303.221046 58.286818 287.078327 51.600285 
C 270.935607 44.913752 253.632754 41.472 236.16 41.472 
C 218.687246 41.472 201.384393 44.913752 185.241673 51.600285 
C 169.098954 58.286818 154.430303 68.088097 142.0752 80.4432 
C 129.720097 92.798303 119.918818 107.466954 113.232285 123.609673 
C 106.545752 139.752393 103.104 157.055246 103.104 174.528 
C 103.104 192.000754 106.545752 209.303607 113.232285 225.446327 
C 119.918818 241.589046 129.720097 256.257697 142.0752 268.6128 
C 154.430303 280.967903 169.098954 290.769182 185.241673 297.455715 
C 201.384393 304.142248 218.687246 307.584 236.16 307.584 
C 253.632754 307.584 270.935607 304.142248 287.078327 297.455715 
C 303.221046 290.769182 317.889697 280.967903 330.2448 268.6128 
C 342.599903 256.257697 352.401182 241.589046 359.087715 225.446327 
C 365.774248 209.303607 369.216 192.000754 369.216 174.528 
M 236.16 174.528 
C 236.16 174.528 236.16 174.528 236.16 174.528 
C 236.16 174.528 236.16 174.528 236.16 174.528 
C 236.16 174.528 236.16 174.528 236.16 174.528 
C 236.16 174.528 236.16 174.528 236.16 174.528 
C 236.16 174.528 236.16 174.528 236.16 174.528 
C 236.16 174.528 236.16 174.528 236.16 174.528 
C 236.16 174.528 236.16 174.528 236.16 174.528 
C 236.16 174.528 236.16 174.528 236.16 174.528 
C 236.16 174.528 236.16 174.528 236.16 174.528 
C 236.16 174.528 236.16 174.528 236.16 174.528 
C 236.16 174.528 236.16 174.528 236.16 174.528 
C 236.16 174.528 236.16 174.528 236.16 174.528 
C 236.16 174.528 236.16 174.528 236.16 174.528 
C 236.16 174.528 236.16 174.528 236.16 174.528 
C 236.16 174.528 236.16 174.528 236.16 174.528 
C 236.16 174.528 236.16 174.528 236.16 174.528 
M 369.216 174.528 
z
"/>
  </clipPath>
 </defs>
</svg>
