<?xml version="1.0" encoding="utf-8" standalone="no"?>
<!DOCTYPE svg PUBLIC "-//W3C//DTD SVG 1.1//EN"
  "http://www.w3.org/Graphics/SVG/1.1/DTD/svg11.dtd">
<!-- Created with matplotlib (https://matplotlib.org/) -->
<svg height="345.6pt" version="1.1" viewBox="0 0 460.8 345.6" width="460.8pt" xmlns="http://www.w3.org/2000/svg" xmlns:xlink="http://www.w3.org/1999/xlink">
 <metadata>
  <rdf:RDF xmlns:cc="http://creativecommons.org/ns#" xmlns:dc="http://purl.org/dc/elements/1.1/" xmlns:rdf="http://www.w3.org/1999/02/22-rdf-syntax-ns#">
   <cc:Work>
    <dc:type rdf:resource="http://purl.org/dc/dcmitype/StillImage"/>
    <dc:date>2023-08-07T17:07:22.286171</dc:date>
    <dc:format>image/svg+xml</dc:format>
    <dc:creator>
     <cc:Agent>
      <dc:title>Matplotlib v3.3.4, https://matplotlib.org/</dc:title>
     </cc:Agent>
    </dc:creator>
   </cc:Work>
  </rdf:RDF>
 </metadata>
 <defs>
  <style type="text/css">*{stroke-linecap:butt;stroke-linejoin:round;}</style>
 </defs>
 <g id="figure_1">
  <g id="patch_1">
   <path d="M 0 345.6 
L 460.8 345.6 
L 460.8 0 
L 0 0 
z
" style="fill:#ffffff;"/>
  </g>
  <g id="axes_1">
   <g id="patch_2">
    <path d="M 369.216 174.528 
C 369.216 157.055246 365.774248 139.752393 359.087715 123.609673 
C 352.401182 107.466954 342.599903 92.798303 330.2448 80.4432 
C 317.889697 68.088097 303.221046 58.286818 287.078327 51.600285 
C 270.935607 44.913752 253.632754 41.472 236.16 41.472 
C 218.687246 41.472 201.384393 44.913752 185.241673 51.600285 
C 169.098954 58.286818 154.430303 68.088097 142.0752 80.4432 
C 129.720097 92.798303 119.918818 107.466954 113.232285 123.609673 
C 106.545752 139.752393 103.104 157.055246 103.104 174.528 
C 103.104 192.000754 106.545752 209.303607 113.232285 225.446327 
C 119.918818 241.589046 129.720097 256.257697 142.0752 268.6128 
C 154.430303 280.967903 169.098954 290.769182 185.241673 297.455715 
C 201.384393 304.142248 218.687246 307.584 236.16 307.584 
C 253.632754 307.584 270.935607 304.142248 287.078327 297.455715 
C 303.221046 290.769182 317.889697 280.967903 330.2448 268.6128 
C 342.599903 256.257697 352.401182 241.589046 359.087715 225.446327 
C 365.774248 209.303607 369.216 192.000754 369.216 174.528 
M 236.16 174.528 
C 236.16 174.528 236.16 174.528 236.16 174.528 
C 236.16 174.528 236.16 174.528 236.16 174.528 
C 236.16 174.528 236.16 174.528 236.16 174.528 
C 236.16 174.528 236.16 174.528 236.16 174.528 
C 236.16 174.528 236.16 174.528 236.16 174.528 
C 236.16 174.528 236.16 174.528 236.16 174.528 
C 236.16 174.528 236.16 174.528 236.16 174.528 
C 236.16 174.528 236.16 174.528 236.16 174.528 
C 236.16 174.528 236.16 174.528 236.16 174.528 
C 236.16 174.528 236.16 174.528 236.16 174.528 
C 236.16 174.528 236.16 174.528 236.16 174.528 
C 236.16 174.528 236.16 174.528 236.16 174.528 
C 236.16 174.528 236.16 174.528 236.16 174.528 
C 236.16 174.528 236.16 174.528 236.16 174.528 
C 236.16 174.528 236.16 174.528 236.16 174.528 
C 236.16 174.528 236.16 174.528 236.16 174.528 
M 369.216 174.528 
z
" style="fill:#ffffff;"/>
   </g>
   <g id="matplotlib.axis_1">
    <g id="xtick_1">
     <g id="line2d_1">
      <path clip-path="url(#p31361ee242)" d="M 236.16 174.528 
L 369.216 174.528 
" style="fill:none;stroke:#b0b0b0;stroke-linecap:square;stroke-width:0.8;"/>
     </g>
     <g id="text_1">
      <!-- 0° -->
      <g transform="translate(377.53475 177.287375)scale(0.1 -0.1)">
       <defs>
        <path d="M 31.78125 66.40625 
Q 24.171875 66.40625 20.328125 58.90625 
Q 16.5 51.421875 16.5 36.375 
Q 16.5 21.390625 20.328125 13.890625 
Q 24.171875 6.390625 31.78125 6.390625 
Q 39.453125 6.390625 43.28125 13.890625 
Q 47.125 21.390625 47.125 36.375 
Q 47.125 51.421875 43.28125 58.90625 
Q 39.453125 66.40625 31.78125 66.40625 
z
M 31.78125 74.21875 
Q 44.046875 74.21875 50.515625 64.515625 
Q 56.984375 54.828125 56.984375 36.375 
Q 56.984375 17.96875 50.515625 8.265625 
Q 44.046875 -1.421875 31.78125 -1.421875 
Q 19.53125 -1.421875 13.0625 8.265625 
Q 6.59375 17.96875 6.59375 36.375 
Q 6.59375 54.828125 13.0625 64.515625 
Q 19.53125 74.21875 31.78125 74.21875 
z
" id="DejaVuSans-48"/>
        <path d="M 25 67.921875 
Q 21.09375 67.921875 18.40625 65.203125 
Q 15.71875 62.5 15.71875 58.59375 
Q 15.71875 54.734375 18.40625 52.078125 
Q 21.09375 49.421875 25 49.421875 
Q 28.90625 49.421875 31.59375 52.078125 
Q 34.28125 54.734375 34.28125 58.59375 
Q 34.28125 62.453125 31.5625 65.1875 
Q 28.859375 67.921875 25 67.921875 
z
M 25 74.21875 
Q 28.125 74.21875 31 73.015625 
Q 33.890625 71.828125 35.984375 69.578125 
Q 38.234375 67.390625 39.359375 64.59375 
Q 40.484375 61.8125 40.484375 58.59375 
Q 40.484375 52.15625 35.96875 47.6875 
Q 31.453125 43.21875 24.90625 43.21875 
Q 18.3125 43.21875 13.90625 47.609375 
Q 9.515625 52 9.515625 58.59375 
Q 9.515625 65.140625 14 69.671875 
Q 18.5 74.21875 25 74.21875 
z
" id="DejaVuSans-176"/>
       </defs>
       <use xlink:href="#DejaVuSans-48"/>
       <use x="63.623047" xlink:href="#DejaVuSans-176"/>
      </g>
     </g>
    </g>
    <g id="xtick_2">
     <g id="line2d_2">
      <path clip-path="url(#p31361ee242)" d="M 236.16 174.528 
L 330.2448 80.4432 
" style="fill:none;stroke:#b0b0b0;stroke-linecap:square;stroke-width:0.8;"/>
     </g>
     <g id="text_2">
      <!-- 45° -->
      <g transform="translate(331.281795 73.30308)scale(0.1 -0.1)">
       <defs>
        <path d="M 37.796875 64.3125 
L 12.890625 25.390625 
L 37.796875 25.390625 
z
M 35.203125 72.90625 
L 47.609375 72.90625 
L 47.609375 25.390625 
L 58.015625 25.390625 
L 58.015625 17.1875 
L 47.609375 17.1875 
L 47.609375 0 
L 37.796875 0 
L 37.796875 17.1875 
L 4.890625 17.1875 
L 4.890625 26.703125 
z
" id="DejaVuSans-52"/>
        <path d="M 10.796875 72.90625 
L 49.515625 72.90625 
L 49.515625 64.59375 
L 19.828125 64.59375 
L 19.828125 46.734375 
Q 21.96875 47.46875 24.109375 47.828125 
Q 26.265625 48.1875 28.421875 48.1875 
Q 40.625 48.1875 47.75 41.5 
Q 54.890625 34.8125 54.890625 23.390625 
Q 54.890625 11.625 47.5625 5.09375 
Q 40.234375 -1.421875 26.90625 -1.421875 
Q 22.3125 -1.421875 17.546875 -0.640625 
Q 12.796875 0.140625 7.71875 1.703125 
L 7.71875 11.625 
Q 12.109375 9.234375 16.796875 8.0625 
Q 21.484375 6.890625 26.703125 6.890625 
Q 35.15625 6.890625 40.078125 11.328125 
Q 45.015625 15.765625 45.015625 23.390625 
Q 45.015625 31 40.078125 35.4375 
Q 35.15625 39.890625 26.703125 39.890625 
Q 22.75 39.890625 18.8125 39.015625 
Q 14.890625 38.140625 10.796875 36.28125 
z
" id="DejaVuSans-53"/>
       </defs>
       <use xlink:href="#DejaVuSans-52"/>
       <use x="63.623047" xlink:href="#DejaVuSans-53"/>
       <use x="127.246094" xlink:href="#DejaVuSans-176"/>
      </g>
     </g>
    </g>
    <g id="xtick_3">
     <g id="line2d_3">
      <path clip-path="url(#p31361ee242)" d="M 236.16 174.528 
L 236.16 41.472 
" style="fill:none;stroke:#b0b0b0;stroke-linecap:square;stroke-width:0.8;"/>
     </g>
     <g id="text_3">
      <!-- 90° -->
      <g transform="translate(227.2975 30.231375)scale(0.1 -0.1)">
       <defs>
        <path d="M 10.984375 1.515625 
L 10.984375 10.5 
Q 14.703125 8.734375 18.5 7.8125 
Q 22.3125 6.890625 25.984375 6.890625 
Q 35.75 6.890625 40.890625 13.453125 
Q 46.046875 20.015625 46.78125 33.40625 
Q 43.953125 29.203125 39.59375 26.953125 
Q 35.25 24.703125 29.984375 24.703125 
Q 19.046875 24.703125 12.671875 31.3125 
Q 6.296875 37.9375 6.296875 49.421875 
Q 6.296875 60.640625 12.9375 67.421875 
Q 19.578125 74.21875 30.609375 74.21875 
Q 43.265625 74.21875 49.921875 64.515625 
Q 56.59375 54.828125 56.59375 36.375 
Q 56.59375 19.140625 48.40625 8.859375 
Q 40.234375 -1.421875 26.421875 -1.421875 
Q 22.703125 -1.421875 18.890625 -0.6875 
Q 15.09375 0.046875 10.984375 1.515625 
z
M 30.609375 32.421875 
Q 37.25 32.421875 41.125 36.953125 
Q 45.015625 41.5 45.015625 49.421875 
Q 45.015625 57.28125 41.125 61.84375 
Q 37.25 66.40625 30.609375 66.40625 
Q 23.96875 66.40625 20.09375 61.84375 
Q 16.21875 57.28125 16.21875 49.421875 
Q 16.21875 41.5 20.09375 36.953125 
Q 23.96875 32.421875 30.609375 32.421875 
z
" id="DejaVuSans-57"/>
       </defs>
       <use xlink:href="#DejaVuSans-57"/>
       <use x="63.623047" xlink:href="#DejaVuSans-48"/>
       <use x="127.246094" xlink:href="#DejaVuSans-176"/>
      </g>
     </g>
    </g>
    <g id="xtick_4">
     <g id="line2d_4">
      <path clip-path="url(#p31361ee242)" d="M 236.16 174.528 
L 142.0752 80.4432 
" style="fill:none;stroke:#b0b0b0;stroke-linecap:square;stroke-width:0.8;"/>
     </g>
     <g id="text_4">
      <!-- 135° -->
      <g transform="translate(120.131955 73.30308)scale(0.1 -0.1)">
       <defs>
        <path d="M 12.40625 8.296875 
L 28.515625 8.296875 
L 28.515625 63.921875 
L 10.984375 60.40625 
L 10.984375 69.390625 
L 28.421875 72.90625 
L 38.28125 72.90625 
L 38.28125 8.296875 
L 54.390625 8.296875 
L 54.390625 0 
L 12.40625 0 
z
" id="DejaVuSans-49"/>
        <path d="M 40.578125 39.3125 
Q 47.65625 37.796875 51.625 33 
Q 55.609375 28.21875 55.609375 21.1875 
Q 55.609375 10.40625 48.1875 4.484375 
Q 40.765625 -1.421875 27.09375 -1.421875 
Q 22.515625 -1.421875 17.65625 -0.515625 
Q 12.796875 0.390625 7.625 2.203125 
L 7.625 11.71875 
Q 11.71875 9.328125 16.59375 8.109375 
Q 21.484375 6.890625 26.8125 6.890625 
Q 36.078125 6.890625 40.9375 10.546875 
Q 45.796875 14.203125 45.796875 21.1875 
Q 45.796875 27.640625 41.28125 31.265625 
Q 36.765625 34.90625 28.71875 34.90625 
L 20.21875 34.90625 
L 20.21875 43.015625 
L 29.109375 43.015625 
Q 36.375 43.015625 40.234375 45.921875 
Q 44.09375 48.828125 44.09375 54.296875 
Q 44.09375 59.90625 40.109375 62.90625 
Q 36.140625 65.921875 28.71875 65.921875 
Q 24.65625 65.921875 20.015625 65.03125 
Q 15.375 64.15625 9.8125 62.3125 
L 9.8125 71.09375 
Q 15.4375 72.65625 20.34375 73.4375 
Q 25.25 74.21875 29.59375 74.21875 
Q 40.828125 74.21875 47.359375 69.109375 
Q 53.90625 64.015625 53.90625 55.328125 
Q 53.90625 49.265625 50.4375 45.09375 
Q 46.96875 40.921875 40.578125 39.3125 
z
" id="DejaVuSans-51"/>
       </defs>
       <use xlink:href="#DejaVuSans-49"/>
       <use x="63.623047" xlink:href="#DejaVuSans-51"/>
       <use x="127.246094" xlink:href="#DejaVuSans-53"/>
       <use x="190.869141" xlink:href="#DejaVuSans-176"/>
      </g>
     </g>
    </g>
    <g id="xtick_5">
     <g id="line2d_5">
      <path clip-path="url(#p31361ee242)" d="M 236.16 174.528 
L 103.104 174.528 
" style="fill:none;stroke:#b0b0b0;stroke-linecap:square;stroke-width:0.8;"/>
     </g>
     <g id="text_5">
      <!-- 180° -->
      <g transform="translate(77.06025 177.287375)scale(0.1 -0.1)">
       <defs>
        <path d="M 31.78125 34.625 
Q 24.75 34.625 20.71875 30.859375 
Q 16.703125 27.09375 16.703125 20.515625 
Q 16.703125 13.921875 20.71875 10.15625 
Q 24.75 6.390625 31.78125 6.390625 
Q 38.8125 6.390625 42.859375 10.171875 
Q 46.921875 13.96875 46.921875 20.515625 
Q 46.921875 27.09375 42.890625 30.859375 
Q 38.875 34.625 31.78125 34.625 
z
M 21.921875 38.8125 
Q 15.578125 40.375 12.03125 44.71875 
Q 8.5 49.078125 8.5 55.328125 
Q 8.5 64.0625 14.71875 69.140625 
Q 20.953125 74.21875 31.78125 74.21875 
Q 42.671875 74.21875 48.875 69.140625 
Q 55.078125 64.0625 55.078125 55.328125 
Q 55.078125 49.078125 51.53125 44.71875 
Q 48 40.375 41.703125 38.8125 
Q 48.828125 37.15625 52.796875 32.3125 
Q 56.78125 27.484375 56.78125 20.515625 
Q 56.78125 9.90625 50.3125 4.234375 
Q 43.84375 -1.421875 31.78125 -1.421875 
Q 19.734375 -1.421875 13.25 4.234375 
Q 6.78125 9.90625 6.78125 20.515625 
Q 6.78125 27.484375 10.78125 32.3125 
Q 14.796875 37.15625 21.921875 38.8125 
z
M 18.3125 54.390625 
Q 18.3125 48.734375 21.84375 45.5625 
Q 25.390625 42.390625 31.78125 42.390625 
Q 38.140625 42.390625 41.71875 45.5625 
Q 45.3125 48.734375 45.3125 54.390625 
Q 45.3125 60.0625 41.71875 63.234375 
Q 38.140625 66.40625 31.78125 66.40625 
Q 25.390625 66.40625 21.84375 63.234375 
Q 18.3125 60.0625 18.3125 54.390625 
z
" id="DejaVuSans-56"/>
       </defs>
       <use xlink:href="#DejaVuSans-49"/>
       <use x="63.623047" xlink:href="#DejaVuSans-56"/>
       <use x="127.246094" xlink:href="#DejaVuSans-48"/>
       <use x="190.869141" xlink:href="#DejaVuSans-176"/>
      </g>
     </g>
    </g>
    <g id="xtick_6">
     <g id="line2d_6">
      <path clip-path="url(#p31361ee242)" d="M 236.16 174.528 
L 142.0752 268.6128 
" style="fill:none;stroke:#b0b0b0;stroke-linecap:square;stroke-width:0.8;"/>
     </g>
     <g id="text_6">
      <!-- 225° -->
      <g transform="translate(120.131955 281.27167)scale(0.1 -0.1)">
       <defs>
        <path d="M 19.1875 8.296875 
L 53.609375 8.296875 
L 53.609375 0 
L 7.328125 0 
L 7.328125 8.296875 
Q 12.9375 14.109375 22.625 23.890625 
Q 32.328125 33.6875 34.8125 36.53125 
Q 39.546875 41.84375 41.421875 45.53125 
Q 43.3125 49.21875 43.3125 52.78125 
Q 43.3125 58.59375 39.234375 62.25 
Q 35.15625 65.921875 28.609375 65.921875 
Q 23.96875 65.921875 18.8125 64.3125 
Q 13.671875 62.703125 7.8125 59.421875 
L 7.8125 69.390625 
Q 13.765625 71.78125 18.9375 73 
Q 24.125 74.21875 28.421875 74.21875 
Q 39.75 74.21875 46.484375 68.546875 
Q 53.21875 62.890625 53.21875 53.421875 
Q 53.21875 48.921875 51.53125 44.890625 
Q 49.859375 40.875 45.40625 35.40625 
Q 44.1875 33.984375 37.640625 27.21875 
Q 31.109375 20.453125 19.1875 8.296875 
z
" id="DejaVuSans-50"/>
       </defs>
       <use xlink:href="#DejaVuSans-50"/>
       <use x="63.623047" xlink:href="#DejaVuSans-50"/>
       <use x="127.246094" xlink:href="#DejaVuSans-53"/>
       <use x="190.869141" xlink:href="#DejaVuSans-176"/>
      </g>
     </g>
    </g>
    <g id="xtick_7">
     <g id="line2d_7">
      <path clip-path="url(#p31361ee242)" d="M 236.16 174.528 
L 236.16 307.584 
" style="fill:none;stroke:#b0b0b0;stroke-linecap:square;stroke-width:0.8;"/>
     </g>
     <g id="text_7">
      <!-- 270° -->
      <g transform="translate(224.11625 324.343375)scale(0.1 -0.1)">
       <defs>
        <path d="M 8.203125 72.90625 
L 55.078125 72.90625 
L 55.078125 68.703125 
L 28.609375 0 
L 18.3125 0 
L 43.21875 64.59375 
L 8.203125 64.59375 
z
" id="DejaVuSans-55"/>
       </defs>
       <use xlink:href="#DejaVuSans-50"/>
       <use x="63.623047" xlink:href="#DejaVuSans-55"/>
       <use x="127.246094" xlink:href="#DejaVuSans-48"/>
       <use x="190.869141" xlink:href="#DejaVuSans-176"/>
      </g>
     </g>
    </g>
    <g id="xtick_8">
     <g id="line2d_8">
      <path clip-path="url(#p31361ee242)" d="M 236.16 174.528 
L 330.2448 268.6128 
" style="fill:none;stroke:#b0b0b0;stroke-linecap:square;stroke-width:0.8;"/>
     </g>
     <g id="text_8">
      <!-- 315° -->
      <g transform="translate(328.100545 281.27167)scale(0.1 -0.1)">
       <use xlink:href="#DejaVuSans-51"/>
       <use x="63.623047" xlink:href="#DejaVuSans-49"/>
       <use x="127.246094" xlink:href="#DejaVuSans-53"/>
       <use x="190.869141" xlink:href="#DejaVuSans-176"/>
      </g>
     </g>
    </g>
   </g>
   <g id="matplotlib.axis_2">
    <g id="ytick_1">
     <g id="line2d_9">
      <path clip-path="url(#p31361ee242)" d="M 251.597317 174.528 
C 251.597317 172.50079 251.198001 170.493292 250.422221 168.620394 
C 249.646442 166.747497 248.509286 165.045622 247.075832 163.612168 
C 245.642378 162.178714 243.940503 161.041558 242.067606 160.265779 
C 240.194708 159.489999 238.18721 159.090683 236.16 159.090683 
C 234.13279 159.090683 232.125292 159.489999 230.252394 160.265779 
C 228.379497 161.041558 226.677622 162.178714 225.244168 163.612168 
C 223.810714 165.045622 222.673558 166.747497 221.897779 168.620394 
C 221.121999 170.493292 220.722683 172.50079 220.722683 174.528 
C 220.722683 176.55521 221.121999 178.562708 221.897779 180.435606 
C 222.673558 182.308503 223.810714 184.010378 225.244168 185.443832 
C 226.677622 186.877286 228.379497 188.014442 230.252394 188.790221 
C 232.125292 189.566001 234.13279 189.965317 236.16 189.965317 
C 238.18721 189.965317 240.194708 189.566001 242.067606 188.790221 
C 243.940503 188.014442 245.642378 186.877286 247.075832 185.443832 
C 248.509286 184.010378 249.646442 182.308503 250.422221 180.435606 
C 251.198001 178.562708 251.597317 176.55521 251.597317 174.528 
" style="fill:none;stroke:#b0b0b0;stroke-linecap:square;stroke-width:0.8;"/>
     </g>
     <g id="text_9">
      <!-- 1 -->
      <g transform="translate(250.422221 166.540707)scale(0.1 -0.1)">
       <use xlink:href="#DejaVuSans-49"/>
      </g>
     </g>
    </g>
    <g id="ytick_2">
     <g id="line2d_10">
      <path clip-path="url(#p31361ee242)" d="M 267.034634 174.528 
C 267.034634 170.47358 266.236002 166.458584 264.684443 162.712789 
C 263.132884 158.966993 260.858571 155.563244 257.991663 152.696337 
C 255.124756 149.829429 251.721007 147.555116 247.975211 146.003557 
C 244.229416 144.451998 240.21442 143.653366 236.16 143.653366 
C 232.10558 143.653366 228.090584 144.451998 224.344789 146.003557 
C 220.598993 147.555116 217.195244 149.829429 214.328337 152.696337 
C 211.461429 155.563244 209.187116 158.966993 207.635557 162.712789 
C 206.083998 166.458584 205.285366 170.47358 205.285366 174.528 
C 205.285366 178.58242 206.083998 182.597416 207.635557 186.343211 
C 209.187116 190.089007 211.461429 193.492756 214.328337 196.359663 
C 217.195244 199.226571 220.598993 201.500884 224.344789 203.052443 
C 228.090584 204.604002 232.10558 205.402634 236.16 205.402634 
C 240.21442 205.402634 244.229416 204.604002 247.975211 203.052443 
C 251.721007 201.500884 255.124756 199.226571 257.991663 196.359663 
C 260.858571 193.492756 263.132884 190.089007 264.684443 186.343211 
C 266.236002 182.597416 267.034634 178.58242 267.034634 174.528 
" style="fill:none;stroke:#b0b0b0;stroke-linecap:square;stroke-width:0.8;"/>
     </g>
     <g id="text_10">
      <!-- 2 -->
      <g transform="translate(264.684443 160.633101)scale(0.1 -0.1)">
       <use xlink:href="#DejaVuSans-50"/>
      </g>
     </g>
    </g>
    <g id="ytick_3">
     <g id="line2d_11">
      <path clip-path="url(#p31361ee242)" d="M 282.471952 174.528 
C 282.471952 168.44637 281.274003 162.423877 278.946664 156.805183 
C 276.619325 151.18649 273.207857 146.080867 268.907495 141.780505 
C 264.607133 137.480143 259.50151 134.068675 253.882817 131.741336 
C 248.264123 129.413997 242.24163 128.216048 236.16 128.216048 
C 230.07837 128.216048 224.055877 129.413997 218.437183 131.741336 
C 212.81849 134.068675 207.712867 137.480143 203.412505 141.780505 
C 199.112143 146.080867 195.700675 151.18649 193.373336 156.805183 
C 191.045997 162.423877 189.848048 168.44637 189.848048 174.528 
C 189.848048 180.60963 191.045997 186.632123 193.373336 192.250817 
C 195.700675 197.86951 199.112143 202.975133 203.412505 207.275495 
C 207.712867 211.575857 212.81849 214.987325 218.437183 217.314664 
C 224.055877 219.642003 230.07837 220.839952 236.16 220.839952 
C 242.24163 220.839952 248.264123 219.642003 253.882817 217.314664 
C 259.50151 214.987325 264.607133 211.575857 268.907495 207.275495 
C 273.207857 202.975133 276.619325 197.86951 278.946664 192.250817 
C 281.274003 186.632123 282.471952 180.60963 282.471952 174.528 
" style="fill:none;stroke:#b0b0b0;stroke-linecap:square;stroke-width:0.8;"/>
     </g>
     <g id="text_11">
      <!-- 3 -->
      <g transform="translate(278.946664 154.725496)scale(0.1 -0.1)">
       <use xlink:href="#DejaVuSans-51"/>
      </g>
     </g>
    </g>
    <g id="ytick_4">
     <g id="line2d_12">
      <path clip-path="url(#p31361ee242)" d="M 297.909269 174.528 
C 297.909269 166.41916 296.312004 158.389169 293.208886 150.897578 
C 290.105767 143.405987 285.557142 136.598489 279.823327 130.864673 
C 274.089511 125.130858 267.282013 120.582233 259.790422 117.479114 
C 252.298831 114.375996 244.26884 112.778731 236.16 112.778731 
C 228.05116 112.778731 220.021169 114.375996 212.529578 117.479114 
C 205.037987 120.582233 198.230489 125.130858 192.496673 130.864673 
C 186.762858 136.598489 182.214233 143.405987 179.111114 150.897578 
C 176.007996 158.389169 174.410731 166.41916 174.410731 174.528 
C 174.410731 182.63684 176.007996 190.666831 179.111114 198.158422 
C 182.214233 205.650013 186.762858 212.457511 192.496673 218.191327 
C 198.230489 223.925142 205.037987 228.473767 212.529578 231.576886 
C 220.021169 234.680004 228.05116 236.277269 236.16 236.277269 
C 244.26884 236.277269 252.298831 234.680004 259.790422 231.576886 
C 267.282013 228.473767 274.089511 223.925142 279.823327 218.191327 
C 285.557142 212.457511 290.105767 205.650013 293.208886 198.158422 
C 296.312004 190.666831 297.909269 182.63684 297.909269 174.528 
" style="fill:none;stroke:#b0b0b0;stroke-linecap:square;stroke-width:0.8;"/>
     </g>
     <g id="text_12">
      <!-- 4 -->
      <g transform="translate(293.208886 148.81789)scale(0.1 -0.1)">
       <use xlink:href="#DejaVuSans-52"/>
      </g>
     </g>
    </g>
    <g id="ytick_5">
     <g id="line2d_13">
      <path clip-path="url(#p31361ee242)" d="M 313.346586 174.528 
C 313.346586 164.39195 311.350005 154.354461 307.471107 144.989972 
C 303.592209 135.625484 297.906428 127.116111 290.739158 119.948842 
C 283.571889 112.781572 275.062516 107.095791 265.698028 103.216893 
C 256.333539 99.337995 246.29605 97.341414 236.16 97.341414 
C 226.02395 97.341414 215.986461 99.337995 206.621972 103.216893 
C 197.257484 107.095791 188.748111 112.781572 181.580842 119.948842 
C 174.413572 127.116111 168.727791 135.625484 164.848893 144.989972 
C 160.969995 154.354461 158.973414 164.39195 158.973414 174.528 
C 158.973414 184.66405 160.969995 194.701539 164.848893 204.066028 
C 168.727791 213.430516 174.413572 221.939889 181.580842 229.107158 
C 188.748111 236.274428 197.257484 241.960209 206.621972 245.839107 
C 215.986461 249.718005 226.02395 251.714586 236.16 251.714586 
C 246.29605 251.714586 256.333539 249.718005 265.698028 245.839107 
C 275.062516 241.960209 283.571889 236.274428 290.739158 229.107158 
C 297.906428 221.939889 303.592209 213.430516 307.471107 204.066028 
C 311.350005 194.701539 313.346586 184.66405 313.346586 174.528 
" style="fill:none;stroke:#b0b0b0;stroke-linecap:square;stroke-width:0.8;"/>
     </g>
     <g id="text_13">
      <!-- 5 -->
      <g transform="translate(307.471107 142.910285)scale(0.1 -0.1)">
       <use xlink:href="#DejaVuSans-53"/>
      </g>
     </g>
    </g>
    <g id="ytick_6">
     <g id="line2d_14">
      <path clip-path="url(#p31361ee242)" d="M 328.783903 174.528 
C 328.783903 162.36474 326.388006 150.319753 321.733328 139.082367 
C 317.078651 127.84498 310.255713 117.633733 301.65499 109.03301 
C 293.054267 100.432287 282.84302 93.609349 271.605633 88.954672 
C 260.368247 84.299994 248.32326 81.904097 236.16 81.904097 
C 223.99674 81.904097 211.951753 84.299994 200.714367 88.954672 
C 189.47698 93.609349 179.265733 100.432287 170.66501 109.03301 
C 162.064287 117.633733 155.241349 127.84498 150.586672 139.082367 
C 145.931994 150.319753 143.536097 162.36474 143.536097 174.528 
C 143.536097 186.69126 145.931994 198.736247 150.586672 209.973633 
C 155.241349 221.21102 162.064287 231.422267 170.66501 240.02299 
C 179.265733 248.623713 189.47698 255.446651 200.714367 260.101328 
C 211.951753 264.756006 223.99674 267.151903 236.16 267.151903 
C 248.32326 267.151903 260.368247 264.756006 271.605633 260.101328 
C 282.84302 255.446651 293.054267 248.623713 301.65499 240.02299 
C 310.255713 231.422267 317.078651 221.21102 321.733328 209.973633 
C 326.388006 198.736247 328.783903 186.69126 328.783903 174.528 
" style="fill:none;stroke:#b0b0b0;stroke-linecap:square;stroke-width:0.8;"/>
     </g>
     <g id="text_14">
      <!-- 6 -->
      <g transform="translate(321.733328 137.002679)scale(0.1 -0.1)">
       <defs>
        <path d="M 33.015625 40.375 
Q 26.375 40.375 22.484375 35.828125 
Q 18.609375 31.296875 18.609375 23.390625 
Q 18.609375 15.53125 22.484375 10.953125 
Q 26.375 6.390625 33.015625 6.390625 
Q 39.65625 6.390625 43.53125 10.953125 
Q 47.40625 15.53125 47.40625 23.390625 
Q 47.40625 31.296875 43.53125 35.828125 
Q 39.65625 40.375 33.015625 40.375 
z
M 52.59375 71.296875 
L 52.59375 62.3125 
Q 48.875 64.0625 45.09375 64.984375 
Q 41.3125 65.921875 37.59375 65.921875 
Q 27.828125 65.921875 22.671875 59.328125 
Q 17.53125 52.734375 16.796875 39.40625 
Q 19.671875 43.65625 24.015625 45.921875 
Q 28.375 48.1875 33.59375 48.1875 
Q 44.578125 48.1875 50.953125 41.515625 
Q 57.328125 34.859375 57.328125 23.390625 
Q 57.328125 12.15625 50.6875 5.359375 
Q 44.046875 -1.421875 33.015625 -1.421875 
Q 20.359375 -1.421875 13.671875 8.265625 
Q 6.984375 17.96875 6.984375 36.375 
Q 6.984375 53.65625 15.1875 63.9375 
Q 23.390625 74.21875 37.203125 74.21875 
Q 40.921875 74.21875 44.703125 73.484375 
Q 48.484375 72.75 52.59375 71.296875 
z
" id="DejaVuSans-54"/>
       </defs>
       <use xlink:href="#DejaVuSans-54"/>
      </g>
     </g>
    </g>
    <g id="ytick_7">
     <g id="line2d_15">
      <path clip-path="url(#p31361ee242)" d="M 344.221221 174.528 
C 344.221221 160.337531 341.426007 146.285046 335.99555 133.174761 
C 330.565092 120.064477 322.604999 108.151355 312.570822 98.117178 
C 302.536645 88.083001 290.623523 80.122908 277.513239 74.69245 
C 264.402954 69.261993 250.350469 66.466779 236.16 66.466779 
C 221.969531 66.466779 207.917046 69.261993 194.806761 74.69245 
C 181.696477 80.122908 169.783355 88.083001 159.749178 98.117178 
C 149.715001 108.151355 141.754908 120.064477 136.32445 133.174761 
C 130.893993 146.285046 128.098779 160.337531 128.098779 174.528 
C 128.098779 188.718469 130.893993 202.770954 136.32445 215.881239 
C 141.754908 228.991523 149.715001 240.904645 159.749178 250.938822 
C 169.783355 260.972999 181.696477 268.933092 194.806761 274.36355 
C 207.917046 279.794007 221.969531 282.589221 236.16 282.589221 
C 250.350469 282.589221 264.402954 279.794007 277.513239 274.36355 
C 290.623523 268.933092 302.536645 260.972999 312.570822 250.938822 
C 322.604999 240.904645 330.565092 228.991523 335.99555 215.881239 
C 341.426007 202.770954 344.221221 188.718469 344.221221 174.528 
" style="fill:none;stroke:#b0b0b0;stroke-linecap:square;stroke-width:0.8;"/>
     </g>
     <g id="text_15">
      <!-- 7 -->
      <g transform="translate(335.99555 131.095074)scale(0.1 -0.1)">
       <use xlink:href="#DejaVuSans-55"/>
      </g>
     </g>
    </g>
    <g id="ytick_8">
     <g id="line2d_16">
      <path clip-path="url(#p31361ee242)" d="M 359.658538 174.528 
C 359.658538 158.310321 356.464009 142.250338 350.257771 127.267156 
C 344.051534 112.283974 334.954285 98.668978 323.486654 87.201346 
C 312.019022 75.733715 298.404026 66.636466 283.420844 60.430229 
C 268.437662 54.223991 252.377679 51.029462 236.16 51.029462 
C 219.942321 51.029462 203.882338 54.223991 188.899156 60.430229 
C 173.915974 66.636466 160.300978 75.733715 148.833346 87.201346 
C 137.365715 98.668978 128.268466 112.283974 122.062229 127.267156 
C 115.855991 142.250338 112.661462 158.310321 112.661462 174.528 
C 112.661462 190.745679 115.855991 206.805662 122.062229 221.788844 
C 128.268466 236.772026 137.365715 250.387022 148.833346 261.854654 
C 160.300978 273.322285 173.915974 282.419534 188.899156 288.625771 
C 203.882338 294.832009 219.942321 298.026538 236.16 298.026538 
C 252.377679 298.026538 268.437662 294.832009 283.420844 288.625771 
C 298.404026 282.419534 312.019022 273.322285 323.486654 261.854654 
C 334.954285 250.387022 344.051534 236.772026 350.257771 221.788844 
C 356.464009 206.805662 359.658538 190.745679 359.658538 174.528 
" style="fill:none;stroke:#b0b0b0;stroke-linecap:square;stroke-width:0.8;"/>
     </g>
     <g id="text_16">
      <!-- 8 -->
      <g transform="translate(350.257771 125.187468)scale(0.1 -0.1)">
       <use xlink:href="#DejaVuSans-56"/>
      </g>
     </g>
    </g>
    <g id="text_17">
     <!-- 1e−14 -->
     <g transform="translate(103.104 38.472)scale(0.1 -0.1)">
      <defs>
       <path d="M 56.203125 29.59375 
L 56.203125 25.203125 
L 14.890625 25.203125 
Q 15.484375 15.921875 20.484375 11.0625 
Q 25.484375 6.203125 34.421875 6.203125 
Q 39.59375 6.203125 44.453125 7.46875 
Q 49.3125 8.734375 54.109375 11.28125 
L 54.109375 2.78125 
Q 49.265625 0.734375 44.1875 -0.34375 
Q 39.109375 -1.421875 33.890625 -1.421875 
Q 20.796875 -1.421875 13.15625 6.1875 
Q 5.515625 13.8125 5.515625 26.8125 
Q 5.515625 40.234375 12.765625 48.109375 
Q 20.015625 56 32.328125 56 
Q 43.359375 56 49.78125 48.890625 
Q 56.203125 41.796875 56.203125 29.59375 
z
M 47.21875 32.234375 
Q 47.125 39.59375 43.09375 43.984375 
Q 39.0625 48.390625 32.421875 48.390625 
Q 24.90625 48.390625 20.390625 44.140625 
Q 15.875 39.890625 15.1875 32.171875 
z
" id="DejaVuSans-101"/>
       <path d="M 10.59375 35.5 
L 73.1875 35.5 
L 73.1875 27.203125 
L 10.59375 27.203125 
z
" id="DejaVuSans-8722"/>
      </defs>
      <use xlink:href="#DejaVuSans-49"/>
      <use x="63.623047" xlink:href="#DejaVuSans-101"/>
      <use x="125.146484" xlink:href="#DejaVuSans-8722"/>
      <use x="208.935547" xlink:href="#DejaVuSans-49"/>
      <use x="272.558594" xlink:href="#DejaVuSans-52"/>
     </g>
    </g>
   </g>
   <g id="line2d_17">
    <path clip-path="url(#p31361ee242)" d="M 362.882501 174.528 
L 359.360999 170.636784 
L 349.055804 167.389411 
L 332.801592 165.346499 
L 312.142292 164.880454 
L 289.433473 166.047199 
L 267.74445 168.471932 
L 250.384087 171.332032 
L 237.364755 174.176129 
L 240.725785 173.036514 
L 246.004276 170.96452 
L 248.726757 169.524909 
L 246.67907 169.950338 
L 241.462788 172.018367 
L 236.47916 174.351489 
L 239.196716 172.588715 
L 237.838087 173.3802 
L 236.420392 174.337555 
L 236.770546 174.051162 
L 237.412274 173.484682 
L 236.19815 174.491902 
L 237.855609 172.707442 
L 236.772164 173.82764 
L 236.942167 173.573968 
L 238.578554 171.380368 
L 238.309891 171.539264 
L 237.364131 172.737387 
L 238.727673 170.436453 
L 239.45135 168.895869 
L 238.256704 170.66514 
L 239.946366 166.361409 
L 238.894954 168.105222 
L 239.046704 167.107262 
L 239.923571 163.868819 
L 238.994478 165.613215 
L 238.929884 164.758409 
L 239.414637 161.493846 
L 238.550108 163.483632 
L 238.391453 162.372173 
L 238.426837 159.526778 
L 237.66353 161.888845 
L 237.056362 158.321988 
L 236.481598 160.949751 
L 236.037233 158.975238 
L 235.512598 158.132997 
L 235.182207 160.787392 
L 234.532971 158.728 
L 234.066634 159.021572 
L 233.985745 161.531665 
L 233.204836 159.74762 
L 232.976758 160.86566 
L 233.149754 163.2342 
L 232.374987 161.938776 
L 232.429083 163.405029 
L 232.898672 165.735902 
L 232.265894 164.967093 
L 232.492856 166.27978 
L 233.298189 168.602491 
L 232.933696 168.353484 
L 233.10767 169.110321 
L 234.197152 171.50722 
L 234.142709 171.628104 
L 235.692174 174.009524 
L 236.116402 174.482647 
L 236.076453 174.456129 
L 234.400773 173.19821 
L 234.084553 173.059785 
L 234.662234 173.537878 
L 229.569158 170.745863 
L 222.40554 167.20224 
L 215.517114 164.356494 
L 211.950727 163.53492 
L 212.574788 164.704113 
L 215.998544 166.867763 
L 222.492913 170.301007 
L 223.005379 170.910323 
L 221.684701 171.034656 
L 216.435153 171.067812 
L 213.808311 171.330681 
L 211.660896 171.809571 
L 210.092445 172.466087 
L 209.091019 173.245035 
L 208.608197 174.093006 
L 208.608197 174.962994 
L 209.091019 175.810965 
L 210.092445 176.589913 
L 211.660896 177.246429 
L 213.808311 177.725319 
L 216.435153 177.988188 
L 223.005379 178.145677 
L 222.492913 178.754993 
L 215.998544 182.188237 
L 212.574788 184.351887 
L 211.950727 185.52108 
L 215.517114 184.699506 
L 222.40554 181.85376 
L 229.569158 178.310137 
L 234.662234 175.518122 
L 234.084553 175.996215 
L 234.400773 175.85779 
L 236.116402 174.573353 
L 235.692174 175.046476 
L 235.026389 176.052564 
L 234.142709 177.427896 
L 234.197152 177.54878 
L 234.145447 177.853632 
L 233.10767 179.945679 
L 232.933696 180.702516 
L 233.298189 180.453509 
L 232.492856 182.77622 
L 232.265894 184.088907 
L 232.898672 183.320098 
L 232.429083 185.650971 
L 232.374987 187.117224 
L 233.149754 185.8218 
L 232.976758 188.19034 
L 233.204836 189.30838 
L 233.985745 187.524335 
L 234.066634 190.034428 
L 234.532971 190.328 
L 235.182207 188.268608 
L 235.512598 190.923003 
L 236.037233 190.080762 
L 236.481598 188.106249 
L 237.056362 190.734012 
L 237.66353 187.167155 
L 238.426837 189.529222 
L 238.391453 186.683827 
L 238.550108 185.572368 
L 239.414637 187.562154 
L 238.929884 184.297591 
L 238.994478 183.442785 
L 239.923571 185.187181 
L 239.046704 181.948738 
L 238.894954 180.950778 
L 239.946366 182.694591 
L 238.256704 178.39086 
L 239.45135 180.160131 
L 238.727673 178.619547 
L 237.364131 176.318613 
L 238.309891 177.516736 
L 238.578554 177.675632 
L 236.772164 175.22836 
L 237.855609 176.348558 
L 236.19815 174.564098 
L 236.695736 175.003783 
L 237.412274 175.571318 
L 236.420392 174.718445 
L 239.196716 176.467285 
L 238.311744 175.808345 
L 236.47916 174.704511 
L 237.138395 175.029439 
L 241.462788 177.037633 
L 246.67907 179.105662 
L 248.726757 179.531091 
L 246.004276 178.09148 
L 240.725785 176.019486 
L 237.364755 174.879871 
L 239.98598 175.515497 
L 250.384087 177.723968 
L 267.74445 180.584068 
L 289.433473 183.008801 
L 312.142292 184.175546 
L 332.801592 183.709501 
L 349.055804 181.666589 
L 359.360999 178.419216 
L 362.882501 174.528 
L 362.882501 174.528 
" style="fill:none;stroke:#1f77b4;stroke-linecap:square;stroke-width:1.5;"/>
   </g>
   <g id="patch_3">
    <path d="M 369.216 174.528 
C 369.216 157.055246 365.774248 139.752393 359.087715 123.609673 
C 352.401182 107.466954 342.599903 92.798303 330.2448 80.4432 
C 317.889697 68.088097 303.221046 58.286818 287.078327 51.600285 
C 270.935607 44.913752 253.632754 41.472 236.16 41.472 
C 218.687246 41.472 201.384393 44.913752 185.241673 51.600285 
C 169.098954 58.286818 154.430303 68.088097 142.0752 80.4432 
C 129.720097 92.798303 119.918818 107.466954 113.232285 123.609673 
C 106.545752 139.752393 103.104 157.055246 103.104 174.528 
C 103.104 192.000754 106.545752 209.303607 113.232285 225.446327 
C 119.918818 241.589046 129.720097 256.257697 142.0752 268.6128 
C 154.430303 280.967903 169.098954 290.769182 185.241673 297.455715 
C 201.384393 304.142248 218.687246 307.584 236.16 307.584 
C 253.632754 307.584 270.935607 304.142248 287.078327 297.455715 
C 303.221046 290.769182 317.889697 280.967903 330.2448 268.6128 
C 342.599903 256.257697 352.401182 241.589046 359.087715 225.446327 
C 365.774248 209.303607 369.216 192.000754 369.216 174.528 
" style="fill:none;stroke:#000000;stroke-linecap:square;stroke-linejoin:miter;stroke-width:0.8;"/>
   </g>
   <g id="text_18">
    <!-- $d P/ d \Omega$ -->
    <g transform="translate(218.28 16.632938)scale(0.12 -0.12)">
     <defs>
      <path d="M 41.796875 8.203125 
Q 38.1875 3.46875 33.25 1.015625 
Q 28.328125 -1.421875 22.3125 -1.421875 
Q 14.109375 -1.421875 9.34375 4.171875 
Q 4.59375 9.765625 4.59375 19.484375 
Q 4.59375 27.59375 7.46875 34.9375 
Q 10.359375 42.28125 15.828125 48.09375 
Q 19.4375 51.953125 23.96875 53.96875 
Q 28.515625 56 33.5 56 
Q 38.765625 56 42.796875 53.453125 
Q 46.828125 50.921875 49.03125 46.1875 
L 54.890625 75.984375 
L 63.921875 75.984375 
L 49.125 0 
L 40.09375 0 
z
M 13.921875 21.09375 
Q 13.921875 14.015625 17.109375 10.0625 
Q 20.3125 6.109375 25.984375 6.109375 
Q 30.171875 6.109375 33.765625 8.125 
Q 37.359375 10.15625 40.09375 14.109375 
Q 42.96875 18.21875 44.625 23.578125 
Q 46.296875 28.953125 46.296875 34.1875 
Q 46.296875 40.96875 43.09375 44.765625 
Q 39.890625 48.578125 34.28125 48.578125 
Q 30.03125 48.578125 26.359375 46.578125 
Q 22.703125 44.578125 20.125 40.828125 
Q 17.28125 36.765625 15.59375 31.390625 
Q 13.921875 26.03125 13.921875 21.09375 
z
" id="DejaVuSans-Oblique-100"/>
      <path d="M 16.890625 72.90625 
L 39.703125 72.90625 
Q 49.65625 72.90625 54.875 68.265625 
Q 60.109375 63.625 60.109375 54.6875 
Q 60.109375 42.671875 52.390625 35.984375 
Q 44.671875 29.296875 30.71875 29.296875 
L 18.3125 29.296875 
L 12.59375 0 
L 2.6875 0 
z
M 25.203125 64.796875 
L 19.921875 37.40625 
L 32.328125 37.40625 
Q 40.71875 37.40625 45.203125 41.703125 
Q 49.703125 46 49.703125 54 
Q 49.703125 59.125 46.65625 61.953125 
Q 43.609375 64.796875 38.09375 64.796875 
z
" id="DejaVuSans-Oblique-80"/>
      <path d="M 25.390625 72.90625 
L 33.6875 72.90625 
L 8.296875 -9.28125 
L 0 -9.28125 
z
" id="DejaVuSans-47"/>
      <path d="M 72.609375 8.6875 
L 72.609375 0 
L 43.3125 0 
L 43.3125 8.6875 
Q 51.953125 13.421875 56.78125 21.53125 
Q 61.625 29.640625 61.625 39.5 
Q 61.625 51.21875 55.171875 58.296875 
Q 48.734375 65.375 38.1875 65.375 
Q 27.640625 65.375 21.171875 58.265625 
Q 14.703125 51.171875 14.703125 39.5 
Q 14.703125 29.640625 19.53125 21.53125 
Q 24.421875 13.421875 33.109375 8.6875 
L 33.109375 0 
L 3.8125 0 
L 3.8125 8.6875 
L 19.390625 8.6875 
Q 11.671875 15.484375 8.109375 22.75 
Q 4.59375 30.03125 4.59375 39.015625 
Q 4.59375 54.546875 13.96875 64.15625 
Q 23.296875 73.78125 38.1875 73.78125 
Q 52.984375 73.78125 62.40625 64.15625 
Q 71.78125 54.59375 71.78125 39.5 
Q 71.78125 30.03125 68.3125 22.796875 
Q 64.84375 15.578125 56.984375 8.6875 
z
" id="DejaVuSans-937"/>
     </defs>
     <use transform="translate(0 0.015625)" xlink:href="#DejaVuSans-Oblique-100"/>
     <use transform="translate(63.476562 0.015625)" xlink:href="#DejaVuSans-Oblique-80"/>
     <use transform="translate(123.779297 0.015625)" xlink:href="#DejaVuSans-47"/>
     <use transform="translate(157.470703 0.015625)" xlink:href="#DejaVuSans-Oblique-100"/>
     <use transform="translate(220.947266 0.015625)" xlink:href="#DejaVuSans-937"/>
    </g>
   </g>
   <g id="legend_1">
    <g id="patch_4">
     <path d="M 284.692563 64.150125 
L 362.216 64.150125 
Q 364.216 64.150125 364.216 62.150125 
L 364.216 48.472 
Q 364.216 46.472 362.216 46.472 
L 284.692563 46.472 
Q 282.692563 46.472 282.692563 48.472 
L 282.692563 62.150125 
Q 282.692563 64.150125 284.692563 64.150125 
z
" style="fill:#ffffff;opacity:0.8;stroke:#cccccc;stroke-linejoin:miter;"/>
    </g>
    <g id="line2d_18">
     <path d="M 286.692563 54.570438 
L 306.692563 54.570438 
" style="fill:none;stroke:#1f77b4;stroke-linecap:square;stroke-width:1.5;"/>
    </g>
    <g id="line2d_19"/>
    <g id="text_19">
     <!-- y-z plane -->
     <g transform="translate(314.692563 58.070438)scale(0.1 -0.1)">
      <defs>
       <path d="M 32.171875 -5.078125 
Q 28.375 -14.84375 24.75 -17.8125 
Q 21.140625 -20.796875 15.09375 -20.796875 
L 7.90625 -20.796875 
L 7.90625 -13.28125 
L 13.1875 -13.28125 
Q 16.890625 -13.28125 18.9375 -11.515625 
Q 21 -9.765625 23.484375 -3.21875 
L 25.09375 0.875 
L 2.984375 54.6875 
L 12.5 54.6875 
L 29.59375 11.921875 
L 46.6875 54.6875 
L 56.203125 54.6875 
z
" id="DejaVuSans-121"/>
       <path d="M 4.890625 31.390625 
L 31.203125 31.390625 
L 31.203125 23.390625 
L 4.890625 23.390625 
z
" id="DejaVuSans-45"/>
       <path d="M 5.515625 54.6875 
L 48.1875 54.6875 
L 48.1875 46.484375 
L 14.40625 7.171875 
L 48.1875 7.171875 
L 48.1875 0 
L 4.296875 0 
L 4.296875 8.203125 
L 38.09375 47.515625 
L 5.515625 47.515625 
z
" id="DejaVuSans-122"/>
       <path id="DejaVuSans-32"/>
       <path d="M 18.109375 8.203125 
L 18.109375 -20.796875 
L 9.078125 -20.796875 
L 9.078125 54.6875 
L 18.109375 54.6875 
L 18.109375 46.390625 
Q 20.953125 51.265625 25.265625 53.625 
Q 29.59375 56 35.59375 56 
Q 45.5625 56 51.78125 48.09375 
Q 58.015625 40.1875 58.015625 27.296875 
Q 58.015625 14.40625 51.78125 6.484375 
Q 45.5625 -1.421875 35.59375 -1.421875 
Q 29.59375 -1.421875 25.265625 0.953125 
Q 20.953125 3.328125 18.109375 8.203125 
z
M 48.6875 27.296875 
Q 48.6875 37.203125 44.609375 42.84375 
Q 40.53125 48.484375 33.40625 48.484375 
Q 26.265625 48.484375 22.1875 42.84375 
Q 18.109375 37.203125 18.109375 27.296875 
Q 18.109375 17.390625 22.1875 11.75 
Q 26.265625 6.109375 33.40625 6.109375 
Q 40.53125 6.109375 44.609375 11.75 
Q 48.6875 17.390625 48.6875 27.296875 
z
" id="DejaVuSans-112"/>
       <path d="M 9.421875 75.984375 
L 18.40625 75.984375 
L 18.40625 0 
L 9.421875 0 
z
" id="DejaVuSans-108"/>
       <path d="M 34.28125 27.484375 
Q 23.390625 27.484375 19.1875 25 
Q 14.984375 22.515625 14.984375 16.5 
Q 14.984375 11.71875 18.140625 8.90625 
Q 21.296875 6.109375 26.703125 6.109375 
Q 34.1875 6.109375 38.703125 11.40625 
Q 43.21875 16.703125 43.21875 25.484375 
L 43.21875 27.484375 
z
M 52.203125 31.203125 
L 52.203125 0 
L 43.21875 0 
L 43.21875 8.296875 
Q 40.140625 3.328125 35.546875 0.953125 
Q 30.953125 -1.421875 24.3125 -1.421875 
Q 15.921875 -1.421875 10.953125 3.296875 
Q 6 8.015625 6 15.921875 
Q 6 25.140625 12.171875 29.828125 
Q 18.359375 34.515625 30.609375 34.515625 
L 43.21875 34.515625 
L 43.21875 35.40625 
Q 43.21875 41.609375 39.140625 45 
Q 35.0625 48.390625 27.6875 48.390625 
Q 23 48.390625 18.546875 47.265625 
Q 14.109375 46.140625 10.015625 43.890625 
L 10.015625 52.203125 
Q 14.9375 54.109375 19.578125 55.046875 
Q 24.21875 56 28.609375 56 
Q 40.484375 56 46.34375 49.84375 
Q 52.203125 43.703125 52.203125 31.203125 
z
" id="DejaVuSans-97"/>
       <path d="M 54.890625 33.015625 
L 54.890625 0 
L 45.90625 0 
L 45.90625 32.71875 
Q 45.90625 40.484375 42.875 44.328125 
Q 39.84375 48.1875 33.796875 48.1875 
Q 26.515625 48.1875 22.3125 43.546875 
Q 18.109375 38.921875 18.109375 30.90625 
L 18.109375 0 
L 9.078125 0 
L 9.078125 54.6875 
L 18.109375 54.6875 
L 18.109375 46.1875 
Q 21.34375 51.125 25.703125 53.5625 
Q 30.078125 56 35.796875 56 
Q 45.21875 56 50.046875 50.171875 
Q 54.890625 44.34375 54.890625 33.015625 
z
" id="DejaVuSans-110"/>
      </defs>
      <use xlink:href="#DejaVuSans-121"/>
      <use x="57.429688" xlink:href="#DejaVuSans-45"/>
      <use x="93.513672" xlink:href="#DejaVuSans-122"/>
      <use x="146.003906" xlink:href="#DejaVuSans-32"/>
      <use x="177.791016" xlink:href="#DejaVuSans-112"/>
      <use x="241.267578" xlink:href="#DejaVuSans-108"/>
      <use x="269.050781" xlink:href="#DejaVuSans-97"/>
      <use x="330.330078" xlink:href="#DejaVuSans-110"/>
      <use x="393.708984" xlink:href="#DejaVuSans-101"/>
     </g>
    </g>
   </g>
  </g>
 </g>
 <defs>
  <clipPath id="p31361ee242">
   <path d="M 369.216 174.528 
C 369.216 157.055246 365.774248 139.752393 359.087715 123.609673 
C 352.401182 107.466954 342.599903 92.798303 330.2448 80.4432 
C 317.889697 68.088097 303.221046 58.286818 287.078327 51.600285 
C 270.935607 44.913752 253.632754 41.472 236.16 41.472 
C 218.687246 41.472 201.384393 44.913752 185.241673 51.600285 
C 169.098954 58.286818 154.430303 68.088097 142.0752 80.4432 
C 129.720097 92.798303 119.918818 107.466954 113.232285 123.609673 
C 106.545752 139.752393 103.104 157.055246 103.104 174.528 
C 103.104 192.000754 106.545752 209.303607 113.232285 225.446327 
C 119.918818 241.589046 129.720097 256.257697 142.0752 268.6128 
C 154.430303 280.967903 169.098954 290.769182 185.241673 297.455715 
C 201.384393 304.142248 218.687246 307.584 236.16 307.584 
C 253.632754 307.584 270.935607 304.142248 287.078327 297.455715 
C 303.221046 290.769182 317.889697 280.967903 330.2448 268.6128 
C 342.599903 256.257697 352.401182 241.589046 359.087715 225.446327 
C 365.774248 209.303607 369.216 192.000754 369.216 174.528 
M 236.16 174.528 
C 236.16 174.528 236.16 174.528 236.16 174.528 
C 236.16 174.528 236.16 174.528 236.16 174.528 
C 236.16 174.528 236.16 174.528 236.16 174.528 
C 236.16 174.528 236.16 174.528 236.16 174.528 
C 236.16 174.528 236.16 174.528 236.16 174.528 
C 236.16 174.528 236.16 174.528 236.16 174.528 
C 236.16 174.528 236.16 174.528 236.16 174.528 
C 236.16 174.528 236.16 174.528 236.16 174.528 
C 236.16 174.528 236.16 174.528 236.16 174.528 
C 236.16 174.528 236.16 174.528 236.16 174.528 
C 236.16 174.528 236.16 174.528 236.16 174.528 
C 236.16 174.528 236.16 174.528 236.16 174.528 
C 236.16 174.528 236.16 174.528 236.16 174.528 
C 236.16 174.528 236.16 174.528 236.16 174.528 
C 236.16 174.528 236.16 174.528 236.16 174.528 
C 236.16 174.528 236.16 174.528 236.16 174.528 
M 369.216 174.528 
z
"/>
  </clipPath>
 </defs>
</svg>
