<?xml version="1.0" encoding="utf-8" standalone="no"?>
<!DOCTYPE svg PUBLIC "-//W3C//DTD SVG 1.1//EN"
  "http://www.w3.org/Graphics/SVG/1.1/DTD/svg11.dtd">
<svg xmlns:xlink="http://www.w3.org/1999/xlink" width="460.8pt" height="345.6pt" viewBox="0 0 460.8 345.6" xmlns="http://www.w3.org/2000/svg" version="1.1">
 <metadata>
  <rdf:RDF xmlns:dc="http://purl.org/dc/elements/1.1/" xmlns:cc="http://creativecommons.org/ns#" xmlns:rdf="http://www.w3.org/1999/02/22-rdf-syntax-ns#">
   <cc:Work>
    <dc:type rdf:resource="http://purl.org/dc/dcmitype/StillImage"/>
    <dc:date>2023-06-30T10:31:30.002146</dc:date>
    <dc:format>image/svg+xml</dc:format>
    <dc:creator>
     <cc:Agent>
      <dc:title>Matplotlib v3.5.2, https://matplotlib.org/</dc:title>
     </cc:Agent>
    </dc:creator>
   </cc:Work>
  </rdf:RDF>
 </metadata>
 <defs>
  <style type="text/css">*{stroke-linejoin: round; stroke-linecap: butt}</style>
 </defs>
 <g id="figure_1">
  <g id="patch_1">
   <path d="M 0 345.6 
L 460.8 345.6 
L 460.8 0 
L 0 0 
z
" style="fill: #ffffff"/>
  </g>
  <g id="axes_1">
   <g id="patch_2">
    <path d="M 369.216 174.528 
C 369.216 157.055246 365.774248 139.752393 359.087715 123.609673 
C 352.401182 107.466954 342.599903 92.798303 330.2448 80.4432 
C 317.889697 68.088097 303.221046 58.286818 287.078327 51.600285 
C 270.935607 44.913752 253.632754 41.472 236.16 41.472 
C 218.687246 41.472 201.384393 44.913752 185.241673 51.600285 
C 169.098954 58.286818 154.430303 68.088097 142.0752 80.4432 
C 129.720097 92.798303 119.918818 107.466954 113.232285 123.609673 
C 106.545752 139.752393 103.104 157.055246 103.104 174.528 
C 103.104 192.000754 106.545752 209.303607 113.232285 225.446327 
C 119.918818 241.589046 129.720097 256.257697 142.0752 268.6128 
C 154.430303 280.967903 169.098954 290.769182 185.241673 297.455715 
C 201.384393 304.142248 218.687246 307.584 236.16 307.584 
C 253.632754 307.584 270.935607 304.142248 287.078327 297.455715 
C 303.221046 290.769182 317.889697 280.967903 330.2448 268.6128 
C 342.599903 256.257697 352.401182 241.589046 359.087715 225.446327 
C 365.774248 209.303607 369.216 192.000754 369.216 174.528 
M 236.16 174.528 
C 236.16 174.528 236.16 174.528 236.16 174.528 
C 236.16 174.528 236.16 174.528 236.16 174.528 
C 236.16 174.528 236.16 174.528 236.16 174.528 
C 236.16 174.528 236.16 174.528 236.16 174.528 
C 236.16 174.528 236.16 174.528 236.16 174.528 
C 236.16 174.528 236.16 174.528 236.16 174.528 
C 236.16 174.528 236.16 174.528 236.16 174.528 
C 236.16 174.528 236.16 174.528 236.16 174.528 
C 236.16 174.528 236.16 174.528 236.16 174.528 
C 236.16 174.528 236.16 174.528 236.16 174.528 
C 236.16 174.528 236.16 174.528 236.16 174.528 
C 236.16 174.528 236.16 174.528 236.16 174.528 
C 236.16 174.528 236.16 174.528 236.16 174.528 
C 236.16 174.528 236.16 174.528 236.16 174.528 
C 236.16 174.528 236.16 174.528 236.16 174.528 
C 236.16 174.528 236.16 174.528 236.16 174.528 
M 369.216 174.528 
z
" style="fill: #ffffff"/>
   </g>
   <g id="matplotlib.axis_1">
    <g id="xtick_1">
     <g id="line2d_1">
      <path d="M 236.16 174.528 
L 369.216 174.528 
" clip-path="url(#pa83f22ba6f)" style="fill: none; stroke: #b0b0b0; stroke-width: 0.8; stroke-linecap: square"/>
     </g>
     <g id="text_1">
      <!-- 0° -->
      <g transform="translate(377.53475 177.287375)scale(0.1 -0.1)">
       <defs>
        <path id="DejaVuSans-30" d="M 2034 4250 
Q 1547 4250 1301 3770 
Q 1056 3291 1056 2328 
Q 1056 1369 1301 889 
Q 1547 409 2034 409 
Q 2525 409 2770 889 
Q 3016 1369 3016 2328 
Q 3016 3291 2770 3770 
Q 2525 4250 2034 4250 
z
M 2034 4750 
Q 2819 4750 3233 4129 
Q 3647 3509 3647 2328 
Q 3647 1150 3233 529 
Q 2819 -91 2034 -91 
Q 1250 -91 836 529 
Q 422 1150 422 2328 
Q 422 3509 836 4129 
Q 1250 4750 2034 4750 
z
" transform="scale(0.015625)"/>
        <path id="DejaVuSans-b0" d="M 1600 4347 
Q 1350 4347 1178 4173 
Q 1006 4000 1006 3750 
Q 1006 3503 1178 3333 
Q 1350 3163 1600 3163 
Q 1850 3163 2022 3333 
Q 2194 3503 2194 3750 
Q 2194 3997 2020 4172 
Q 1847 4347 1600 4347 
z
M 1600 4750 
Q 1800 4750 1984 4673 
Q 2169 4597 2303 4453 
Q 2447 4313 2519 4134 
Q 2591 3956 2591 3750 
Q 2591 3338 2302 3052 
Q 2013 2766 1594 2766 
Q 1172 2766 890 3047 
Q 609 3328 609 3750 
Q 609 4169 896 4459 
Q 1184 4750 1600 4750 
z
" transform="scale(0.015625)"/>
       </defs>
       <use xlink:href="#DejaVuSans-30"/>
       <use xlink:href="#DejaVuSans-b0" x="63.623047"/>
      </g>
     </g>
    </g>
    <g id="xtick_2">
     <g id="line2d_2">
      <path d="M 236.16 174.528 
L 330.2448 80.4432 
" clip-path="url(#pa83f22ba6f)" style="fill: none; stroke: #b0b0b0; stroke-width: 0.8; stroke-linecap: square"/>
     </g>
     <g id="text_2">
      <!-- 45° -->
      <g transform="translate(331.281795 73.30308)scale(0.1 -0.1)">
       <defs>
        <path id="DejaVuSans-34" d="M 2419 4116 
L 825 1625 
L 2419 1625 
L 2419 4116 
z
M 2253 4666 
L 3047 4666 
L 3047 1625 
L 3713 1625 
L 3713 1100 
L 3047 1100 
L 3047 0 
L 2419 0 
L 2419 1100 
L 313 1100 
L 313 1709 
L 2253 4666 
z
" transform="scale(0.015625)"/>
        <path id="DejaVuSans-35" d="M 691 4666 
L 3169 4666 
L 3169 4134 
L 1269 4134 
L 1269 2991 
Q 1406 3038 1543 3061 
Q 1681 3084 1819 3084 
Q 2600 3084 3056 2656 
Q 3513 2228 3513 1497 
Q 3513 744 3044 326 
Q 2575 -91 1722 -91 
Q 1428 -91 1123 -41 
Q 819 9 494 109 
L 494 744 
Q 775 591 1075 516 
Q 1375 441 1709 441 
Q 2250 441 2565 725 
Q 2881 1009 2881 1497 
Q 2881 1984 2565 2268 
Q 2250 2553 1709 2553 
Q 1456 2553 1204 2497 
Q 953 2441 691 2322 
L 691 4666 
z
" transform="scale(0.015625)"/>
       </defs>
       <use xlink:href="#DejaVuSans-34"/>
       <use xlink:href="#DejaVuSans-35" x="63.623047"/>
       <use xlink:href="#DejaVuSans-b0" x="127.246094"/>
      </g>
     </g>
    </g>
    <g id="xtick_3">
     <g id="line2d_3">
      <path d="M 236.16 174.528 
L 236.16 41.472 
" clip-path="url(#pa83f22ba6f)" style="fill: none; stroke: #b0b0b0; stroke-width: 0.8; stroke-linecap: square"/>
     </g>
     <g id="text_3">
      <!-- 90° -->
      <g transform="translate(227.2975 30.231375)scale(0.1 -0.1)">
       <defs>
        <path id="DejaVuSans-39" d="M 703 97 
L 703 672 
Q 941 559 1184 500 
Q 1428 441 1663 441 
Q 2288 441 2617 861 
Q 2947 1281 2994 2138 
Q 2813 1869 2534 1725 
Q 2256 1581 1919 1581 
Q 1219 1581 811 2004 
Q 403 2428 403 3163 
Q 403 3881 828 4315 
Q 1253 4750 1959 4750 
Q 2769 4750 3195 4129 
Q 3622 3509 3622 2328 
Q 3622 1225 3098 567 
Q 2575 -91 1691 -91 
Q 1453 -91 1209 -44 
Q 966 3 703 97 
z
M 1959 2075 
Q 2384 2075 2632 2365 
Q 2881 2656 2881 3163 
Q 2881 3666 2632 3958 
Q 2384 4250 1959 4250 
Q 1534 4250 1286 3958 
Q 1038 3666 1038 3163 
Q 1038 2656 1286 2365 
Q 1534 2075 1959 2075 
z
" transform="scale(0.015625)"/>
       </defs>
       <use xlink:href="#DejaVuSans-39"/>
       <use xlink:href="#DejaVuSans-30" x="63.623047"/>
       <use xlink:href="#DejaVuSans-b0" x="127.246094"/>
      </g>
     </g>
    </g>
    <g id="xtick_4">
     <g id="line2d_4">
      <path d="M 236.16 174.528 
L 142.0752 80.4432 
" clip-path="url(#pa83f22ba6f)" style="fill: none; stroke: #b0b0b0; stroke-width: 0.8; stroke-linecap: square"/>
     </g>
     <g id="text_4">
      <!-- 135° -->
      <g transform="translate(120.131955 73.30308)scale(0.1 -0.1)">
       <defs>
        <path id="DejaVuSans-31" d="M 794 531 
L 1825 531 
L 1825 4091 
L 703 3866 
L 703 4441 
L 1819 4666 
L 2450 4666 
L 2450 531 
L 3481 531 
L 3481 0 
L 794 0 
L 794 531 
z
" transform="scale(0.015625)"/>
        <path id="DejaVuSans-33" d="M 2597 2516 
Q 3050 2419 3304 2112 
Q 3559 1806 3559 1356 
Q 3559 666 3084 287 
Q 2609 -91 1734 -91 
Q 1441 -91 1130 -33 
Q 819 25 488 141 
L 488 750 
Q 750 597 1062 519 
Q 1375 441 1716 441 
Q 2309 441 2620 675 
Q 2931 909 2931 1356 
Q 2931 1769 2642 2001 
Q 2353 2234 1838 2234 
L 1294 2234 
L 1294 2753 
L 1863 2753 
Q 2328 2753 2575 2939 
Q 2822 3125 2822 3475 
Q 2822 3834 2567 4026 
Q 2313 4219 1838 4219 
Q 1578 4219 1281 4162 
Q 984 4106 628 3988 
L 628 4550 
Q 988 4650 1302 4700 
Q 1616 4750 1894 4750 
Q 2613 4750 3031 4423 
Q 3450 4097 3450 3541 
Q 3450 3153 3228 2886 
Q 3006 2619 2597 2516 
z
" transform="scale(0.015625)"/>
       </defs>
       <use xlink:href="#DejaVuSans-31"/>
       <use xlink:href="#DejaVuSans-33" x="63.623047"/>
       <use xlink:href="#DejaVuSans-35" x="127.246094"/>
       <use xlink:href="#DejaVuSans-b0" x="190.869141"/>
      </g>
     </g>
    </g>
    <g id="xtick_5">
     <g id="line2d_5">
      <path d="M 236.16 174.528 
L 103.104 174.528 
" clip-path="url(#pa83f22ba6f)" style="fill: none; stroke: #b0b0b0; stroke-width: 0.8; stroke-linecap: square"/>
     </g>
     <g id="text_5">
      <!-- 180° -->
      <g transform="translate(77.06025 177.287375)scale(0.1 -0.1)">
       <defs>
        <path id="DejaVuSans-38" d="M 2034 2216 
Q 1584 2216 1326 1975 
Q 1069 1734 1069 1313 
Q 1069 891 1326 650 
Q 1584 409 2034 409 
Q 2484 409 2743 651 
Q 3003 894 3003 1313 
Q 3003 1734 2745 1975 
Q 2488 2216 2034 2216 
z
M 1403 2484 
Q 997 2584 770 2862 
Q 544 3141 544 3541 
Q 544 4100 942 4425 
Q 1341 4750 2034 4750 
Q 2731 4750 3128 4425 
Q 3525 4100 3525 3541 
Q 3525 3141 3298 2862 
Q 3072 2584 2669 2484 
Q 3125 2378 3379 2068 
Q 3634 1759 3634 1313 
Q 3634 634 3220 271 
Q 2806 -91 2034 -91 
Q 1263 -91 848 271 
Q 434 634 434 1313 
Q 434 1759 690 2068 
Q 947 2378 1403 2484 
z
M 1172 3481 
Q 1172 3119 1398 2916 
Q 1625 2713 2034 2713 
Q 2441 2713 2670 2916 
Q 2900 3119 2900 3481 
Q 2900 3844 2670 4047 
Q 2441 4250 2034 4250 
Q 1625 4250 1398 4047 
Q 1172 3844 1172 3481 
z
" transform="scale(0.015625)"/>
       </defs>
       <use xlink:href="#DejaVuSans-31"/>
       <use xlink:href="#DejaVuSans-38" x="63.623047"/>
       <use xlink:href="#DejaVuSans-30" x="127.246094"/>
       <use xlink:href="#DejaVuSans-b0" x="190.869141"/>
      </g>
     </g>
    </g>
    <g id="xtick_6">
     <g id="line2d_6">
      <path d="M 236.16 174.528 
L 142.0752 268.6128 
" clip-path="url(#pa83f22ba6f)" style="fill: none; stroke: #b0b0b0; stroke-width: 0.8; stroke-linecap: square"/>
     </g>
     <g id="text_6">
      <!-- 225° -->
      <g transform="translate(120.131955 281.27167)scale(0.1 -0.1)">
       <defs>
        <path id="DejaVuSans-32" d="M 1228 531 
L 3431 531 
L 3431 0 
L 469 0 
L 469 531 
Q 828 903 1448 1529 
Q 2069 2156 2228 2338 
Q 2531 2678 2651 2914 
Q 2772 3150 2772 3378 
Q 2772 3750 2511 3984 
Q 2250 4219 1831 4219 
Q 1534 4219 1204 4116 
Q 875 4013 500 3803 
L 500 4441 
Q 881 4594 1212 4672 
Q 1544 4750 1819 4750 
Q 2544 4750 2975 4387 
Q 3406 4025 3406 3419 
Q 3406 3131 3298 2873 
Q 3191 2616 2906 2266 
Q 2828 2175 2409 1742 
Q 1991 1309 1228 531 
z
" transform="scale(0.015625)"/>
       </defs>
       <use xlink:href="#DejaVuSans-32"/>
       <use xlink:href="#DejaVuSans-32" x="63.623047"/>
       <use xlink:href="#DejaVuSans-35" x="127.246094"/>
       <use xlink:href="#DejaVuSans-b0" x="190.869141"/>
      </g>
     </g>
    </g>
    <g id="xtick_7">
     <g id="line2d_7">
      <path d="M 236.16 174.528 
L 236.16 307.584 
" clip-path="url(#pa83f22ba6f)" style="fill: none; stroke: #b0b0b0; stroke-width: 0.8; stroke-linecap: square"/>
     </g>
     <g id="text_7">
      <!-- 270° -->
      <g transform="translate(224.11625 324.343375)scale(0.1 -0.1)">
       <defs>
        <path id="DejaVuSans-37" d="M 525 4666 
L 3525 4666 
L 3525 4397 
L 1831 0 
L 1172 0 
L 2766 4134 
L 525 4134 
L 525 4666 
z
" transform="scale(0.015625)"/>
       </defs>
       <use xlink:href="#DejaVuSans-32"/>
       <use xlink:href="#DejaVuSans-37" x="63.623047"/>
       <use xlink:href="#DejaVuSans-30" x="127.246094"/>
       <use xlink:href="#DejaVuSans-b0" x="190.869141"/>
      </g>
     </g>
    </g>
    <g id="xtick_8">
     <g id="line2d_8">
      <path d="M 236.16 174.528 
L 330.2448 268.6128 
" clip-path="url(#pa83f22ba6f)" style="fill: none; stroke: #b0b0b0; stroke-width: 0.8; stroke-linecap: square"/>
     </g>
     <g id="text_8">
      <!-- 315° -->
      <g transform="translate(328.100545 281.27167)scale(0.1 -0.1)">
       <use xlink:href="#DejaVuSans-33"/>
       <use xlink:href="#DejaVuSans-31" x="63.623047"/>
       <use xlink:href="#DejaVuSans-35" x="127.246094"/>
       <use xlink:href="#DejaVuSans-b0" x="190.869141"/>
      </g>
     </g>
    </g>
   </g>
   <g id="matplotlib.axis_2">
    <g id="ytick_1">
     <g id="line2d_9">
      <path d="M 251.597317 174.528 
C 251.597317 172.50079 251.198001 170.493292 250.422221 168.620394 
C 249.646442 166.747497 248.509286 165.045622 247.075832 163.612168 
C 245.642378 162.178714 243.940503 161.041558 242.067606 160.265779 
C 240.194708 159.489999 238.18721 159.090683 236.16 159.090683 
C 234.13279 159.090683 232.125292 159.489999 230.252394 160.265779 
C 228.379497 161.041558 226.677622 162.178714 225.244168 163.612168 
C 223.810714 165.045622 222.673558 166.747497 221.897779 168.620394 
C 221.121999 170.493292 220.722683 172.50079 220.722683 174.528 
C 220.722683 176.55521 221.121999 178.562708 221.897779 180.435606 
C 222.673558 182.308503 223.810714 184.010378 225.244168 185.443832 
C 226.677622 186.877286 228.379497 188.014442 230.252394 188.790221 
C 232.125292 189.566001 234.13279 189.965317 236.16 189.965317 
C 238.18721 189.965317 240.194708 189.566001 242.067606 188.790221 
C 243.940503 188.014442 245.642378 186.877286 247.075832 185.443832 
C 248.509286 184.010378 249.646442 182.308503 250.422221 180.435606 
C 251.198001 178.562708 251.597317 176.55521 251.597317 174.528 
" clip-path="url(#pa83f22ba6f)" style="fill: none; stroke: #b0b0b0; stroke-width: 0.8; stroke-linecap: square"/>
     </g>
     <g id="text_9">
      <!-- 1 -->
      <g transform="translate(250.422221 166.540707)scale(0.1 -0.1)">
       <use xlink:href="#DejaVuSans-31"/>
      </g>
     </g>
    </g>
    <g id="ytick_2">
     <g id="line2d_10">
      <path d="M 267.034634 174.528 
C 267.034634 170.47358 266.236002 166.458584 264.684443 162.712789 
C 263.132884 158.966993 260.858571 155.563244 257.991663 152.696337 
C 255.124756 149.829429 251.721007 147.555116 247.975211 146.003557 
C 244.229416 144.451998 240.21442 143.653366 236.16 143.653366 
C 232.10558 143.653366 228.090584 144.451998 224.344789 146.003557 
C 220.598993 147.555116 217.195244 149.829429 214.328337 152.696337 
C 211.461429 155.563244 209.187116 158.966993 207.635557 162.712789 
C 206.083998 166.458584 205.285366 170.47358 205.285366 174.528 
C 205.285366 178.58242 206.083998 182.597416 207.635557 186.343211 
C 209.187116 190.089007 211.461429 193.492756 214.328337 196.359663 
C 217.195244 199.226571 220.598993 201.500884 224.344789 203.052443 
C 228.090584 204.604002 232.10558 205.402634 236.16 205.402634 
C 240.21442 205.402634 244.229416 204.604002 247.975211 203.052443 
C 251.721007 201.500884 255.124756 199.226571 257.991663 196.359663 
C 260.858571 193.492756 263.132884 190.089007 264.684443 186.343211 
C 266.236002 182.597416 267.034634 178.58242 267.034634 174.528 
" clip-path="url(#pa83f22ba6f)" style="fill: none; stroke: #b0b0b0; stroke-width: 0.8; stroke-linecap: square"/>
     </g>
     <g id="text_10">
      <!-- 2 -->
      <g transform="translate(264.684443 160.633101)scale(0.1 -0.1)">
       <use xlink:href="#DejaVuSans-32"/>
      </g>
     </g>
    </g>
    <g id="ytick_3">
     <g id="line2d_11">
      <path d="M 282.471952 174.528 
C 282.471952 168.44637 281.274003 162.423877 278.946664 156.805183 
C 276.619325 151.18649 273.207857 146.080867 268.907495 141.780505 
C 264.607133 137.480143 259.50151 134.068675 253.882817 131.741336 
C 248.264123 129.413997 242.24163 128.216048 236.16 128.216048 
C 230.07837 128.216048 224.055877 129.413997 218.437183 131.741336 
C 212.81849 134.068675 207.712867 137.480143 203.412505 141.780505 
C 199.112143 146.080867 195.700675 151.18649 193.373336 156.805183 
C 191.045997 162.423877 189.848048 168.44637 189.848048 174.528 
C 189.848048 180.60963 191.045997 186.632123 193.373336 192.250817 
C 195.700675 197.86951 199.112143 202.975133 203.412505 207.275495 
C 207.712867 211.575857 212.81849 214.987325 218.437183 217.314664 
C 224.055877 219.642003 230.07837 220.839952 236.16 220.839952 
C 242.24163 220.839952 248.264123 219.642003 253.882817 217.314664 
C 259.50151 214.987325 264.607133 211.575857 268.907495 207.275495 
C 273.207857 202.975133 276.619325 197.86951 278.946664 192.250817 
C 281.274003 186.632123 282.471952 180.60963 282.471952 174.528 
" clip-path="url(#pa83f22ba6f)" style="fill: none; stroke: #b0b0b0; stroke-width: 0.8; stroke-linecap: square"/>
     </g>
     <g id="text_11">
      <!-- 3 -->
      <g transform="translate(278.946664 154.725496)scale(0.1 -0.1)">
       <use xlink:href="#DejaVuSans-33"/>
      </g>
     </g>
    </g>
    <g id="ytick_4">
     <g id="line2d_12">
      <path d="M 297.909269 174.528 
C 297.909269 166.41916 296.312004 158.389169 293.208886 150.897578 
C 290.105767 143.405987 285.557142 136.598489 279.823327 130.864673 
C 274.089511 125.130858 267.282013 120.582233 259.790422 117.479114 
C 252.298831 114.375996 244.26884 112.778731 236.16 112.778731 
C 228.05116 112.778731 220.021169 114.375996 212.529578 117.479114 
C 205.037987 120.582233 198.230489 125.130858 192.496673 130.864673 
C 186.762858 136.598489 182.214233 143.405987 179.111114 150.897578 
C 176.007996 158.389169 174.410731 166.41916 174.410731 174.528 
C 174.410731 182.63684 176.007996 190.666831 179.111114 198.158422 
C 182.214233 205.650013 186.762858 212.457511 192.496673 218.191327 
C 198.230489 223.925142 205.037987 228.473767 212.529578 231.576886 
C 220.021169 234.680004 228.05116 236.277269 236.16 236.277269 
C 244.26884 236.277269 252.298831 234.680004 259.790422 231.576886 
C 267.282013 228.473767 274.089511 223.925142 279.823327 218.191327 
C 285.557142 212.457511 290.105767 205.650013 293.208886 198.158422 
C 296.312004 190.666831 297.909269 182.63684 297.909269 174.528 
" clip-path="url(#pa83f22ba6f)" style="fill: none; stroke: #b0b0b0; stroke-width: 0.8; stroke-linecap: square"/>
     </g>
     <g id="text_12">
      <!-- 4 -->
      <g transform="translate(293.208886 148.81789)scale(0.1 -0.1)">
       <use xlink:href="#DejaVuSans-34"/>
      </g>
     </g>
    </g>
    <g id="ytick_5">
     <g id="line2d_13">
      <path d="M 313.346586 174.528 
C 313.346586 164.39195 311.350005 154.354461 307.471107 144.989972 
C 303.592209 135.625484 297.906428 127.116111 290.739158 119.948842 
C 283.571889 112.781572 275.062516 107.095791 265.698028 103.216893 
C 256.333539 99.337995 246.29605 97.341414 236.16 97.341414 
C 226.02395 97.341414 215.986461 99.337995 206.621972 103.216893 
C 197.257484 107.095791 188.748111 112.781572 181.580842 119.948842 
C 174.413572 127.116111 168.727791 135.625484 164.848893 144.989972 
C 160.969995 154.354461 158.973414 164.39195 158.973414 174.528 
C 158.973414 184.66405 160.969995 194.701539 164.848893 204.066028 
C 168.727791 213.430516 174.413572 221.939889 181.580842 229.107158 
C 188.748111 236.274428 197.257484 241.960209 206.621972 245.839107 
C 215.986461 249.718005 226.02395 251.714586 236.16 251.714586 
C 246.29605 251.714586 256.333539 249.718005 265.698028 245.839107 
C 275.062516 241.960209 283.571889 236.274428 290.739158 229.107158 
C 297.906428 221.939889 303.592209 213.430516 307.471107 204.066028 
C 311.350005 194.701539 313.346586 184.66405 313.346586 174.528 
" clip-path="url(#pa83f22ba6f)" style="fill: none; stroke: #b0b0b0; stroke-width: 0.8; stroke-linecap: square"/>
     </g>
     <g id="text_13">
      <!-- 5 -->
      <g transform="translate(307.471107 142.910285)scale(0.1 -0.1)">
       <use xlink:href="#DejaVuSans-35"/>
      </g>
     </g>
    </g>
    <g id="ytick_6">
     <g id="line2d_14">
      <path d="M 328.783903 174.528 
C 328.783903 162.36474 326.388006 150.319753 321.733328 139.082367 
C 317.078651 127.84498 310.255713 117.633733 301.65499 109.03301 
C 293.054267 100.432287 282.84302 93.609349 271.605633 88.954672 
C 260.368247 84.299994 248.32326 81.904097 236.16 81.904097 
C 223.99674 81.904097 211.951753 84.299994 200.714367 88.954672 
C 189.47698 93.609349 179.265733 100.432287 170.66501 109.03301 
C 162.064287 117.633733 155.241349 127.84498 150.586672 139.082367 
C 145.931994 150.319753 143.536097 162.36474 143.536097 174.528 
C 143.536097 186.69126 145.931994 198.736247 150.586672 209.973633 
C 155.241349 221.21102 162.064287 231.422267 170.66501 240.02299 
C 179.265733 248.623713 189.47698 255.446651 200.714367 260.101328 
C 211.951753 264.756006 223.99674 267.151903 236.16 267.151903 
C 248.32326 267.151903 260.368247 264.756006 271.605633 260.101328 
C 282.84302 255.446651 293.054267 248.623713 301.65499 240.02299 
C 310.255713 231.422267 317.078651 221.21102 321.733328 209.973633 
C 326.388006 198.736247 328.783903 186.69126 328.783903 174.528 
" clip-path="url(#pa83f22ba6f)" style="fill: none; stroke: #b0b0b0; stroke-width: 0.8; stroke-linecap: square"/>
     </g>
     <g id="text_14">
      <!-- 6 -->
      <g transform="translate(321.733328 137.002679)scale(0.1 -0.1)">
       <defs>
        <path id="DejaVuSans-36" d="M 2113 2584 
Q 1688 2584 1439 2293 
Q 1191 2003 1191 1497 
Q 1191 994 1439 701 
Q 1688 409 2113 409 
Q 2538 409 2786 701 
Q 3034 994 3034 1497 
Q 3034 2003 2786 2293 
Q 2538 2584 2113 2584 
z
M 3366 4563 
L 3366 3988 
Q 3128 4100 2886 4159 
Q 2644 4219 2406 4219 
Q 1781 4219 1451 3797 
Q 1122 3375 1075 2522 
Q 1259 2794 1537 2939 
Q 1816 3084 2150 3084 
Q 2853 3084 3261 2657 
Q 3669 2231 3669 1497 
Q 3669 778 3244 343 
Q 2819 -91 2113 -91 
Q 1303 -91 875 529 
Q 447 1150 447 2328 
Q 447 3434 972 4092 
Q 1497 4750 2381 4750 
Q 2619 4750 2861 4703 
Q 3103 4656 3366 4563 
z
" transform="scale(0.015625)"/>
       </defs>
       <use xlink:href="#DejaVuSans-36"/>
      </g>
     </g>
    </g>
    <g id="ytick_7">
     <g id="line2d_15">
      <path d="M 344.221221 174.528 
C 344.221221 160.337531 341.426007 146.285046 335.99555 133.174761 
C 330.565092 120.064477 322.604999 108.151355 312.570822 98.117178 
C 302.536645 88.083001 290.623523 80.122908 277.513239 74.69245 
C 264.402954 69.261993 250.350469 66.466779 236.16 66.466779 
C 221.969531 66.466779 207.917046 69.261993 194.806761 74.69245 
C 181.696477 80.122908 169.783355 88.083001 159.749178 98.117178 
C 149.715001 108.151355 141.754908 120.064477 136.32445 133.174761 
C 130.893993 146.285046 128.098779 160.337531 128.098779 174.528 
C 128.098779 188.718469 130.893993 202.770954 136.32445 215.881239 
C 141.754908 228.991523 149.715001 240.904645 159.749178 250.938822 
C 169.783355 260.972999 181.696477 268.933092 194.806761 274.36355 
C 207.917046 279.794007 221.969531 282.589221 236.16 282.589221 
C 250.350469 282.589221 264.402954 279.794007 277.513239 274.36355 
C 290.623523 268.933092 302.536645 260.972999 312.570822 250.938822 
C 322.604999 240.904645 330.565092 228.991523 335.99555 215.881239 
C 341.426007 202.770954 344.221221 188.718469 344.221221 174.528 
" clip-path="url(#pa83f22ba6f)" style="fill: none; stroke: #b0b0b0; stroke-width: 0.8; stroke-linecap: square"/>
     </g>
     <g id="text_15">
      <!-- 7 -->
      <g transform="translate(335.99555 131.095074)scale(0.1 -0.1)">
       <use xlink:href="#DejaVuSans-37"/>
      </g>
     </g>
    </g>
    <g id="ytick_8">
     <g id="line2d_16">
      <path d="M 359.658538 174.528 
C 359.658538 158.310321 356.464009 142.250338 350.257771 127.267156 
C 344.051534 112.283974 334.954285 98.668978 323.486654 87.201346 
C 312.019022 75.733715 298.404026 66.636466 283.420844 60.430229 
C 268.437662 54.223991 252.377679 51.029462 236.16 51.029462 
C 219.942321 51.029462 203.882338 54.223991 188.899156 60.430229 
C 173.915974 66.636466 160.300978 75.733715 148.833346 87.201346 
C 137.365715 98.668978 128.268466 112.283974 122.062229 127.267156 
C 115.855991 142.250338 112.661462 158.310321 112.661462 174.528 
C 112.661462 190.745679 115.855991 206.805662 122.062229 221.788844 
C 128.268466 236.772026 137.365715 250.387022 148.833346 261.854654 
C 160.300978 273.322285 173.915974 282.419534 188.899156 288.625771 
C 203.882338 294.832009 219.942321 298.026538 236.16 298.026538 
C 252.377679 298.026538 268.437662 294.832009 283.420844 288.625771 
C 298.404026 282.419534 312.019022 273.322285 323.486654 261.854654 
C 334.954285 250.387022 344.051534 236.772026 350.257771 221.788844 
C 356.464009 206.805662 359.658538 190.745679 359.658538 174.528 
" clip-path="url(#pa83f22ba6f)" style="fill: none; stroke: #b0b0b0; stroke-width: 0.8; stroke-linecap: square"/>
     </g>
     <g id="text_16">
      <!-- 8 -->
      <g transform="translate(350.257771 125.187468)scale(0.1 -0.1)">
       <use xlink:href="#DejaVuSans-38"/>
      </g>
     </g>
    </g>
    <g id="text_17">
     <!-- 1e−14 -->
     <g transform="translate(103.104 38.472)scale(0.1 -0.1)">
      <defs>
       <path id="DejaVuSans-65" d="M 3597 1894 
L 3597 1613 
L 953 1613 
Q 991 1019 1311 708 
Q 1631 397 2203 397 
Q 2534 397 2845 478 
Q 3156 559 3463 722 
L 3463 178 
Q 3153 47 2828 -22 
Q 2503 -91 2169 -91 
Q 1331 -91 842 396 
Q 353 884 353 1716 
Q 353 2575 817 3079 
Q 1281 3584 2069 3584 
Q 2775 3584 3186 3129 
Q 3597 2675 3597 1894 
z
M 3022 2063 
Q 3016 2534 2758 2815 
Q 2500 3097 2075 3097 
Q 1594 3097 1305 2825 
Q 1016 2553 972 2059 
L 3022 2063 
z
" transform="scale(0.015625)"/>
       <path id="DejaVuSans-2212" d="M 678 2272 
L 4684 2272 
L 4684 1741 
L 678 1741 
L 678 2272 
z
" transform="scale(0.015625)"/>
      </defs>
      <use xlink:href="#DejaVuSans-31"/>
      <use xlink:href="#DejaVuSans-65" x="63.623047"/>
      <use xlink:href="#DejaVuSans-2212" x="125.146484"/>
      <use xlink:href="#DejaVuSans-31" x="208.935547"/>
      <use xlink:href="#DejaVuSans-34" x="272.558594"/>
     </g>
    </g>
   </g>
   <g id="line2d_17">
    <path d="M 362.882501 174.528 
L 359.360999 170.636784 
L 349.055804 167.389411 
L 332.801592 165.346499 
L 312.142292 164.880454 
L 289.433473 166.047199 
L 267.74445 168.471932 
L 250.384087 171.332032 
L 237.364755 174.176129 
L 240.725785 173.036514 
L 246.004276 170.96452 
L 248.726757 169.524909 
L 246.67907 169.950338 
L 241.462788 172.018367 
L 236.47916 174.351489 
L 239.196716 172.588715 
L 237.838087 173.3802 
L 236.420392 174.337555 
L 236.770546 174.051162 
L 237.412274 173.484682 
L 236.19815 174.491902 
L 237.855609 172.707442 
L 236.772164 173.82764 
L 236.942167 173.573968 
L 238.578554 171.380368 
L 238.309891 171.539264 
L 237.364131 172.737387 
L 238.727673 170.436453 
L 239.45135 168.895869 
L 238.256704 170.66514 
L 239.946366 166.361409 
L 238.894954 168.105222 
L 239.046704 167.107262 
L 239.923571 163.868819 
L 238.994478 165.613215 
L 238.929884 164.758409 
L 239.414637 161.493846 
L 238.550108 163.483632 
L 238.391453 162.372173 
L 238.426837 159.526778 
L 237.66353 161.888845 
L 237.056362 158.321988 
L 236.481598 160.949751 
L 236.037233 158.975238 
L 235.512598 158.132997 
L 235.182207 160.787392 
L 234.532971 158.728 
L 234.066634 159.021572 
L 233.985745 161.531665 
L 233.204836 159.74762 
L 232.976758 160.86566 
L 233.149754 163.2342 
L 232.374987 161.938776 
L 232.429083 163.405029 
L 232.898672 165.735902 
L 232.265894 164.967093 
L 232.492856 166.27978 
L 233.298189 168.602491 
L 232.933696 168.353484 
L 233.10767 169.110321 
L 234.197152 171.50722 
L 234.142709 171.628104 
L 235.692174 174.009524 
L 236.116402 174.482647 
L 236.076453 174.456129 
L 234.400773 173.19821 
L 234.084553 173.059785 
L 234.662234 173.537878 
L 229.569158 170.745863 
L 222.40554 167.20224 
L 215.517114 164.356494 
L 211.950727 163.53492 
L 212.574788 164.704113 
L 215.998544 166.867763 
L 222.492913 170.301007 
L 223.005379 170.910323 
L 221.684701 171.034656 
L 216.435153 171.067812 
L 213.808311 171.330681 
L 211.660896 171.809571 
L 210.092445 172.466087 
L 209.091019 173.245035 
L 208.608197 174.093006 
L 208.608197 174.962994 
L 209.091019 175.810965 
L 210.092445 176.589913 
L 211.660896 177.246429 
L 213.808311 177.725319 
L 216.435153 177.988188 
L 223.005379 178.145677 
L 222.492913 178.754993 
L 215.998544 182.188237 
L 212.574788 184.351887 
L 211.950727 185.52108 
L 215.517114 184.699506 
L 222.40554 181.85376 
L 229.569158 178.310137 
L 234.662234 175.518122 
L 234.084553 175.996215 
L 234.400773 175.85779 
L 236.116402 174.573353 
L 235.692174 175.046476 
L 235.026389 176.052564 
L 234.142709 177.427896 
L 234.197152 177.54878 
L 234.145447 177.853632 
L 233.10767 179.945679 
L 232.933696 180.702516 
L 233.298189 180.453509 
L 232.492856 182.77622 
L 232.265894 184.088907 
L 232.898672 183.320098 
L 232.429083 185.650971 
L 232.374987 187.117224 
L 233.149754 185.8218 
L 232.976758 188.19034 
L 233.204836 189.30838 
L 233.985745 187.524335 
L 234.066634 190.034428 
L 234.532971 190.328 
L 235.182207 188.268608 
L 235.512598 190.923003 
L 236.037233 190.080762 
L 236.481598 188.106249 
L 237.056362 190.734012 
L 237.66353 187.167155 
L 238.426837 189.529222 
L 238.391453 186.683827 
L 238.550108 185.572368 
L 239.414637 187.562154 
L 238.929884 184.297591 
L 238.994478 183.442785 
L 239.923571 185.187181 
L 239.046704 181.948738 
L 238.894954 180.950778 
L 239.946366 182.694591 
L 238.256704 178.39086 
L 239.45135 180.160131 
L 238.727673 178.619547 
L 237.364131 176.318613 
L 238.309891 177.516736 
L 238.578554 177.675632 
L 236.772164 175.22836 
L 237.855609 176.348558 
L 236.19815 174.564098 
L 236.695736 175.003783 
L 237.412274 175.571318 
L 236.420392 174.718445 
L 239.196716 176.467285 
L 238.311744 175.808345 
L 236.47916 174.704511 
L 237.138395 175.029439 
L 241.462788 177.037633 
L 246.67907 179.105662 
L 248.726757 179.531091 
L 246.004276 178.09148 
L 240.725785 176.019486 
L 237.364755 174.879871 
L 239.98598 175.515497 
L 250.384087 177.723968 
L 267.74445 180.584068 
L 289.433473 183.008801 
L 312.142292 184.175546 
L 332.801592 183.709501 
L 349.055804 181.666589 
L 359.360999 178.419216 
L 362.882501 174.528 
L 362.882501 174.528 
" clip-path="url(#pa83f22ba6f)" style="fill: none; stroke: #1f77b4; stroke-width: 1.5; stroke-linecap: square"/>
   </g>
   <g id="patch_3">
    <path d="M 369.216 174.528 
C 369.216 157.055246 365.774248 139.752393 359.087715 123.609673 
C 352.401182 107.466954 342.599903 92.798303 330.2448 80.4432 
C 317.889697 68.088097 303.221046 58.286818 287.078327 51.600285 
C 270.935607 44.913752 253.632754 41.472 236.16 41.472 
C 218.687246 41.472 201.384393 44.913752 185.241673 51.600285 
C 169.098954 58.286818 154.430303 68.088097 142.0752 80.4432 
C 129.720097 92.798303 119.918818 107.466954 113.232285 123.609673 
C 106.545752 139.752393 103.104 157.055246 103.104 174.528 
C 103.104 192.000754 106.545752 209.303607 113.232285 225.446327 
C 119.918818 241.589046 129.720097 256.257697 142.0752 268.6128 
C 154.430303 280.967903 169.098954 290.769182 185.241673 297.455715 
C 201.384393 304.142248 218.687246 307.584 236.16 307.584 
C 253.632754 307.584 270.935607 304.142248 287.078327 297.455715 
C 303.221046 290.769182 317.889697 280.967903 330.2448 268.6128 
C 342.599903 256.257697 352.401182 241.589046 359.087715 225.446327 
C 365.774248 209.303607 369.216 192.000754 369.216 174.528 
" style="fill: none; stroke: #000000; stroke-width: 0.8; stroke-linejoin: miter; stroke-linecap: square"/>
   </g>
   <g id="text_18">
    <!-- $d P/ d \Omega\ ()$ -->
    <g transform="translate(211.68 16.632938)scale(0.12 -0.12)">
     <defs>
      <path id="DejaVuSans-Oblique-64" d="M 2675 525 
Q 2444 222 2128 65 
Q 1813 -91 1428 -91 
Q 903 -91 598 267 
Q 294 625 294 1247 
Q 294 1766 478 2236 
Q 663 2706 1013 3078 
Q 1244 3325 1534 3454 
Q 1825 3584 2144 3584 
Q 2481 3584 2739 3421 
Q 2997 3259 3138 2956 
L 3513 4863 
L 4091 4863 
L 3144 0 
L 2566 0 
L 2675 525 
z
M 891 1350 
Q 891 897 1095 644 
Q 1300 391 1663 391 
Q 1931 391 2161 520 
Q 2391 650 2566 903 
Q 2750 1166 2856 1509 
Q 2963 1853 2963 2188 
Q 2963 2622 2758 2865 
Q 2553 3109 2194 3109 
Q 1922 3109 1687 2981 
Q 1453 2853 1288 2613 
Q 1106 2353 998 2009 
Q 891 1666 891 1350 
z
" transform="scale(0.015625)"/>
      <path id="DejaVuSans-Oblique-50" d="M 1081 4666 
L 2541 4666 
Q 3178 4666 3512 4369 
Q 3847 4072 3847 3500 
Q 3847 2731 3353 2303 
Q 2859 1875 1966 1875 
L 1172 1875 
L 806 0 
L 172 0 
L 1081 4666 
z
M 1613 4147 
L 1275 2394 
L 2069 2394 
Q 2606 2394 2893 2669 
Q 3181 2944 3181 3456 
Q 3181 3784 2986 3965 
Q 2791 4147 2438 4147 
L 1613 4147 
z
" transform="scale(0.015625)"/>
      <path id="DejaVuSans-2f" d="M 1625 4666 
L 2156 4666 
L 531 -594 
L 0 -594 
L 1625 4666 
z
" transform="scale(0.015625)"/>
      <path id="DejaVuSans-3a9" d="M 4647 556 
L 4647 0 
L 2772 0 
L 2772 556 
Q 3325 859 3634 1378 
Q 3944 1897 3944 2528 
Q 3944 3278 3531 3731 
Q 3119 4184 2444 4184 
Q 1769 4184 1355 3729 
Q 941 3275 941 2528 
Q 941 1897 1250 1378 
Q 1563 859 2119 556 
L 2119 0 
L 244 0 
L 244 556 
L 1241 556 
Q 747 991 519 1456 
Q 294 1922 294 2497 
Q 294 3491 894 4106 
Q 1491 4722 2444 4722 
Q 3391 4722 3994 4106 
Q 4594 3494 4594 2528 
Q 4594 1922 4372 1459 
Q 4150 997 3647 556 
L 4647 556 
z
" transform="scale(0.015625)"/>
      <path id="DejaVuSans-28" d="M 1984 4856 
Q 1566 4138 1362 3434 
Q 1159 2731 1159 2009 
Q 1159 1288 1364 580 
Q 1569 -128 1984 -844 
L 1484 -844 
Q 1016 -109 783 600 
Q 550 1309 550 2009 
Q 550 2706 781 3412 
Q 1013 4119 1484 4856 
L 1984 4856 
z
" transform="scale(0.015625)"/>
      <path id="DejaVuSans-29" d="M 513 4856 
L 1013 4856 
Q 1481 4119 1714 3412 
Q 1947 2706 1947 2009 
Q 1947 1309 1714 600 
Q 1481 -109 1013 -844 
L 513 -844 
Q 928 -128 1133 580 
Q 1338 1288 1338 2009 
Q 1338 2731 1133 3434 
Q 928 4138 513 4856 
z
" transform="scale(0.015625)"/>
     </defs>
     <use xlink:href="#DejaVuSans-Oblique-64" transform="translate(0 0.015625)"/>
     <use xlink:href="#DejaVuSans-Oblique-50" transform="translate(63.476562 0.015625)"/>
     <use xlink:href="#DejaVuSans-2f" transform="translate(123.779297 0.015625)"/>
     <use xlink:href="#DejaVuSans-Oblique-64" transform="translate(157.470703 0.015625)"/>
     <use xlink:href="#DejaVuSans-3a9" transform="translate(220.947266 0.015625)"/>
     <use xlink:href="#DejaVuSans-28" transform="translate(329.83366 0.015625)"/>
     <use xlink:href="#DejaVuSans-29" transform="translate(368.847332 0.015625)"/>
    </g>
   </g>
   <g id="legend_1">
    <g id="patch_4">
     <path d="M 284.692563 64.150125 
L 362.216 64.150125 
Q 364.216 64.150125 364.216 62.150125 
L 364.216 48.472 
Q 364.216 46.472 362.216 46.472 
L 284.692563 46.472 
Q 282.692563 46.472 282.692563 48.472 
L 282.692563 62.150125 
Q 282.692563 64.150125 284.692563 64.150125 
z
" style="fill: #ffffff; opacity: 0.8; stroke: #cccccc; stroke-linejoin: miter"/>
    </g>
    <g id="line2d_18">
     <path d="M 286.692563 54.570438 
L 296.692563 54.570438 
L 306.692563 54.570438 
" style="fill: none; stroke: #1f77b4; stroke-width: 1.5; stroke-linecap: square"/>
    </g>
    <g id="text_19">
     <!-- y-z plane -->
     <g transform="translate(314.692563 58.070438)scale(0.1 -0.1)">
      <defs>
       <path id="DejaVuSans-79" d="M 2059 -325 
Q 1816 -950 1584 -1140 
Q 1353 -1331 966 -1331 
L 506 -1331 
L 506 -850 
L 844 -850 
Q 1081 -850 1212 -737 
Q 1344 -625 1503 -206 
L 1606 56 
L 191 3500 
L 800 3500 
L 1894 763 
L 2988 3500 
L 3597 3500 
L 2059 -325 
z
" transform="scale(0.015625)"/>
       <path id="DejaVuSans-2d" d="M 313 2009 
L 1997 2009 
L 1997 1497 
L 313 1497 
L 313 2009 
z
" transform="scale(0.015625)"/>
       <path id="DejaVuSans-7a" d="M 353 3500 
L 3084 3500 
L 3084 2975 
L 922 459 
L 3084 459 
L 3084 0 
L 275 0 
L 275 525 
L 2438 3041 
L 353 3041 
L 353 3500 
z
" transform="scale(0.015625)"/>
       <path id="DejaVuSans-20" transform="scale(0.015625)"/>
       <path id="DejaVuSans-70" d="M 1159 525 
L 1159 -1331 
L 581 -1331 
L 581 3500 
L 1159 3500 
L 1159 2969 
Q 1341 3281 1617 3432 
Q 1894 3584 2278 3584 
Q 2916 3584 3314 3078 
Q 3713 2572 3713 1747 
Q 3713 922 3314 415 
Q 2916 -91 2278 -91 
Q 1894 -91 1617 61 
Q 1341 213 1159 525 
z
M 3116 1747 
Q 3116 2381 2855 2742 
Q 2594 3103 2138 3103 
Q 1681 3103 1420 2742 
Q 1159 2381 1159 1747 
Q 1159 1113 1420 752 
Q 1681 391 2138 391 
Q 2594 391 2855 752 
Q 3116 1113 3116 1747 
z
" transform="scale(0.015625)"/>
       <path id="DejaVuSans-6c" d="M 603 4863 
L 1178 4863 
L 1178 0 
L 603 0 
L 603 4863 
z
" transform="scale(0.015625)"/>
       <path id="DejaVuSans-61" d="M 2194 1759 
Q 1497 1759 1228 1600 
Q 959 1441 959 1056 
Q 959 750 1161 570 
Q 1363 391 1709 391 
Q 2188 391 2477 730 
Q 2766 1069 2766 1631 
L 2766 1759 
L 2194 1759 
z
M 3341 1997 
L 3341 0 
L 2766 0 
L 2766 531 
Q 2569 213 2275 61 
Q 1981 -91 1556 -91 
Q 1019 -91 701 211 
Q 384 513 384 1019 
Q 384 1609 779 1909 
Q 1175 2209 1959 2209 
L 2766 2209 
L 2766 2266 
Q 2766 2663 2505 2880 
Q 2244 3097 1772 3097 
Q 1472 3097 1187 3025 
Q 903 2953 641 2809 
L 641 3341 
Q 956 3463 1253 3523 
Q 1550 3584 1831 3584 
Q 2591 3584 2966 3190 
Q 3341 2797 3341 1997 
z
" transform="scale(0.015625)"/>
       <path id="DejaVuSans-6e" d="M 3513 2113 
L 3513 0 
L 2938 0 
L 2938 2094 
Q 2938 2591 2744 2837 
Q 2550 3084 2163 3084 
Q 1697 3084 1428 2787 
Q 1159 2491 1159 1978 
L 1159 0 
L 581 0 
L 581 3500 
L 1159 3500 
L 1159 2956 
Q 1366 3272 1645 3428 
Q 1925 3584 2291 3584 
Q 2894 3584 3203 3211 
Q 3513 2838 3513 2113 
z
" transform="scale(0.015625)"/>
      </defs>
      <use xlink:href="#DejaVuSans-79"/>
      <use xlink:href="#DejaVuSans-2d" x="57.429688"/>
      <use xlink:href="#DejaVuSans-7a" x="93.513672"/>
      <use xlink:href="#DejaVuSans-20" x="146.003906"/>
      <use xlink:href="#DejaVuSans-70" x="177.791016"/>
      <use xlink:href="#DejaVuSans-6c" x="241.267578"/>
      <use xlink:href="#DejaVuSans-61" x="269.050781"/>
      <use xlink:href="#DejaVuSans-6e" x="330.330078"/>
      <use xlink:href="#DejaVuSans-65" x="393.708984"/>
     </g>
    </g>
   </g>
  </g>
 </g>
 <defs>
  <clipPath id="pa83f22ba6f">
   <path d="M 369.216 174.528 
C 369.216 157.055246 365.774248 139.752393 359.087715 123.609673 
C 352.401182 107.466954 342.599903 92.798303 330.2448 80.4432 
C 317.889697 68.088097 303.221046 58.286818 287.078327 51.600285 
C 270.935607 44.913752 253.632754 41.472 236.16 41.472 
C 218.687246 41.472 201.384393 44.913752 185.241673 51.600285 
C 169.098954 58.286818 154.430303 68.088097 142.0752 80.4432 
C 129.720097 92.798303 119.918818 107.466954 113.232285 123.609673 
C 106.545752 139.752393 103.104 157.055246 103.104 174.528 
C 103.104 192.000754 106.545752 209.303607 113.232285 225.446327 
C 119.918818 241.589046 129.720097 256.257697 142.0752 268.6128 
C 154.430303 280.967903 169.098954 290.769182 185.241673 297.455715 
C 201.384393 304.142248 218.687246 307.584 236.16 307.584 
C 253.632754 307.584 270.935607 304.142248 287.078327 297.455715 
C 303.221046 290.769182 317.889697 280.967903 330.2448 268.6128 
C 342.599903 256.257697 352.401182 241.589046 359.087715 225.446327 
C 365.774248 209.303607 369.216 192.000754 369.216 174.528 
M 236.16 174.528 
C 236.16 174.528 236.16 174.528 236.16 174.528 
C 236.16 174.528 236.16 174.528 236.16 174.528 
C 236.16 174.528 236.16 174.528 236.16 174.528 
C 236.16 174.528 236.16 174.528 236.16 174.528 
C 236.16 174.528 236.16 174.528 236.16 174.528 
C 236.16 174.528 236.16 174.528 236.16 174.528 
C 236.16 174.528 236.16 174.528 236.16 174.528 
C 236.16 174.528 236.16 174.528 236.16 174.528 
C 236.16 174.528 236.16 174.528 236.16 174.528 
C 236.16 174.528 236.16 174.528 236.16 174.528 
C 236.16 174.528 236.16 174.528 236.16 174.528 
C 236.16 174.528 236.16 174.528 236.16 174.528 
C 236.16 174.528 236.16 174.528 236.16 174.528 
C 236.16 174.528 236.16 174.528 236.16 174.528 
C 236.16 174.528 236.16 174.528 236.16 174.528 
C 236.16 174.528 236.16 174.528 236.16 174.528 
M 369.216 174.528 
z
"/>
  </clipPath>
 </defs>
</svg>
