<?xml version="1.0" encoding="utf-8" standalone="no"?>
<!DOCTYPE svg PUBLIC "-//W3C//DTD SVG 1.1//EN"
  "http://www.w3.org/Graphics/SVG/1.1/DTD/svg11.dtd">
<svg xmlns:xlink="http://www.w3.org/1999/xlink" width="460.8pt" height="345.6pt" viewBox="0 0 460.8 345.6" xmlns="http://www.w3.org/2000/svg" version="1.1">
 <metadata>
  <rdf:RDF xmlns:dc="http://purl.org/dc/elements/1.1/" xmlns:cc="http://creativecommons.org/ns#" xmlns:rdf="http://www.w3.org/1999/02/22-rdf-syntax-ns#">
   <cc:Work>
    <dc:type rdf:resource="http://purl.org/dc/dcmitype/StillImage"/>
    <dc:date>2023-09-13T13:34:17.423958</dc:date>
    <dc:format>image/svg+xml</dc:format>
    <dc:creator>
     <cc:Agent>
      <dc:title>Matplotlib v3.5.2, https://matplotlib.org/</dc:title>
     </cc:Agent>
    </dc:creator>
   </cc:Work>
  </rdf:RDF>
 </metadata>
 <defs>
  <style type="text/css">*{stroke-linejoin: round; stroke-linecap: butt}</style>
 </defs>
 <g id="figure_1">
  <g id="patch_1">
   <path d="M 0 345.6 
L 460.8 345.6 
L 460.8 0 
L 0 0 
z
" style="fill: #ffffff"/>
  </g>
  <g id="axes_1">
   <g id="patch_2">
    <path d="M 369.216 174.528 
C 369.216 157.055246 365.774248 139.752393 359.087715 123.609673 
C 352.401182 107.466954 342.599903 92.798303 330.2448 80.4432 
C 317.889697 68.088097 303.221046 58.286818 287.078327 51.600285 
C 270.935607 44.913752 253.632754 41.472 236.16 41.472 
C 218.687246 41.472 201.384393 44.913752 185.241673 51.600285 
C 169.098954 58.286818 154.430303 68.088097 142.0752 80.4432 
C 129.720097 92.798303 119.918818 107.466954 113.232285 123.609673 
C 106.545752 139.752393 103.104 157.055246 103.104 174.528 
C 103.104 192.000754 106.545752 209.303607 113.232285 225.446327 
C 119.918818 241.589046 129.720097 256.257697 142.0752 268.6128 
C 154.430303 280.967903 169.098954 290.769182 185.241673 297.455715 
C 201.384393 304.142248 218.687246 307.584 236.16 307.584 
C 253.632754 307.584 270.935607 304.142248 287.078327 297.455715 
C 303.221046 290.769182 317.889697 280.967903 330.2448 268.6128 
C 342.599903 256.257697 352.401182 241.589046 359.087715 225.446327 
C 365.774248 209.303607 369.216 192.000754 369.216 174.528 
M 236.16 174.528 
C 236.16 174.528 236.16 174.528 236.16 174.528 
C 236.16 174.528 236.16 174.528 236.16 174.528 
C 236.16 174.528 236.16 174.528 236.16 174.528 
C 236.16 174.528 236.16 174.528 236.16 174.528 
C 236.16 174.528 236.16 174.528 236.16 174.528 
C 236.16 174.528 236.16 174.528 236.16 174.528 
C 236.16 174.528 236.16 174.528 236.16 174.528 
C 236.16 174.528 236.16 174.528 236.16 174.528 
C 236.16 174.528 236.16 174.528 236.16 174.528 
C 236.16 174.528 236.16 174.528 236.16 174.528 
C 236.16 174.528 236.16 174.528 236.16 174.528 
C 236.16 174.528 236.16 174.528 236.16 174.528 
C 236.16 174.528 236.16 174.528 236.16 174.528 
C 236.16 174.528 236.16 174.528 236.16 174.528 
C 236.16 174.528 236.16 174.528 236.16 174.528 
C 236.16 174.528 236.16 174.528 236.16 174.528 
M 369.216 174.528 
z
" style="fill: #ffffff"/>
   </g>
   <g id="matplotlib.axis_1">
    <g id="xtick_1">
     <g id="line2d_1">
      <path d="M 236.16 174.528 
L 369.216 174.528 
" clip-path="url(#p99b8ea150d)" style="fill: none; stroke: #b0b0b0; stroke-width: 0.8; stroke-linecap: square"/>
     </g>
     <g id="text_1">
      <!-- 0° -->
      <g transform="translate(377.53475 177.287375)scale(0.1 -0.1)">
       <defs>
        <path id="DejaVuSans-30" d="M 2034 4250 
Q 1547 4250 1301 3770 
Q 1056 3291 1056 2328 
Q 1056 1369 1301 889 
Q 1547 409 2034 409 
Q 2525 409 2770 889 
Q 3016 1369 3016 2328 
Q 3016 3291 2770 3770 
Q 2525 4250 2034 4250 
z
M 2034 4750 
Q 2819 4750 3233 4129 
Q 3647 3509 3647 2328 
Q 3647 1150 3233 529 
Q 2819 -91 2034 -91 
Q 1250 -91 836 529 
Q 422 1150 422 2328 
Q 422 3509 836 4129 
Q 1250 4750 2034 4750 
z
" transform="scale(0.015625)"/>
        <path id="DejaVuSans-b0" d="M 1600 4347 
Q 1350 4347 1178 4173 
Q 1006 4000 1006 3750 
Q 1006 3503 1178 3333 
Q 1350 3163 1600 3163 
Q 1850 3163 2022 3333 
Q 2194 3503 2194 3750 
Q 2194 3997 2020 4172 
Q 1847 4347 1600 4347 
z
M 1600 4750 
Q 1800 4750 1984 4673 
Q 2169 4597 2303 4453 
Q 2447 4313 2519 4134 
Q 2591 3956 2591 3750 
Q 2591 3338 2302 3052 
Q 2013 2766 1594 2766 
Q 1172 2766 890 3047 
Q 609 3328 609 3750 
Q 609 4169 896 4459 
Q 1184 4750 1600 4750 
z
" transform="scale(0.015625)"/>
       </defs>
       <use xlink:href="#DejaVuSans-30"/>
       <use xlink:href="#DejaVuSans-b0" x="63.623047"/>
      </g>
     </g>
    </g>
    <g id="xtick_2">
     <g id="line2d_2">
      <path d="M 236.16 174.528 
L 330.2448 80.4432 
" clip-path="url(#p99b8ea150d)" style="fill: none; stroke: #b0b0b0; stroke-width: 0.8; stroke-linecap: square"/>
     </g>
     <g id="text_2">
      <!-- 45° -->
      <g transform="translate(331.281795 73.30308)scale(0.1 -0.1)">
       <defs>
        <path id="DejaVuSans-34" d="M 2419 4116 
L 825 1625 
L 2419 1625 
L 2419 4116 
z
M 2253 4666 
L 3047 4666 
L 3047 1625 
L 3713 1625 
L 3713 1100 
L 3047 1100 
L 3047 0 
L 2419 0 
L 2419 1100 
L 313 1100 
L 313 1709 
L 2253 4666 
z
" transform="scale(0.015625)"/>
        <path id="DejaVuSans-35" d="M 691 4666 
L 3169 4666 
L 3169 4134 
L 1269 4134 
L 1269 2991 
Q 1406 3038 1543 3061 
Q 1681 3084 1819 3084 
Q 2600 3084 3056 2656 
Q 3513 2228 3513 1497 
Q 3513 744 3044 326 
Q 2575 -91 1722 -91 
Q 1428 -91 1123 -41 
Q 819 9 494 109 
L 494 744 
Q 775 591 1075 516 
Q 1375 441 1709 441 
Q 2250 441 2565 725 
Q 2881 1009 2881 1497 
Q 2881 1984 2565 2268 
Q 2250 2553 1709 2553 
Q 1456 2553 1204 2497 
Q 953 2441 691 2322 
L 691 4666 
z
" transform="scale(0.015625)"/>
       </defs>
       <use xlink:href="#DejaVuSans-34"/>
       <use xlink:href="#DejaVuSans-35" x="63.623047"/>
       <use xlink:href="#DejaVuSans-b0" x="127.246094"/>
      </g>
     </g>
    </g>
    <g id="xtick_3">
     <g id="line2d_3">
      <path d="M 236.16 174.528 
L 236.16 41.472 
" clip-path="url(#p99b8ea150d)" style="fill: none; stroke: #b0b0b0; stroke-width: 0.8; stroke-linecap: square"/>
     </g>
     <g id="text_3">
      <!-- 90° -->
      <g transform="translate(227.2975 30.231375)scale(0.1 -0.1)">
       <defs>
        <path id="DejaVuSans-39" d="M 703 97 
L 703 672 
Q 941 559 1184 500 
Q 1428 441 1663 441 
Q 2288 441 2617 861 
Q 2947 1281 2994 2138 
Q 2813 1869 2534 1725 
Q 2256 1581 1919 1581 
Q 1219 1581 811 2004 
Q 403 2428 403 3163 
Q 403 3881 828 4315 
Q 1253 4750 1959 4750 
Q 2769 4750 3195 4129 
Q 3622 3509 3622 2328 
Q 3622 1225 3098 567 
Q 2575 -91 1691 -91 
Q 1453 -91 1209 -44 
Q 966 3 703 97 
z
M 1959 2075 
Q 2384 2075 2632 2365 
Q 2881 2656 2881 3163 
Q 2881 3666 2632 3958 
Q 2384 4250 1959 4250 
Q 1534 4250 1286 3958 
Q 1038 3666 1038 3163 
Q 1038 2656 1286 2365 
Q 1534 2075 1959 2075 
z
" transform="scale(0.015625)"/>
       </defs>
       <use xlink:href="#DejaVuSans-39"/>
       <use xlink:href="#DejaVuSans-30" x="63.623047"/>
       <use xlink:href="#DejaVuSans-b0" x="127.246094"/>
      </g>
     </g>
    </g>
    <g id="xtick_4">
     <g id="line2d_4">
      <path d="M 236.16 174.528 
L 142.0752 80.4432 
" clip-path="url(#p99b8ea150d)" style="fill: none; stroke: #b0b0b0; stroke-width: 0.8; stroke-linecap: square"/>
     </g>
     <g id="text_4">
      <!-- 135° -->
      <g transform="translate(120.131955 73.30308)scale(0.1 -0.1)">
       <defs>
        <path id="DejaVuSans-31" d="M 794 531 
L 1825 531 
L 1825 4091 
L 703 3866 
L 703 4441 
L 1819 4666 
L 2450 4666 
L 2450 531 
L 3481 531 
L 3481 0 
L 794 0 
L 794 531 
z
" transform="scale(0.015625)"/>
        <path id="DejaVuSans-33" d="M 2597 2516 
Q 3050 2419 3304 2112 
Q 3559 1806 3559 1356 
Q 3559 666 3084 287 
Q 2609 -91 1734 -91 
Q 1441 -91 1130 -33 
Q 819 25 488 141 
L 488 750 
Q 750 597 1062 519 
Q 1375 441 1716 441 
Q 2309 441 2620 675 
Q 2931 909 2931 1356 
Q 2931 1769 2642 2001 
Q 2353 2234 1838 2234 
L 1294 2234 
L 1294 2753 
L 1863 2753 
Q 2328 2753 2575 2939 
Q 2822 3125 2822 3475 
Q 2822 3834 2567 4026 
Q 2313 4219 1838 4219 
Q 1578 4219 1281 4162 
Q 984 4106 628 3988 
L 628 4550 
Q 988 4650 1302 4700 
Q 1616 4750 1894 4750 
Q 2613 4750 3031 4423 
Q 3450 4097 3450 3541 
Q 3450 3153 3228 2886 
Q 3006 2619 2597 2516 
z
" transform="scale(0.015625)"/>
       </defs>
       <use xlink:href="#DejaVuSans-31"/>
       <use xlink:href="#DejaVuSans-33" x="63.623047"/>
       <use xlink:href="#DejaVuSans-35" x="127.246094"/>
       <use xlink:href="#DejaVuSans-b0" x="190.869141"/>
      </g>
     </g>
    </g>
    <g id="xtick_5">
     <g id="line2d_5">
      <path d="M 236.16 174.528 
L 103.104 174.528 
" clip-path="url(#p99b8ea150d)" style="fill: none; stroke: #b0b0b0; stroke-width: 0.8; stroke-linecap: square"/>
     </g>
     <g id="text_5">
      <!-- 180° -->
      <g transform="translate(77.06025 177.287375)scale(0.1 -0.1)">
       <defs>
        <path id="DejaVuSans-38" d="M 2034 2216 
Q 1584 2216 1326 1975 
Q 1069 1734 1069 1313 
Q 1069 891 1326 650 
Q 1584 409 2034 409 
Q 2484 409 2743 651 
Q 3003 894 3003 1313 
Q 3003 1734 2745 1975 
Q 2488 2216 2034 2216 
z
M 1403 2484 
Q 997 2584 770 2862 
Q 544 3141 544 3541 
Q 544 4100 942 4425 
Q 1341 4750 2034 4750 
Q 2731 4750 3128 4425 
Q 3525 4100 3525 3541 
Q 3525 3141 3298 2862 
Q 3072 2584 2669 2484 
Q 3125 2378 3379 2068 
Q 3634 1759 3634 1313 
Q 3634 634 3220 271 
Q 2806 -91 2034 -91 
Q 1263 -91 848 271 
Q 434 634 434 1313 
Q 434 1759 690 2068 
Q 947 2378 1403 2484 
z
M 1172 3481 
Q 1172 3119 1398 2916 
Q 1625 2713 2034 2713 
Q 2441 2713 2670 2916 
Q 2900 3119 2900 3481 
Q 2900 3844 2670 4047 
Q 2441 4250 2034 4250 
Q 1625 4250 1398 4047 
Q 1172 3844 1172 3481 
z
" transform="scale(0.015625)"/>
       </defs>
       <use xlink:href="#DejaVuSans-31"/>
       <use xlink:href="#DejaVuSans-38" x="63.623047"/>
       <use xlink:href="#DejaVuSans-30" x="127.246094"/>
       <use xlink:href="#DejaVuSans-b0" x="190.869141"/>
      </g>
     </g>
    </g>
    <g id="xtick_6">
     <g id="line2d_6">
      <path d="M 236.16 174.528 
L 142.0752 268.6128 
" clip-path="url(#p99b8ea150d)" style="fill: none; stroke: #b0b0b0; stroke-width: 0.8; stroke-linecap: square"/>
     </g>
     <g id="text_6">
      <!-- 225° -->
      <g transform="translate(120.131955 281.27167)scale(0.1 -0.1)">
       <defs>
        <path id="DejaVuSans-32" d="M 1228 531 
L 3431 531 
L 3431 0 
L 469 0 
L 469 531 
Q 828 903 1448 1529 
Q 2069 2156 2228 2338 
Q 2531 2678 2651 2914 
Q 2772 3150 2772 3378 
Q 2772 3750 2511 3984 
Q 2250 4219 1831 4219 
Q 1534 4219 1204 4116 
Q 875 4013 500 3803 
L 500 4441 
Q 881 4594 1212 4672 
Q 1544 4750 1819 4750 
Q 2544 4750 2975 4387 
Q 3406 4025 3406 3419 
Q 3406 3131 3298 2873 
Q 3191 2616 2906 2266 
Q 2828 2175 2409 1742 
Q 1991 1309 1228 531 
z
" transform="scale(0.015625)"/>
       </defs>
       <use xlink:href="#DejaVuSans-32"/>
       <use xlink:href="#DejaVuSans-32" x="63.623047"/>
       <use xlink:href="#DejaVuSans-35" x="127.246094"/>
       <use xlink:href="#DejaVuSans-b0" x="190.869141"/>
      </g>
     </g>
    </g>
    <g id="xtick_7">
     <g id="line2d_7">
      <path d="M 236.16 174.528 
L 236.16 307.584 
" clip-path="url(#p99b8ea150d)" style="fill: none; stroke: #b0b0b0; stroke-width: 0.8; stroke-linecap: square"/>
     </g>
     <g id="text_7">
      <!-- 270° -->
      <g transform="translate(224.11625 324.343375)scale(0.1 -0.1)">
       <defs>
        <path id="DejaVuSans-37" d="M 525 4666 
L 3525 4666 
L 3525 4397 
L 1831 0 
L 1172 0 
L 2766 4134 
L 525 4134 
L 525 4666 
z
" transform="scale(0.015625)"/>
       </defs>
       <use xlink:href="#DejaVuSans-32"/>
       <use xlink:href="#DejaVuSans-37" x="63.623047"/>
       <use xlink:href="#DejaVuSans-30" x="127.246094"/>
       <use xlink:href="#DejaVuSans-b0" x="190.869141"/>
      </g>
     </g>
    </g>
    <g id="xtick_8">
     <g id="line2d_8">
      <path d="M 236.16 174.528 
L 330.2448 268.6128 
" clip-path="url(#p99b8ea150d)" style="fill: none; stroke: #b0b0b0; stroke-width: 0.8; stroke-linecap: square"/>
     </g>
     <g id="text_8">
      <!-- 315° -->
      <g transform="translate(328.100545 281.27167)scale(0.1 -0.1)">
       <use xlink:href="#DejaVuSans-33"/>
       <use xlink:href="#DejaVuSans-31" x="63.623047"/>
       <use xlink:href="#DejaVuSans-35" x="127.246094"/>
       <use xlink:href="#DejaVuSans-b0" x="190.869141"/>
      </g>
     </g>
    </g>
   </g>
   <g id="matplotlib.axis_2">
    <g id="ytick_1">
     <g id="line2d_9">
      <path d="M 252.061216 174.528 
C 252.061216 172.439871 251.6499 170.372047 250.850808 168.442868 
C 250.051716 166.513689 248.880387 164.760672 247.403858 163.284142 
C 245.927328 161.807613 244.174311 160.636284 242.245132 159.837192 
C 240.315953 159.0381 238.248129 158.626784 236.16 158.626784 
C 234.071871 158.626784 232.004047 159.0381 230.074868 159.837192 
C 228.145689 160.636284 226.392672 161.807613 224.916142 163.284142 
C 223.439613 164.760672 222.268284 166.513689 221.469192 168.442868 
C 220.6701 170.372047 220.258784 172.439871 220.258784 174.528 
C 220.258784 176.616129 220.6701 178.683953 221.469192 180.613132 
C 222.268284 182.542311 223.439613 184.295328 224.916142 185.771858 
C 226.392672 187.248387 228.145689 188.419716 230.074868 189.218808 
C 232.004047 190.0179 234.071871 190.429216 236.16 190.429216 
C 238.248129 190.429216 240.315953 190.0179 242.245132 189.218808 
C 244.174311 188.419716 245.927328 187.248387 247.403858 185.771858 
C 248.880387 184.295328 250.051716 182.542311 250.850808 180.613132 
C 251.6499 178.683953 252.061216 176.616129 252.061216 174.528 
" clip-path="url(#p99b8ea150d)" style="fill: none; stroke: #b0b0b0; stroke-width: 0.8; stroke-linecap: square"/>
     </g>
     <g id="text_9">
      <!-- 0.025 -->
      <g transform="translate(250.850808 166.363181)scale(0.1 -0.1)">
       <defs>
        <path id="DejaVuSans-2e" d="M 684 794 
L 1344 794 
L 1344 0 
L 684 0 
L 684 794 
z
" transform="scale(0.015625)"/>
       </defs>
       <use xlink:href="#DejaVuSans-30"/>
       <use xlink:href="#DejaVuSans-2e" x="63.623047"/>
       <use xlink:href="#DejaVuSans-30" x="95.410156"/>
       <use xlink:href="#DejaVuSans-32" x="159.033203"/>
       <use xlink:href="#DejaVuSans-35" x="222.65625"/>
      </g>
     </g>
    </g>
    <g id="ytick_2">
     <g id="line2d_10">
      <path d="M 267.962432 174.528 
C 267.962432 170.351743 267.1398 166.216095 265.541616 162.357736 
C 263.943431 158.499378 261.600775 154.993345 258.647715 152.040285 
C 255.694655 149.087225 252.188622 146.744569 248.330264 145.146384 
C 244.471905 143.5482 240.336257 142.725568 236.16 142.725568 
C 231.983743 142.725568 227.848095 143.5482 223.989736 145.146384 
C 220.131378 146.744569 216.625345 149.087225 213.672285 152.040285 
C 210.719225 154.993345 208.376569 158.499378 206.778384 162.357736 
C 205.1802 166.216095 204.357568 170.351743 204.357568 174.528 
C 204.357568 178.704257 205.1802 182.839905 206.778384 186.698264 
C 208.376569 190.556622 210.719225 194.062655 213.672285 197.015715 
C 216.625345 199.968775 220.131378 202.311431 223.989736 203.909616 
C 227.848095 205.5078 231.983743 206.330432 236.16 206.330432 
C 240.336257 206.330432 244.471905 205.5078 248.330264 203.909616 
C 252.188622 202.311431 255.694655 199.968775 258.647715 197.015715 
C 261.600775 194.062655 263.943431 190.556622 265.541616 186.698264 
C 267.1398 182.839905 267.962432 178.704257 267.962432 174.528 
" clip-path="url(#p99b8ea150d)" style="fill: none; stroke: #b0b0b0; stroke-width: 0.8; stroke-linecap: square"/>
     </g>
     <g id="text_10">
      <!-- 0.050 -->
      <g transform="translate(265.541616 160.278049)scale(0.1 -0.1)">
       <use xlink:href="#DejaVuSans-30"/>
       <use xlink:href="#DejaVuSans-2e" x="63.623047"/>
       <use xlink:href="#DejaVuSans-30" x="95.410156"/>
       <use xlink:href="#DejaVuSans-35" x="159.033203"/>
       <use xlink:href="#DejaVuSans-30" x="222.65625"/>
      </g>
     </g>
    </g>
    <g id="ytick_3">
     <g id="line2d_11">
      <path d="M 283.863647 174.528 
C 283.863647 168.263614 282.6297 162.060142 280.232424 156.272604 
C 277.835147 150.485067 274.321162 145.226017 269.891573 140.796427 
C 265.461983 136.366838 260.202933 132.852853 254.415396 130.455576 
C 248.627858 128.0583 242.424386 126.824353 236.16 126.824353 
C 229.895614 126.824353 223.692142 128.0583 217.904604 130.455576 
C 212.117067 132.852853 206.858017 136.366838 202.428427 140.796427 
C 197.998838 145.226017 194.484853 150.485067 192.087576 156.272604 
C 189.6903 162.060142 188.456353 168.263614 188.456353 174.528 
C 188.456353 180.792386 189.6903 186.995858 192.087576 192.783396 
C 194.484853 198.570933 197.998838 203.829983 202.428427 208.259573 
C 206.858017 212.689162 212.117067 216.203147 217.904604 218.600424 
C 223.692142 220.9977 229.895614 222.231647 236.16 222.231647 
C 242.424386 222.231647 248.627858 220.9977 254.415396 218.600424 
C 260.202933 216.203147 265.461983 212.689162 269.891573 208.259573 
C 274.321162 203.829983 277.835147 198.570933 280.232424 192.783396 
C 282.6297 186.995858 283.863647 180.792386 283.863647 174.528 
" clip-path="url(#p99b8ea150d)" style="fill: none; stroke: #b0b0b0; stroke-width: 0.8; stroke-linecap: square"/>
     </g>
     <g id="text_11">
      <!-- 0.075 -->
      <g transform="translate(280.232424 154.192917)scale(0.1 -0.1)">
       <use xlink:href="#DejaVuSans-30"/>
       <use xlink:href="#DejaVuSans-2e" x="63.623047"/>
       <use xlink:href="#DejaVuSans-30" x="95.410156"/>
       <use xlink:href="#DejaVuSans-37" x="159.033203"/>
       <use xlink:href="#DejaVuSans-35" x="222.65625"/>
      </g>
     </g>
    </g>
    <g id="ytick_4">
     <g id="line2d_12">
      <path d="M 299.764863 174.528 
C 299.764863 166.175486 298.1196 157.904189 294.923231 150.187473 
C 291.726863 142.470756 287.04155 135.458689 281.13543 129.55257 
C 275.229311 123.64645 268.217244 118.961137 260.500527 115.764769 
C 252.783811 112.5684 244.512514 110.923137 236.16 110.923137 
C 227.807486 110.923137 219.536189 112.5684 211.819473 115.764769 
C 204.102756 118.961137 197.090689 123.64645 191.18457 129.55257 
C 185.27845 135.458689 180.593137 142.470756 177.396769 150.187473 
C 174.2004 157.904189 172.555137 166.175486 172.555137 174.528 
C 172.555137 182.880514 174.2004 191.151811 177.396769 198.868527 
C 180.593137 206.585244 185.27845 213.597311 191.18457 219.50343 
C 197.090689 225.40955 204.102756 230.094863 211.819473 233.291231 
C 219.536189 236.4876 227.807486 238.132863 236.16 238.132863 
C 244.512514 238.132863 252.783811 236.4876 260.500527 233.291231 
C 268.217244 230.094863 275.229311 225.40955 281.13543 219.50343 
C 287.04155 213.597311 291.726863 206.585244 294.923231 198.868527 
C 298.1196 191.151811 299.764863 182.880514 299.764863 174.528 
" clip-path="url(#p99b8ea150d)" style="fill: none; stroke: #b0b0b0; stroke-width: 0.8; stroke-linecap: square"/>
     </g>
     <g id="text_12">
      <!-- 0.100 -->
      <g transform="translate(294.923231 148.107785)scale(0.1 -0.1)">
       <use xlink:href="#DejaVuSans-30"/>
       <use xlink:href="#DejaVuSans-2e" x="63.623047"/>
       <use xlink:href="#DejaVuSans-31" x="95.410156"/>
       <use xlink:href="#DejaVuSans-30" x="159.033203"/>
       <use xlink:href="#DejaVuSans-30" x="222.65625"/>
      </g>
     </g>
    </g>
    <g id="ytick_5">
     <g id="line2d_13">
      <path d="M 315.666079 174.528 
C 315.666079 164.087357 313.6095 153.748237 309.614039 144.102341 
C 305.618578 134.456445 299.761937 125.691362 292.379288 118.308712 
C 284.996638 110.926063 276.231555 105.069422 266.585659 101.073961 
C 256.939763 97.0785 246.600643 95.021921 236.16 95.021921 
C 225.719357 95.021921 215.380237 97.0785 205.734341 101.073961 
C 196.088445 105.069422 187.323362 110.926063 179.940712 118.308712 
C 172.558063 125.691362 166.701422 134.456445 162.705961 144.102341 
C 158.7105 153.748237 156.653921 164.087357 156.653921 174.528 
C 156.653921 184.968643 158.7105 195.307763 162.705961 204.953659 
C 166.701422 214.599555 172.558063 223.364638 179.940712 230.747288 
C 187.323362 238.129937 196.088445 243.986578 205.734341 247.982039 
C 215.380237 251.9775 225.719357 254.034079 236.16 254.034079 
C 246.600643 254.034079 256.939763 251.9775 266.585659 247.982039 
C 276.231555 243.986578 284.996638 238.129937 292.379288 230.747288 
C 299.761937 223.364638 305.618578 214.599555 309.614039 204.953659 
C 313.6095 195.307763 315.666079 184.968643 315.666079 174.528 
" clip-path="url(#p99b8ea150d)" style="fill: none; stroke: #b0b0b0; stroke-width: 0.8; stroke-linecap: square"/>
     </g>
     <g id="text_13">
      <!-- 0.125 -->
      <g transform="translate(309.614039 142.022653)scale(0.1 -0.1)">
       <use xlink:href="#DejaVuSans-30"/>
       <use xlink:href="#DejaVuSans-2e" x="63.623047"/>
       <use xlink:href="#DejaVuSans-31" x="95.410156"/>
       <use xlink:href="#DejaVuSans-32" x="159.033203"/>
       <use xlink:href="#DejaVuSans-35" x="222.65625"/>
      </g>
     </g>
    </g>
    <g id="ytick_6">
     <g id="line2d_14">
      <path d="M 331.567295 174.528 
C 331.567295 161.999229 329.0994 149.592284 324.304847 138.017209 
C 319.510294 126.442134 312.482324 115.924034 303.623145 107.064855 
C 294.763966 98.205676 284.245866 91.177706 272.670791 86.383153 
C 261.095716 81.5886 248.688771 79.120705 236.16 79.120705 
C 223.631229 79.120705 211.224284 81.5886 199.649209 86.383153 
C 188.074134 91.177706 177.556034 98.205676 168.696855 107.064855 
C 159.837676 115.924034 152.809706 126.442134 148.015153 138.017209 
C 143.2206 149.592284 140.752705 161.999229 140.752705 174.528 
C 140.752705 187.056771 143.2206 199.463716 148.015153 211.038791 
C 152.809706 222.613866 159.837676 233.131966 168.696855 241.991145 
C 177.556034 250.850324 188.074134 257.878294 199.649209 262.672847 
C 211.224284 267.4674 223.631229 269.935295 236.16 269.935295 
C 248.688771 269.935295 261.095716 267.4674 272.670791 262.672847 
C 284.245866 257.878294 294.763966 250.850324 303.623145 241.991145 
C 312.482324 233.131966 319.510294 222.613866 324.304847 211.038791 
C 329.0994 199.463716 331.567295 187.056771 331.567295 174.528 
" clip-path="url(#p99b8ea150d)" style="fill: none; stroke: #b0b0b0; stroke-width: 0.8; stroke-linecap: square"/>
     </g>
     <g id="text_14">
      <!-- 0.150 -->
      <g transform="translate(324.304847 135.937521)scale(0.1 -0.1)">
       <use xlink:href="#DejaVuSans-30"/>
       <use xlink:href="#DejaVuSans-2e" x="63.623047"/>
       <use xlink:href="#DejaVuSans-31" x="95.410156"/>
       <use xlink:href="#DejaVuSans-35" x="159.033203"/>
       <use xlink:href="#DejaVuSans-30" x="222.65625"/>
      </g>
     </g>
    </g>
    <g id="ytick_7">
     <g id="line2d_15">
      <path d="M 347.468511 174.528 
C 347.468511 159.9111 344.5893 145.436332 338.995655 131.932077 
C 333.40201 118.427823 325.202712 106.156706 314.867003 95.820997 
C 304.531294 85.485288 292.260177 77.28599 278.755923 71.692345 
C 265.251668 66.0987 250.7769 63.219489 236.16 63.219489 
C 221.5431 63.219489 207.068332 66.0987 193.564077 71.692345 
C 180.059823 77.28599 167.788706 85.485288 157.452997 95.820997 
C 147.117288 106.156706 138.91799 118.427823 133.324345 131.932077 
C 127.7307 145.436332 124.851489 159.9111 124.851489 174.528 
C 124.851489 189.1449 127.7307 203.619668 133.324345 217.123923 
C 138.91799 230.628177 147.117288 242.899294 157.452997 253.235003 
C 167.788706 263.570712 180.059823 271.77001 193.564077 277.363655 
C 207.068332 282.9573 221.5431 285.836511 236.16 285.836511 
C 250.7769 285.836511 265.251668 282.9573 278.755923 277.363655 
C 292.260177 271.77001 304.531294 263.570712 314.867003 253.235003 
C 325.202712 242.899294 333.40201 230.628177 338.995655 217.123923 
C 344.5893 203.619668 347.468511 189.1449 347.468511 174.528 
" clip-path="url(#p99b8ea150d)" style="fill: none; stroke: #b0b0b0; stroke-width: 0.8; stroke-linecap: square"/>
     </g>
     <g id="text_15">
      <!-- 0.175 -->
      <g transform="translate(338.995655 129.85239)scale(0.1 -0.1)">
       <use xlink:href="#DejaVuSans-30"/>
       <use xlink:href="#DejaVuSans-2e" x="63.623047"/>
       <use xlink:href="#DejaVuSans-31" x="95.410156"/>
       <use xlink:href="#DejaVuSans-37" x="159.033203"/>
       <use xlink:href="#DejaVuSans-35" x="222.65625"/>
      </g>
     </g>
    </g>
    <g id="ytick_8">
     <g id="line2d_16">
      <path d="M 363.369727 174.528 
C 363.369727 157.822972 360.0792 141.280379 353.686463 125.846945 
C 347.293725 110.413512 337.923099 96.389378 326.11086 84.57714 
C 314.298622 72.764901 300.274488 63.394275 284.841055 57.001537 
C 269.407621 50.6088 252.865028 47.318273 236.16 47.318273 
C 219.454972 47.318273 202.912379 50.6088 187.478945 57.001537 
C 172.045512 63.394275 158.021378 72.764901 146.20914 84.57714 
C 134.396901 96.389378 125.026275 110.413512 118.633537 125.846945 
C 112.2408 141.280379 108.950273 157.822972 108.950273 174.528 
C 108.950273 191.233028 112.2408 207.775621 118.633537 223.209055 
C 125.026275 238.642488 134.396901 252.666622 146.20914 264.47886 
C 158.021378 276.291099 172.045512 285.661725 187.478945 292.054463 
C 202.912379 298.4472 219.454972 301.737727 236.16 301.737727 
C 252.865028 301.737727 269.407621 298.4472 284.841055 292.054463 
C 300.274488 285.661725 314.298622 276.291099 326.11086 264.47886 
C 337.923099 252.666622 347.293725 238.642488 353.686463 223.209055 
C 360.0792 207.775621 363.369727 191.233028 363.369727 174.528 
" clip-path="url(#p99b8ea150d)" style="fill: none; stroke: #b0b0b0; stroke-width: 0.8; stroke-linecap: square"/>
     </g>
     <g id="text_16">
      <!-- 0.200 -->
      <g transform="translate(353.686463 123.767258)scale(0.1 -0.1)">
       <use xlink:href="#DejaVuSans-30"/>
       <use xlink:href="#DejaVuSans-2e" x="63.623047"/>
       <use xlink:href="#DejaVuSans-32" x="95.410156"/>
       <use xlink:href="#DejaVuSans-30" x="159.033203"/>
       <use xlink:href="#DejaVuSans-30" x="222.65625"/>
      </g>
     </g>
    </g>
   </g>
   <g id="line2d_17">
    <path d="M 362.888006 174.528 
L 361.341119 170.574243 
L 356.734869 166.903851 
L 349.18263 163.790207 
L 338.905107 161.482353 
L 326.270395 160.182994 
L 311.834259 160.018061 
L 296.364141 161.000908 
L 280.826875 162.999345 
L 266.320941 165.718947 
L 253.942543 168.719049 
L 244.593386 171.475241 
L 238.765528 173.490684 
L 236.367832 174.437556 
L 236.674829 174.284349 
L 238.464274 173.347032 
L 240.352232 172.209492 
L 241.24187 171.504152 
L 240.711378 171.621433 
L 239.137977 172.491084 
L 236.525294 174.242704 
L 236.716289 174.064534 
L 238.18415 172.612713 
L 237.984008 172.689537 
L 236.643632 173.97469 
L 238.75745 171.147543 
L 240.309103 168.759999 
L 240.780168 167.657542 
L 240.06848 168.299898 
L 239.202722 169.32132 
L 239.354698 168.642251 
L 240.638086 165.617893 
L 241.96885 161.999232 
L 242.201823 160.339358 
L 241.337558 161.218253 
L 240.454539 162.36501 
L 240.453371 161.024815 
L 241.081343 157.17005 
L 241.346598 153.756737 
L 240.732977 153.396883 
L 239.705092 155.216128 
L 238.990407 155.797254 
L 238.319974 149.714064 
L 237.597123 148.545153 
L 236.72987 150.467397 
L 235.986858 152.59354 
L 235.273493 152.077822 
L 234.384689 149.580125 
L 233.462059 148.328432 
L 232.864937 150.120106 
L 232.604536 153.275657 
L 232.227633 154.860095 
L 230.523522 153.381135 
L 230.18952 154.669756 
L 230.573944 157.874307 
L 231.099253 160.884912 
L 231.12172 162.157889 
L 230.688211 162.220735 
L 230.478559 162.764318 
L 231.030703 164.711528 
L 233.181035 169.610313 
L 233.671448 170.950658 
L 233.830101 171.394579 
L 234.424836 172.342079 
L 236.043485 174.406794 
L 235.576229 174.057049 
L 231.320107 171.328511 
L 227.456519 169.161369 
L 222.819285 166.872465 
L 218.078401 164.897563 
L 213.877794 163.548741 
L 210.662146 162.949794 
L 208.606306 163.051131 
L 207.640099 163.692016 
L 207.53045 164.672864 
L 207.977768 165.811725 
L 210.62325 170.048272 
L 210.945699 170.921196 
L 211.191835 172.553047 
L 211.191835 176.502953 
L 210.945699 178.134804 
L 210.62325 179.007728 
L 209.459249 180.971729 
L 207.977768 183.244275 
L 207.53045 184.383136 
L 207.640099 185.363984 
L 208.606306 186.004869 
L 210.662146 186.106206 
L 213.877794 185.507259 
L 218.078401 184.158437 
L 222.819285 182.183535 
L 227.456519 179.894631 
L 231.320107 177.727489 
L 235.795345 174.884121 
L 236.043485 174.649206 
L 235.908195 174.807067 
L 234.424836 176.713921 
L 233.671448 178.105342 
L 233.631217 178.419743 
L 231.030703 184.344472 
L 230.478559 186.291682 
L 230.688211 186.835265 
L 231.12172 186.898111 
L 231.099253 188.171088 
L 230.573944 191.181693 
L 230.18952 194.386244 
L 230.523522 195.674865 
L 232.227633 194.195905 
L 232.604536 195.780343 
L 232.864937 198.935894 
L 233.462059 200.727568 
L 234.384689 199.475875 
L 235.273493 196.978178 
L 235.986858 196.46246 
L 236.72987 198.588603 
L 237.597123 200.510847 
L 238.319974 199.341936 
L 238.990407 193.258746 
L 239.705092 193.839872 
L 240.732977 195.659117 
L 241.346598 195.299263 
L 241.081343 191.88595 
L 240.453371 188.031185 
L 240.454539 186.69099 
L 241.337558 187.837747 
L 242.201823 188.716642 
L 241.96885 187.056768 
L 240.638086 183.438107 
L 239.354698 180.413749 
L 239.202722 179.73468 
L 240.06848 180.756102 
L 240.780168 181.398458 
L 240.309103 180.296001 
L 238.75745 177.908457 
L 236.643632 175.08131 
L 237.172794 175.615426 
L 238.18415 176.443287 
L 236.525294 174.813296 
L 239.137977 176.564916 
L 240.711378 177.434567 
L 241.24187 177.551848 
L 240.352232 176.846508 
L 238.464274 175.708968 
L 236.367832 174.618444 
L 238.765528 175.565316 
L 244.593386 177.580759 
L 253.942543 180.336951 
L 266.320941 183.337053 
L 280.826875 186.056655 
L 296.364141 188.055092 
L 311.834259 189.037939 
L 326.270395 188.873006 
L 338.905107 187.573647 
L 349.18263 185.265793 
L 356.734869 182.152149 
L 361.341119 178.481757 
L 362.888006 174.528 
L 362.888006 174.528 
" clip-path="url(#p99b8ea150d)" style="fill: none; stroke: #1f77b4; stroke-width: 1.5; stroke-linecap: square"/>
   </g>
   <g id="patch_3">
    <path d="M 369.216 174.528 
C 369.216 157.055246 365.774248 139.752393 359.087715 123.609673 
C 352.401182 107.466954 342.599903 92.798303 330.2448 80.4432 
C 317.889697 68.088097 303.221046 58.286818 287.078327 51.600285 
C 270.935607 44.913752 253.632754 41.472 236.16 41.472 
C 218.687246 41.472 201.384393 44.913752 185.241673 51.600285 
C 169.098954 58.286818 154.430303 68.088097 142.0752 80.4432 
C 129.720097 92.798303 119.918818 107.466954 113.232285 123.609673 
C 106.545752 139.752393 103.104 157.055246 103.104 174.528 
C 103.104 192.000754 106.545752 209.303607 113.232285 225.446327 
C 119.918818 241.589046 129.720097 256.257697 142.0752 268.6128 
C 154.430303 280.967903 169.098954 290.769182 185.241673 297.455715 
C 201.384393 304.142248 218.687246 307.584 236.16 307.584 
C 253.632754 307.584 270.935607 304.142248 287.078327 297.455715 
C 303.221046 290.769182 317.889697 280.967903 330.2448 268.6128 
C 342.599903 256.257697 352.401182 241.589046 359.087715 225.446327 
C 365.774248 209.303607 369.216 192.000754 369.216 174.528 
" style="fill: none; stroke: #000000; stroke-width: 0.8; stroke-linejoin: miter; stroke-linecap: square"/>
   </g>
   <g id="text_17">
    <!-- $d P/ d \Omega\ (P_0)$ -->
    <g transform="translate(205.2 16.632937)scale(0.12 -0.12)">
     <defs>
      <path id="DejaVuSans-Oblique-64" d="M 2675 525 
Q 2444 222 2128 65 
Q 1813 -91 1428 -91 
Q 903 -91 598 267 
Q 294 625 294 1247 
Q 294 1766 478 2236 
Q 663 2706 1013 3078 
Q 1244 3325 1534 3454 
Q 1825 3584 2144 3584 
Q 2481 3584 2739 3421 
Q 2997 3259 3138 2956 
L 3513 4863 
L 4091 4863 
L 3144 0 
L 2566 0 
L 2675 525 
z
M 891 1350 
Q 891 897 1095 644 
Q 1300 391 1663 391 
Q 1931 391 2161 520 
Q 2391 650 2566 903 
Q 2750 1166 2856 1509 
Q 2963 1853 2963 2188 
Q 2963 2622 2758 2865 
Q 2553 3109 2194 3109 
Q 1922 3109 1687 2981 
Q 1453 2853 1288 2613 
Q 1106 2353 998 2009 
Q 891 1666 891 1350 
z
" transform="scale(0.015625)"/>
      <path id="DejaVuSans-Oblique-50" d="M 1081 4666 
L 2541 4666 
Q 3178 4666 3512 4369 
Q 3847 4072 3847 3500 
Q 3847 2731 3353 2303 
Q 2859 1875 1966 1875 
L 1172 1875 
L 806 0 
L 172 0 
L 1081 4666 
z
M 1613 4147 
L 1275 2394 
L 2069 2394 
Q 2606 2394 2893 2669 
Q 3181 2944 3181 3456 
Q 3181 3784 2986 3965 
Q 2791 4147 2438 4147 
L 1613 4147 
z
" transform="scale(0.015625)"/>
      <path id="DejaVuSans-2f" d="M 1625 4666 
L 2156 4666 
L 531 -594 
L 0 -594 
L 1625 4666 
z
" transform="scale(0.015625)"/>
      <path id="DejaVuSans-3a9" d="M 4647 556 
L 4647 0 
L 2772 0 
L 2772 556 
Q 3325 859 3634 1378 
Q 3944 1897 3944 2528 
Q 3944 3278 3531 3731 
Q 3119 4184 2444 4184 
Q 1769 4184 1355 3729 
Q 941 3275 941 2528 
Q 941 1897 1250 1378 
Q 1563 859 2119 556 
L 2119 0 
L 244 0 
L 244 556 
L 1241 556 
Q 747 991 519 1456 
Q 294 1922 294 2497 
Q 294 3491 894 4106 
Q 1491 4722 2444 4722 
Q 3391 4722 3994 4106 
Q 4594 3494 4594 2528 
Q 4594 1922 4372 1459 
Q 4150 997 3647 556 
L 4647 556 
z
" transform="scale(0.015625)"/>
      <path id="DejaVuSans-28" d="M 1984 4856 
Q 1566 4138 1362 3434 
Q 1159 2731 1159 2009 
Q 1159 1288 1364 580 
Q 1569 -128 1984 -844 
L 1484 -844 
Q 1016 -109 783 600 
Q 550 1309 550 2009 
Q 550 2706 781 3412 
Q 1013 4119 1484 4856 
L 1984 4856 
z
" transform="scale(0.015625)"/>
      <path id="DejaVuSans-29" d="M 513 4856 
L 1013 4856 
Q 1481 4119 1714 3412 
Q 1947 2706 1947 2009 
Q 1947 1309 1714 600 
Q 1481 -109 1013 -844 
L 513 -844 
Q 928 -128 1133 580 
Q 1338 1288 1338 2009 
Q 1338 2731 1133 3434 
Q 928 4138 513 4856 
z
" transform="scale(0.015625)"/>
     </defs>
     <use xlink:href="#DejaVuSans-Oblique-64" transform="translate(0 0.015625)"/>
     <use xlink:href="#DejaVuSans-Oblique-50" transform="translate(63.476562 0.015625)"/>
     <use xlink:href="#DejaVuSans-2f" transform="translate(123.779297 0.015625)"/>
     <use xlink:href="#DejaVuSans-Oblique-64" transform="translate(157.470703 0.015625)"/>
     <use xlink:href="#DejaVuSans-3a9" transform="translate(220.947266 0.015625)"/>
     <use xlink:href="#DejaVuSans-28" transform="translate(329.83366 0.015625)"/>
     <use xlink:href="#DejaVuSans-Oblique-50" transform="translate(368.847332 0.015625)"/>
     <use xlink:href="#DejaVuSans-30" transform="translate(429.150066 -16.390625)scale(0.7)"/>
     <use xlink:href="#DejaVuSans-29" transform="translate(476.420574 0.015625)"/>
    </g>
   </g>
   <g id="legend_1">
    <g id="patch_4">
     <path d="M 284.692563 64.150125 
L 362.216 64.150125 
Q 364.216 64.150125 364.216 62.150125 
L 364.216 48.472 
Q 364.216 46.472 362.216 46.472 
L 284.692563 46.472 
Q 282.692563 46.472 282.692563 48.472 
L 282.692563 62.150125 
Q 282.692563 64.150125 284.692563 64.150125 
z
" style="fill: #ffffff; opacity: 0.8; stroke: #cccccc; stroke-linejoin: miter"/>
    </g>
    <g id="line2d_18">
     <path d="M 286.692563 54.570438 
L 296.692563 54.570438 
L 306.692563 54.570438 
" style="fill: none; stroke: #1f77b4; stroke-width: 1.5; stroke-linecap: square"/>
    </g>
    <g id="text_18">
     <!-- y-z plane -->
     <g transform="translate(314.692563 58.070438)scale(0.1 -0.1)">
      <defs>
       <path id="DejaVuSans-79" d="M 2059 -325 
Q 1816 -950 1584 -1140 
Q 1353 -1331 966 -1331 
L 506 -1331 
L 506 -850 
L 844 -850 
Q 1081 -850 1212 -737 
Q 1344 -625 1503 -206 
L 1606 56 
L 191 3500 
L 800 3500 
L 1894 763 
L 2988 3500 
L 3597 3500 
L 2059 -325 
z
" transform="scale(0.015625)"/>
       <path id="DejaVuSans-2d" d="M 313 2009 
L 1997 2009 
L 1997 1497 
L 313 1497 
L 313 2009 
z
" transform="scale(0.015625)"/>
       <path id="DejaVuSans-7a" d="M 353 3500 
L 3084 3500 
L 3084 2975 
L 922 459 
L 3084 459 
L 3084 0 
L 275 0 
L 275 525 
L 2438 3041 
L 353 3041 
L 353 3500 
z
" transform="scale(0.015625)"/>
       <path id="DejaVuSans-20" transform="scale(0.015625)"/>
       <path id="DejaVuSans-70" d="M 1159 525 
L 1159 -1331 
L 581 -1331 
L 581 3500 
L 1159 3500 
L 1159 2969 
Q 1341 3281 1617 3432 
Q 1894 3584 2278 3584 
Q 2916 3584 3314 3078 
Q 3713 2572 3713 1747 
Q 3713 922 3314 415 
Q 2916 -91 2278 -91 
Q 1894 -91 1617 61 
Q 1341 213 1159 525 
z
M 3116 1747 
Q 3116 2381 2855 2742 
Q 2594 3103 2138 3103 
Q 1681 3103 1420 2742 
Q 1159 2381 1159 1747 
Q 1159 1113 1420 752 
Q 1681 391 2138 391 
Q 2594 391 2855 752 
Q 3116 1113 3116 1747 
z
" transform="scale(0.015625)"/>
       <path id="DejaVuSans-6c" d="M 603 4863 
L 1178 4863 
L 1178 0 
L 603 0 
L 603 4863 
z
" transform="scale(0.015625)"/>
       <path id="DejaVuSans-61" d="M 2194 1759 
Q 1497 1759 1228 1600 
Q 959 1441 959 1056 
Q 959 750 1161 570 
Q 1363 391 1709 391 
Q 2188 391 2477 730 
Q 2766 1069 2766 1631 
L 2766 1759 
L 2194 1759 
z
M 3341 1997 
L 3341 0 
L 2766 0 
L 2766 531 
Q 2569 213 2275 61 
Q 1981 -91 1556 -91 
Q 1019 -91 701 211 
Q 384 513 384 1019 
Q 384 1609 779 1909 
Q 1175 2209 1959 2209 
L 2766 2209 
L 2766 2266 
Q 2766 2663 2505 2880 
Q 2244 3097 1772 3097 
Q 1472 3097 1187 3025 
Q 903 2953 641 2809 
L 641 3341 
Q 956 3463 1253 3523 
Q 1550 3584 1831 3584 
Q 2591 3584 2966 3190 
Q 3341 2797 3341 1997 
z
" transform="scale(0.015625)"/>
       <path id="DejaVuSans-6e" d="M 3513 2113 
L 3513 0 
L 2938 0 
L 2938 2094 
Q 2938 2591 2744 2837 
Q 2550 3084 2163 3084 
Q 1697 3084 1428 2787 
Q 1159 2491 1159 1978 
L 1159 0 
L 581 0 
L 581 3500 
L 1159 3500 
L 1159 2956 
Q 1366 3272 1645 3428 
Q 1925 3584 2291 3584 
Q 2894 3584 3203 3211 
Q 3513 2838 3513 2113 
z
" transform="scale(0.015625)"/>
       <path id="DejaVuSans-65" d="M 3597 1894 
L 3597 1613 
L 953 1613 
Q 991 1019 1311 708 
Q 1631 397 2203 397 
Q 2534 397 2845 478 
Q 3156 559 3463 722 
L 3463 178 
Q 3153 47 2828 -22 
Q 2503 -91 2169 -91 
Q 1331 -91 842 396 
Q 353 884 353 1716 
Q 353 2575 817 3079 
Q 1281 3584 2069 3584 
Q 2775 3584 3186 3129 
Q 3597 2675 3597 1894 
z
M 3022 2063 
Q 3016 2534 2758 2815 
Q 2500 3097 2075 3097 
Q 1594 3097 1305 2825 
Q 1016 2553 972 2059 
L 3022 2063 
z
" transform="scale(0.015625)"/>
      </defs>
      <use xlink:href="#DejaVuSans-79"/>
      <use xlink:href="#DejaVuSans-2d" x="57.429688"/>
      <use xlink:href="#DejaVuSans-7a" x="93.513672"/>
      <use xlink:href="#DejaVuSans-20" x="146.003906"/>
      <use xlink:href="#DejaVuSans-70" x="177.791016"/>
      <use xlink:href="#DejaVuSans-6c" x="241.267578"/>
      <use xlink:href="#DejaVuSans-61" x="269.050781"/>
      <use xlink:href="#DejaVuSans-6e" x="330.330078"/>
      <use xlink:href="#DejaVuSans-65" x="393.708984"/>
     </g>
    </g>
   </g>
  </g>
 </g>
 <defs>
  <clipPath id="p99b8ea150d">
   <path d="M 369.216 174.528 
C 369.216 157.055246 365.774248 139.752393 359.087715 123.609673 
C 352.401182 107.466954 342.599903 92.798303 330.2448 80.4432 
C 317.889697 68.088097 303.221046 58.286818 287.078327 51.600285 
C 270.935607 44.913752 253.632754 41.472 236.16 41.472 
C 218.687246 41.472 201.384393 44.913752 185.241673 51.600285 
C 169.098954 58.286818 154.430303 68.088097 142.0752 80.4432 
C 129.720097 92.798303 119.918818 107.466954 113.232285 123.609673 
C 106.545752 139.752393 103.104 157.055246 103.104 174.528 
C 103.104 192.000754 106.545752 209.303607 113.232285 225.446327 
C 119.918818 241.589046 129.720097 256.257697 142.0752 268.6128 
C 154.430303 280.967903 169.098954 290.769182 185.241673 297.455715 
C 201.384393 304.142248 218.687246 307.584 236.16 307.584 
C 253.632754 307.584 270.935607 304.142248 287.078327 297.455715 
C 303.221046 290.769182 317.889697 280.967903 330.2448 268.6128 
C 342.599903 256.257697 352.401182 241.589046 359.087715 225.446327 
C 365.774248 209.303607 369.216 192.000754 369.216 174.528 
M 236.16 174.528 
C 236.16 174.528 236.16 174.528 236.16 174.528 
C 236.16 174.528 236.16 174.528 236.16 174.528 
C 236.16 174.528 236.16 174.528 236.16 174.528 
C 236.16 174.528 236.16 174.528 236.16 174.528 
C 236.16 174.528 236.16 174.528 236.16 174.528 
C 236.16 174.528 236.16 174.528 236.16 174.528 
C 236.16 174.528 236.16 174.528 236.16 174.528 
C 236.16 174.528 236.16 174.528 236.16 174.528 
C 236.16 174.528 236.16 174.528 236.16 174.528 
C 236.16 174.528 236.16 174.528 236.16 174.528 
C 236.16 174.528 236.16 174.528 236.16 174.528 
C 236.16 174.528 236.16 174.528 236.16 174.528 
C 236.16 174.528 236.16 174.528 236.16 174.528 
C 236.16 174.528 236.16 174.528 236.16 174.528 
C 236.16 174.528 236.16 174.528 236.16 174.528 
C 236.16 174.528 236.16 174.528 236.16 174.528 
M 369.216 174.528 
z
"/>
  </clipPath>
 </defs>
</svg>
