<?xml version="1.0" encoding="utf-8" standalone="no"?>
<!DOCTYPE svg PUBLIC "-//W3C//DTD SVG 1.1//EN"
  "http://www.w3.org/Graphics/SVG/1.1/DTD/svg11.dtd">
<svg xmlns:xlink="http://www.w3.org/1999/xlink" width="460.8pt" height="345.6pt" viewBox="0 0 460.8 345.6" xmlns="http://www.w3.org/2000/svg" version="1.1">
 <metadata>
  <rdf:RDF xmlns:dc="http://purl.org/dc/elements/1.1/" xmlns:cc="http://creativecommons.org/ns#" xmlns:rdf="http://www.w3.org/1999/02/22-rdf-syntax-ns#">
   <cc:Work>
    <dc:type rdf:resource="http://purl.org/dc/dcmitype/StillImage"/>
    <dc:date>2024-01-29T11:12:25.366425</dc:date>
    <dc:format>image/svg+xml</dc:format>
    <dc:creator>
     <cc:Agent>
      <dc:title>Matplotlib v3.5.2, https://matplotlib.org/</dc:title>
     </cc:Agent>
    </dc:creator>
   </cc:Work>
  </rdf:RDF>
 </metadata>
 <defs>
  <style type="text/css">*{stroke-linejoin: round; stroke-linecap: butt}</style>
 </defs>
 <g id="figure_1">
  <g id="patch_1">
   <path d="M 0 345.6 
L 460.8 345.6 
L 460.8 0 
L 0 0 
z
" style="fill: #ffffff"/>
  </g>
  <g id="axes_1">
   <g id="patch_2">
    <path d="M 369.216 174.528 
C 369.216 157.055246 365.774248 139.752393 359.087715 123.609673 
C 352.401182 107.466954 342.599903 92.798303 330.2448 80.4432 
C 317.889697 68.088097 303.221046 58.286818 287.078327 51.600285 
C 270.935607 44.913752 253.632754 41.472 236.16 41.472 
C 218.687246 41.472 201.384393 44.913752 185.241673 51.600285 
C 169.098954 58.286818 154.430303 68.088097 142.0752 80.4432 
C 129.720097 92.798303 119.918818 107.466954 113.232285 123.609673 
C 106.545752 139.752393 103.104 157.055246 103.104 174.528 
C 103.104 192.000754 106.545752 209.303607 113.232285 225.446327 
C 119.918818 241.589046 129.720097 256.257697 142.0752 268.6128 
C 154.430303 280.967903 169.098954 290.769182 185.241673 297.455715 
C 201.384393 304.142248 218.687246 307.584 236.16 307.584 
C 253.632754 307.584 270.935607 304.142248 287.078327 297.455715 
C 303.221046 290.769182 317.889697 280.967903 330.2448 268.6128 
C 342.599903 256.257697 352.401182 241.589046 359.087715 225.446327 
C 365.774248 209.303607 369.216 192.000754 369.216 174.528 
M 236.16 174.528 
C 236.16 174.528 236.16 174.528 236.16 174.528 
C 236.16 174.528 236.16 174.528 236.16 174.528 
C 236.16 174.528 236.16 174.528 236.16 174.528 
C 236.16 174.528 236.16 174.528 236.16 174.528 
C 236.16 174.528 236.16 174.528 236.16 174.528 
C 236.16 174.528 236.16 174.528 236.16 174.528 
C 236.16 174.528 236.16 174.528 236.16 174.528 
C 236.16 174.528 236.16 174.528 236.16 174.528 
C 236.16 174.528 236.16 174.528 236.16 174.528 
C 236.16 174.528 236.16 174.528 236.16 174.528 
C 236.16 174.528 236.16 174.528 236.16 174.528 
C 236.16 174.528 236.16 174.528 236.16 174.528 
C 236.16 174.528 236.16 174.528 236.16 174.528 
C 236.16 174.528 236.16 174.528 236.16 174.528 
C 236.16 174.528 236.16 174.528 236.16 174.528 
C 236.16 174.528 236.16 174.528 236.16 174.528 
M 369.216 174.528 
z
" style="fill: #ffffff"/>
   </g>
   <g id="matplotlib.axis_1">
    <g id="xtick_1">
     <g id="line2d_1">
      <path d="M 236.16 174.528 
L 369.216 174.528 
" clip-path="url(#pc629df1667)" style="fill: none; stroke: #b0b0b0; stroke-width: 0.8; stroke-linecap: square"/>
     </g>
     <g id="text_1">
      <!-- 0° -->
      <g transform="translate(377.53475 177.287375)scale(0.1 -0.1)">
       <defs>
        <path id="DejaVuSans-30" d="M 2034 4250 
Q 1547 4250 1301 3770 
Q 1056 3291 1056 2328 
Q 1056 1369 1301 889 
Q 1547 409 2034 409 
Q 2525 409 2770 889 
Q 3016 1369 3016 2328 
Q 3016 3291 2770 3770 
Q 2525 4250 2034 4250 
z
M 2034 4750 
Q 2819 4750 3233 4129 
Q 3647 3509 3647 2328 
Q 3647 1150 3233 529 
Q 2819 -91 2034 -91 
Q 1250 -91 836 529 
Q 422 1150 422 2328 
Q 422 3509 836 4129 
Q 1250 4750 2034 4750 
z
" transform="scale(0.015625)"/>
        <path id="DejaVuSans-b0" d="M 1600 4347 
Q 1350 4347 1178 4173 
Q 1006 4000 1006 3750 
Q 1006 3503 1178 3333 
Q 1350 3163 1600 3163 
Q 1850 3163 2022 3333 
Q 2194 3503 2194 3750 
Q 2194 3997 2020 4172 
Q 1847 4347 1600 4347 
z
M 1600 4750 
Q 1800 4750 1984 4673 
Q 2169 4597 2303 4453 
Q 2447 4313 2519 4134 
Q 2591 3956 2591 3750 
Q 2591 3338 2302 3052 
Q 2013 2766 1594 2766 
Q 1172 2766 890 3047 
Q 609 3328 609 3750 
Q 609 4169 896 4459 
Q 1184 4750 1600 4750 
z
" transform="scale(0.015625)"/>
       </defs>
       <use xlink:href="#DejaVuSans-30"/>
       <use xlink:href="#DejaVuSans-b0" x="63.623047"/>
      </g>
     </g>
    </g>
    <g id="xtick_2">
     <g id="line2d_2">
      <path d="M 236.16 174.528 
L 330.2448 80.4432 
" clip-path="url(#pc629df1667)" style="fill: none; stroke: #b0b0b0; stroke-width: 0.8; stroke-linecap: square"/>
     </g>
     <g id="text_2">
      <!-- 45° -->
      <g transform="translate(331.281795 73.30308)scale(0.1 -0.1)">
       <defs>
        <path id="DejaVuSans-34" d="M 2419 4116 
L 825 1625 
L 2419 1625 
L 2419 4116 
z
M 2253 4666 
L 3047 4666 
L 3047 1625 
L 3713 1625 
L 3713 1100 
L 3047 1100 
L 3047 0 
L 2419 0 
L 2419 1100 
L 313 1100 
L 313 1709 
L 2253 4666 
z
" transform="scale(0.015625)"/>
        <path id="DejaVuSans-35" d="M 691 4666 
L 3169 4666 
L 3169 4134 
L 1269 4134 
L 1269 2991 
Q 1406 3038 1543 3061 
Q 1681 3084 1819 3084 
Q 2600 3084 3056 2656 
Q 3513 2228 3513 1497 
Q 3513 744 3044 326 
Q 2575 -91 1722 -91 
Q 1428 -91 1123 -41 
Q 819 9 494 109 
L 494 744 
Q 775 591 1075 516 
Q 1375 441 1709 441 
Q 2250 441 2565 725 
Q 2881 1009 2881 1497 
Q 2881 1984 2565 2268 
Q 2250 2553 1709 2553 
Q 1456 2553 1204 2497 
Q 953 2441 691 2322 
L 691 4666 
z
" transform="scale(0.015625)"/>
       </defs>
       <use xlink:href="#DejaVuSans-34"/>
       <use xlink:href="#DejaVuSans-35" x="63.623047"/>
       <use xlink:href="#DejaVuSans-b0" x="127.246094"/>
      </g>
     </g>
    </g>
    <g id="xtick_3">
     <g id="line2d_3">
      <path d="M 236.16 174.528 
L 236.16 41.472 
" clip-path="url(#pc629df1667)" style="fill: none; stroke: #b0b0b0; stroke-width: 0.8; stroke-linecap: square"/>
     </g>
     <g id="text_3">
      <!-- 90° -->
      <g transform="translate(227.2975 30.231375)scale(0.1 -0.1)">
       <defs>
        <path id="DejaVuSans-39" d="M 703 97 
L 703 672 
Q 941 559 1184 500 
Q 1428 441 1663 441 
Q 2288 441 2617 861 
Q 2947 1281 2994 2138 
Q 2813 1869 2534 1725 
Q 2256 1581 1919 1581 
Q 1219 1581 811 2004 
Q 403 2428 403 3163 
Q 403 3881 828 4315 
Q 1253 4750 1959 4750 
Q 2769 4750 3195 4129 
Q 3622 3509 3622 2328 
Q 3622 1225 3098 567 
Q 2575 -91 1691 -91 
Q 1453 -91 1209 -44 
Q 966 3 703 97 
z
M 1959 2075 
Q 2384 2075 2632 2365 
Q 2881 2656 2881 3163 
Q 2881 3666 2632 3958 
Q 2384 4250 1959 4250 
Q 1534 4250 1286 3958 
Q 1038 3666 1038 3163 
Q 1038 2656 1286 2365 
Q 1534 2075 1959 2075 
z
" transform="scale(0.015625)"/>
       </defs>
       <use xlink:href="#DejaVuSans-39"/>
       <use xlink:href="#DejaVuSans-30" x="63.623047"/>
       <use xlink:href="#DejaVuSans-b0" x="127.246094"/>
      </g>
     </g>
    </g>
    <g id="xtick_4">
     <g id="line2d_4">
      <path d="M 236.16 174.528 
L 142.0752 80.4432 
" clip-path="url(#pc629df1667)" style="fill: none; stroke: #b0b0b0; stroke-width: 0.8; stroke-linecap: square"/>
     </g>
     <g id="text_4">
      <!-- 135° -->
      <g transform="translate(120.131955 73.30308)scale(0.1 -0.1)">
       <defs>
        <path id="DejaVuSans-31" d="M 794 531 
L 1825 531 
L 1825 4091 
L 703 3866 
L 703 4441 
L 1819 4666 
L 2450 4666 
L 2450 531 
L 3481 531 
L 3481 0 
L 794 0 
L 794 531 
z
" transform="scale(0.015625)"/>
        <path id="DejaVuSans-33" d="M 2597 2516 
Q 3050 2419 3304 2112 
Q 3559 1806 3559 1356 
Q 3559 666 3084 287 
Q 2609 -91 1734 -91 
Q 1441 -91 1130 -33 
Q 819 25 488 141 
L 488 750 
Q 750 597 1062 519 
Q 1375 441 1716 441 
Q 2309 441 2620 675 
Q 2931 909 2931 1356 
Q 2931 1769 2642 2001 
Q 2353 2234 1838 2234 
L 1294 2234 
L 1294 2753 
L 1863 2753 
Q 2328 2753 2575 2939 
Q 2822 3125 2822 3475 
Q 2822 3834 2567 4026 
Q 2313 4219 1838 4219 
Q 1578 4219 1281 4162 
Q 984 4106 628 3988 
L 628 4550 
Q 988 4650 1302 4700 
Q 1616 4750 1894 4750 
Q 2613 4750 3031 4423 
Q 3450 4097 3450 3541 
Q 3450 3153 3228 2886 
Q 3006 2619 2597 2516 
z
" transform="scale(0.015625)"/>
       </defs>
       <use xlink:href="#DejaVuSans-31"/>
       <use xlink:href="#DejaVuSans-33" x="63.623047"/>
       <use xlink:href="#DejaVuSans-35" x="127.246094"/>
       <use xlink:href="#DejaVuSans-b0" x="190.869141"/>
      </g>
     </g>
    </g>
    <g id="xtick_5">
     <g id="line2d_5">
      <path d="M 236.16 174.528 
L 103.104 174.528 
" clip-path="url(#pc629df1667)" style="fill: none; stroke: #b0b0b0; stroke-width: 0.8; stroke-linecap: square"/>
     </g>
     <g id="text_5">
      <!-- 180° -->
      <g transform="translate(77.06025 177.287375)scale(0.1 -0.1)">
       <defs>
        <path id="DejaVuSans-38" d="M 2034 2216 
Q 1584 2216 1326 1975 
Q 1069 1734 1069 1313 
Q 1069 891 1326 650 
Q 1584 409 2034 409 
Q 2484 409 2743 651 
Q 3003 894 3003 1313 
Q 3003 1734 2745 1975 
Q 2488 2216 2034 2216 
z
M 1403 2484 
Q 997 2584 770 2862 
Q 544 3141 544 3541 
Q 544 4100 942 4425 
Q 1341 4750 2034 4750 
Q 2731 4750 3128 4425 
Q 3525 4100 3525 3541 
Q 3525 3141 3298 2862 
Q 3072 2584 2669 2484 
Q 3125 2378 3379 2068 
Q 3634 1759 3634 1313 
Q 3634 634 3220 271 
Q 2806 -91 2034 -91 
Q 1263 -91 848 271 
Q 434 634 434 1313 
Q 434 1759 690 2068 
Q 947 2378 1403 2484 
z
M 1172 3481 
Q 1172 3119 1398 2916 
Q 1625 2713 2034 2713 
Q 2441 2713 2670 2916 
Q 2900 3119 2900 3481 
Q 2900 3844 2670 4047 
Q 2441 4250 2034 4250 
Q 1625 4250 1398 4047 
Q 1172 3844 1172 3481 
z
" transform="scale(0.015625)"/>
       </defs>
       <use xlink:href="#DejaVuSans-31"/>
       <use xlink:href="#DejaVuSans-38" x="63.623047"/>
       <use xlink:href="#DejaVuSans-30" x="127.246094"/>
       <use xlink:href="#DejaVuSans-b0" x="190.869141"/>
      </g>
     </g>
    </g>
    <g id="xtick_6">
     <g id="line2d_6">
      <path d="M 236.16 174.528 
L 142.0752 268.6128 
" clip-path="url(#pc629df1667)" style="fill: none; stroke: #b0b0b0; stroke-width: 0.8; stroke-linecap: square"/>
     </g>
     <g id="text_6">
      <!-- 225° -->
      <g transform="translate(120.131955 281.27167)scale(0.1 -0.1)">
       <defs>
        <path id="DejaVuSans-32" d="M 1228 531 
L 3431 531 
L 3431 0 
L 469 0 
L 469 531 
Q 828 903 1448 1529 
Q 2069 2156 2228 2338 
Q 2531 2678 2651 2914 
Q 2772 3150 2772 3378 
Q 2772 3750 2511 3984 
Q 2250 4219 1831 4219 
Q 1534 4219 1204 4116 
Q 875 4013 500 3803 
L 500 4441 
Q 881 4594 1212 4672 
Q 1544 4750 1819 4750 
Q 2544 4750 2975 4387 
Q 3406 4025 3406 3419 
Q 3406 3131 3298 2873 
Q 3191 2616 2906 2266 
Q 2828 2175 2409 1742 
Q 1991 1309 1228 531 
z
" transform="scale(0.015625)"/>
       </defs>
       <use xlink:href="#DejaVuSans-32"/>
       <use xlink:href="#DejaVuSans-32" x="63.623047"/>
       <use xlink:href="#DejaVuSans-35" x="127.246094"/>
       <use xlink:href="#DejaVuSans-b0" x="190.869141"/>
      </g>
     </g>
    </g>
    <g id="xtick_7">
     <g id="line2d_7">
      <path d="M 236.16 174.528 
L 236.16 307.584 
" clip-path="url(#pc629df1667)" style="fill: none; stroke: #b0b0b0; stroke-width: 0.8; stroke-linecap: square"/>
     </g>
     <g id="text_7">
      <!-- 270° -->
      <g transform="translate(224.11625 324.343375)scale(0.1 -0.1)">
       <defs>
        <path id="DejaVuSans-37" d="M 525 4666 
L 3525 4666 
L 3525 4397 
L 1831 0 
L 1172 0 
L 2766 4134 
L 525 4134 
L 525 4666 
z
" transform="scale(0.015625)"/>
       </defs>
       <use xlink:href="#DejaVuSans-32"/>
       <use xlink:href="#DejaVuSans-37" x="63.623047"/>
       <use xlink:href="#DejaVuSans-30" x="127.246094"/>
       <use xlink:href="#DejaVuSans-b0" x="190.869141"/>
      </g>
     </g>
    </g>
    <g id="xtick_8">
     <g id="line2d_8">
      <path d="M 236.16 174.528 
L 330.2448 268.6128 
" clip-path="url(#pc629df1667)" style="fill: none; stroke: #b0b0b0; stroke-width: 0.8; stroke-linecap: square"/>
     </g>
     <g id="text_8">
      <!-- 315° -->
      <g transform="translate(328.100545 281.27167)scale(0.1 -0.1)">
       <use xlink:href="#DejaVuSans-33"/>
       <use xlink:href="#DejaVuSans-31" x="63.623047"/>
       <use xlink:href="#DejaVuSans-35" x="127.246094"/>
       <use xlink:href="#DejaVuSans-b0" x="190.869141"/>
      </g>
     </g>
    </g>
   </g>
   <g id="matplotlib.axis_2">
    <g id="ytick_1">
     <g id="line2d_9">
      <path d="M 254.905748 174.528 
C 254.905748 172.066331 254.420853 169.628599 253.478813 167.354313 
C 252.536773 165.080027 251.155908 163.013417 249.415245 161.272755 
C 247.674583 159.532092 245.607973 158.151227 243.333687 157.209187 
C 241.059401 156.267147 238.621669 155.782252 236.16 155.782252 
C 233.698331 155.782252 231.260599 156.267147 228.986313 157.209187 
C 226.712027 158.151227 224.645417 159.532092 222.904755 161.272755 
C 221.164092 163.013417 219.783227 165.080027 218.841187 167.354313 
C 217.899147 169.628599 217.414252 172.066331 217.414252 174.528 
C 217.414252 176.989669 217.899147 179.427401 218.841187 181.701687 
C 219.783227 183.975973 221.164092 186.042583 222.904755 187.783245 
C 224.645417 189.523908 226.712027 190.904773 228.986313 191.846813 
C 231.260599 192.788853 233.698331 193.273748 236.16 193.273748 
C 238.621669 193.273748 241.059401 192.788853 243.333687 191.846813 
C 245.607973 190.904773 247.674583 189.523908 249.415245 187.783245 
C 251.155908 186.042583 252.536773 183.975973 253.478813 181.701687 
C 254.420853 179.427401 254.905748 176.989669 254.905748 174.528 
" clip-path="url(#pc629df1667)" style="fill: none; stroke: #b0b0b0; stroke-width: 0.8; stroke-linecap: square"/>
     </g>
     <g id="text_9">
      <!-- 0.2 -->
      <g transform="translate(253.478813 165.274625)scale(0.1 -0.1)">
       <defs>
        <path id="DejaVuSans-2e" d="M 684 794 
L 1344 794 
L 1344 0 
L 684 0 
L 684 794 
z
" transform="scale(0.015625)"/>
       </defs>
       <use xlink:href="#DejaVuSans-30"/>
       <use xlink:href="#DejaVuSans-2e" x="63.623047"/>
       <use xlink:href="#DejaVuSans-32" x="95.410156"/>
      </g>
     </g>
    </g>
    <g id="ytick_2">
     <g id="line2d_10">
      <path d="M 273.651496 174.528 
C 273.651496 169.604662 272.681705 164.729197 270.797625 160.180626 
C 268.913546 155.632054 266.151817 151.498835 262.670491 148.017509 
C 259.189165 144.536183 255.055946 141.774454 250.507374 139.890375 
C 245.958803 138.006295 241.083338 137.036504 236.16 137.036504 
C 231.236662 137.036504 226.361197 138.006295 221.812626 139.890375 
C 217.264054 141.774454 213.130835 144.536183 209.649509 148.017509 
C 206.168183 151.498835 203.406454 155.632054 201.522375 160.180626 
C 199.638295 164.729197 198.668504 169.604662 198.668504 174.528 
C 198.668504 179.451338 199.638295 184.326803 201.522375 188.875374 
C 203.406454 193.423946 206.168183 197.557165 209.649509 201.038491 
C 213.130835 204.519817 217.264054 207.281546 221.812626 209.165625 
C 226.361197 211.049705 231.236662 212.019496 236.16 212.019496 
C 241.083338 212.019496 245.958803 211.049705 250.507374 209.165625 
C 255.055946 207.281546 259.189165 204.519817 262.670491 201.038491 
C 266.151817 197.557165 268.913546 193.423946 270.797625 188.875374 
C 272.681705 184.326803 273.651496 179.451338 273.651496 174.528 
" clip-path="url(#pc629df1667)" style="fill: none; stroke: #b0b0b0; stroke-width: 0.8; stroke-linecap: square"/>
     </g>
     <g id="text_10">
      <!-- 0.4 -->
      <g transform="translate(270.797625 158.100938)scale(0.1 -0.1)">
       <use xlink:href="#DejaVuSans-30"/>
       <use xlink:href="#DejaVuSans-2e" x="63.623047"/>
       <use xlink:href="#DejaVuSans-34" x="95.410156"/>
      </g>
     </g>
    </g>
    <g id="ytick_3">
     <g id="line2d_11">
      <path d="M 292.397243 174.528 
C 292.397243 167.142993 290.942558 159.829796 288.116438 153.006939 
C 285.290318 146.184082 281.147725 139.984252 275.925736 134.762264 
C 270.703748 129.540275 264.503918 125.397682 257.681061 122.571562 
C 250.858204 119.745442 243.545007 118.290757 236.16 118.290757 
C 228.774993 118.290757 221.461796 119.745442 214.638939 122.571562 
C 207.816082 125.397682 201.616252 129.540275 196.394264 134.762264 
C 191.172275 139.984252 187.029682 146.184082 184.203562 153.006939 
C 181.377442 159.829796 179.922757 167.142993 179.922757 174.528 
C 179.922757 181.913007 181.377442 189.226204 184.203562 196.049061 
C 187.029682 202.871918 191.172275 209.071748 196.394264 214.293736 
C 201.616252 219.515725 207.816082 223.658318 214.638939 226.484438 
C 221.461796 229.310558 228.774993 230.765243 236.16 230.765243 
C 243.545007 230.765243 250.858204 229.310558 257.681061 226.484438 
C 264.503918 223.658318 270.703748 219.515725 275.925736 214.293736 
C 281.147725 209.071748 285.290318 202.871918 288.116438 196.049061 
C 290.942558 189.226204 292.397243 181.913007 292.397243 174.528 
" clip-path="url(#pc629df1667)" style="fill: none; stroke: #b0b0b0; stroke-width: 0.8; stroke-linecap: square"/>
     </g>
     <g id="text_11">
      <!-- 0.6 -->
      <g transform="translate(288.116438 150.927251)scale(0.1 -0.1)">
       <defs>
        <path id="DejaVuSans-36" d="M 2113 2584 
Q 1688 2584 1439 2293 
Q 1191 2003 1191 1497 
Q 1191 994 1439 701 
Q 1688 409 2113 409 
Q 2538 409 2786 701 
Q 3034 994 3034 1497 
Q 3034 2003 2786 2293 
Q 2538 2584 2113 2584 
z
M 3366 4563 
L 3366 3988 
Q 3128 4100 2886 4159 
Q 2644 4219 2406 4219 
Q 1781 4219 1451 3797 
Q 1122 3375 1075 2522 
Q 1259 2794 1537 2939 
Q 1816 3084 2150 3084 
Q 2853 3084 3261 2657 
Q 3669 2231 3669 1497 
Q 3669 778 3244 343 
Q 2819 -91 2113 -91 
Q 1303 -91 875 529 
Q 447 1150 447 2328 
Q 447 3434 972 4092 
Q 1497 4750 2381 4750 
Q 2619 4750 2861 4703 
Q 3103 4656 3366 4563 
z
" transform="scale(0.015625)"/>
       </defs>
       <use xlink:href="#DejaVuSans-30"/>
       <use xlink:href="#DejaVuSans-2e" x="63.623047"/>
       <use xlink:href="#DejaVuSans-36" x="95.410156"/>
      </g>
     </g>
    </g>
    <g id="ytick_4">
     <g id="line2d_12">
      <path d="M 311.142991 174.528 
C 311.142991 164.681324 309.203411 154.930394 305.435251 145.833252 
C 301.667091 136.736109 296.143633 128.46967 289.180982 121.507018 
C 282.21833 114.544367 273.951891 109.020909 264.854748 105.252749 
C 255.757606 101.484589 246.006676 99.545009 236.16 99.545009 
C 226.313324 99.545009 216.562394 101.484589 207.465252 105.252749 
C 198.368109 109.020909 190.10167 114.544367 183.139018 121.507018 
C 176.176367 128.46967 170.652909 136.736109 166.884749 145.833252 
C 163.116589 154.930394 161.177009 164.681324 161.177009 174.528 
C 161.177009 184.374676 163.116589 194.125606 166.884749 203.222748 
C 170.652909 212.319891 176.176367 220.58633 183.139018 227.548982 
C 190.10167 234.511633 198.368109 240.035091 207.465252 243.803251 
C 216.562394 247.571411 226.313324 249.510991 236.16 249.510991 
C 246.006676 249.510991 255.757606 247.571411 264.854748 243.803251 
C 273.951891 240.035091 282.21833 234.511633 289.180982 227.548982 
C 296.143633 220.58633 301.667091 212.319891 305.435251 203.222748 
C 309.203411 194.125606 311.142991 184.374676 311.142991 174.528 
" clip-path="url(#pc629df1667)" style="fill: none; stroke: #b0b0b0; stroke-width: 0.8; stroke-linecap: square"/>
     </g>
     <g id="text_12">
      <!-- 0.8 -->
      <g transform="translate(305.435251 143.753564)scale(0.1 -0.1)">
       <use xlink:href="#DejaVuSans-30"/>
       <use xlink:href="#DejaVuSans-2e" x="63.623047"/>
       <use xlink:href="#DejaVuSans-38" x="95.410156"/>
      </g>
     </g>
    </g>
    <g id="ytick_5">
     <g id="line2d_13">
      <path d="M 329.888739 174.528 
C 329.888739 162.219655 327.464263 150.030993 322.754064 138.659564 
C 318.043864 127.288136 311.139541 116.955087 302.436227 108.251773 
C 293.732913 99.548459 283.399864 92.644136 272.028436 87.933936 
C 260.657007 83.223737 248.468345 80.799261 236.16 80.799261 
C 223.851655 80.799261 211.662993 83.223737 200.291564 87.933936 
C 188.920136 92.644136 178.587087 99.548459 169.883773 108.251773 
C 161.180459 116.955087 154.276136 127.288136 149.565936 138.659564 
C 144.855737 150.030993 142.431261 162.219655 142.431261 174.528 
C 142.431261 186.836345 144.855737 199.025007 149.565936 210.396436 
C 154.276136 221.767864 161.180459 232.100913 169.883773 240.804227 
C 178.587087 249.507541 188.920136 256.411864 200.291564 261.122064 
C 211.662993 265.832263 223.851655 268.256739 236.16 268.256739 
C 248.468345 268.256739 260.657007 265.832263 272.028436 261.122064 
C 283.399864 256.411864 293.732913 249.507541 302.436227 240.804227 
C 311.139541 232.100913 318.043864 221.767864 322.754064 210.396436 
C 327.464263 199.025007 329.888739 186.836345 329.888739 174.528 
" clip-path="url(#pc629df1667)" style="fill: none; stroke: #b0b0b0; stroke-width: 0.8; stroke-linecap: square"/>
     </g>
     <g id="text_13">
      <!-- 1.0 -->
      <g transform="translate(322.754064 136.579877)scale(0.1 -0.1)">
       <use xlink:href="#DejaVuSans-31"/>
       <use xlink:href="#DejaVuSans-2e" x="63.623047"/>
       <use xlink:href="#DejaVuSans-30" x="95.410156"/>
      </g>
     </g>
    </g>
    <g id="ytick_6">
     <g id="line2d_14">
      <path d="M 348.634487 174.528 
C 348.634487 159.757986 345.725116 145.131591 340.072876 131.485877 
C 334.420637 117.840163 326.13545 105.440505 315.691472 94.996528 
C 305.247495 84.55255 292.847837 76.267363 279.202123 70.615124 
C 265.556409 64.962884 250.930014 62.053513 236.16 62.053513 
C 221.389986 62.053513 206.763591 64.962884 193.117877 70.615124 
C 179.472163 76.267363 167.072505 84.55255 156.628528 94.996528 
C 146.18455 105.440505 137.899363 117.840163 132.247124 131.485877 
C 126.594884 145.131591 123.685513 159.757986 123.685513 174.528 
C 123.685513 189.298014 126.594884 203.924409 132.247124 217.570123 
C 137.899363 231.215837 146.18455 243.615495 156.628528 254.059472 
C 167.072505 264.50345 179.472163 272.788637 193.117877 278.440876 
C 206.763591 284.093116 221.389986 287.002487 236.16 287.002487 
C 250.930014 287.002487 265.556409 284.093116 279.202123 278.440876 
C 292.847837 272.788637 305.247495 264.50345 315.691472 254.059472 
C 326.13545 243.615495 334.420637 231.215837 340.072876 217.570123 
C 345.725116 203.924409 348.634487 189.298014 348.634487 174.528 
" clip-path="url(#pc629df1667)" style="fill: none; stroke: #b0b0b0; stroke-width: 0.8; stroke-linecap: square"/>
     </g>
     <g id="text_14">
      <!-- 1.2 -->
      <g transform="translate(340.072876 129.40619)scale(0.1 -0.1)">
       <use xlink:href="#DejaVuSans-31"/>
       <use xlink:href="#DejaVuSans-2e" x="63.623047"/>
       <use xlink:href="#DejaVuSans-32" x="95.410156"/>
      </g>
     </g>
    </g>
    <g id="ytick_7">
     <g id="line2d_15">
      <path d="M 367.380235 174.528 
C 367.380235 157.296317 363.985969 140.23219 357.391689 124.31219 
C 350.797409 108.392191 341.131358 93.925922 328.946718 81.741282 
C 316.762078 69.556642 302.295809 59.890591 286.37581 53.296311 
C 270.45581 46.702031 253.391683 43.307765 236.16 43.307765 
C 218.928317 43.307765 201.86419 46.702031 185.94419 53.296311 
C 170.024191 59.890591 155.557922 69.556642 143.373282 81.741282 
C 131.188642 93.925922 121.522591 108.392191 114.928311 124.31219 
C 108.334031 140.23219 104.939765 157.296317 104.939765 174.528 
C 104.939765 191.759683 108.334031 208.82381 114.928311 224.74381 
C 121.522591 240.663809 131.188642 255.130078 143.373282 267.314718 
C 155.557922 279.499358 170.024191 289.165409 185.94419 295.759689 
C 201.86419 302.353969 218.928317 305.748235 236.16 305.748235 
C 253.391683 305.748235 270.45581 302.353969 286.37581 295.759689 
C 302.295809 289.165409 316.762078 279.499358 328.946718 267.314718 
C 341.131358 255.130078 350.797409 240.663809 357.391689 224.74381 
C 363.985969 208.82381 367.380235 191.759683 367.380235 174.528 
" clip-path="url(#pc629df1667)" style="fill: none; stroke: #b0b0b0; stroke-width: 0.8; stroke-linecap: square"/>
     </g>
     <g id="text_15">
      <!-- 1.4 -->
      <g transform="translate(357.391689 122.232503)scale(0.1 -0.1)">
       <use xlink:href="#DejaVuSans-31"/>
       <use xlink:href="#DejaVuSans-2e" x="63.623047"/>
       <use xlink:href="#DejaVuSans-34" x="95.410156"/>
      </g>
     </g>
    </g>
   </g>
   <g id="line2d_16">
    <path d="M 362.882634 174.528 
L 361.557804 170.567399 
L 357.593242 166.849574 
L 351.028717 163.614818 
L 341.962676 161.09413 
L 330.596084 159.494372 
L 317.28383 158.973149 
L 302.581557 159.603935 
L 287.270735 161.336165 
L 272.34145 163.960548 
L 258.91353 167.095197 
L 248.086087 170.210935 
L 240.725422 172.710409 
L 237.230393 174.062189 
L 237.345051 173.967155 
L 240.105794 172.505734 
L 243.996142 170.194233 
L 247.323665 167.885323 
L 248.736906 166.496229 
L 247.700312 166.634506 
L 244.701568 168.280887 
L 241.034178 170.721251 
L 237.103308 173.690255 
L 237.716716 173.055007 
L 239.054678 171.610382 
L 239.895086 170.517678 
L 239.56167 170.636247 
L 238.312597 171.902412 
L 236.509721 174.041825 
L 236.791478 173.588955 
L 237.39376 172.4168 
L 236.454164 173.942697 
L 236.276601 174.276509 
L 236.45967 173.824255 
L 236.659886 173.242962 
L 236.230945 174.277772 
L 236.287229 174.018475 
L 236.399377 173.223993 
L 236.211054 174.098822 
L 236.208945 173.965711 
L 236.194834 173.057266 
L 236.118783 173.948784 
L 235.968615 173.110331 
L 236.048482 174.049368 
L 235.799488 173.453208 
L 236.065417 174.315261 
L 236.018525 174.235069 
L 235.848011 173.97424 
L 236.126997 174.483615 
L 235.977089 174.311947 
L 235.388997 173.775042 
L 235.809632 174.263159 
L 234.420688 173.3782 
L 232.845679 172.484365 
L 230.830007 171.469398 
L 228.625836 170.515231 
L 226.512514 169.77433 
L 224.725339 169.335686 
L 223.411272 169.217805 
L 222.617591 169.382634 
L 222.306979 169.759381 
L 222.386731 170.268167 
L 222.740143 170.83738 
L 223.824695 171.960278 
L 225.609974 173.693505 
L 225.920582 174.366338 
L 225.817373 175.018201 
L 225.298123 175.733238 
L 222.740143 178.21862 
L 222.386731 178.787833 
L 222.306979 179.296619 
L 222.617591 179.673366 
L 223.411272 179.838195 
L 224.725339 179.720314 
L 226.512514 179.28167 
L 228.625836 178.540769 
L 230.830007 177.586602 
L 234.420688 175.6778 
L 235.809632 174.792841 
L 235.572856 175.033086 
L 235.388997 175.280958 
L 236.126997 174.572385 
L 235.848011 175.08176 
L 235.993545 174.936685 
L 235.799488 175.602792 
L 236.048482 175.006632 
L 235.968615 175.945669 
L 236.134119 175.183429 
L 236.194834 175.998734 
L 236.211054 174.957178 
L 236.399377 175.832007 
L 236.230945 174.778228 
L 236.659886 175.813038 
L 236.454164 175.113303 
L 237.39376 176.6392 
L 237.296698 176.33931 
L 236.509721 175.014175 
L 238.312597 177.153588 
L 239.56167 178.419753 
L 239.895086 178.538322 
L 239.054678 177.445618 
L 237.103308 175.365745 
L 241.034178 178.334749 
L 244.701568 180.775113 
L 247.700312 182.421494 
L 248.736906 182.559771 
L 247.323665 181.170677 
L 243.996142 178.861767 
L 240.105794 176.550266 
L 237.230393 174.993811 
L 240.725422 176.345591 
L 248.086087 178.845065 
L 258.91353 181.960803 
L 272.34145 185.095452 
L 287.270735 187.719835 
L 302.581557 189.452065 
L 317.28383 190.082851 
L 330.596084 189.561628 
L 341.962676 187.96187 
L 351.028717 185.441182 
L 357.593242 182.206426 
L 361.557804 178.488601 
L 362.882634 174.528 
L 362.882634 174.528 
" clip-path="url(#pc629df1667)" style="fill: none; stroke: #1f77b4; stroke-width: 1.5; stroke-linecap: square"/>
   </g>
   <g id="patch_3">
    <path d="M 369.216 174.528 
C 369.216 157.055246 365.774248 139.752393 359.087715 123.609673 
C 352.401182 107.466954 342.599903 92.798303 330.2448 80.4432 
C 317.889697 68.088097 303.221046 58.286818 287.078327 51.600285 
C 270.935607 44.913752 253.632754 41.472 236.16 41.472 
C 218.687246 41.472 201.384393 44.913752 185.241673 51.600285 
C 169.098954 58.286818 154.430303 68.088097 142.0752 80.4432 
C 129.720097 92.798303 119.918818 107.466954 113.232285 123.609673 
C 106.545752 139.752393 103.104 157.055246 103.104 174.528 
C 103.104 192.000754 106.545752 209.303607 113.232285 225.446327 
C 119.918818 241.589046 129.720097 256.257697 142.0752 268.6128 
C 154.430303 280.967903 169.098954 290.769182 185.241673 297.455715 
C 201.384393 304.142248 218.687246 307.584 236.16 307.584 
C 253.632754 307.584 270.935607 304.142248 287.078327 297.455715 
C 303.221046 290.769182 317.889697 280.967903 330.2448 268.6128 
C 342.599903 256.257697 352.401182 241.589046 359.087715 225.446327 
C 365.774248 209.303607 369.216 192.000754 369.216 174.528 
" style="fill: none; stroke: #000000; stroke-width: 0.8; stroke-linejoin: miter; stroke-linecap: square"/>
   </g>
   <g id="text_16">
    <!-- $d P/ d \Omega\ (P_0)$ -->
    <g transform="translate(205.2 16.632938)scale(0.12 -0.12)">
     <defs>
      <path id="DejaVuSans-Oblique-64" d="M 2675 525 
Q 2444 222 2128 65 
Q 1813 -91 1428 -91 
Q 903 -91 598 267 
Q 294 625 294 1247 
Q 294 1766 478 2236 
Q 663 2706 1013 3078 
Q 1244 3325 1534 3454 
Q 1825 3584 2144 3584 
Q 2481 3584 2739 3421 
Q 2997 3259 3138 2956 
L 3513 4863 
L 4091 4863 
L 3144 0 
L 2566 0 
L 2675 525 
z
M 891 1350 
Q 891 897 1095 644 
Q 1300 391 1663 391 
Q 1931 391 2161 520 
Q 2391 650 2566 903 
Q 2750 1166 2856 1509 
Q 2963 1853 2963 2188 
Q 2963 2622 2758 2865 
Q 2553 3109 2194 3109 
Q 1922 3109 1687 2981 
Q 1453 2853 1288 2613 
Q 1106 2353 998 2009 
Q 891 1666 891 1350 
z
" transform="scale(0.015625)"/>
      <path id="DejaVuSans-Oblique-50" d="M 1081 4666 
L 2541 4666 
Q 3178 4666 3512 4369 
Q 3847 4072 3847 3500 
Q 3847 2731 3353 2303 
Q 2859 1875 1966 1875 
L 1172 1875 
L 806 0 
L 172 0 
L 1081 4666 
z
M 1613 4147 
L 1275 2394 
L 2069 2394 
Q 2606 2394 2893 2669 
Q 3181 2944 3181 3456 
Q 3181 3784 2986 3965 
Q 2791 4147 2438 4147 
L 1613 4147 
z
" transform="scale(0.015625)"/>
      <path id="DejaVuSans-2f" d="M 1625 4666 
L 2156 4666 
L 531 -594 
L 0 -594 
L 1625 4666 
z
" transform="scale(0.015625)"/>
      <path id="DejaVuSans-3a9" d="M 4647 556 
L 4647 0 
L 2772 0 
L 2772 556 
Q 3325 859 3634 1378 
Q 3944 1897 3944 2528 
Q 3944 3278 3531 3731 
Q 3119 4184 2444 4184 
Q 1769 4184 1355 3729 
Q 941 3275 941 2528 
Q 941 1897 1250 1378 
Q 1563 859 2119 556 
L 2119 0 
L 244 0 
L 244 556 
L 1241 556 
Q 747 991 519 1456 
Q 294 1922 294 2497 
Q 294 3491 894 4106 
Q 1491 4722 2444 4722 
Q 3391 4722 3994 4106 
Q 4594 3494 4594 2528 
Q 4594 1922 4372 1459 
Q 4150 997 3647 556 
L 4647 556 
z
" transform="scale(0.015625)"/>
      <path id="DejaVuSans-28" d="M 1984 4856 
Q 1566 4138 1362 3434 
Q 1159 2731 1159 2009 
Q 1159 1288 1364 580 
Q 1569 -128 1984 -844 
L 1484 -844 
Q 1016 -109 783 600 
Q 550 1309 550 2009 
Q 550 2706 781 3412 
Q 1013 4119 1484 4856 
L 1984 4856 
z
" transform="scale(0.015625)"/>
      <path id="DejaVuSans-29" d="M 513 4856 
L 1013 4856 
Q 1481 4119 1714 3412 
Q 1947 2706 1947 2009 
Q 1947 1309 1714 600 
Q 1481 -109 1013 -844 
L 513 -844 
Q 928 -128 1133 580 
Q 1338 1288 1338 2009 
Q 1338 2731 1133 3434 
Q 928 4138 513 4856 
z
" transform="scale(0.015625)"/>
     </defs>
     <use xlink:href="#DejaVuSans-Oblique-64" transform="translate(0 0.015625)"/>
     <use xlink:href="#DejaVuSans-Oblique-50" transform="translate(63.476562 0.015625)"/>
     <use xlink:href="#DejaVuSans-2f" transform="translate(123.779297 0.015625)"/>
     <use xlink:href="#DejaVuSans-Oblique-64" transform="translate(157.470703 0.015625)"/>
     <use xlink:href="#DejaVuSans-3a9" transform="translate(220.947266 0.015625)"/>
     <use xlink:href="#DejaVuSans-28" transform="translate(329.83366 0.015625)"/>
     <use xlink:href="#DejaVuSans-Oblique-50" transform="translate(368.847332 0.015625)"/>
     <use xlink:href="#DejaVuSans-30" transform="translate(429.150066 -16.390625)scale(0.7)"/>
     <use xlink:href="#DejaVuSans-29" transform="translate(476.420574 0.015625)"/>
    </g>
   </g>
   <g id="legend_1">
    <g id="patch_4">
     <path d="M 284.692563 64.150125 
L 362.216 64.150125 
Q 364.216 64.150125 364.216 62.150125 
L 364.216 48.472 
Q 364.216 46.472 362.216 46.472 
L 284.692563 46.472 
Q 282.692563 46.472 282.692563 48.472 
L 282.692563 62.150125 
Q 282.692563 64.150125 284.692563 64.150125 
z
" style="fill: #ffffff; opacity: 0.8; stroke: #cccccc; stroke-linejoin: miter"/>
    </g>
    <g id="line2d_17">
     <path d="M 286.692563 54.570438 
L 296.692563 54.570438 
L 306.692563 54.570438 
" style="fill: none; stroke: #1f77b4; stroke-width: 1.5; stroke-linecap: square"/>
    </g>
    <g id="text_17">
     <!-- y-z plane -->
     <g transform="translate(314.692563 58.070438)scale(0.1 -0.1)">
      <defs>
       <path id="DejaVuSans-79" d="M 2059 -325 
Q 1816 -950 1584 -1140 
Q 1353 -1331 966 -1331 
L 506 -1331 
L 506 -850 
L 844 -850 
Q 1081 -850 1212 -737 
Q 1344 -625 1503 -206 
L 1606 56 
L 191 3500 
L 800 3500 
L 1894 763 
L 2988 3500 
L 3597 3500 
L 2059 -325 
z
" transform="scale(0.015625)"/>
       <path id="DejaVuSans-2d" d="M 313 2009 
L 1997 2009 
L 1997 1497 
L 313 1497 
L 313 2009 
z
" transform="scale(0.015625)"/>
       <path id="DejaVuSans-7a" d="M 353 3500 
L 3084 3500 
L 3084 2975 
L 922 459 
L 3084 459 
L 3084 0 
L 275 0 
L 275 525 
L 2438 3041 
L 353 3041 
L 353 3500 
z
" transform="scale(0.015625)"/>
       <path id="DejaVuSans-20" transform="scale(0.015625)"/>
       <path id="DejaVuSans-70" d="M 1159 525 
L 1159 -1331 
L 581 -1331 
L 581 3500 
L 1159 3500 
L 1159 2969 
Q 1341 3281 1617 3432 
Q 1894 3584 2278 3584 
Q 2916 3584 3314 3078 
Q 3713 2572 3713 1747 
Q 3713 922 3314 415 
Q 2916 -91 2278 -91 
Q 1894 -91 1617 61 
Q 1341 213 1159 525 
z
M 3116 1747 
Q 3116 2381 2855 2742 
Q 2594 3103 2138 3103 
Q 1681 3103 1420 2742 
Q 1159 2381 1159 1747 
Q 1159 1113 1420 752 
Q 1681 391 2138 391 
Q 2594 391 2855 752 
Q 3116 1113 3116 1747 
z
" transform="scale(0.015625)"/>
       <path id="DejaVuSans-6c" d="M 603 4863 
L 1178 4863 
L 1178 0 
L 603 0 
L 603 4863 
z
" transform="scale(0.015625)"/>
       <path id="DejaVuSans-61" d="M 2194 1759 
Q 1497 1759 1228 1600 
Q 959 1441 959 1056 
Q 959 750 1161 570 
Q 1363 391 1709 391 
Q 2188 391 2477 730 
Q 2766 1069 2766 1631 
L 2766 1759 
L 2194 1759 
z
M 3341 1997 
L 3341 0 
L 2766 0 
L 2766 531 
Q 2569 213 2275 61 
Q 1981 -91 1556 -91 
Q 1019 -91 701 211 
Q 384 513 384 1019 
Q 384 1609 779 1909 
Q 1175 2209 1959 2209 
L 2766 2209 
L 2766 2266 
Q 2766 2663 2505 2880 
Q 2244 3097 1772 3097 
Q 1472 3097 1187 3025 
Q 903 2953 641 2809 
L 641 3341 
Q 956 3463 1253 3523 
Q 1550 3584 1831 3584 
Q 2591 3584 2966 3190 
Q 3341 2797 3341 1997 
z
" transform="scale(0.015625)"/>
       <path id="DejaVuSans-6e" d="M 3513 2113 
L 3513 0 
L 2938 0 
L 2938 2094 
Q 2938 2591 2744 2837 
Q 2550 3084 2163 3084 
Q 1697 3084 1428 2787 
Q 1159 2491 1159 1978 
L 1159 0 
L 581 0 
L 581 3500 
L 1159 3500 
L 1159 2956 
Q 1366 3272 1645 3428 
Q 1925 3584 2291 3584 
Q 2894 3584 3203 3211 
Q 3513 2838 3513 2113 
z
" transform="scale(0.015625)"/>
       <path id="DejaVuSans-65" d="M 3597 1894 
L 3597 1613 
L 953 1613 
Q 991 1019 1311 708 
Q 1631 397 2203 397 
Q 2534 397 2845 478 
Q 3156 559 3463 722 
L 3463 178 
Q 3153 47 2828 -22 
Q 2503 -91 2169 -91 
Q 1331 -91 842 396 
Q 353 884 353 1716 
Q 353 2575 817 3079 
Q 1281 3584 2069 3584 
Q 2775 3584 3186 3129 
Q 3597 2675 3597 1894 
z
M 3022 2063 
Q 3016 2534 2758 2815 
Q 2500 3097 2075 3097 
Q 1594 3097 1305 2825 
Q 1016 2553 972 2059 
L 3022 2063 
z
" transform="scale(0.015625)"/>
      </defs>
      <use xlink:href="#DejaVuSans-79"/>
      <use xlink:href="#DejaVuSans-2d" x="57.429688"/>
      <use xlink:href="#DejaVuSans-7a" x="93.513672"/>
      <use xlink:href="#DejaVuSans-20" x="146.003906"/>
      <use xlink:href="#DejaVuSans-70" x="177.791016"/>
      <use xlink:href="#DejaVuSans-6c" x="241.267578"/>
      <use xlink:href="#DejaVuSans-61" x="269.050781"/>
      <use xlink:href="#DejaVuSans-6e" x="330.330078"/>
      <use xlink:href="#DejaVuSans-65" x="393.708984"/>
     </g>
    </g>
   </g>
  </g>
 </g>
 <defs>
  <clipPath id="pc629df1667">
   <path d="M 369.216 174.528 
C 369.216 157.055246 365.774248 139.752393 359.087715 123.609673 
C 352.401182 107.466954 342.599903 92.798303 330.2448 80.4432 
C 317.889697 68.088097 303.221046 58.286818 287.078327 51.600285 
C 270.935607 44.913752 253.632754 41.472 236.16 41.472 
C 218.687246 41.472 201.384393 44.913752 185.241673 51.600285 
C 169.098954 58.286818 154.430303 68.088097 142.0752 80.4432 
C 129.720097 92.798303 119.918818 107.466954 113.232285 123.609673 
C 106.545752 139.752393 103.104 157.055246 103.104 174.528 
C 103.104 192.000754 106.545752 209.303607 113.232285 225.446327 
C 119.918818 241.589046 129.720097 256.257697 142.0752 268.6128 
C 154.430303 280.967903 169.098954 290.769182 185.241673 297.455715 
C 201.384393 304.142248 218.687246 307.584 236.16 307.584 
C 253.632754 307.584 270.935607 304.142248 287.078327 297.455715 
C 303.221046 290.769182 317.889697 280.967903 330.2448 268.6128 
C 342.599903 256.257697 352.401182 241.589046 359.087715 225.446327 
C 365.774248 209.303607 369.216 192.000754 369.216 174.528 
M 236.16 174.528 
C 236.16 174.528 236.16 174.528 236.16 174.528 
C 236.16 174.528 236.16 174.528 236.16 174.528 
C 236.16 174.528 236.16 174.528 236.16 174.528 
C 236.16 174.528 236.16 174.528 236.16 174.528 
C 236.16 174.528 236.16 174.528 236.16 174.528 
C 236.16 174.528 236.16 174.528 236.16 174.528 
C 236.16 174.528 236.16 174.528 236.16 174.528 
C 236.16 174.528 236.16 174.528 236.16 174.528 
C 236.16 174.528 236.16 174.528 236.16 174.528 
C 236.16 174.528 236.16 174.528 236.16 174.528 
C 236.16 174.528 236.16 174.528 236.16 174.528 
C 236.16 174.528 236.16 174.528 236.16 174.528 
C 236.16 174.528 236.16 174.528 236.16 174.528 
C 236.16 174.528 236.16 174.528 236.16 174.528 
C 236.16 174.528 236.16 174.528 236.16 174.528 
C 236.16 174.528 236.16 174.528 236.16 174.528 
M 369.216 174.528 
z
"/>
  </clipPath>
 </defs>
</svg>
