<?xml version="1.0" encoding="utf-8" standalone="no"?>
<!DOCTYPE svg PUBLIC "-//W3C//DTD SVG 1.1//EN"
  "http://www.w3.org/Graphics/SVG/1.1/DTD/svg11.dtd">
<svg xmlns:xlink="http://www.w3.org/1999/xlink" width="460.8pt" height="345.6pt" viewBox="0 0 460.8 345.6" xmlns="http://www.w3.org/2000/svg" version="1.1">
 <metadata>
  <rdf:RDF xmlns:dc="http://purl.org/dc/elements/1.1/" xmlns:cc="http://creativecommons.org/ns#" xmlns:rdf="http://www.w3.org/1999/02/22-rdf-syntax-ns#">
   <cc:Work>
    <dc:type rdf:resource="http://purl.org/dc/dcmitype/StillImage"/>
    <dc:date>2023-07-03T17:36:02.791020</dc:date>
    <dc:format>image/svg+xml</dc:format>
    <dc:creator>
     <cc:Agent>
      <dc:title>Matplotlib v3.5.1, https://matplotlib.org/</dc:title>
     </cc:Agent>
    </dc:creator>
   </cc:Work>
  </rdf:RDF>
 </metadata>
 <defs>
  <style type="text/css">*{stroke-linejoin: round; stroke-linecap: butt}</style>
 </defs>
 <g id="figure_1">
  <g id="patch_1">
   <path d="M 0 345.6 
L 460.8 345.6 
L 460.8 0 
L 0 0 
z
" style="fill: #ffffff"/>
  </g>
  <g id="axes_1">
   <g id="patch_2">
    <path d="M 57.6 307.584 
L 414.72 307.584 
L 414.72 41.472 
L 57.6 41.472 
z
" style="fill: #ffffff"/>
   </g>
   <g id="matplotlib.axis_1">
    <g id="xtick_1">
     <g id="line2d_1">
      <defs>
       <path id="m43873ec86d" d="M 0 0 
L 0 3.5 
" style="stroke: #000000; stroke-width: 0.8"/>
      </defs>
      <g>
       <use xlink:href="#m43873ec86d" x="74.238545" y="307.584" style="stroke: #000000; stroke-width: 0.8"/>
      </g>
     </g>
     <g id="text_1">
      <!-- −1500 -->
      <g transform="translate(57.323702 322.182437)scale(0.1 -0.1)">
       <defs>
        <path id="DejaVuSans-2212" d="M 678 2272 
L 4684 2272 
L 4684 1741 
L 678 1741 
L 678 2272 
z
" transform="scale(0.015625)"/>
        <path id="DejaVuSans-31" d="M 794 531 
L 1825 531 
L 1825 4091 
L 703 3866 
L 703 4441 
L 1819 4666 
L 2450 4666 
L 2450 531 
L 3481 531 
L 3481 0 
L 794 0 
L 794 531 
z
" transform="scale(0.015625)"/>
        <path id="DejaVuSans-35" d="M 691 4666 
L 3169 4666 
L 3169 4134 
L 1269 4134 
L 1269 2991 
Q 1406 3038 1543 3061 
Q 1681 3084 1819 3084 
Q 2600 3084 3056 2656 
Q 3513 2228 3513 1497 
Q 3513 744 3044 326 
Q 2575 -91 1722 -91 
Q 1428 -91 1123 -41 
Q 819 9 494 109 
L 494 744 
Q 775 591 1075 516 
Q 1375 441 1709 441 
Q 2250 441 2565 725 
Q 2881 1009 2881 1497 
Q 2881 1984 2565 2268 
Q 2250 2553 1709 2553 
Q 1456 2553 1204 2497 
Q 953 2441 691 2322 
L 691 4666 
z
" transform="scale(0.015625)"/>
        <path id="DejaVuSans-30" d="M 2034 4250 
Q 1547 4250 1301 3770 
Q 1056 3291 1056 2328 
Q 1056 1369 1301 889 
Q 1547 409 2034 409 
Q 2525 409 2770 889 
Q 3016 1369 3016 2328 
Q 3016 3291 2770 3770 
Q 2525 4250 2034 4250 
z
M 2034 4750 
Q 2819 4750 3233 4129 
Q 3647 3509 3647 2328 
Q 3647 1150 3233 529 
Q 2819 -91 2034 -91 
Q 1250 -91 836 529 
Q 422 1150 422 2328 
Q 422 3509 836 4129 
Q 1250 4750 2034 4750 
z
" transform="scale(0.015625)"/>
       </defs>
       <use xlink:href="#DejaVuSans-2212"/>
       <use xlink:href="#DejaVuSans-31" x="83.789062"/>
       <use xlink:href="#DejaVuSans-35" x="147.412109"/>
       <use xlink:href="#DejaVuSans-30" x="211.035156"/>
       <use xlink:href="#DejaVuSans-30" x="274.658203"/>
      </g>
     </g>
    </g>
    <g id="xtick_2">
     <g id="line2d_2">
      <g>
       <use xlink:href="#m43873ec86d" x="128.212364" y="307.584" style="stroke: #000000; stroke-width: 0.8"/>
      </g>
     </g>
     <g id="text_2">
      <!-- −1000 -->
      <g transform="translate(111.29752 322.182437)scale(0.1 -0.1)">
       <use xlink:href="#DejaVuSans-2212"/>
       <use xlink:href="#DejaVuSans-31" x="83.789062"/>
       <use xlink:href="#DejaVuSans-30" x="147.412109"/>
       <use xlink:href="#DejaVuSans-30" x="211.035156"/>
       <use xlink:href="#DejaVuSans-30" x="274.658203"/>
      </g>
     </g>
    </g>
    <g id="xtick_3">
     <g id="line2d_3">
      <g>
       <use xlink:href="#m43873ec86d" x="182.186182" y="307.584" style="stroke: #000000; stroke-width: 0.8"/>
      </g>
     </g>
     <g id="text_3">
      <!-- −500 -->
      <g transform="translate(168.452588 322.182437)scale(0.1 -0.1)">
       <use xlink:href="#DejaVuSans-2212"/>
       <use xlink:href="#DejaVuSans-35" x="83.789062"/>
       <use xlink:href="#DejaVuSans-30" x="147.412109"/>
       <use xlink:href="#DejaVuSans-30" x="211.035156"/>
      </g>
     </g>
    </g>
    <g id="xtick_4">
     <g id="line2d_4">
      <g>
       <use xlink:href="#m43873ec86d" x="236.16" y="307.584" style="stroke: #000000; stroke-width: 0.8"/>
      </g>
     </g>
     <g id="text_4">
      <!-- 0 -->
      <g transform="translate(232.97875 322.182437)scale(0.1 -0.1)">
       <use xlink:href="#DejaVuSans-30"/>
      </g>
     </g>
    </g>
    <g id="xtick_5">
     <g id="line2d_5">
      <g>
       <use xlink:href="#m43873ec86d" x="290.133818" y="307.584" style="stroke: #000000; stroke-width: 0.8"/>
      </g>
     </g>
     <g id="text_5">
      <!-- 500 -->
      <g transform="translate(280.590068 322.182437)scale(0.1 -0.1)">
       <use xlink:href="#DejaVuSans-35"/>
       <use xlink:href="#DejaVuSans-30" x="63.623047"/>
       <use xlink:href="#DejaVuSans-30" x="127.246094"/>
      </g>
     </g>
    </g>
    <g id="xtick_6">
     <g id="line2d_6">
      <g>
       <use xlink:href="#m43873ec86d" x="344.107636" y="307.584" style="stroke: #000000; stroke-width: 0.8"/>
      </g>
     </g>
     <g id="text_6">
      <!-- 1000 -->
      <g transform="translate(331.382636 322.182437)scale(0.1 -0.1)">
       <use xlink:href="#DejaVuSans-31"/>
       <use xlink:href="#DejaVuSans-30" x="63.623047"/>
       <use xlink:href="#DejaVuSans-30" x="127.246094"/>
       <use xlink:href="#DejaVuSans-30" x="190.869141"/>
      </g>
     </g>
    </g>
    <g id="xtick_7">
     <g id="line2d_7">
      <g>
       <use xlink:href="#m43873ec86d" x="398.081455" y="307.584" style="stroke: #000000; stroke-width: 0.8"/>
      </g>
     </g>
     <g id="text_7">
      <!-- 1500 -->
      <g transform="translate(385.356455 322.182437)scale(0.1 -0.1)">
       <use xlink:href="#DejaVuSans-31"/>
       <use xlink:href="#DejaVuSans-35" x="63.623047"/>
       <use xlink:href="#DejaVuSans-30" x="127.246094"/>
       <use xlink:href="#DejaVuSans-30" x="190.869141"/>
      </g>
     </g>
    </g>
    <g id="text_8">
     <!-- y (nm) -->
     <g transform="translate(219.670938 335.860562)scale(0.1 -0.1)">
      <defs>
       <path id="DejaVuSans-79" d="M 2059 -325 
Q 1816 -950 1584 -1140 
Q 1353 -1331 966 -1331 
L 506 -1331 
L 506 -850 
L 844 -850 
Q 1081 -850 1212 -737 
Q 1344 -625 1503 -206 
L 1606 56 
L 191 3500 
L 800 3500 
L 1894 763 
L 2988 3500 
L 3597 3500 
L 2059 -325 
z
" transform="scale(0.015625)"/>
       <path id="DejaVuSans-20" transform="scale(0.015625)"/>
       <path id="DejaVuSans-28" d="M 1984 4856 
Q 1566 4138 1362 3434 
Q 1159 2731 1159 2009 
Q 1159 1288 1364 580 
Q 1569 -128 1984 -844 
L 1484 -844 
Q 1016 -109 783 600 
Q 550 1309 550 2009 
Q 550 2706 781 3412 
Q 1013 4119 1484 4856 
L 1984 4856 
z
" transform="scale(0.015625)"/>
       <path id="DejaVuSans-6e" d="M 3513 2113 
L 3513 0 
L 2938 0 
L 2938 2094 
Q 2938 2591 2744 2837 
Q 2550 3084 2163 3084 
Q 1697 3084 1428 2787 
Q 1159 2491 1159 1978 
L 1159 0 
L 581 0 
L 581 3500 
L 1159 3500 
L 1159 2956 
Q 1366 3272 1645 3428 
Q 1925 3584 2291 3584 
Q 2894 3584 3203 3211 
Q 3513 2838 3513 2113 
z
" transform="scale(0.015625)"/>
       <path id="DejaVuSans-6d" d="M 3328 2828 
Q 3544 3216 3844 3400 
Q 4144 3584 4550 3584 
Q 5097 3584 5394 3201 
Q 5691 2819 5691 2113 
L 5691 0 
L 5113 0 
L 5113 2094 
Q 5113 2597 4934 2840 
Q 4756 3084 4391 3084 
Q 3944 3084 3684 2787 
Q 3425 2491 3425 1978 
L 3425 0 
L 2847 0 
L 2847 2094 
Q 2847 2600 2669 2842 
Q 2491 3084 2119 3084 
Q 1678 3084 1418 2786 
Q 1159 2488 1159 1978 
L 1159 0 
L 581 0 
L 581 3500 
L 1159 3500 
L 1159 2956 
Q 1356 3278 1631 3431 
Q 1906 3584 2284 3584 
Q 2666 3584 2933 3390 
Q 3200 3197 3328 2828 
z
" transform="scale(0.015625)"/>
       <path id="DejaVuSans-29" d="M 513 4856 
L 1013 4856 
Q 1481 4119 1714 3412 
Q 1947 2706 1947 2009 
Q 1947 1309 1714 600 
Q 1481 -109 1013 -844 
L 513 -844 
Q 928 -128 1133 580 
Q 1338 1288 1338 2009 
Q 1338 2731 1133 3434 
Q 928 4138 513 4856 
z
" transform="scale(0.015625)"/>
      </defs>
      <use xlink:href="#DejaVuSans-79"/>
      <use xlink:href="#DejaVuSans-20" x="59.179688"/>
      <use xlink:href="#DejaVuSans-28" x="90.966797"/>
      <use xlink:href="#DejaVuSans-6e" x="129.980469"/>
      <use xlink:href="#DejaVuSans-6d" x="193.359375"/>
      <use xlink:href="#DejaVuSans-29" x="290.771484"/>
     </g>
    </g>
   </g>
   <g id="matplotlib.axis_2">
    <g id="ytick_1">
     <g id="line2d_8">
      <defs>
       <path id="me8a713ff0b" d="M 0 0 
L -3.5 0 
" style="stroke: #000000; stroke-width: 0.8"/>
      </defs>
      <g>
       <use xlink:href="#me8a713ff0b" x="57.6" y="264.254112" style="stroke: #000000; stroke-width: 0.8"/>
      </g>
     </g>
     <g id="text_9">
      <!-- −1000 -->
      <g transform="translate(16.770313 268.053331)scale(0.1 -0.1)">
       <use xlink:href="#DejaVuSans-2212"/>
       <use xlink:href="#DejaVuSans-31" x="83.789062"/>
       <use xlink:href="#DejaVuSans-30" x="147.412109"/>
       <use xlink:href="#DejaVuSans-30" x="211.035156"/>
       <use xlink:href="#DejaVuSans-30" x="274.658203"/>
      </g>
     </g>
    </g>
    <g id="ytick_2">
     <g id="line2d_9">
      <g>
       <use xlink:href="#me8a713ff0b" x="57.6" y="219.391056" style="stroke: #000000; stroke-width: 0.8"/>
      </g>
     </g>
     <g id="text_10">
      <!-- −500 -->
      <g transform="translate(23.132812 223.190275)scale(0.1 -0.1)">
       <use xlink:href="#DejaVuSans-2212"/>
       <use xlink:href="#DejaVuSans-35" x="83.789062"/>
       <use xlink:href="#DejaVuSans-30" x="147.412109"/>
       <use xlink:href="#DejaVuSans-30" x="211.035156"/>
      </g>
     </g>
    </g>
    <g id="ytick_3">
     <g id="line2d_10">
      <g>
       <use xlink:href="#me8a713ff0b" x="57.6" y="174.528" style="stroke: #000000; stroke-width: 0.8"/>
      </g>
     </g>
     <g id="text_11">
      <!-- 0 -->
      <g transform="translate(44.2375 178.327219)scale(0.1 -0.1)">
       <use xlink:href="#DejaVuSans-30"/>
      </g>
     </g>
    </g>
    <g id="ytick_4">
     <g id="line2d_11">
      <g>
       <use xlink:href="#me8a713ff0b" x="57.6" y="129.664944" style="stroke: #000000; stroke-width: 0.8"/>
      </g>
     </g>
     <g id="text_12">
      <!-- 500 -->
      <g transform="translate(31.5125 133.464163)scale(0.1 -0.1)">
       <use xlink:href="#DejaVuSans-35"/>
       <use xlink:href="#DejaVuSans-30" x="63.623047"/>
       <use xlink:href="#DejaVuSans-30" x="127.246094"/>
      </g>
     </g>
    </g>
    <g id="ytick_5">
     <g id="line2d_12">
      <g>
       <use xlink:href="#me8a713ff0b" x="57.6" y="84.801888" style="stroke: #000000; stroke-width: 0.8"/>
      </g>
     </g>
     <g id="text_13">
      <!-- 1000 -->
      <g transform="translate(25.15 88.601107)scale(0.1 -0.1)">
       <use xlink:href="#DejaVuSans-31"/>
       <use xlink:href="#DejaVuSans-30" x="63.623047"/>
       <use xlink:href="#DejaVuSans-30" x="127.246094"/>
       <use xlink:href="#DejaVuSans-30" x="190.869141"/>
      </g>
     </g>
    </g>
    <g id="text_14">
     <!-- Fy (fN) -->
     <g transform="translate(10.690625 190.898313)rotate(-90)scale(0.1 -0.1)">
      <defs>
       <path id="DejaVuSans-46" d="M 628 4666 
L 3309 4666 
L 3309 4134 
L 1259 4134 
L 1259 2759 
L 3109 2759 
L 3109 2228 
L 1259 2228 
L 1259 0 
L 628 0 
L 628 4666 
z
" transform="scale(0.015625)"/>
       <path id="DejaVuSans-66" d="M 2375 4863 
L 2375 4384 
L 1825 4384 
Q 1516 4384 1395 4259 
Q 1275 4134 1275 3809 
L 1275 3500 
L 2222 3500 
L 2222 3053 
L 1275 3053 
L 1275 0 
L 697 0 
L 697 3053 
L 147 3053 
L 147 3500 
L 697 3500 
L 697 3744 
Q 697 4328 969 4595 
Q 1241 4863 1831 4863 
L 2375 4863 
z
" transform="scale(0.015625)"/>
       <path id="DejaVuSans-4e" d="M 628 4666 
L 1478 4666 
L 3547 763 
L 3547 4666 
L 4159 4666 
L 4159 0 
L 3309 0 
L 1241 3903 
L 1241 0 
L 628 0 
L 628 4666 
z
" transform="scale(0.015625)"/>
      </defs>
      <use xlink:href="#DejaVuSans-46"/>
      <use xlink:href="#DejaVuSans-79" x="48.394531"/>
      <use xlink:href="#DejaVuSans-20" x="107.574219"/>
      <use xlink:href="#DejaVuSans-28" x="139.361328"/>
      <use xlink:href="#DejaVuSans-66" x="178.375"/>
      <use xlink:href="#DejaVuSans-4e" x="213.580078"/>
      <use xlink:href="#DejaVuSans-29" x="288.384766"/>
     </g>
    </g>
   </g>
   <g id="line2d_13">
    <path d="M 73.832727 174.526781 
L 77.079273 174.526691 
L 80.325818 174.525595 
L 83.572364 174.523512 
L 86.818909 174.520729 
L 90.065455 174.517764 
L 93.312 174.515266 
L 96.558545 174.51385 
L 99.805091 174.513925 
L 103.051636 174.515545 
L 106.298182 174.518346 
L 109.544727 174.521602 
L 112.791273 174.524387 
L 116.037818 174.525829 
L 119.284364 174.525319 
L 122.530909 174.522549 
L 125.777455 174.517184 
L 129.024 174.507968 
L 132.270545 174.491107 
L 135.517091 174.457867 
L 138.763636 174.391422 
L 142.010182 174.263198 
L 145.256727 174.029113 
L 148.503273 173.626289 
L 151.749818 172.970972 
L 154.996364 171.95842 
L 158.242909 170.465481 
L 161.489455 168.356432 
L 164.736 165.49234 
L 167.982545 161.743813 
L 171.229091 157.006544 
L 174.475636 151.218575 
L 177.722182 144.377723 
L 180.968727 136.557331 
L 184.215273 127.918289 
L 187.461818 118.715379 
L 190.708364 109.296256 
L 193.954909 100.091948 
L 197.201455 91.598502 
L 200.448 84.350278 
L 203.694545 78.886324 
L 206.941091 75.712161 
L 210.187636 75.259971 
L 213.434182 77.850668 
L 216.680727 83.661405 
L 219.927273 92.701841 
L 223.173818 104.801833 
L 226.420364 119.6123 
L 229.666909 136.619844 
L 232.913455 155.1744 
L 236.16 174.528 
L 239.406545 193.8816 
L 242.653091 212.436156 
L 245.899636 229.4437 
L 249.146182 244.254167 
L 252.392727 256.354159 
L 255.639273 265.394595 
L 258.885818 271.205332 
L 262.132364 273.796029 
L 265.378909 273.343839 
L 268.625455 270.169676 
L 271.872 264.705722 
L 275.118545 257.457498 
L 278.365091 248.964052 
L 281.611636 239.759744 
L 284.858182 230.340621 
L 288.104727 221.137711 
L 291.351273 212.498669 
L 294.597818 204.678277 
L 297.844364 197.837425 
L 301.090909 192.049456 
L 304.337455 187.312187 
L 307.584 183.56366 
L 310.830545 180.699568 
L 314.077091 178.590519 
L 317.323636 177.09758 
L 320.570182 176.085028 
L 323.816727 175.429711 
L 327.063273 175.026887 
L 330.309818 174.792802 
L 333.556364 174.664578 
L 336.802909 174.598133 
L 340.049455 174.564893 
L 343.296 174.548032 
L 346.542545 174.538816 
L 349.789091 174.533451 
L 353.035636 174.530681 
L 356.282182 174.530171 
L 359.528727 174.531613 
L 362.775273 174.534398 
L 366.021818 174.537654 
L 369.268364 174.540455 
L 372.514909 174.542075 
L 375.761455 174.54215 
L 379.008 174.540734 
L 382.254545 174.538236 
L 385.501091 174.535271 
L 388.747636 174.532488 
L 391.994182 174.530405 
L 395.240727 174.529309 
L 398.487273 174.529219 
" clip-path="url(#pf5d662f90b)" style="fill: none; stroke: #1f77b4; stroke-width: 1.5; stroke-linecap: square"/>
   </g>
   <g id="line2d_14">
    <path d="M 215.869091 53.568 
L 216.274909 55.9872 
L 216.680727 58.4064 
L 217.086545 60.8256 
L 217.492364 63.2448 
L 217.898182 65.664 
L 218.304 68.0832 
L 218.709818 70.5024 
L 219.115636 72.9216 
L 219.521455 75.3408 
L 219.927273 77.76 
L 220.333091 80.1792 
L 220.738909 82.5984 
L 221.144727 85.0176 
L 221.550545 87.4368 
L 221.956364 89.856 
L 222.362182 92.2752 
L 222.768 94.6944 
L 223.173818 97.1136 
L 223.579636 99.5328 
L 223.985455 101.952 
L 224.391273 104.3712 
L 224.797091 106.7904 
L 225.202909 109.2096 
L 225.608727 111.6288 
L 226.014545 114.048 
L 226.420364 116.4672 
L 226.826182 118.8864 
L 227.232 121.3056 
L 227.637818 123.7248 
L 228.043636 126.144 
L 228.449455 128.5632 
L 228.855273 130.9824 
L 229.261091 133.4016 
L 229.666909 135.8208 
L 230.072727 138.24 
L 230.478545 140.6592 
L 230.884364 143.0784 
L 231.290182 145.4976 
L 231.696 147.9168 
L 232.101818 150.336 
L 232.507636 152.7552 
L 232.913455 155.1744 
L 233.319273 157.5936 
L 233.725091 160.0128 
L 234.130909 162.432 
L 234.536727 164.8512 
L 234.942545 167.2704 
L 235.348364 169.6896 
L 235.754182 172.1088 
L 236.16 174.528 
L 236.565818 176.9472 
L 236.971636 179.3664 
L 237.377455 181.7856 
L 237.783273 184.2048 
L 238.189091 186.624 
L 238.594909 189.0432 
L 239.000727 191.4624 
L 239.406545 193.8816 
L 239.812364 196.3008 
L 240.218182 198.72 
L 240.624 201.1392 
L 241.029818 203.5584 
L 241.435636 205.9776 
L 241.841455 208.3968 
L 242.247273 210.816 
L 242.653091 213.2352 
L 243.058909 215.6544 
L 243.464727 218.0736 
L 243.870545 220.4928 
L 244.276364 222.912 
L 244.682182 225.3312 
L 245.088 227.7504 
L 245.493818 230.1696 
L 245.899636 232.5888 
L 246.305455 235.008 
L 246.711273 237.4272 
L 247.117091 239.8464 
L 247.522909 242.2656 
L 247.928727 244.6848 
L 248.334545 247.104 
L 248.740364 249.5232 
L 249.146182 251.9424 
L 249.552 254.3616 
L 249.957818 256.7808 
L 250.363636 259.2 
L 250.769455 261.6192 
L 251.175273 264.0384 
L 251.581091 266.4576 
L 251.986909 268.8768 
L 252.392727 271.296 
L 252.798545 273.7152 
L 253.204364 276.1344 
L 253.610182 278.5536 
L 254.016 280.9728 
L 254.421818 283.392 
L 254.827636 285.8112 
L 255.233455 288.2304 
L 255.639273 290.6496 
L 256.045091 293.0688 
L 256.450909 295.488 
" clip-path="url(#pf5d662f90b)" style="fill: none; stroke-dasharray: 5.55,2.4; stroke-dashoffset: 0; stroke: #ff7f0e; stroke-width: 1.5"/>
   </g>
   <g id="patch_3">
    <path d="M 57.6 307.584 
L 57.6 41.472 
" style="fill: none; stroke: #000000; stroke-width: 0.8; stroke-linejoin: miter; stroke-linecap: square"/>
   </g>
   <g id="patch_4">
    <path d="M 414.72 307.584 
L 414.72 41.472 
" style="fill: none; stroke: #000000; stroke-width: 0.8; stroke-linejoin: miter; stroke-linecap: square"/>
   </g>
   <g id="patch_5">
    <path d="M 57.6 307.584 
L 414.72 307.584 
" style="fill: none; stroke: #000000; stroke-width: 0.8; stroke-linejoin: miter; stroke-linecap: square"/>
   </g>
   <g id="patch_6">
    <path d="M 57.6 41.472 
L 414.72 41.472 
" style="fill: none; stroke: #000000; stroke-width: 0.8; stroke-linejoin: miter; stroke-linecap: square"/>
   </g>
   <g id="text_15">
    <!-- $y-axis, \lambda_0 = 1000 nm, \lambda = \lambda_0/1.33, w0 = \lambda/ 2, I_0 = 25 GW/m^2$ -->
    <g transform="translate(63.12 35.472)scale(0.12 -0.12)">
     <defs>
      <path id="DejaVuSans-Oblique-79" d="M 1588 -325 
Q 1188 -997 936 -1164 
Q 684 -1331 294 -1331 
L -159 -1331 
L -63 -850 
L 269 -850 
Q 509 -850 678 -719 
Q 847 -588 1056 -206 
L 1234 128 
L 459 3500 
L 1069 3500 
L 1650 819 
L 3256 3500 
L 3859 3500 
L 1588 -325 
z
" transform="scale(0.015625)"/>
      <path id="DejaVuSans-Oblique-61" d="M 3438 1997 
L 3047 0 
L 2472 0 
L 2578 531 
Q 2325 219 2001 64 
Q 1678 -91 1281 -91 
Q 834 -91 548 182 
Q 263 456 263 884 
Q 263 1497 752 1853 
Q 1241 2209 2100 2209 
L 2900 2209 
L 2931 2363 
Q 2938 2388 2941 2417 
Q 2944 2447 2944 2509 
Q 2944 2788 2717 2942 
Q 2491 3097 2081 3097 
Q 1800 3097 1504 3025 
Q 1209 2953 897 2809 
L 997 3341 
Q 1322 3463 1633 3523 
Q 1944 3584 2234 3584 
Q 2853 3584 3176 3315 
Q 3500 3047 3500 2534 
Q 3500 2431 3484 2292 
Q 3469 2153 3438 1997 
z
M 2816 1759 
L 2241 1759 
Q 1534 1759 1195 1570 
Q 856 1381 856 984 
Q 856 709 1029 553 
Q 1203 397 1509 397 
Q 1978 397 2328 733 
Q 2678 1069 2791 1631 
L 2816 1759 
z
" transform="scale(0.015625)"/>
      <path id="DejaVuSans-Oblique-78" d="M 3841 3500 
L 2234 1784 
L 3219 0 
L 2559 0 
L 1819 1388 
L 531 0 
L -166 0 
L 1556 1844 
L 641 3500 
L 1300 3500 
L 1972 2234 
L 3144 3500 
L 3841 3500 
z
" transform="scale(0.015625)"/>
      <path id="DejaVuSans-Oblique-69" d="M 1172 4863 
L 1747 4863 
L 1606 4134 
L 1031 4134 
L 1172 4863 
z
M 909 3500 
L 1484 3500 
L 800 0 
L 225 0 
L 909 3500 
z
" transform="scale(0.015625)"/>
      <path id="DejaVuSans-Oblique-73" d="M 3200 3397 
L 3091 2853 
Q 2863 2978 2609 3040 
Q 2356 3103 2088 3103 
Q 1634 3103 1373 2948 
Q 1113 2794 1113 2528 
Q 1113 2219 1719 2053 
Q 1766 2041 1788 2034 
L 1972 1978 
Q 2547 1819 2739 1644 
Q 2931 1469 2931 1166 
Q 2931 609 2489 259 
Q 2047 -91 1331 -91 
Q 1053 -91 747 -37 
Q 441 16 72 128 
L 184 722 
Q 500 559 806 475 
Q 1113 391 1394 391 
Q 1816 391 2080 572 
Q 2344 753 2344 1031 
Q 2344 1331 1650 1516 
L 1591 1531 
L 1394 1581 
Q 956 1697 753 1886 
Q 550 2075 550 2369 
Q 550 2928 970 3256 
Q 1391 3584 2113 3584 
Q 2397 3584 2667 3537 
Q 2938 3491 3200 3397 
z
" transform="scale(0.015625)"/>
      <path id="DejaVuSans-2c" d="M 750 794 
L 1409 794 
L 1409 256 
L 897 -744 
L 494 -744 
L 750 256 
L 750 794 
z
" transform="scale(0.015625)"/>
      <path id="DejaVuSans-Oblique-3bb" d="M 2350 4316 
L 3125 0 
L 2516 0 
L 2038 2588 
L 328 0 
L -281 0 
L 1903 3356 
L 1794 3975 
Q 1725 4369 1391 4369 
L 1091 4369 
L 1184 4863 
L 1550 4856 
Q 2253 4847 2350 4316 
z
" transform="scale(0.015625)"/>
      <path id="DejaVuSans-3d" d="M 678 2906 
L 4684 2906 
L 4684 2381 
L 678 2381 
L 678 2906 
z
M 678 1631 
L 4684 1631 
L 4684 1100 
L 678 1100 
L 678 1631 
z
" transform="scale(0.015625)"/>
      <path id="DejaVuSans-Oblique-6e" d="M 3566 2113 
L 3156 0 
L 2578 0 
L 2988 2091 
Q 3016 2238 3031 2350 
Q 3047 2463 3047 2528 
Q 3047 2791 2881 2937 
Q 2716 3084 2419 3084 
Q 1956 3084 1622 2776 
Q 1288 2469 1184 1941 
L 800 0 
L 225 0 
L 903 3500 
L 1478 3500 
L 1363 2950 
Q 1603 3253 1940 3418 
Q 2278 3584 2650 3584 
Q 3113 3584 3367 3334 
Q 3622 3084 3622 2631 
Q 3622 2519 3608 2391 
Q 3594 2263 3566 2113 
z
" transform="scale(0.015625)"/>
      <path id="DejaVuSans-Oblique-6d" d="M 5747 2113 
L 5338 0 
L 4763 0 
L 5166 2094 
Q 5191 2228 5203 2325 
Q 5216 2422 5216 2491 
Q 5216 2772 5059 2928 
Q 4903 3084 4622 3084 
Q 4203 3084 3875 2770 
Q 3547 2456 3450 1953 
L 3066 0 
L 2491 0 
L 2900 2094 
Q 2925 2209 2937 2307 
Q 2950 2406 2950 2484 
Q 2950 2769 2794 2926 
Q 2638 3084 2363 3084 
Q 1938 3084 1609 2770 
Q 1281 2456 1184 1953 
L 800 0 
L 225 0 
L 909 3500 
L 1484 3500 
L 1375 2956 
Q 1609 3263 1923 3423 
Q 2238 3584 2597 3584 
Q 2978 3584 3223 3384 
Q 3469 3184 3519 2828 
Q 3781 3197 4126 3390 
Q 4472 3584 4856 3584 
Q 5306 3584 5551 3325 
Q 5797 3066 5797 2591 
Q 5797 2488 5784 2364 
Q 5772 2241 5747 2113 
z
" transform="scale(0.015625)"/>
      <path id="DejaVuSans-2f" d="M 1625 4666 
L 2156 4666 
L 531 -594 
L 0 -594 
L 1625 4666 
z
" transform="scale(0.015625)"/>
      <path id="DejaVuSans-2e" d="M 684 794 
L 1344 794 
L 1344 0 
L 684 0 
L 684 794 
z
" transform="scale(0.015625)"/>
      <path id="DejaVuSans-33" d="M 2597 2516 
Q 3050 2419 3304 2112 
Q 3559 1806 3559 1356 
Q 3559 666 3084 287 
Q 2609 -91 1734 -91 
Q 1441 -91 1130 -33 
Q 819 25 488 141 
L 488 750 
Q 750 597 1062 519 
Q 1375 441 1716 441 
Q 2309 441 2620 675 
Q 2931 909 2931 1356 
Q 2931 1769 2642 2001 
Q 2353 2234 1838 2234 
L 1294 2234 
L 1294 2753 
L 1863 2753 
Q 2328 2753 2575 2939 
Q 2822 3125 2822 3475 
Q 2822 3834 2567 4026 
Q 2313 4219 1838 4219 
Q 1578 4219 1281 4162 
Q 984 4106 628 3988 
L 628 4550 
Q 988 4650 1302 4700 
Q 1616 4750 1894 4750 
Q 2613 4750 3031 4423 
Q 3450 4097 3450 3541 
Q 3450 3153 3228 2886 
Q 3006 2619 2597 2516 
z
" transform="scale(0.015625)"/>
      <path id="DejaVuSans-Oblique-77" d="M 544 3500 
L 1113 3500 
L 1259 684 
L 2566 3500 
L 3231 3500 
L 3425 684 
L 4666 3500 
L 5241 3500 
L 3641 0 
L 2969 0 
L 2797 2900 
L 1459 0 
L 781 0 
L 544 3500 
z
" transform="scale(0.015625)"/>
      <path id="DejaVuSans-32" d="M 1228 531 
L 3431 531 
L 3431 0 
L 469 0 
L 469 531 
Q 828 903 1448 1529 
Q 2069 2156 2228 2338 
Q 2531 2678 2651 2914 
Q 2772 3150 2772 3378 
Q 2772 3750 2511 3984 
Q 2250 4219 1831 4219 
Q 1534 4219 1204 4116 
Q 875 4013 500 3803 
L 500 4441 
Q 881 4594 1212 4672 
Q 1544 4750 1819 4750 
Q 2544 4750 2975 4387 
Q 3406 4025 3406 3419 
Q 3406 3131 3298 2873 
Q 3191 2616 2906 2266 
Q 2828 2175 2409 1742 
Q 1991 1309 1228 531 
z
" transform="scale(0.015625)"/>
      <path id="DejaVuSans-Oblique-49" d="M 1081 4666 
L 1716 4666 
L 806 0 
L 172 0 
L 1081 4666 
z
" transform="scale(0.015625)"/>
      <path id="DejaVuSans-Oblique-47" d="M 3494 697 
L 3738 1919 
L 2700 1919 
L 2797 2438 
L 4453 2438 
L 4050 384 
Q 3634 156 3143 32 
Q 2653 -91 2156 -91 
Q 1278 -91 783 396 
Q 288 884 288 1753 
Q 288 2475 589 3126 
Q 891 3778 1422 4213 
Q 1756 4484 2153 4617 
Q 2550 4750 3034 4750 
Q 3472 4750 3873 4639 
Q 4275 4528 4641 4306 
L 4513 3634 
Q 4231 3928 3853 4083 
Q 3475 4238 3047 4238 
Q 2550 4238 2172 4048 
Q 1794 3859 1497 3463 
Q 1244 3125 1098 2667 
Q 953 2209 953 1734 
Q 953 1081 1287 751 
Q 1622 422 2284 422 
Q 2616 422 2925 492 
Q 3234 563 3494 697 
z
" transform="scale(0.015625)"/>
      <path id="DejaVuSans-Oblique-57" d="M 616 4666 
L 1228 4666 
L 1453 697 
L 3213 4666 
L 3916 4666 
L 4147 697 
L 5888 4666 
L 6528 4666 
L 4453 0 
L 3659 0 
L 3444 3891 
L 1697 0 
L 903 0 
L 616 4666 
z
" transform="scale(0.015625)"/>
     </defs>
     <use xlink:href="#DejaVuSans-Oblique-79" transform="translate(0 0.765625)"/>
     <use xlink:href="#DejaVuSans-2212" transform="translate(78.662109 0.765625)"/>
     <use xlink:href="#DejaVuSans-Oblique-61" transform="translate(181.933594 0.765625)"/>
     <use xlink:href="#DejaVuSans-Oblique-78" transform="translate(243.212891 0.765625)"/>
     <use xlink:href="#DejaVuSans-Oblique-69" transform="translate(302.392578 0.765625)"/>
     <use xlink:href="#DejaVuSans-Oblique-73" transform="translate(330.175781 0.765625)"/>
     <use xlink:href="#DejaVuSans-2c" transform="translate(382.275391 0.765625)"/>
     <use xlink:href="#DejaVuSans-Oblique-3bb" transform="translate(433.544922 0.765625)"/>
     <use xlink:href="#DejaVuSans-30" transform="translate(492.724609 -15.640625)scale(0.7)"/>
     <use xlink:href="#DejaVuSans-3d" transform="translate(559.477539 0.765625)"/>
     <use xlink:href="#DejaVuSans-31" transform="translate(662.749023 0.765625)"/>
     <use xlink:href="#DejaVuSans-30" transform="translate(726.37207 0.765625)"/>
     <use xlink:href="#DejaVuSans-30" transform="translate(789.995117 0.765625)"/>
     <use xlink:href="#DejaVuSans-30" transform="translate(853.618164 0.765625)"/>
     <use xlink:href="#DejaVuSans-Oblique-6e" transform="translate(917.241211 0.765625)"/>
     <use xlink:href="#DejaVuSans-Oblique-6d" transform="translate(980.620117 0.765625)"/>
     <use xlink:href="#DejaVuSans-2c" transform="translate(1078.032227 0.765625)"/>
     <use xlink:href="#DejaVuSans-Oblique-3bb" transform="translate(1129.301758 0.765625)"/>
     <use xlink:href="#DejaVuSans-3d" transform="translate(1207.963867 0.765625)"/>
     <use xlink:href="#DejaVuSans-Oblique-3bb" transform="translate(1311.235352 0.765625)"/>
     <use xlink:href="#DejaVuSans-30" transform="translate(1370.415039 -15.640625)scale(0.7)"/>
     <use xlink:href="#DejaVuSans-2f" transform="translate(1417.685547 0.765625)"/>
     <use xlink:href="#DejaVuSans-31" transform="translate(1451.376953 0.765625)"/>
     <use xlink:href="#DejaVuSans-2e" transform="translate(1515 0.765625)"/>
     <use xlink:href="#DejaVuSans-33" transform="translate(1546.787109 0.765625)"/>
     <use xlink:href="#DejaVuSans-33" transform="translate(1610.410156 0.765625)"/>
     <use xlink:href="#DejaVuSans-2c" transform="translate(1674.033203 0.765625)"/>
     <use xlink:href="#DejaVuSans-Oblique-77" transform="translate(1725.302734 0.765625)"/>
     <use xlink:href="#DejaVuSans-30" transform="translate(1807.089844 0.765625)"/>
     <use xlink:href="#DejaVuSans-3d" transform="translate(1890.195312 0.765625)"/>
     <use xlink:href="#DejaVuSans-Oblique-3bb" transform="translate(1993.466797 0.765625)"/>
     <use xlink:href="#DejaVuSans-2f" transform="translate(2052.646484 0.765625)"/>
     <use xlink:href="#DejaVuSans-32" transform="translate(2082.712891 0.765625)"/>
     <use xlink:href="#DejaVuSans-2c" transform="translate(2146.335938 0.765625)"/>
     <use xlink:href="#DejaVuSans-Oblique-49" transform="translate(2197.605469 0.765625)"/>
     <use xlink:href="#DejaVuSans-30" transform="translate(2227.097656 -15.640625)scale(0.7)"/>
     <use xlink:href="#DejaVuSans-3d" transform="translate(2293.850586 0.765625)"/>
     <use xlink:href="#DejaVuSans-32" transform="translate(2397.12207 0.765625)"/>
     <use xlink:href="#DejaVuSans-35" transform="translate(2460.745117 0.765625)"/>
     <use xlink:href="#DejaVuSans-Oblique-47" transform="translate(2524.368164 0.765625)"/>
     <use xlink:href="#DejaVuSans-Oblique-57" transform="translate(2601.858398 0.765625)"/>
     <use xlink:href="#DejaVuSans-2f" transform="translate(2700.735352 0.765625)"/>
     <use xlink:href="#DejaVuSans-Oblique-6d" transform="translate(2734.426758 0.765625)"/>
     <use xlink:href="#DejaVuSans-32" transform="translate(2836.488763 39.046875)scale(0.7)"/>
    </g>
   </g>
   <g id="legend_1">
    <g id="patch_7">
     <path d="M 293.745 64.150125 
L 407.72 64.150125 
Q 409.72 64.150125 409.72 62.150125 
L 409.72 48.472 
Q 409.72 46.472 407.72 46.472 
L 293.745 46.472 
Q 291.745 46.472 291.745 48.472 
L 291.745 62.150125 
Q 291.745 64.150125 293.745 64.150125 
z
" style="fill: #ffffff; opacity: 0.8; stroke: #cccccc; stroke-linejoin: miter"/>
    </g>
    <g id="line2d_15">
     <path d="M 295.745 54.570438 
L 305.745 54.570438 
L 315.745 54.570438 
" style="fill: none; stroke-dasharray: 5.55,2.4; stroke-dashoffset: 0; stroke: #ff7f0e; stroke-width: 1.5"/>
    </g>
    <g id="text_16">
     <!-- ky = 7.17 fN/nm -->
     <g transform="translate(323.745 58.070438)scale(0.1 -0.1)">
      <defs>
       <path id="DejaVuSans-6b" d="M 581 4863 
L 1159 4863 
L 1159 1991 
L 2875 3500 
L 3609 3500 
L 1753 1863 
L 3688 0 
L 2938 0 
L 1159 1709 
L 1159 0 
L 581 0 
L 581 4863 
z
" transform="scale(0.015625)"/>
       <path id="DejaVuSans-37" d="M 525 4666 
L 3525 4666 
L 3525 4397 
L 1831 0 
L 1172 0 
L 2766 4134 
L 525 4134 
L 525 4666 
z
" transform="scale(0.015625)"/>
      </defs>
      <use xlink:href="#DejaVuSans-6b"/>
      <use xlink:href="#DejaVuSans-79" x="54.285156"/>
      <use xlink:href="#DejaVuSans-20" x="113.464844"/>
      <use xlink:href="#DejaVuSans-3d" x="145.251953"/>
      <use xlink:href="#DejaVuSans-20" x="229.041016"/>
      <use xlink:href="#DejaVuSans-37" x="260.828125"/>
      <use xlink:href="#DejaVuSans-2e" x="324.451172"/>
      <use xlink:href="#DejaVuSans-31" x="356.238281"/>
      <use xlink:href="#DejaVuSans-37" x="419.861328"/>
      <use xlink:href="#DejaVuSans-20" x="483.484375"/>
      <use xlink:href="#DejaVuSans-66" x="515.271484"/>
      <use xlink:href="#DejaVuSans-4e" x="550.476562"/>
      <use xlink:href="#DejaVuSans-2f" x="625.28125"/>
      <use xlink:href="#DejaVuSans-6e" x="658.972656"/>
      <use xlink:href="#DejaVuSans-6d" x="722.351562"/>
     </g>
    </g>
   </g>
  </g>
 </g>
 <defs>
  <clipPath id="pf5d662f90b">
   <rect x="57.6" y="41.472" width="357.12" height="266.112"/>
  </clipPath>
 </defs>
</svg>
