<?xml version="1.0" encoding="utf-8" standalone="no"?>
<!DOCTYPE svg PUBLIC "-//W3C//DTD SVG 1.1//EN"
  "http://www.w3.org/Graphics/SVG/1.1/DTD/svg11.dtd">
<svg xmlns:xlink="http://www.w3.org/1999/xlink" width="460.8pt" height="345.6pt" viewBox="0 0 460.8 345.6" xmlns="http://www.w3.org/2000/svg" version="1.1">
 <metadata>
  <rdf:RDF xmlns:dc="http://purl.org/dc/elements/1.1/" xmlns:cc="http://creativecommons.org/ns#" xmlns:rdf="http://www.w3.org/1999/02/22-rdf-syntax-ns#">
   <cc:Work>
    <dc:type rdf:resource="http://purl.org/dc/dcmitype/StillImage"/>
    <dc:date>2023-09-12T15:07:43.416367</dc:date>
    <dc:format>image/svg+xml</dc:format>
    <dc:creator>
     <cc:Agent>
      <dc:title>Matplotlib v3.5.1, https://matplotlib.org/</dc:title>
     </cc:Agent>
    </dc:creator>
   </cc:Work>
  </rdf:RDF>
 </metadata>
 <defs>
  <style type="text/css">*{stroke-linejoin: round; stroke-linecap: butt}</style>
 </defs>
 <g id="figure_1">
  <g id="patch_1">
   <path d="M 0 345.6 
L 460.8 345.6 
L 460.8 0 
L 0 0 
z
" style="fill: #ffffff"/>
  </g>
  <g id="axes_1">
   <g id="patch_2">
    <path d="M 55.880346 303.64 
L 450 303.64 
L 450 32.4 
L 55.880346 32.4 
z
" style="fill: #ffffff"/>
   </g>
   <g id="matplotlib.axis_1">
    <g id="xtick_1">
     <g id="line2d_1">
      <defs>
       <path id="m3ce87ccba2" d="M 0 0 
L 0 3.5 
" style="stroke: #000000; stroke-width: 0.8"/>
      </defs>
      <g>
       <use xlink:href="#m3ce87ccba2" x="113.604942" y="303.64" style="stroke: #000000; stroke-width: 0.8"/>
      </g>
     </g>
     <g id="text_1">
      <!-- 20 -->
      <g transform="translate(107.242442 318.238437)scale(0.1 -0.1)">
       <defs>
        <path id="DejaVuSans-32" d="M 1228 531 
L 3431 531 
L 3431 0 
L 469 0 
L 469 531 
Q 828 903 1448 1529 
Q 2069 2156 2228 2338 
Q 2531 2678 2651 2914 
Q 2772 3150 2772 3378 
Q 2772 3750 2511 3984 
Q 2250 4219 1831 4219 
Q 1534 4219 1204 4116 
Q 875 4013 500 3803 
L 500 4441 
Q 881 4594 1212 4672 
Q 1544 4750 1819 4750 
Q 2544 4750 2975 4387 
Q 3406 4025 3406 3419 
Q 3406 3131 3298 2873 
Q 3191 2616 2906 2266 
Q 2828 2175 2409 1742 
Q 1991 1309 1228 531 
z
" transform="scale(0.015625)"/>
        <path id="DejaVuSans-30" d="M 2034 4250 
Q 1547 4250 1301 3770 
Q 1056 3291 1056 2328 
Q 1056 1369 1301 889 
Q 1547 409 2034 409 
Q 2525 409 2770 889 
Q 3016 1369 3016 2328 
Q 3016 3291 2770 3770 
Q 2525 4250 2034 4250 
z
M 2034 4750 
Q 2819 4750 3233 4129 
Q 3647 3509 3647 2328 
Q 3647 1150 3233 529 
Q 2819 -91 2034 -91 
Q 1250 -91 836 529 
Q 422 1150 422 2328 
Q 422 3509 836 4129 
Q 1250 4750 2034 4750 
z
" transform="scale(0.015625)"/>
       </defs>
       <use xlink:href="#DejaVuSans-32"/>
       <use xlink:href="#DejaVuSans-30" x="63.623047"/>
      </g>
     </g>
    </g>
    <g id="xtick_2">
     <g id="line2d_2">
      <g>
       <use xlink:href="#m3ce87ccba2" x="193.225074" y="303.64" style="stroke: #000000; stroke-width: 0.8"/>
      </g>
     </g>
     <g id="text_2">
      <!-- 40 -->
      <g transform="translate(186.862574 318.238437)scale(0.1 -0.1)">
       <defs>
        <path id="DejaVuSans-34" d="M 2419 4116 
L 825 1625 
L 2419 1625 
L 2419 4116 
z
M 2253 4666 
L 3047 4666 
L 3047 1625 
L 3713 1625 
L 3713 1100 
L 3047 1100 
L 3047 0 
L 2419 0 
L 2419 1100 
L 313 1100 
L 313 1709 
L 2253 4666 
z
" transform="scale(0.015625)"/>
       </defs>
       <use xlink:href="#DejaVuSans-34"/>
       <use xlink:href="#DejaVuSans-30" x="63.623047"/>
      </g>
     </g>
    </g>
    <g id="xtick_3">
     <g id="line2d_3">
      <g>
       <use xlink:href="#m3ce87ccba2" x="272.845206" y="303.64" style="stroke: #000000; stroke-width: 0.8"/>
      </g>
     </g>
     <g id="text_3">
      <!-- 60 -->
      <g transform="translate(266.482706 318.238437)scale(0.1 -0.1)">
       <defs>
        <path id="DejaVuSans-36" d="M 2113 2584 
Q 1688 2584 1439 2293 
Q 1191 2003 1191 1497 
Q 1191 994 1439 701 
Q 1688 409 2113 409 
Q 2538 409 2786 701 
Q 3034 994 3034 1497 
Q 3034 2003 2786 2293 
Q 2538 2584 2113 2584 
z
M 3366 4563 
L 3366 3988 
Q 3128 4100 2886 4159 
Q 2644 4219 2406 4219 
Q 1781 4219 1451 3797 
Q 1122 3375 1075 2522 
Q 1259 2794 1537 2939 
Q 1816 3084 2150 3084 
Q 2853 3084 3261 2657 
Q 3669 2231 3669 1497 
Q 3669 778 3244 343 
Q 2819 -91 2113 -91 
Q 1303 -91 875 529 
Q 447 1150 447 2328 
Q 447 3434 972 4092 
Q 1497 4750 2381 4750 
Q 2619 4750 2861 4703 
Q 3103 4656 3366 4563 
z
" transform="scale(0.015625)"/>
       </defs>
       <use xlink:href="#DejaVuSans-36"/>
       <use xlink:href="#DejaVuSans-30" x="63.623047"/>
      </g>
     </g>
    </g>
    <g id="xtick_4">
     <g id="line2d_4">
      <g>
       <use xlink:href="#m3ce87ccba2" x="352.465338" y="303.64" style="stroke: #000000; stroke-width: 0.8"/>
      </g>
     </g>
     <g id="text_4">
      <!-- 80 -->
      <g transform="translate(346.102838 318.238437)scale(0.1 -0.1)">
       <defs>
        <path id="DejaVuSans-38" d="M 2034 2216 
Q 1584 2216 1326 1975 
Q 1069 1734 1069 1313 
Q 1069 891 1326 650 
Q 1584 409 2034 409 
Q 2484 409 2743 651 
Q 3003 894 3003 1313 
Q 3003 1734 2745 1975 
Q 2488 2216 2034 2216 
z
M 1403 2484 
Q 997 2584 770 2862 
Q 544 3141 544 3541 
Q 544 4100 942 4425 
Q 1341 4750 2034 4750 
Q 2731 4750 3128 4425 
Q 3525 4100 3525 3541 
Q 3525 3141 3298 2862 
Q 3072 2584 2669 2484 
Q 3125 2378 3379 2068 
Q 3634 1759 3634 1313 
Q 3634 634 3220 271 
Q 2806 -91 2034 -91 
Q 1263 -91 848 271 
Q 434 634 434 1313 
Q 434 1759 690 2068 
Q 947 2378 1403 2484 
z
M 1172 3481 
Q 1172 3119 1398 2916 
Q 1625 2713 2034 2713 
Q 2441 2713 2670 2916 
Q 2900 3119 2900 3481 
Q 2900 3844 2670 4047 
Q 2441 4250 2034 4250 
Q 1625 4250 1398 4047 
Q 1172 3844 1172 3481 
z
" transform="scale(0.015625)"/>
       </defs>
       <use xlink:href="#DejaVuSans-38"/>
       <use xlink:href="#DejaVuSans-30" x="63.623047"/>
      </g>
     </g>
    </g>
    <g id="xtick_5">
     <g id="line2d_5">
      <g>
       <use xlink:href="#m3ce87ccba2" x="432.08547" y="303.64" style="stroke: #000000; stroke-width: 0.8"/>
      </g>
     </g>
     <g id="text_5">
      <!-- 100 -->
      <g transform="translate(422.54172 318.238437)scale(0.1 -0.1)">
       <defs>
        <path id="DejaVuSans-31" d="M 794 531 
L 1825 531 
L 1825 4091 
L 703 3866 
L 703 4441 
L 1819 4666 
L 2450 4666 
L 2450 531 
L 3481 531 
L 3481 0 
L 794 0 
L 794 531 
z
" transform="scale(0.015625)"/>
       </defs>
       <use xlink:href="#DejaVuSans-31"/>
       <use xlink:href="#DejaVuSans-30" x="63.623047"/>
       <use xlink:href="#DejaVuSans-30" x="127.246094"/>
      </g>
     </g>
    </g>
    <g id="text_6">
     <!-- z (nm) -->
     <g transform="translate(236.786267 331.916562)scale(0.1 -0.1)">
      <defs>
       <path id="DejaVuSans-7a" d="M 353 3500 
L 3084 3500 
L 3084 2975 
L 922 459 
L 3084 459 
L 3084 0 
L 275 0 
L 275 525 
L 2438 3041 
L 353 3041 
L 353 3500 
z
" transform="scale(0.015625)"/>
       <path id="DejaVuSans-20" transform="scale(0.015625)"/>
       <path id="DejaVuSans-28" d="M 1984 4856 
Q 1566 4138 1362 3434 
Q 1159 2731 1159 2009 
Q 1159 1288 1364 580 
Q 1569 -128 1984 -844 
L 1484 -844 
Q 1016 -109 783 600 
Q 550 1309 550 2009 
Q 550 2706 781 3412 
Q 1013 4119 1484 4856 
L 1984 4856 
z
" transform="scale(0.015625)"/>
       <path id="DejaVuSans-6e" d="M 3513 2113 
L 3513 0 
L 2938 0 
L 2938 2094 
Q 2938 2591 2744 2837 
Q 2550 3084 2163 3084 
Q 1697 3084 1428 2787 
Q 1159 2491 1159 1978 
L 1159 0 
L 581 0 
L 581 3500 
L 1159 3500 
L 1159 2956 
Q 1366 3272 1645 3428 
Q 1925 3584 2291 3584 
Q 2894 3584 3203 3211 
Q 3513 2838 3513 2113 
z
" transform="scale(0.015625)"/>
       <path id="DejaVuSans-6d" d="M 3328 2828 
Q 3544 3216 3844 3400 
Q 4144 3584 4550 3584 
Q 5097 3584 5394 3201 
Q 5691 2819 5691 2113 
L 5691 0 
L 5113 0 
L 5113 2094 
Q 5113 2597 4934 2840 
Q 4756 3084 4391 3084 
Q 3944 3084 3684 2787 
Q 3425 2491 3425 1978 
L 3425 0 
L 2847 0 
L 2847 2094 
Q 2847 2600 2669 2842 
Q 2491 3084 2119 3084 
Q 1678 3084 1418 2786 
Q 1159 2488 1159 1978 
L 1159 0 
L 581 0 
L 581 3500 
L 1159 3500 
L 1159 2956 
Q 1356 3278 1631 3431 
Q 1906 3584 2284 3584 
Q 2666 3584 2933 3390 
Q 3200 3197 3328 2828 
z
" transform="scale(0.015625)"/>
       <path id="DejaVuSans-29" d="M 513 4856 
L 1013 4856 
Q 1481 4119 1714 3412 
Q 1947 2706 1947 2009 
Q 1947 1309 1714 600 
Q 1481 -109 1013 -844 
L 513 -844 
Q 928 -128 1133 580 
Q 1338 1288 1338 2009 
Q 1338 2731 1133 3434 
Q 928 4138 513 4856 
z
" transform="scale(0.015625)"/>
      </defs>
      <use xlink:href="#DejaVuSans-7a"/>
      <use xlink:href="#DejaVuSans-20" x="52.490234"/>
      <use xlink:href="#DejaVuSans-28" x="84.277344"/>
      <use xlink:href="#DejaVuSans-6e" x="123.291016"/>
      <use xlink:href="#DejaVuSans-6d" x="186.669922"/>
      <use xlink:href="#DejaVuSans-29" x="284.082031"/>
     </g>
    </g>
   </g>
   <g id="matplotlib.axis_2">
    <g id="ytick_1">
     <g id="line2d_6">
      <defs>
       <path id="m7eefaff6fa" d="M 0 0 
L -3.5 0 
" style="stroke: #000000; stroke-width: 0.8"/>
      </defs>
      <g>
       <use xlink:href="#m7eefaff6fa" x="55.880346" y="296.726963" style="stroke: #000000; stroke-width: 0.8"/>
      </g>
     </g>
     <g id="text_7">
      <!-- $\mathdefault{10^{-3}}$ -->
      <g transform="translate(25.380346 300.526181)scale(0.1 -0.1)">
       <defs>
        <path id="DejaVuSans-2212" d="M 678 2272 
L 4684 2272 
L 4684 1741 
L 678 1741 
L 678 2272 
z
" transform="scale(0.015625)"/>
        <path id="DejaVuSans-33" d="M 2597 2516 
Q 3050 2419 3304 2112 
Q 3559 1806 3559 1356 
Q 3559 666 3084 287 
Q 2609 -91 1734 -91 
Q 1441 -91 1130 -33 
Q 819 25 488 141 
L 488 750 
Q 750 597 1062 519 
Q 1375 441 1716 441 
Q 2309 441 2620 675 
Q 2931 909 2931 1356 
Q 2931 1769 2642 2001 
Q 2353 2234 1838 2234 
L 1294 2234 
L 1294 2753 
L 1863 2753 
Q 2328 2753 2575 2939 
Q 2822 3125 2822 3475 
Q 2822 3834 2567 4026 
Q 2313 4219 1838 4219 
Q 1578 4219 1281 4162 
Q 984 4106 628 3988 
L 628 4550 
Q 988 4650 1302 4700 
Q 1616 4750 1894 4750 
Q 2613 4750 3031 4423 
Q 3450 4097 3450 3541 
Q 3450 3153 3228 2886 
Q 3006 2619 2597 2516 
z
" transform="scale(0.015625)"/>
       </defs>
       <use xlink:href="#DejaVuSans-31" transform="translate(0 0.765625)"/>
       <use xlink:href="#DejaVuSans-30" transform="translate(63.623047 0.765625)"/>
       <use xlink:href="#DejaVuSans-2212" transform="translate(128.203125 39.046875)scale(0.7)"/>
       <use xlink:href="#DejaVuSans-33" transform="translate(186.855469 39.046875)scale(0.7)"/>
      </g>
     </g>
    </g>
    <g id="ytick_2">
     <g id="line2d_7">
      <g>
       <use xlink:href="#m7eefaff6fa" x="55.880346" y="248.366336" style="stroke: #000000; stroke-width: 0.8"/>
      </g>
     </g>
     <g id="text_8">
      <!-- $\mathdefault{10^{-2}}$ -->
      <g transform="translate(25.380346 252.165554)scale(0.1 -0.1)">
       <use xlink:href="#DejaVuSans-31" transform="translate(0 0.765625)"/>
       <use xlink:href="#DejaVuSans-30" transform="translate(63.623047 0.765625)"/>
       <use xlink:href="#DejaVuSans-2212" transform="translate(128.203125 39.046875)scale(0.7)"/>
       <use xlink:href="#DejaVuSans-32" transform="translate(186.855469 39.046875)scale(0.7)"/>
      </g>
     </g>
    </g>
    <g id="ytick_3">
     <g id="line2d_8">
      <g>
       <use xlink:href="#m7eefaff6fa" x="55.880346" y="200.005709" style="stroke: #000000; stroke-width: 0.8"/>
      </g>
     </g>
     <g id="text_9">
      <!-- $\mathdefault{10^{-1}}$ -->
      <g transform="translate(25.380346 203.804927)scale(0.1 -0.1)">
       <use xlink:href="#DejaVuSans-31" transform="translate(0 0.684375)"/>
       <use xlink:href="#DejaVuSans-30" transform="translate(63.623047 0.684375)"/>
       <use xlink:href="#DejaVuSans-2212" transform="translate(128.203125 38.965625)scale(0.7)"/>
       <use xlink:href="#DejaVuSans-31" transform="translate(186.855469 38.965625)scale(0.7)"/>
      </g>
     </g>
    </g>
    <g id="ytick_4">
     <g id="line2d_9">
      <g>
       <use xlink:href="#m7eefaff6fa" x="55.880346" y="151.645081" style="stroke: #000000; stroke-width: 0.8"/>
      </g>
     </g>
     <g id="text_10">
      <!-- $\mathdefault{10^{0}}$ -->
      <g transform="translate(31.280346 155.4443)scale(0.1 -0.1)">
       <use xlink:href="#DejaVuSans-31" transform="translate(0 0.765625)"/>
       <use xlink:href="#DejaVuSans-30" transform="translate(63.623047 0.765625)"/>
       <use xlink:href="#DejaVuSans-30" transform="translate(128.203125 39.046875)scale(0.7)"/>
      </g>
     </g>
    </g>
    <g id="ytick_5">
     <g id="line2d_10">
      <g>
       <use xlink:href="#m7eefaff6fa" x="55.880346" y="103.284454" style="stroke: #000000; stroke-width: 0.8"/>
      </g>
     </g>
     <g id="text_11">
      <!-- $\mathdefault{10^{1}}$ -->
      <g transform="translate(31.280346 107.083673)scale(0.1 -0.1)">
       <use xlink:href="#DejaVuSans-31" transform="translate(0 0.684375)"/>
       <use xlink:href="#DejaVuSans-30" transform="translate(63.623047 0.684375)"/>
       <use xlink:href="#DejaVuSans-31" transform="translate(128.203125 38.965625)scale(0.7)"/>
      </g>
     </g>
    </g>
    <g id="ytick_6">
     <g id="line2d_11">
      <g>
       <use xlink:href="#m7eefaff6fa" x="55.880346" y="54.923827" style="stroke: #000000; stroke-width: 0.8"/>
      </g>
     </g>
     <g id="text_12">
      <!-- $\mathdefault{10^{2}}$ -->
      <g transform="translate(31.280346 58.723046)scale(0.1 -0.1)">
       <use xlink:href="#DejaVuSans-31" transform="translate(0 0.765625)"/>
       <use xlink:href="#DejaVuSans-30" transform="translate(63.623047 0.765625)"/>
       <use xlink:href="#DejaVuSans-32" transform="translate(128.203125 39.046875)scale(0.7)"/>
      </g>
     </g>
    </g>
    <g id="ytick_7">
     <g id="line2d_12">
      <defs>
       <path id="mc45b386bf9" d="M 0 0 
L -2 0 
" style="stroke: #000000; stroke-width: 0.6"/>
      </defs>
      <g>
       <use xlink:href="#mc45b386bf9" x="55.880346" y="301.413592" style="stroke: #000000; stroke-width: 0.6"/>
      </g>
     </g>
    </g>
    <g id="ytick_8">
     <g id="line2d_13">
      <g>
       <use xlink:href="#mc45b386bf9" x="55.880346" y="298.939824" style="stroke: #000000; stroke-width: 0.6"/>
      </g>
     </g>
    </g>
    <g id="ytick_9">
     <g id="line2d_14">
      <g>
       <use xlink:href="#mc45b386bf9" x="55.880346" y="282.168963" style="stroke: #000000; stroke-width: 0.6"/>
      </g>
     </g>
    </g>
    <g id="ytick_10">
     <g id="line2d_15">
      <g>
       <use xlink:href="#mc45b386bf9" x="55.880346" y="273.65308" style="stroke: #000000; stroke-width: 0.6"/>
      </g>
     </g>
    </g>
    <g id="ytick_11">
     <g id="line2d_16">
      <g>
       <use xlink:href="#mc45b386bf9" x="55.880346" y="267.610964" style="stroke: #000000; stroke-width: 0.6"/>
      </g>
     </g>
    </g>
    <g id="ytick_12">
     <g id="line2d_17">
      <g>
       <use xlink:href="#mc45b386bf9" x="55.880346" y="262.924335" style="stroke: #000000; stroke-width: 0.6"/>
      </g>
     </g>
    </g>
    <g id="ytick_13">
     <g id="line2d_18">
      <g>
       <use xlink:href="#mc45b386bf9" x="55.880346" y="259.09508" style="stroke: #000000; stroke-width: 0.6"/>
      </g>
     </g>
    </g>
    <g id="ytick_14">
     <g id="line2d_19">
      <g>
       <use xlink:href="#mc45b386bf9" x="55.880346" y="255.857492" style="stroke: #000000; stroke-width: 0.6"/>
      </g>
     </g>
    </g>
    <g id="ytick_15">
     <g id="line2d_20">
      <g>
       <use xlink:href="#mc45b386bf9" x="55.880346" y="253.052965" style="stroke: #000000; stroke-width: 0.6"/>
      </g>
     </g>
    </g>
    <g id="ytick_16">
     <g id="line2d_21">
      <g>
       <use xlink:href="#mc45b386bf9" x="55.880346" y="250.579197" style="stroke: #000000; stroke-width: 0.6"/>
      </g>
     </g>
    </g>
    <g id="ytick_17">
     <g id="line2d_22">
      <g>
       <use xlink:href="#mc45b386bf9" x="55.880346" y="233.808336" style="stroke: #000000; stroke-width: 0.6"/>
      </g>
     </g>
    </g>
    <g id="ytick_18">
     <g id="line2d_23">
      <g>
       <use xlink:href="#mc45b386bf9" x="55.880346" y="225.292453" style="stroke: #000000; stroke-width: 0.6"/>
      </g>
     </g>
    </g>
    <g id="ytick_19">
     <g id="line2d_24">
      <g>
       <use xlink:href="#mc45b386bf9" x="55.880346" y="219.250337" style="stroke: #000000; stroke-width: 0.6"/>
      </g>
     </g>
    </g>
    <g id="ytick_20">
     <g id="line2d_25">
      <g>
       <use xlink:href="#mc45b386bf9" x="55.880346" y="214.563708" style="stroke: #000000; stroke-width: 0.6"/>
      </g>
     </g>
    </g>
    <g id="ytick_21">
     <g id="line2d_26">
      <g>
       <use xlink:href="#mc45b386bf9" x="55.880346" y="210.734453" style="stroke: #000000; stroke-width: 0.6"/>
      </g>
     </g>
    </g>
    <g id="ytick_22">
     <g id="line2d_27">
      <g>
       <use xlink:href="#mc45b386bf9" x="55.880346" y="207.496864" style="stroke: #000000; stroke-width: 0.6"/>
      </g>
     </g>
    </g>
    <g id="ytick_23">
     <g id="line2d_28">
      <g>
       <use xlink:href="#mc45b386bf9" x="55.880346" y="204.692338" style="stroke: #000000; stroke-width: 0.6"/>
      </g>
     </g>
    </g>
    <g id="ytick_24">
     <g id="line2d_29">
      <g>
       <use xlink:href="#mc45b386bf9" x="55.880346" y="202.21857" style="stroke: #000000; stroke-width: 0.6"/>
      </g>
     </g>
    </g>
    <g id="ytick_25">
     <g id="line2d_30">
      <g>
       <use xlink:href="#mc45b386bf9" x="55.880346" y="185.447709" style="stroke: #000000; stroke-width: 0.6"/>
      </g>
     </g>
    </g>
    <g id="ytick_26">
     <g id="line2d_31">
      <g>
       <use xlink:href="#mc45b386bf9" x="55.880346" y="176.931826" style="stroke: #000000; stroke-width: 0.6"/>
      </g>
     </g>
    </g>
    <g id="ytick_27">
     <g id="line2d_32">
      <g>
       <use xlink:href="#mc45b386bf9" x="55.880346" y="170.88971" style="stroke: #000000; stroke-width: 0.6"/>
      </g>
     </g>
    </g>
    <g id="ytick_28">
     <g id="line2d_33">
      <g>
       <use xlink:href="#mc45b386bf9" x="55.880346" y="166.203081" style="stroke: #000000; stroke-width: 0.6"/>
      </g>
     </g>
    </g>
    <g id="ytick_29">
     <g id="line2d_34">
      <g>
       <use xlink:href="#mc45b386bf9" x="55.880346" y="162.373826" style="stroke: #000000; stroke-width: 0.6"/>
      </g>
     </g>
    </g>
    <g id="ytick_30">
     <g id="line2d_35">
      <g>
       <use xlink:href="#mc45b386bf9" x="55.880346" y="159.136237" style="stroke: #000000; stroke-width: 0.6"/>
      </g>
     </g>
    </g>
    <g id="ytick_31">
     <g id="line2d_36">
      <g>
       <use xlink:href="#mc45b386bf9" x="55.880346" y="156.33171" style="stroke: #000000; stroke-width: 0.6"/>
      </g>
     </g>
    </g>
    <g id="ytick_32">
     <g id="line2d_37">
      <g>
       <use xlink:href="#mc45b386bf9" x="55.880346" y="153.857942" style="stroke: #000000; stroke-width: 0.6"/>
      </g>
     </g>
    </g>
    <g id="ytick_33">
     <g id="line2d_38">
      <g>
       <use xlink:href="#mc45b386bf9" x="55.880346" y="137.087082" style="stroke: #000000; stroke-width: 0.6"/>
      </g>
     </g>
    </g>
    <g id="ytick_34">
     <g id="line2d_39">
      <g>
       <use xlink:href="#mc45b386bf9" x="55.880346" y="128.571198" style="stroke: #000000; stroke-width: 0.6"/>
      </g>
     </g>
    </g>
    <g id="ytick_35">
     <g id="line2d_40">
      <g>
       <use xlink:href="#mc45b386bf9" x="55.880346" y="122.529083" style="stroke: #000000; stroke-width: 0.6"/>
      </g>
     </g>
    </g>
    <g id="ytick_36">
     <g id="line2d_41">
      <g>
       <use xlink:href="#mc45b386bf9" x="55.880346" y="117.842454" style="stroke: #000000; stroke-width: 0.6"/>
      </g>
     </g>
    </g>
    <g id="ytick_37">
     <g id="line2d_42">
      <g>
       <use xlink:href="#mc45b386bf9" x="55.880346" y="114.013199" style="stroke: #000000; stroke-width: 0.6"/>
      </g>
     </g>
    </g>
    <g id="ytick_38">
     <g id="line2d_43">
      <g>
       <use xlink:href="#mc45b386bf9" x="55.880346" y="110.77561" style="stroke: #000000; stroke-width: 0.6"/>
      </g>
     </g>
    </g>
    <g id="ytick_39">
     <g id="line2d_44">
      <g>
       <use xlink:href="#mc45b386bf9" x="55.880346" y="107.971083" style="stroke: #000000; stroke-width: 0.6"/>
      </g>
     </g>
    </g>
    <g id="ytick_40">
     <g id="line2d_45">
      <g>
       <use xlink:href="#mc45b386bf9" x="55.880346" y="105.497315" style="stroke: #000000; stroke-width: 0.6"/>
      </g>
     </g>
    </g>
    <g id="ytick_41">
     <g id="line2d_46">
      <g>
       <use xlink:href="#mc45b386bf9" x="55.880346" y="88.726455" style="stroke: #000000; stroke-width: 0.6"/>
      </g>
     </g>
    </g>
    <g id="ytick_42">
     <g id="line2d_47">
      <g>
       <use xlink:href="#mc45b386bf9" x="55.880346" y="80.210571" style="stroke: #000000; stroke-width: 0.6"/>
      </g>
     </g>
    </g>
    <g id="ytick_43">
     <g id="line2d_48">
      <g>
       <use xlink:href="#mc45b386bf9" x="55.880346" y="74.168456" style="stroke: #000000; stroke-width: 0.6"/>
      </g>
     </g>
    </g>
    <g id="ytick_44">
     <g id="line2d_49">
      <g>
       <use xlink:href="#mc45b386bf9" x="55.880346" y="69.481827" style="stroke: #000000; stroke-width: 0.6"/>
      </g>
     </g>
    </g>
    <g id="ytick_45">
     <g id="line2d_50">
      <g>
       <use xlink:href="#mc45b386bf9" x="55.880346" y="65.652572" style="stroke: #000000; stroke-width: 0.6"/>
      </g>
     </g>
    </g>
    <g id="ytick_46">
     <g id="line2d_51">
      <g>
       <use xlink:href="#mc45b386bf9" x="55.880346" y="62.414983" style="stroke: #000000; stroke-width: 0.6"/>
      </g>
     </g>
    </g>
    <g id="ytick_47">
     <g id="line2d_52">
      <g>
       <use xlink:href="#mc45b386bf9" x="55.880346" y="59.610456" style="stroke: #000000; stroke-width: 0.6"/>
      </g>
     </g>
    </g>
    <g id="ytick_48">
     <g id="line2d_53">
      <g>
       <use xlink:href="#mc45b386bf9" x="55.880346" y="57.136688" style="stroke: #000000; stroke-width: 0.6"/>
      </g>
     </g>
    </g>
    <g id="ytick_49">
     <g id="line2d_54">
      <g>
       <use xlink:href="#mc45b386bf9" x="55.880346" y="40.365828" style="stroke: #000000; stroke-width: 0.6"/>
      </g>
     </g>
    </g>
    <g id="text_13">
     <!-- LDOS_x -->
     <g transform="translate(19.022534 187.225469)rotate(-90)scale(0.1 -0.1)">
      <defs>
       <path id="DejaVuSans-4c" d="M 628 4666 
L 1259 4666 
L 1259 531 
L 3531 531 
L 3531 0 
L 628 0 
L 628 4666 
z
" transform="scale(0.015625)"/>
       <path id="DejaVuSans-44" d="M 1259 4147 
L 1259 519 
L 2022 519 
Q 2988 519 3436 956 
Q 3884 1394 3884 2338 
Q 3884 3275 3436 3711 
Q 2988 4147 2022 4147 
L 1259 4147 
z
M 628 4666 
L 1925 4666 
Q 3281 4666 3915 4102 
Q 4550 3538 4550 2338 
Q 4550 1131 3912 565 
Q 3275 0 1925 0 
L 628 0 
L 628 4666 
z
" transform="scale(0.015625)"/>
       <path id="DejaVuSans-4f" d="M 2522 4238 
Q 1834 4238 1429 3725 
Q 1025 3213 1025 2328 
Q 1025 1447 1429 934 
Q 1834 422 2522 422 
Q 3209 422 3611 934 
Q 4013 1447 4013 2328 
Q 4013 3213 3611 3725 
Q 3209 4238 2522 4238 
z
M 2522 4750 
Q 3503 4750 4090 4092 
Q 4678 3434 4678 2328 
Q 4678 1225 4090 567 
Q 3503 -91 2522 -91 
Q 1538 -91 948 565 
Q 359 1222 359 2328 
Q 359 3434 948 4092 
Q 1538 4750 2522 4750 
z
" transform="scale(0.015625)"/>
       <path id="DejaVuSans-53" d="M 3425 4513 
L 3425 3897 
Q 3066 4069 2747 4153 
Q 2428 4238 2131 4238 
Q 1616 4238 1336 4038 
Q 1056 3838 1056 3469 
Q 1056 3159 1242 3001 
Q 1428 2844 1947 2747 
L 2328 2669 
Q 3034 2534 3370 2195 
Q 3706 1856 3706 1288 
Q 3706 609 3251 259 
Q 2797 -91 1919 -91 
Q 1588 -91 1214 -16 
Q 841 59 441 206 
L 441 856 
Q 825 641 1194 531 
Q 1563 422 1919 422 
Q 2459 422 2753 634 
Q 3047 847 3047 1241 
Q 3047 1584 2836 1778 
Q 2625 1972 2144 2069 
L 1759 2144 
Q 1053 2284 737 2584 
Q 422 2884 422 3419 
Q 422 4038 858 4394 
Q 1294 4750 2059 4750 
Q 2388 4750 2728 4690 
Q 3069 4631 3425 4513 
z
" transform="scale(0.015625)"/>
       <path id="DejaVuSans-5f" d="M 3263 -1063 
L 3263 -1509 
L -63 -1509 
L -63 -1063 
L 3263 -1063 
z
" transform="scale(0.015625)"/>
       <path id="DejaVuSans-78" d="M 3513 3500 
L 2247 1797 
L 3578 0 
L 2900 0 
L 1881 1375 
L 863 0 
L 184 0 
L 1544 1831 
L 300 3500 
L 978 3500 
L 1906 2253 
L 2834 3500 
L 3513 3500 
z
" transform="scale(0.015625)"/>
      </defs>
      <use xlink:href="#DejaVuSans-4c"/>
      <use xlink:href="#DejaVuSans-44" x="55.712891"/>
      <use xlink:href="#DejaVuSans-4f" x="132.714844"/>
      <use xlink:href="#DejaVuSans-53" x="211.425781"/>
      <use xlink:href="#DejaVuSans-5f" x="274.902344"/>
      <use xlink:href="#DejaVuSans-78" x="324.902344"/>
     </g>
    </g>
   </g>
   <g id="line2d_55">
    <path d="M 73.794876 44.729091 
L 77.775882 56.786073 
L 81.756889 67.753143 
L 85.737896 77.773879 
L 89.718902 86.948673 
L 93.699909 95.345235 
L 97.680915 103.006653 
L 101.661922 109.95849 
L 105.642929 116.21576 
L 109.623935 121.78994 
L 113.604942 126.695594 
L 117.585949 130.955697 
L 121.566955 134.604693 
L 125.547962 137.688792 
L 129.528968 140.263723 
L 133.509975 142.390872 
L 137.490982 144.132962 
L 141.471988 145.55029 
L 145.452995 146.698043 
L 149.434001 147.624812 
L 153.415008 148.372113 
L 157.396015 148.974618 
L 161.377021 149.460797 
L 165.358028 149.853741 
L 169.339034 150.172022 
L 173.320041 150.430493 
L 177.301048 150.640994 
L 181.282054 150.81295 
L 185.263061 150.953861 
L 189.244067 151.069698 
L 193.225074 151.165227 
L 197.206081 151.244254 
L 201.187087 151.30983 
L 205.168094 151.364408 
L 209.1491 151.409962 
L 213.130107 151.44809 
L 217.111114 151.480085 
L 221.09212 151.507002 
L 225.073127 151.5297 
L 229.054133 151.548881 
L 233.03514 151.565124 
L 237.016147 151.578904 
L 240.997153 151.590615 
L 244.97816 151.60058 
L 248.959166 151.609072 
L 252.940173 151.616314 
L 256.92118 151.622495 
L 260.902186 151.627772 
L 264.883193 151.632279 
L 268.864199 151.636125 
L 272.845206 151.639405 
L 276.826213 151.642198 
L 280.807219 151.644572 
L 284.788226 151.646584 
L 288.769233 151.648282 
L 292.750239 151.649708 
L 296.731246 151.650898 
L 300.712252 151.651882 
L 304.693259 151.652686 
L 308.674266 151.653333 
L 312.655272 151.653843 
L 316.636279 151.654232 
L 320.617285 151.654514 
L 324.598292 151.654703 
L 328.579299 151.654809 
L 332.560305 151.654842 
L 336.541312 151.654811 
L 340.522318 151.654723 
L 344.503325 151.654584 
L 348.484332 151.6544 
L 352.465338 151.654177 
L 356.446345 151.653918 
L 360.427351 151.653628 
L 364.408358 151.65331 
L 368.389365 151.652968 
L 372.370371 151.652604 
L 376.351378 151.652221 
L 380.332384 151.651821 
L 384.313391 151.651406 
L 388.294398 151.650979 
L 392.275404 151.650541 
L 396.256411 151.650093 
L 400.237417 151.649638 
L 404.218424 151.649176 
L 408.199431 151.648708 
L 412.180437 151.648236 
L 416.161444 151.647761 
L 420.14245 151.647284 
L 424.123457 151.646806 
L 428.104464 151.646327 
L 432.08547 151.645849 
" clip-path="url(#p20d43f5a95)" style="fill: none; stroke-dasharray: 5.55,2.4; stroke-dashoffset: 0; stroke: #0000ff; stroke-width: 1.5"/>
   </g>
   <g id="line2d_56">
    <path d="M 73.794876 149.887096 
L 77.775882 151.863424 
L 81.756889 152.688556 
L 85.737896 152.963935 
L 89.718902 152.990865 
L 93.699909 152.912939 
L 97.680915 152.79707 
L 101.661922 152.673746 
L 105.642929 152.556219 
L 109.623935 152.449608 
L 113.604942 152.35524 
L 117.585949 152.272745 
L 121.566955 152.201058 
L 125.547962 152.138903 
L 129.528968 152.085015 
L 133.509975 152.038233 
L 137.490982 151.997534 
L 141.471988 151.962034 
L 145.452995 151.930978 
L 149.434001 151.903728 
L 153.415008 151.879741 
L 157.396015 151.858562 
L 161.377021 151.839804 
L 165.358028 151.82314 
L 169.339034 151.808293 
L 173.320041 151.795027 
L 177.301048 151.783141 
L 181.282054 151.772463 
L 185.263061 151.762846 
L 189.244067 151.754164 
L 193.225074 151.746306 
L 197.206081 151.739179 
L 201.187087 151.732699 
L 205.168094 151.726797 
L 209.1491 151.72141 
L 213.130107 151.716483 
L 217.111114 151.711968 
L 221.09212 151.707824 
L 225.073127 151.704014 
L 229.054133 151.700504 
L 233.03514 151.697266 
L 237.016147 151.694275 
L 240.997153 151.691507 
L 244.97816 151.688942 
L 248.959166 151.686562 
L 252.940173 151.68435 
L 256.92118 151.682293 
L 260.902186 151.680376 
L 264.883193 151.678588 
L 268.864199 151.676919 
L 272.845206 151.675358 
L 276.826213 151.673898 
L 280.807219 151.672529 
L 284.788226 151.671246 
L 288.769233 151.670042 
L 292.750239 151.66891 
L 296.731246 151.667845 
L 300.712252 151.666843 
L 304.693259 151.665898 
L 308.674266 151.665008 
L 312.655272 151.664167 
L 316.636279 151.663373 
L 320.617285 151.662622 
L 324.598292 151.661912 
L 328.579299 151.66124 
L 332.560305 151.660602 
L 336.541312 151.659998 
L 340.522318 151.659425 
L 344.503325 151.658881 
L 348.484332 151.658364 
L 352.465338 151.657872 
L 356.446345 151.657405 
L 360.427351 151.656959 
L 364.408358 151.656535 
L 368.389365 151.656131 
L 372.370371 151.655746 
L 376.351378 151.655378 
L 380.332384 151.655027 
L 384.313391 151.654692 
L 388.294398 151.654372 
L 392.275404 151.654066 
L 396.256411 151.653773 
L 400.237417 151.653492 
L 404.218424 151.653224 
L 408.199431 151.652967 
L 412.180437 151.65272 
L 416.161444 151.652484 
L 420.14245 151.652258 
L 424.123457 151.65204 
L 428.104464 151.651831 
L 432.08547 151.651631 
" clip-path="url(#p20d43f5a95)" style="fill: none; stroke-dasharray: 5.55,2.4; stroke-dashoffset: 0; stroke: #ff0000; stroke-width: 1.5"/>
   </g>
   <g id="line2d_57">
    <path d="M 73.794876 44.87044 
L 77.775882 57.014864 
L 81.756889 68.12502 
L 85.737896 78.368157 
L 89.718902 87.874146 
L 93.699909 96.7458 
L 97.680915 105.065852 
L 101.661922 112.90181 
L 105.642929 120.309424 
L 109.623935 127.335211 
L 113.604942 134.018325 
L 117.585949 140.39198 
L 121.566955 146.484525 
L 125.547962 152.320293 
L 129.528968 157.920253 
L 133.509975 163.302545 
L 137.490982 168.482888 
L 141.471988 173.474933 
L 145.452995 178.290532 
L 149.434001 182.939974 
L 153.415008 187.432174 
L 157.396015 191.774837 
L 161.377021 195.9746 
L 165.358028 200.037147 
L 169.339034 203.967325 
L 173.320041 207.769234 
L 177.301048 211.446325 
L 181.282054 215.001478 
L 185.263061 218.437088 
L 189.244067 221.755143 
L 193.225074 224.957302 
L 197.206081 228.044972 
L 201.187087 231.019381 
L 205.168094 233.881655 
L 209.1491 236.632885 
L 213.130107 239.274196 
L 217.111114 241.806805 
L 221.09212 244.232078 
L 225.073127 246.551572 
L 229.054133 248.767074 
L 233.03514 250.880624 
L 237.016147 252.89453 
L 240.997153 254.811373 
L 244.97816 256.633994 
L 248.959166 258.365485 
L 252.940173 260.009156 
L 256.92118 261.568509 
L 260.902186 263.047198 
L 264.883193 264.448993 
L 268.864199 265.777733 
L 272.845206 267.037294 
L 276.826213 268.231546 
L 280.807219 269.364318 
L 284.788226 270.439369 
L 288.769233 271.460357 
L 292.750239 272.430822 
L 296.731246 273.354163 
L 300.712252 274.233627 
L 304.693259 275.072299 
L 308.674266 275.873094 
L 312.655272 276.638758 
L 316.636279 277.371867 
L 320.617285 278.074825 
L 324.598292 278.749874 
L 328.579299 279.399097 
L 332.560305 280.024423 
L 336.541312 280.627639 
L 340.522318 281.210392 
L 344.503325 281.774202 
L 348.484332 282.320467 
L 352.465338 282.850474 
L 356.446345 283.365403 
L 360.427351 283.866339 
L 364.408358 284.354277 
L 368.389365 284.830129 
L 372.370371 285.29473 
L 376.351378 285.748848 
L 380.332384 286.193184 
L 384.313391 286.628382 
L 388.294398 287.055031 
L 392.275404 287.473672 
L 396.256411 287.884801 
L 400.237417 288.288871 
L 404.218424 288.6863 
L 408.199431 289.077472 
L 412.180437 289.462736 
L 416.161444 289.842417 
L 420.14245 290.216813 
L 424.123457 290.586195 
L 428.104464 290.950816 
L 432.08547 291.310909 
" clip-path="url(#p20d43f5a95)" style="fill: none; stroke-dasharray: 5.55,2.4; stroke-dashoffset: 0; stroke: #008000; stroke-width: 1.5"/>
   </g>
   <g id="line2d_58">
    <defs>
     <path id="m3281915e5c" d="M 0 3 
C 0.795609 3 1.55874 2.683901 2.12132 2.12132 
C 2.683901 1.55874 3 0.795609 3 0 
C 3 -0.795609 2.683901 -1.55874 2.12132 -2.12132 
C 1.55874 -2.683901 0.795609 -3 0 -3 
C -0.795609 -3 -1.55874 -2.683901 -2.12132 -2.12132 
C -2.683901 -1.55874 -3 -0.795609 -3 0 
C -3 0.795609 -2.683901 1.55874 -2.12132 2.12132 
C -1.55874 2.683901 -0.795609 3 0 3 
z
" style="stroke: #0000ff"/>
    </defs>
    <g clip-path="url(#p20d43f5a95)">
     <use xlink:href="#m3281915e5c" x="73.794876" y="44.729091" style="fill: #0000ff; stroke: #0000ff"/>
     <use xlink:href="#m3281915e5c" x="93.699909" y="95.345235" style="fill: #0000ff; stroke: #0000ff"/>
     <use xlink:href="#m3281915e5c" x="113.604942" y="126.695594" style="fill: #0000ff; stroke: #0000ff"/>
     <use xlink:href="#m3281915e5c" x="133.509975" y="142.390872" style="fill: #0000ff; stroke: #0000ff"/>
     <use xlink:href="#m3281915e5c" x="153.415008" y="148.372113" style="fill: #0000ff; stroke: #0000ff"/>
     <use xlink:href="#m3281915e5c" x="173.320041" y="150.430493" style="fill: #0000ff; stroke: #0000ff"/>
     <use xlink:href="#m3281915e5c" x="193.225074" y="151.165227" style="fill: #0000ff; stroke: #0000ff"/>
     <use xlink:href="#m3281915e5c" x="213.130107" y="151.44809" style="fill: #0000ff; stroke: #0000ff"/>
     <use xlink:href="#m3281915e5c" x="233.03514" y="151.565124" style="fill: #0000ff; stroke: #0000ff"/>
     <use xlink:href="#m3281915e5c" x="252.940173" y="151.616314" style="fill: #0000ff; stroke: #0000ff"/>
     <use xlink:href="#m3281915e5c" x="272.845206" y="151.639405" style="fill: #0000ff; stroke: #0000ff"/>
     <use xlink:href="#m3281915e5c" x="292.750239" y="151.649708" style="fill: #0000ff; stroke: #0000ff"/>
     <use xlink:href="#m3281915e5c" x="312.655272" y="151.653843" style="fill: #0000ff; stroke: #0000ff"/>
     <use xlink:href="#m3281915e5c" x="332.560305" y="151.654842" style="fill: #0000ff; stroke: #0000ff"/>
     <use xlink:href="#m3281915e5c" x="352.465338" y="151.654177" style="fill: #0000ff; stroke: #0000ff"/>
     <use xlink:href="#m3281915e5c" x="372.370371" y="151.652604" style="fill: #0000ff; stroke: #0000ff"/>
     <use xlink:href="#m3281915e5c" x="392.275404" y="151.650541" style="fill: #0000ff; stroke: #0000ff"/>
     <use xlink:href="#m3281915e5c" x="412.180437" y="151.648236" style="fill: #0000ff; stroke: #0000ff"/>
     <use xlink:href="#m3281915e5c" x="432.08547" y="151.645849" style="fill: #0000ff; stroke: #0000ff"/>
    </g>
   </g>
   <g id="line2d_59">
    <defs>
     <path id="m76b268e037" d="M 0 3 
C 0.795609 3 1.55874 2.683901 2.12132 2.12132 
C 2.683901 1.55874 3 0.795609 3 0 
C 3 -0.795609 2.683901 -1.55874 2.12132 -2.12132 
C 1.55874 -2.683901 0.795609 -3 0 -3 
C -0.795609 -3 -1.55874 -2.683901 -2.12132 -2.12132 
C -2.683901 -1.55874 -3 -0.795609 -3 0 
C -3 0.795609 -2.683901 1.55874 -2.12132 2.12132 
C -1.55874 2.683901 -0.795609 3 0 3 
z
" style="stroke: #ff0000"/>
    </defs>
    <g clip-path="url(#p20d43f5a95)">
     <use xlink:href="#m76b268e037" x="73.794876" y="149.838176" style="fill: #ff0000; stroke: #ff0000"/>
     <use xlink:href="#m76b268e037" x="93.699909" y="152.912422" style="fill: #ff0000; stroke: #ff0000"/>
     <use xlink:href="#m76b268e037" x="113.604942" y="152.380663" style="fill: #ff0000; stroke: #ff0000"/>
     <use xlink:href="#m76b268e037" x="133.509975" y="152.077502" style="fill: #ff0000; stroke: #ff0000"/>
     <use xlink:href="#m76b268e037" x="153.415008" y="151.927026" style="fill: #ff0000; stroke: #ff0000"/>
     <use xlink:href="#m76b268e037" x="173.320041" y="151.846903" style="fill: #ff0000; stroke: #ff0000"/>
     <use xlink:href="#m76b268e037" x="193.225074" y="151.800494" style="fill: #ff0000; stroke: #ff0000"/>
     <use xlink:href="#m76b268e037" x="213.130107" y="151.771347" style="fill: #ff0000; stroke: #ff0000"/>
     <use xlink:href="#m76b268e037" x="233.03514" y="151.751573" style="fill: #ff0000; stroke: #ff0000"/>
     <use xlink:href="#m76b268e037" x="252.940173" y="151.737145" style="fill: #ff0000; stroke: #ff0000"/>
     <use xlink:href="#m76b268e037" x="272.845206" y="151.725897" style="fill: #ff0000; stroke: #ff0000"/>
     <use xlink:href="#m76b268e037" x="292.750239" y="151.716613" style="fill: #ff0000; stroke: #ff0000"/>
     <use xlink:href="#m76b268e037" x="312.655272" y="151.708596" style="fill: #ff0000; stroke: #ff0000"/>
     <use xlink:href="#m76b268e037" x="332.560305" y="151.701437" style="fill: #ff0000; stroke: #ff0000"/>
     <use xlink:href="#m76b268e037" x="352.465338" y="151.694898" style="fill: #ff0000; stroke: #ff0000"/>
     <use xlink:href="#m76b268e037" x="372.370371" y="151.688845" style="fill: #ff0000; stroke: #ff0000"/>
     <use xlink:href="#m76b268e037" x="392.275404" y="151.683205" style="fill: #ff0000; stroke: #ff0000"/>
     <use xlink:href="#m76b268e037" x="412.180437" y="151.677943" style="fill: #ff0000; stroke: #ff0000"/>
     <use xlink:href="#m76b268e037" x="432.08547" y="151.673049" style="fill: #ff0000; stroke: #ff0000"/>
    </g>
   </g>
   <g id="line2d_60">
    <defs>
     <path id="m2917c879b2" d="M 0 3 
C 0.795609 3 1.55874 2.683901 2.12132 2.12132 
C 2.683901 1.55874 3 0.795609 3 0 
C 3 -0.795609 2.683901 -1.55874 2.12132 -2.12132 
C 1.55874 -2.683901 0.795609 -3 0 -3 
C -0.795609 -3 -1.55874 -2.683901 -2.12132 -2.12132 
C -2.683901 -1.55874 -3 -0.795609 -3 0 
C -3 0.795609 -2.683901 1.55874 -2.12132 2.12132 
C -1.55874 2.683901 -0.795609 3 0 3 
z
" style="stroke: #008000"/>
    </defs>
    <g clip-path="url(#p20d43f5a95)">
     <use xlink:href="#m2917c879b2" x="73.794876" y="44.87044" style="fill: #008000; stroke: #008000"/>
     <use xlink:href="#m2917c879b2" x="93.699909" y="96.7458" style="fill: #008000; stroke: #008000"/>
     <use xlink:href="#m2917c879b2" x="113.604942" y="134.018325" style="fill: #008000; stroke: #008000"/>
     <use xlink:href="#m2917c879b2" x="133.509975" y="163.302545" style="fill: #008000; stroke: #008000"/>
     <use xlink:href="#m2917c879b2" x="153.415008" y="187.432174" style="fill: #008000; stroke: #008000"/>
     <use xlink:href="#m2917c879b2" x="173.320041" y="207.769234" style="fill: #008000; stroke: #008000"/>
     <use xlink:href="#m2917c879b2" x="193.225074" y="224.957302" style="fill: #008000; stroke: #008000"/>
     <use xlink:href="#m2917c879b2" x="213.130107" y="239.274196" style="fill: #008000; stroke: #008000"/>
     <use xlink:href="#m2917c879b2" x="233.03514" y="250.880624" style="fill: #008000; stroke: #008000"/>
     <use xlink:href="#m2917c879b2" x="252.940173" y="260.009156" style="fill: #008000; stroke: #008000"/>
     <use xlink:href="#m2917c879b2" x="272.845206" y="267.037294" style="fill: #008000; stroke: #008000"/>
     <use xlink:href="#m2917c879b2" x="292.750239" y="272.430822" style="fill: #008000; stroke: #008000"/>
     <use xlink:href="#m2917c879b2" x="312.655272" y="276.638758" style="fill: #008000; stroke: #008000"/>
     <use xlink:href="#m2917c879b2" x="332.560305" y="280.024423" style="fill: #008000; stroke: #008000"/>
     <use xlink:href="#m2917c879b2" x="352.465338" y="282.850474" style="fill: #008000; stroke: #008000"/>
     <use xlink:href="#m2917c879b2" x="372.370371" y="285.29473" style="fill: #008000; stroke: #008000"/>
     <use xlink:href="#m2917c879b2" x="392.275404" y="287.473672" style="fill: #008000; stroke: #008000"/>
     <use xlink:href="#m2917c879b2" x="412.180437" y="289.462736" style="fill: #008000; stroke: #008000"/>
     <use xlink:href="#m2917c879b2" x="432.08547" y="291.310909" style="fill: #008000; stroke: #008000"/>
    </g>
   </g>
   <g id="patch_3">
    <path d="M 55.880346 303.64 
L 55.880346 32.4 
" style="fill: none; stroke: #000000; stroke-width: 0.8; stroke-linejoin: miter; stroke-linecap: square"/>
   </g>
   <g id="patch_4">
    <path d="M 450 303.64 
L 450 32.4 
" style="fill: none; stroke: #000000; stroke-width: 0.8; stroke-linejoin: miter; stroke-linecap: square"/>
   </g>
   <g id="patch_5">
    <path d="M 55.880346 303.64 
L 450 303.64 
" style="fill: none; stroke: #000000; stroke-width: 0.8; stroke-linejoin: miter; stroke-linecap: square"/>
   </g>
   <g id="patch_6">
    <path d="M 55.880346 32.4 
L 450 32.4 
" style="fill: none; stroke: #000000; stroke-width: 0.8; stroke-linejoin: miter; stroke-linecap: square"/>
   </g>
   <g id="legend_1">
    <g id="patch_7">
     <path d="M 302.098437 128.46875 
L 443 128.46875 
Q 445 128.46875 445 126.46875 
L 445 39.4 
Q 445 37.4 443 37.4 
L 302.098437 37.4 
Q 300.098437 37.4 300.098437 39.4 
L 300.098437 126.46875 
Q 300.098437 128.46875 302.098437 128.46875 
z
" style="fill: #ffffff; opacity: 0.8; stroke: #cccccc; stroke-linejoin: miter"/>
    </g>
    <g id="line2d_61">
     <path d="M 304.098437 45.498437 
L 314.098437 45.498437 
L 324.098437 45.498437 
" style="fill: none; stroke-dasharray: 5.55,2.4; stroke-dashoffset: 0; stroke: #0000ff; stroke-width: 1.5"/>
    </g>
    <g id="text_14">
     <!-- total analytic -->
     <g transform="translate(332.098437 48.998437)scale(0.1 -0.1)">
      <defs>
       <path id="DejaVuSans-74" d="M 1172 4494 
L 1172 3500 
L 2356 3500 
L 2356 3053 
L 1172 3053 
L 1172 1153 
Q 1172 725 1289 603 
Q 1406 481 1766 481 
L 2356 481 
L 2356 0 
L 1766 0 
Q 1100 0 847 248 
Q 594 497 594 1153 
L 594 3053 
L 172 3053 
L 172 3500 
L 594 3500 
L 594 4494 
L 1172 4494 
z
" transform="scale(0.015625)"/>
       <path id="DejaVuSans-6f" d="M 1959 3097 
Q 1497 3097 1228 2736 
Q 959 2375 959 1747 
Q 959 1119 1226 758 
Q 1494 397 1959 397 
Q 2419 397 2687 759 
Q 2956 1122 2956 1747 
Q 2956 2369 2687 2733 
Q 2419 3097 1959 3097 
z
M 1959 3584 
Q 2709 3584 3137 3096 
Q 3566 2609 3566 1747 
Q 3566 888 3137 398 
Q 2709 -91 1959 -91 
Q 1206 -91 779 398 
Q 353 888 353 1747 
Q 353 2609 779 3096 
Q 1206 3584 1959 3584 
z
" transform="scale(0.015625)"/>
       <path id="DejaVuSans-61" d="M 2194 1759 
Q 1497 1759 1228 1600 
Q 959 1441 959 1056 
Q 959 750 1161 570 
Q 1363 391 1709 391 
Q 2188 391 2477 730 
Q 2766 1069 2766 1631 
L 2766 1759 
L 2194 1759 
z
M 3341 1997 
L 3341 0 
L 2766 0 
L 2766 531 
Q 2569 213 2275 61 
Q 1981 -91 1556 -91 
Q 1019 -91 701 211 
Q 384 513 384 1019 
Q 384 1609 779 1909 
Q 1175 2209 1959 2209 
L 2766 2209 
L 2766 2266 
Q 2766 2663 2505 2880 
Q 2244 3097 1772 3097 
Q 1472 3097 1187 3025 
Q 903 2953 641 2809 
L 641 3341 
Q 956 3463 1253 3523 
Q 1550 3584 1831 3584 
Q 2591 3584 2966 3190 
Q 3341 2797 3341 1997 
z
" transform="scale(0.015625)"/>
       <path id="DejaVuSans-6c" d="M 603 4863 
L 1178 4863 
L 1178 0 
L 603 0 
L 603 4863 
z
" transform="scale(0.015625)"/>
       <path id="DejaVuSans-79" d="M 2059 -325 
Q 1816 -950 1584 -1140 
Q 1353 -1331 966 -1331 
L 506 -1331 
L 506 -850 
L 844 -850 
Q 1081 -850 1212 -737 
Q 1344 -625 1503 -206 
L 1606 56 
L 191 3500 
L 800 3500 
L 1894 763 
L 2988 3500 
L 3597 3500 
L 2059 -325 
z
" transform="scale(0.015625)"/>
       <path id="DejaVuSans-69" d="M 603 3500 
L 1178 3500 
L 1178 0 
L 603 0 
L 603 3500 
z
M 603 4863 
L 1178 4863 
L 1178 4134 
L 603 4134 
L 603 4863 
z
" transform="scale(0.015625)"/>
       <path id="DejaVuSans-63" d="M 3122 3366 
L 3122 2828 
Q 2878 2963 2633 3030 
Q 2388 3097 2138 3097 
Q 1578 3097 1268 2742 
Q 959 2388 959 1747 
Q 959 1106 1268 751 
Q 1578 397 2138 397 
Q 2388 397 2633 464 
Q 2878 531 3122 666 
L 3122 134 
Q 2881 22 2623 -34 
Q 2366 -91 2075 -91 
Q 1284 -91 818 406 
Q 353 903 353 1747 
Q 353 2603 823 3093 
Q 1294 3584 2113 3584 
Q 2378 3584 2631 3529 
Q 2884 3475 3122 3366 
z
" transform="scale(0.015625)"/>
      </defs>
      <use xlink:href="#DejaVuSans-74"/>
      <use xlink:href="#DejaVuSans-6f" x="39.208984"/>
      <use xlink:href="#DejaVuSans-74" x="100.390625"/>
      <use xlink:href="#DejaVuSans-61" x="139.599609"/>
      <use xlink:href="#DejaVuSans-6c" x="200.878906"/>
      <use xlink:href="#DejaVuSans-20" x="228.662109"/>
      <use xlink:href="#DejaVuSans-61" x="260.449219"/>
      <use xlink:href="#DejaVuSans-6e" x="321.728516"/>
      <use xlink:href="#DejaVuSans-61" x="385.107422"/>
      <use xlink:href="#DejaVuSans-6c" x="446.386719"/>
      <use xlink:href="#DejaVuSans-79" x="474.169922"/>
      <use xlink:href="#DejaVuSans-74" x="533.349609"/>
      <use xlink:href="#DejaVuSans-69" x="572.558594"/>
      <use xlink:href="#DejaVuSans-63" x="600.341797"/>
     </g>
    </g>
    <g id="line2d_62">
     <path d="M 304.098437 60.176562 
L 314.098437 60.176562 
L 324.098437 60.176562 
" style="fill: none; stroke-dasharray: 5.55,2.4; stroke-dashoffset: 0; stroke: #ff0000; stroke-width: 1.5"/>
    </g>
    <g id="text_15">
     <!-- radiative analytic -->
     <g transform="translate(332.098437 63.676562)scale(0.1 -0.1)">
      <defs>
       <path id="DejaVuSans-72" d="M 2631 2963 
Q 2534 3019 2420 3045 
Q 2306 3072 2169 3072 
Q 1681 3072 1420 2755 
Q 1159 2438 1159 1844 
L 1159 0 
L 581 0 
L 581 3500 
L 1159 3500 
L 1159 2956 
Q 1341 3275 1631 3429 
Q 1922 3584 2338 3584 
Q 2397 3584 2469 3576 
Q 2541 3569 2628 3553 
L 2631 2963 
z
" transform="scale(0.015625)"/>
       <path id="DejaVuSans-64" d="M 2906 2969 
L 2906 4863 
L 3481 4863 
L 3481 0 
L 2906 0 
L 2906 525 
Q 2725 213 2448 61 
Q 2172 -91 1784 -91 
Q 1150 -91 751 415 
Q 353 922 353 1747 
Q 353 2572 751 3078 
Q 1150 3584 1784 3584 
Q 2172 3584 2448 3432 
Q 2725 3281 2906 2969 
z
M 947 1747 
Q 947 1113 1208 752 
Q 1469 391 1925 391 
Q 2381 391 2643 752 
Q 2906 1113 2906 1747 
Q 2906 2381 2643 2742 
Q 2381 3103 1925 3103 
Q 1469 3103 1208 2742 
Q 947 2381 947 1747 
z
" transform="scale(0.015625)"/>
       <path id="DejaVuSans-76" d="M 191 3500 
L 800 3500 
L 1894 563 
L 2988 3500 
L 3597 3500 
L 2284 0 
L 1503 0 
L 191 3500 
z
" transform="scale(0.015625)"/>
       <path id="DejaVuSans-65" d="M 3597 1894 
L 3597 1613 
L 953 1613 
Q 991 1019 1311 708 
Q 1631 397 2203 397 
Q 2534 397 2845 478 
Q 3156 559 3463 722 
L 3463 178 
Q 3153 47 2828 -22 
Q 2503 -91 2169 -91 
Q 1331 -91 842 396 
Q 353 884 353 1716 
Q 353 2575 817 3079 
Q 1281 3584 2069 3584 
Q 2775 3584 3186 3129 
Q 3597 2675 3597 1894 
z
M 3022 2063 
Q 3016 2534 2758 2815 
Q 2500 3097 2075 3097 
Q 1594 3097 1305 2825 
Q 1016 2553 972 2059 
L 3022 2063 
z
" transform="scale(0.015625)"/>
      </defs>
      <use xlink:href="#DejaVuSans-72"/>
      <use xlink:href="#DejaVuSans-61" x="41.113281"/>
      <use xlink:href="#DejaVuSans-64" x="102.392578"/>
      <use xlink:href="#DejaVuSans-69" x="165.869141"/>
      <use xlink:href="#DejaVuSans-61" x="193.652344"/>
      <use xlink:href="#DejaVuSans-74" x="254.931641"/>
      <use xlink:href="#DejaVuSans-69" x="294.140625"/>
      <use xlink:href="#DejaVuSans-76" x="321.923828"/>
      <use xlink:href="#DejaVuSans-65" x="381.103516"/>
      <use xlink:href="#DejaVuSans-20" x="442.626953"/>
      <use xlink:href="#DejaVuSans-61" x="474.414062"/>
      <use xlink:href="#DejaVuSans-6e" x="535.693359"/>
      <use xlink:href="#DejaVuSans-61" x="599.072266"/>
      <use xlink:href="#DejaVuSans-6c" x="660.351562"/>
      <use xlink:href="#DejaVuSans-79" x="688.134766"/>
      <use xlink:href="#DejaVuSans-74" x="747.314453"/>
      <use xlink:href="#DejaVuSans-69" x="786.523438"/>
      <use xlink:href="#DejaVuSans-63" x="814.306641"/>
     </g>
    </g>
    <g id="line2d_63">
     <path d="M 304.098437 74.854687 
L 314.098437 74.854687 
L 324.098437 74.854687 
" style="fill: none; stroke-dasharray: 5.55,2.4; stroke-dashoffset: 0; stroke: #008000; stroke-width: 1.5"/>
    </g>
    <g id="text_16">
     <!-- non radiative analytic -->
     <g transform="translate(332.098437 78.354687)scale(0.1 -0.1)">
      <use xlink:href="#DejaVuSans-6e"/>
      <use xlink:href="#DejaVuSans-6f" x="63.378906"/>
      <use xlink:href="#DejaVuSans-6e" x="124.560547"/>
      <use xlink:href="#DejaVuSans-20" x="187.939453"/>
      <use xlink:href="#DejaVuSans-72" x="219.726562"/>
      <use xlink:href="#DejaVuSans-61" x="260.839844"/>
      <use xlink:href="#DejaVuSans-64" x="322.119141"/>
      <use xlink:href="#DejaVuSans-69" x="385.595703"/>
      <use xlink:href="#DejaVuSans-61" x="413.378906"/>
      <use xlink:href="#DejaVuSans-74" x="474.658203"/>
      <use xlink:href="#DejaVuSans-69" x="513.867188"/>
      <use xlink:href="#DejaVuSans-76" x="541.650391"/>
      <use xlink:href="#DejaVuSans-65" x="600.830078"/>
      <use xlink:href="#DejaVuSans-20" x="662.353516"/>
      <use xlink:href="#DejaVuSans-61" x="694.140625"/>
      <use xlink:href="#DejaVuSans-6e" x="755.419922"/>
      <use xlink:href="#DejaVuSans-61" x="818.798828"/>
      <use xlink:href="#DejaVuSans-6c" x="880.078125"/>
      <use xlink:href="#DejaVuSans-79" x="907.861328"/>
      <use xlink:href="#DejaVuSans-74" x="967.041016"/>
      <use xlink:href="#DejaVuSans-69" x="1006.25"/>
      <use xlink:href="#DejaVuSans-63" x="1034.033203"/>
     </g>
    </g>
    <g id="line2d_64">
     <g>
      <use xlink:href="#m3281915e5c" x="314.098437" y="89.532812" style="fill: #0000ff; stroke: #0000ff"/>
     </g>
    </g>
    <g id="text_17">
     <!-- total DDA -->
     <g transform="translate(332.098437 93.032812)scale(0.1 -0.1)">
      <defs>
       <path id="DejaVuSans-41" d="M 2188 4044 
L 1331 1722 
L 3047 1722 
L 2188 4044 
z
M 1831 4666 
L 2547 4666 
L 4325 0 
L 3669 0 
L 3244 1197 
L 1141 1197 
L 716 0 
L 50 0 
L 1831 4666 
z
" transform="scale(0.015625)"/>
      </defs>
      <use xlink:href="#DejaVuSans-74"/>
      <use xlink:href="#DejaVuSans-6f" x="39.208984"/>
      <use xlink:href="#DejaVuSans-74" x="100.390625"/>
      <use xlink:href="#DejaVuSans-61" x="139.599609"/>
      <use xlink:href="#DejaVuSans-6c" x="200.878906"/>
      <use xlink:href="#DejaVuSans-20" x="228.662109"/>
      <use xlink:href="#DejaVuSans-44" x="260.449219"/>
      <use xlink:href="#DejaVuSans-44" x="337.451172"/>
      <use xlink:href="#DejaVuSans-41" x="412.703125"/>
     </g>
    </g>
    <g id="line2d_65">
     <g>
      <use xlink:href="#m76b268e037" x="314.098437" y="104.210937" style="fill: #ff0000; stroke: #ff0000"/>
     </g>
    </g>
    <g id="text_18">
     <!-- radiative DDA -->
     <g transform="translate(332.098437 107.710937)scale(0.1 -0.1)">
      <use xlink:href="#DejaVuSans-72"/>
      <use xlink:href="#DejaVuSans-61" x="41.113281"/>
      <use xlink:href="#DejaVuSans-64" x="102.392578"/>
      <use xlink:href="#DejaVuSans-69" x="165.869141"/>
      <use xlink:href="#DejaVuSans-61" x="193.652344"/>
      <use xlink:href="#DejaVuSans-74" x="254.931641"/>
      <use xlink:href="#DejaVuSans-69" x="294.140625"/>
      <use xlink:href="#DejaVuSans-76" x="321.923828"/>
      <use xlink:href="#DejaVuSans-65" x="381.103516"/>
      <use xlink:href="#DejaVuSans-20" x="442.626953"/>
      <use xlink:href="#DejaVuSans-44" x="474.414062"/>
      <use xlink:href="#DejaVuSans-44" x="551.416016"/>
      <use xlink:href="#DejaVuSans-41" x="626.667969"/>
     </g>
    </g>
    <g id="line2d_66">
     <g>
      <use xlink:href="#m2917c879b2" x="314.098437" y="118.889062" style="fill: #008000; stroke: #008000"/>
     </g>
    </g>
    <g id="text_19">
     <!-- non radiative DDA -->
     <g transform="translate(332.098437 122.389062)scale(0.1 -0.1)">
      <use xlink:href="#DejaVuSans-6e"/>
      <use xlink:href="#DejaVuSans-6f" x="63.378906"/>
      <use xlink:href="#DejaVuSans-6e" x="124.560547"/>
      <use xlink:href="#DejaVuSans-20" x="187.939453"/>
      <use xlink:href="#DejaVuSans-72" x="219.726562"/>
      <use xlink:href="#DejaVuSans-61" x="260.839844"/>
      <use xlink:href="#DejaVuSans-64" x="322.119141"/>
      <use xlink:href="#DejaVuSans-69" x="385.595703"/>
      <use xlink:href="#DejaVuSans-61" x="413.378906"/>
      <use xlink:href="#DejaVuSans-74" x="474.658203"/>
      <use xlink:href="#DejaVuSans-69" x="513.867188"/>
      <use xlink:href="#DejaVuSans-76" x="541.650391"/>
      <use xlink:href="#DejaVuSans-65" x="600.830078"/>
      <use xlink:href="#DejaVuSans-20" x="662.353516"/>
      <use xlink:href="#DejaVuSans-44" x="694.140625"/>
      <use xlink:href="#DejaVuSans-44" x="771.142578"/>
      <use xlink:href="#DejaVuSans-41" x="846.394531"/>
     </g>
    </g>
   </g>
  </g>
  <g id="text_20">
   <!-- LDOSx lambda = 354 nm -->
   <g transform="translate(154.115625 16.030125)scale(0.12 -0.12)">
    <defs>
     <path id="DejaVuSans-62" d="M 3116 1747 
Q 3116 2381 2855 2742 
Q 2594 3103 2138 3103 
Q 1681 3103 1420 2742 
Q 1159 2381 1159 1747 
Q 1159 1113 1420 752 
Q 1681 391 2138 391 
Q 2594 391 2855 752 
Q 3116 1113 3116 1747 
z
M 1159 2969 
Q 1341 3281 1617 3432 
Q 1894 3584 2278 3584 
Q 2916 3584 3314 3078 
Q 3713 2572 3713 1747 
Q 3713 922 3314 415 
Q 2916 -91 2278 -91 
Q 1894 -91 1617 61 
Q 1341 213 1159 525 
L 1159 0 
L 581 0 
L 581 4863 
L 1159 4863 
L 1159 2969 
z
" transform="scale(0.015625)"/>
     <path id="DejaVuSans-3d" d="M 678 2906 
L 4684 2906 
L 4684 2381 
L 678 2381 
L 678 2906 
z
M 678 1631 
L 4684 1631 
L 4684 1100 
L 678 1100 
L 678 1631 
z
" transform="scale(0.015625)"/>
     <path id="DejaVuSans-35" d="M 691 4666 
L 3169 4666 
L 3169 4134 
L 1269 4134 
L 1269 2991 
Q 1406 3038 1543 3061 
Q 1681 3084 1819 3084 
Q 2600 3084 3056 2656 
Q 3513 2228 3513 1497 
Q 3513 744 3044 326 
Q 2575 -91 1722 -91 
Q 1428 -91 1123 -41 
Q 819 9 494 109 
L 494 744 
Q 775 591 1075 516 
Q 1375 441 1709 441 
Q 2250 441 2565 725 
Q 2881 1009 2881 1497 
Q 2881 1984 2565 2268 
Q 2250 2553 1709 2553 
Q 1456 2553 1204 2497 
Q 953 2441 691 2322 
L 691 4666 
z
" transform="scale(0.015625)"/>
    </defs>
    <use xlink:href="#DejaVuSans-4c"/>
    <use xlink:href="#DejaVuSans-44" x="55.712891"/>
    <use xlink:href="#DejaVuSans-4f" x="132.714844"/>
    <use xlink:href="#DejaVuSans-53" x="211.425781"/>
    <use xlink:href="#DejaVuSans-78" x="274.902344"/>
    <use xlink:href="#DejaVuSans-20" x="334.082031"/>
    <use xlink:href="#DejaVuSans-6c" x="365.869141"/>
    <use xlink:href="#DejaVuSans-61" x="393.652344"/>
    <use xlink:href="#DejaVuSans-6d" x="454.931641"/>
    <use xlink:href="#DejaVuSans-62" x="552.34375"/>
    <use xlink:href="#DejaVuSans-64" x="615.820312"/>
    <use xlink:href="#DejaVuSans-61" x="679.296875"/>
    <use xlink:href="#DejaVuSans-20" x="740.576172"/>
    <use xlink:href="#DejaVuSans-3d" x="772.363281"/>
    <use xlink:href="#DejaVuSans-20" x="856.152344"/>
    <use xlink:href="#DejaVuSans-33" x="887.939453"/>
    <use xlink:href="#DejaVuSans-35" x="951.5625"/>
    <use xlink:href="#DejaVuSans-34" x="1015.185547"/>
    <use xlink:href="#DejaVuSans-20" x="1078.808594"/>
    <use xlink:href="#DejaVuSans-6e" x="1110.595703"/>
    <use xlink:href="#DejaVuSans-6d" x="1173.974609"/>
   </g>
  </g>
 </g>
 <defs>
  <clipPath id="p20d43f5a95">
   <rect x="55.880346" y="32.4" width="394.119654" height="271.24"/>
  </clipPath>
 </defs>
</svg>
