<?xml version="1.0" encoding="utf-8" standalone="no"?>
<!DOCTYPE svg PUBLIC "-//W3C//DTD SVG 1.1//EN"
  "http://www.w3.org/Graphics/SVG/1.1/DTD/svg11.dtd">
<svg xmlns:xlink="http://www.w3.org/1999/xlink" width="460.8pt" height="345.6pt" viewBox="0 0 460.8 345.6" xmlns="http://www.w3.org/2000/svg" version="1.1">
 <metadata>
  <rdf:RDF xmlns:dc="http://purl.org/dc/elements/1.1/" xmlns:cc="http://creativecommons.org/ns#" xmlns:rdf="http://www.w3.org/1999/02/22-rdf-syntax-ns#">
   <cc:Work>
    <dc:type rdf:resource="http://purl.org/dc/dcmitype/StillImage"/>
    <dc:date>2023-09-12T15:07:43.588418</dc:date>
    <dc:format>image/svg+xml</dc:format>
    <dc:creator>
     <cc:Agent>
      <dc:title>Matplotlib v3.5.1, https://matplotlib.org/</dc:title>
     </cc:Agent>
    </dc:creator>
   </cc:Work>
  </rdf:RDF>
 </metadata>
 <defs>
  <style type="text/css">*{stroke-linejoin: round; stroke-linecap: butt}</style>
 </defs>
 <g id="figure_1">
  <g id="patch_1">
   <path d="M 0 345.6 
L 460.8 345.6 
L 460.8 0 
L 0 0 
z
" style="fill: #ffffff"/>
  </g>
  <g id="axes_1">
   <g id="patch_2">
    <path d="M 55.779096 303.64 
L 450 303.64 
L 450 33.137676 
L 55.779096 33.137676 
z
" style="fill: #ffffff"/>
   </g>
   <g id="matplotlib.axis_1">
    <g id="xtick_1">
     <g id="line2d_1">
      <defs>
       <path id="m0d2520687c" d="M 0 0 
L 0 3.5 
" style="stroke: #000000; stroke-width: 0.8"/>
      </defs>
      <g>
       <use xlink:href="#m0d2520687c" x="113.518521" y="303.64" style="stroke: #000000; stroke-width: 0.8"/>
      </g>
     </g>
     <g id="text_1">
      <!-- 20 -->
      <g transform="translate(107.156021 318.238437)scale(0.1 -0.1)">
       <defs>
        <path id="DejaVuSans-32" d="M 1228 531 
L 3431 531 
L 3431 0 
L 469 0 
L 469 531 
Q 828 903 1448 1529 
Q 2069 2156 2228 2338 
Q 2531 2678 2651 2914 
Q 2772 3150 2772 3378 
Q 2772 3750 2511 3984 
Q 2250 4219 1831 4219 
Q 1534 4219 1204 4116 
Q 875 4013 500 3803 
L 500 4441 
Q 881 4594 1212 4672 
Q 1544 4750 1819 4750 
Q 2544 4750 2975 4387 
Q 3406 4025 3406 3419 
Q 3406 3131 3298 2873 
Q 3191 2616 2906 2266 
Q 2828 2175 2409 1742 
Q 1991 1309 1228 531 
z
" transform="scale(0.015625)"/>
        <path id="DejaVuSans-30" d="M 2034 4250 
Q 1547 4250 1301 3770 
Q 1056 3291 1056 2328 
Q 1056 1369 1301 889 
Q 1547 409 2034 409 
Q 2525 409 2770 889 
Q 3016 1369 3016 2328 
Q 3016 3291 2770 3770 
Q 2525 4250 2034 4250 
z
M 2034 4750 
Q 2819 4750 3233 4129 
Q 3647 3509 3647 2328 
Q 3647 1150 3233 529 
Q 2819 -91 2034 -91 
Q 1250 -91 836 529 
Q 422 1150 422 2328 
Q 422 3509 836 4129 
Q 1250 4750 2034 4750 
z
" transform="scale(0.015625)"/>
       </defs>
       <use xlink:href="#DejaVuSans-32"/>
       <use xlink:href="#DejaVuSans-30" x="63.623047"/>
      </g>
     </g>
    </g>
    <g id="xtick_2">
     <g id="line2d_2">
      <g>
       <use xlink:href="#m0d2520687c" x="193.159108" y="303.64" style="stroke: #000000; stroke-width: 0.8"/>
      </g>
     </g>
     <g id="text_2">
      <!-- 40 -->
      <g transform="translate(186.796608 318.238437)scale(0.1 -0.1)">
       <defs>
        <path id="DejaVuSans-34" d="M 2419 4116 
L 825 1625 
L 2419 1625 
L 2419 4116 
z
M 2253 4666 
L 3047 4666 
L 3047 1625 
L 3713 1625 
L 3713 1100 
L 3047 1100 
L 3047 0 
L 2419 0 
L 2419 1100 
L 313 1100 
L 313 1709 
L 2253 4666 
z
" transform="scale(0.015625)"/>
       </defs>
       <use xlink:href="#DejaVuSans-34"/>
       <use xlink:href="#DejaVuSans-30" x="63.623047"/>
      </g>
     </g>
    </g>
    <g id="xtick_3">
     <g id="line2d_3">
      <g>
       <use xlink:href="#m0d2520687c" x="272.799695" y="303.64" style="stroke: #000000; stroke-width: 0.8"/>
      </g>
     </g>
     <g id="text_3">
      <!-- 60 -->
      <g transform="translate(266.437195 318.238437)scale(0.1 -0.1)">
       <defs>
        <path id="DejaVuSans-36" d="M 2113 2584 
Q 1688 2584 1439 2293 
Q 1191 2003 1191 1497 
Q 1191 994 1439 701 
Q 1688 409 2113 409 
Q 2538 409 2786 701 
Q 3034 994 3034 1497 
Q 3034 2003 2786 2293 
Q 2538 2584 2113 2584 
z
M 3366 4563 
L 3366 3988 
Q 3128 4100 2886 4159 
Q 2644 4219 2406 4219 
Q 1781 4219 1451 3797 
Q 1122 3375 1075 2522 
Q 1259 2794 1537 2939 
Q 1816 3084 2150 3084 
Q 2853 3084 3261 2657 
Q 3669 2231 3669 1497 
Q 3669 778 3244 343 
Q 2819 -91 2113 -91 
Q 1303 -91 875 529 
Q 447 1150 447 2328 
Q 447 3434 972 4092 
Q 1497 4750 2381 4750 
Q 2619 4750 2861 4703 
Q 3103 4656 3366 4563 
z
" transform="scale(0.015625)"/>
       </defs>
       <use xlink:href="#DejaVuSans-36"/>
       <use xlink:href="#DejaVuSans-30" x="63.623047"/>
      </g>
     </g>
    </g>
    <g id="xtick_4">
     <g id="line2d_4">
      <g>
       <use xlink:href="#m0d2520687c" x="352.440281" y="303.64" style="stroke: #000000; stroke-width: 0.8"/>
      </g>
     </g>
     <g id="text_4">
      <!-- 80 -->
      <g transform="translate(346.077781 318.238437)scale(0.1 -0.1)">
       <defs>
        <path id="DejaVuSans-38" d="M 2034 2216 
Q 1584 2216 1326 1975 
Q 1069 1734 1069 1313 
Q 1069 891 1326 650 
Q 1584 409 2034 409 
Q 2484 409 2743 651 
Q 3003 894 3003 1313 
Q 3003 1734 2745 1975 
Q 2488 2216 2034 2216 
z
M 1403 2484 
Q 997 2584 770 2862 
Q 544 3141 544 3541 
Q 544 4100 942 4425 
Q 1341 4750 2034 4750 
Q 2731 4750 3128 4425 
Q 3525 4100 3525 3541 
Q 3525 3141 3298 2862 
Q 3072 2584 2669 2484 
Q 3125 2378 3379 2068 
Q 3634 1759 3634 1313 
Q 3634 634 3220 271 
Q 2806 -91 2034 -91 
Q 1263 -91 848 271 
Q 434 634 434 1313 
Q 434 1759 690 2068 
Q 947 2378 1403 2484 
z
M 1172 3481 
Q 1172 3119 1398 2916 
Q 1625 2713 2034 2713 
Q 2441 2713 2670 2916 
Q 2900 3119 2900 3481 
Q 2900 3844 2670 4047 
Q 2441 4250 2034 4250 
Q 1625 4250 1398 4047 
Q 1172 3844 1172 3481 
z
" transform="scale(0.015625)"/>
       </defs>
       <use xlink:href="#DejaVuSans-38"/>
       <use xlink:href="#DejaVuSans-30" x="63.623047"/>
      </g>
     </g>
    </g>
    <g id="xtick_5">
     <g id="line2d_5">
      <g>
       <use xlink:href="#m0d2520687c" x="432.080868" y="303.64" style="stroke: #000000; stroke-width: 0.8"/>
      </g>
     </g>
     <g id="text_5">
      <!-- 100 -->
      <g transform="translate(422.537118 318.238437)scale(0.1 -0.1)">
       <defs>
        <path id="DejaVuSans-31" d="M 794 531 
L 1825 531 
L 1825 4091 
L 703 3866 
L 703 4441 
L 1819 4666 
L 2450 4666 
L 2450 531 
L 3481 531 
L 3481 0 
L 794 0 
L 794 531 
z
" transform="scale(0.015625)"/>
       </defs>
       <use xlink:href="#DejaVuSans-31"/>
       <use xlink:href="#DejaVuSans-30" x="63.623047"/>
       <use xlink:href="#DejaVuSans-30" x="127.246094"/>
      </g>
     </g>
    </g>
    <g id="text_6">
     <!-- z (nm) -->
     <g transform="translate(236.735642 331.916562)scale(0.1 -0.1)">
      <defs>
       <path id="DejaVuSans-7a" d="M 353 3500 
L 3084 3500 
L 3084 2975 
L 922 459 
L 3084 459 
L 3084 0 
L 275 0 
L 275 525 
L 2438 3041 
L 353 3041 
L 353 3500 
z
" transform="scale(0.015625)"/>
       <path id="DejaVuSans-20" transform="scale(0.015625)"/>
       <path id="DejaVuSans-28" d="M 1984 4856 
Q 1566 4138 1362 3434 
Q 1159 2731 1159 2009 
Q 1159 1288 1364 580 
Q 1569 -128 1984 -844 
L 1484 -844 
Q 1016 -109 783 600 
Q 550 1309 550 2009 
Q 550 2706 781 3412 
Q 1013 4119 1484 4856 
L 1984 4856 
z
" transform="scale(0.015625)"/>
       <path id="DejaVuSans-6e" d="M 3513 2113 
L 3513 0 
L 2938 0 
L 2938 2094 
Q 2938 2591 2744 2837 
Q 2550 3084 2163 3084 
Q 1697 3084 1428 2787 
Q 1159 2491 1159 1978 
L 1159 0 
L 581 0 
L 581 3500 
L 1159 3500 
L 1159 2956 
Q 1366 3272 1645 3428 
Q 1925 3584 2291 3584 
Q 2894 3584 3203 3211 
Q 3513 2838 3513 2113 
z
" transform="scale(0.015625)"/>
       <path id="DejaVuSans-6d" d="M 3328 2828 
Q 3544 3216 3844 3400 
Q 4144 3584 4550 3584 
Q 5097 3584 5394 3201 
Q 5691 2819 5691 2113 
L 5691 0 
L 5113 0 
L 5113 2094 
Q 5113 2597 4934 2840 
Q 4756 3084 4391 3084 
Q 3944 3084 3684 2787 
Q 3425 2491 3425 1978 
L 3425 0 
L 2847 0 
L 2847 2094 
Q 2847 2600 2669 2842 
Q 2491 3084 2119 3084 
Q 1678 3084 1418 2786 
Q 1159 2488 1159 1978 
L 1159 0 
L 581 0 
L 581 3500 
L 1159 3500 
L 1159 2956 
Q 1356 3278 1631 3431 
Q 1906 3584 2284 3584 
Q 2666 3584 2933 3390 
Q 3200 3197 3328 2828 
z
" transform="scale(0.015625)"/>
       <path id="DejaVuSans-29" d="M 513 4856 
L 1013 4856 
Q 1481 4119 1714 3412 
Q 1947 2706 1947 2009 
Q 1947 1309 1714 600 
Q 1481 -109 1013 -844 
L 513 -844 
Q 928 -128 1133 580 
Q 1338 1288 1338 2009 
Q 1338 2731 1133 3434 
Q 928 4138 513 4856 
z
" transform="scale(0.015625)"/>
      </defs>
      <use xlink:href="#DejaVuSans-7a"/>
      <use xlink:href="#DejaVuSans-20" x="52.490234"/>
      <use xlink:href="#DejaVuSans-28" x="84.277344"/>
      <use xlink:href="#DejaVuSans-6e" x="123.291016"/>
      <use xlink:href="#DejaVuSans-6d" x="186.669922"/>
      <use xlink:href="#DejaVuSans-29" x="284.082031"/>
     </g>
    </g>
   </g>
   <g id="matplotlib.axis_2">
    <g id="ytick_1">
     <g id="line2d_6">
      <defs>
       <path id="mfde667c4d3" d="M 0 0 
L -3.5 0 
" style="stroke: #000000; stroke-width: 0.8"/>
      </defs>
      <g>
       <use xlink:href="#mfde667c4d3" x="55.779096" y="265.898136" style="stroke: #000000; stroke-width: 0.8"/>
      </g>
     </g>
     <g id="text_7">
      <!-- $\mathdefault{10^{-2}}$ -->
      <g transform="translate(25.279096 269.697355)scale(0.1 -0.1)">
       <defs>
        <path id="DejaVuSans-2212" d="M 678 2272 
L 4684 2272 
L 4684 1741 
L 678 1741 
L 678 2272 
z
" transform="scale(0.015625)"/>
       </defs>
       <use xlink:href="#DejaVuSans-31" transform="translate(0 0.765625)"/>
       <use xlink:href="#DejaVuSans-30" transform="translate(63.623047 0.765625)"/>
       <use xlink:href="#DejaVuSans-2212" transform="translate(128.203125 39.046875)scale(0.7)"/>
       <use xlink:href="#DejaVuSans-32" transform="translate(186.855469 39.046875)scale(0.7)"/>
      </g>
     </g>
    </g>
    <g id="ytick_2">
     <g id="line2d_7">
      <g>
       <use xlink:href="#mfde667c4d3" x="55.779096" y="220.337806" style="stroke: #000000; stroke-width: 0.8"/>
      </g>
     </g>
     <g id="text_8">
      <!-- $\mathdefault{10^{-1}}$ -->
      <g transform="translate(25.279096 224.137024)scale(0.1 -0.1)">
       <use xlink:href="#DejaVuSans-31" transform="translate(0 0.684375)"/>
       <use xlink:href="#DejaVuSans-30" transform="translate(63.623047 0.684375)"/>
       <use xlink:href="#DejaVuSans-2212" transform="translate(128.203125 38.965625)scale(0.7)"/>
       <use xlink:href="#DejaVuSans-31" transform="translate(186.855469 38.965625)scale(0.7)"/>
      </g>
     </g>
    </g>
    <g id="ytick_3">
     <g id="line2d_8">
      <g>
       <use xlink:href="#mfde667c4d3" x="55.779096" y="174.777475" style="stroke: #000000; stroke-width: 0.8"/>
      </g>
     </g>
     <g id="text_9">
      <!-- $\mathdefault{10^{0}}$ -->
      <g transform="translate(31.179096 178.576694)scale(0.1 -0.1)">
       <use xlink:href="#DejaVuSans-31" transform="translate(0 0.765625)"/>
       <use xlink:href="#DejaVuSans-30" transform="translate(63.623047 0.765625)"/>
       <use xlink:href="#DejaVuSans-30" transform="translate(128.203125 39.046875)scale(0.7)"/>
      </g>
     </g>
    </g>
    <g id="ytick_4">
     <g id="line2d_9">
      <g>
       <use xlink:href="#mfde667c4d3" x="55.779096" y="129.217144" style="stroke: #000000; stroke-width: 0.8"/>
      </g>
     </g>
     <g id="text_10">
      <!-- $\mathdefault{10^{1}}$ -->
      <g transform="translate(31.179096 133.016363)scale(0.1 -0.1)">
       <use xlink:href="#DejaVuSans-31" transform="translate(0 0.684375)"/>
       <use xlink:href="#DejaVuSans-30" transform="translate(63.623047 0.684375)"/>
       <use xlink:href="#DejaVuSans-31" transform="translate(128.203125 38.965625)scale(0.7)"/>
      </g>
     </g>
    </g>
    <g id="ytick_5">
     <g id="line2d_10">
      <g>
       <use xlink:href="#mfde667c4d3" x="55.779096" y="83.656813" style="stroke: #000000; stroke-width: 0.8"/>
      </g>
     </g>
     <g id="text_11">
      <!-- $\mathdefault{10^{2}}$ -->
      <g transform="translate(31.179096 87.456032)scale(0.1 -0.1)">
       <use xlink:href="#DejaVuSans-31" transform="translate(0 0.765625)"/>
       <use xlink:href="#DejaVuSans-30" transform="translate(63.623047 0.765625)"/>
       <use xlink:href="#DejaVuSans-32" transform="translate(128.203125 39.046875)scale(0.7)"/>
      </g>
     </g>
    </g>
    <g id="ytick_6">
     <g id="line2d_11">
      <g>
       <use xlink:href="#mfde667c4d3" x="55.779096" y="38.096483" style="stroke: #000000; stroke-width: 0.8"/>
      </g>
     </g>
     <g id="text_12">
      <!-- $\mathdefault{10^{3}}$ -->
      <g transform="translate(31.179096 41.895701)scale(0.1 -0.1)">
       <defs>
        <path id="DejaVuSans-33" d="M 2597 2516 
Q 3050 2419 3304 2112 
Q 3559 1806 3559 1356 
Q 3559 666 3084 287 
Q 2609 -91 1734 -91 
Q 1441 -91 1130 -33 
Q 819 25 488 141 
L 488 750 
Q 750 597 1062 519 
Q 1375 441 1716 441 
Q 2309 441 2620 675 
Q 2931 909 2931 1356 
Q 2931 1769 2642 2001 
Q 2353 2234 1838 2234 
L 1294 2234 
L 1294 2753 
L 1863 2753 
Q 2328 2753 2575 2939 
Q 2822 3125 2822 3475 
Q 2822 3834 2567 4026 
Q 2313 4219 1838 4219 
Q 1578 4219 1281 4162 
Q 984 4106 628 3988 
L 628 4550 
Q 988 4650 1302 4700 
Q 1616 4750 1894 4750 
Q 2613 4750 3031 4423 
Q 3450 4097 3450 3541 
Q 3450 3153 3228 2886 
Q 3006 2619 2597 2516 
z
" transform="scale(0.015625)"/>
       </defs>
       <use xlink:href="#DejaVuSans-31" transform="translate(0 0.765625)"/>
       <use xlink:href="#DejaVuSans-30" transform="translate(63.623047 0.765625)"/>
       <use xlink:href="#DejaVuSans-33" transform="translate(128.203125 39.046875)scale(0.7)"/>
      </g>
     </g>
    </g>
    <g id="ytick_7">
     <g id="line2d_12">
      <defs>
       <path id="m6b3ce5d31c" d="M 0 0 
L -2 0 
" style="stroke: #000000; stroke-width: 0.6"/>
      </defs>
      <g>
       <use xlink:href="#m6b3ce5d31c" x="55.779096" y="297.743441" style="stroke: #000000; stroke-width: 0.6"/>
      </g>
     </g>
    </g>
    <g id="ytick_8">
     <g id="line2d_13">
      <g>
       <use xlink:href="#m6b3ce5d31c" x="55.779096" y="289.720665" style="stroke: #000000; stroke-width: 0.6"/>
      </g>
     </g>
    </g>
    <g id="ytick_9">
     <g id="line2d_14">
      <g>
       <use xlink:href="#m6b3ce5d31c" x="55.779096" y="284.028415" style="stroke: #000000; stroke-width: 0.6"/>
      </g>
     </g>
    </g>
    <g id="ytick_10">
     <g id="line2d_15">
      <g>
       <use xlink:href="#m6b3ce5d31c" x="55.779096" y="279.613162" style="stroke: #000000; stroke-width: 0.6"/>
      </g>
     </g>
    </g>
    <g id="ytick_11">
     <g id="line2d_16">
      <g>
       <use xlink:href="#m6b3ce5d31c" x="55.779096" y="276.005639" style="stroke: #000000; stroke-width: 0.6"/>
      </g>
     </g>
    </g>
    <g id="ytick_12">
     <g id="line2d_17">
      <g>
       <use xlink:href="#m6b3ce5d31c" x="55.779096" y="272.955521" style="stroke: #000000; stroke-width: 0.6"/>
      </g>
     </g>
    </g>
    <g id="ytick_13">
     <g id="line2d_18">
      <g>
       <use xlink:href="#m6b3ce5d31c" x="55.779096" y="270.313388" style="stroke: #000000; stroke-width: 0.6"/>
      </g>
     </g>
    </g>
    <g id="ytick_14">
     <g id="line2d_19">
      <g>
       <use xlink:href="#m6b3ce5d31c" x="55.779096" y="267.982863" style="stroke: #000000; stroke-width: 0.6"/>
      </g>
     </g>
    </g>
    <g id="ytick_15">
     <g id="line2d_20">
      <g>
       <use xlink:href="#m6b3ce5d31c" x="55.779096" y="252.18311" style="stroke: #000000; stroke-width: 0.6"/>
      </g>
     </g>
    </g>
    <g id="ytick_16">
     <g id="line2d_21">
      <g>
       <use xlink:href="#m6b3ce5d31c" x="55.779096" y="244.160334" style="stroke: #000000; stroke-width: 0.6"/>
      </g>
     </g>
    </g>
    <g id="ytick_17">
     <g id="line2d_22">
      <g>
       <use xlink:href="#m6b3ce5d31c" x="55.779096" y="238.468084" style="stroke: #000000; stroke-width: 0.6"/>
      </g>
     </g>
    </g>
    <g id="ytick_18">
     <g id="line2d_23">
      <g>
       <use xlink:href="#m6b3ce5d31c" x="55.779096" y="234.052832" style="stroke: #000000; stroke-width: 0.6"/>
      </g>
     </g>
    </g>
    <g id="ytick_19">
     <g id="line2d_24">
      <g>
       <use xlink:href="#m6b3ce5d31c" x="55.779096" y="230.445308" style="stroke: #000000; stroke-width: 0.6"/>
      </g>
     </g>
    </g>
    <g id="ytick_20">
     <g id="line2d_25">
      <g>
       <use xlink:href="#m6b3ce5d31c" x="55.779096" y="227.39519" style="stroke: #000000; stroke-width: 0.6"/>
      </g>
     </g>
    </g>
    <g id="ytick_21">
     <g id="line2d_26">
      <g>
       <use xlink:href="#m6b3ce5d31c" x="55.779096" y="224.753058" style="stroke: #000000; stroke-width: 0.6"/>
      </g>
     </g>
    </g>
    <g id="ytick_22">
     <g id="line2d_27">
      <g>
       <use xlink:href="#m6b3ce5d31c" x="55.779096" y="222.422532" style="stroke: #000000; stroke-width: 0.6"/>
      </g>
     </g>
    </g>
    <g id="ytick_23">
     <g id="line2d_28">
      <g>
       <use xlink:href="#m6b3ce5d31c" x="55.779096" y="206.622779" style="stroke: #000000; stroke-width: 0.6"/>
      </g>
     </g>
    </g>
    <g id="ytick_24">
     <g id="line2d_29">
      <g>
       <use xlink:href="#m6b3ce5d31c" x="55.779096" y="198.600003" style="stroke: #000000; stroke-width: 0.6"/>
      </g>
     </g>
    </g>
    <g id="ytick_25">
     <g id="line2d_30">
      <g>
       <use xlink:href="#m6b3ce5d31c" x="55.779096" y="192.907753" style="stroke: #000000; stroke-width: 0.6"/>
      </g>
     </g>
    </g>
    <g id="ytick_26">
     <g id="line2d_31">
      <g>
       <use xlink:href="#m6b3ce5d31c" x="55.779096" y="188.492501" style="stroke: #000000; stroke-width: 0.6"/>
      </g>
     </g>
    </g>
    <g id="ytick_27">
     <g id="line2d_32">
      <g>
       <use xlink:href="#m6b3ce5d31c" x="55.779096" y="184.884977" style="stroke: #000000; stroke-width: 0.6"/>
      </g>
     </g>
    </g>
    <g id="ytick_28">
     <g id="line2d_33">
      <g>
       <use xlink:href="#m6b3ce5d31c" x="55.779096" y="181.834859" style="stroke: #000000; stroke-width: 0.6"/>
      </g>
     </g>
    </g>
    <g id="ytick_29">
     <g id="line2d_34">
      <g>
       <use xlink:href="#m6b3ce5d31c" x="55.779096" y="179.192727" style="stroke: #000000; stroke-width: 0.6"/>
      </g>
     </g>
    </g>
    <g id="ytick_30">
     <g id="line2d_35">
      <g>
       <use xlink:href="#m6b3ce5d31c" x="55.779096" y="176.862201" style="stroke: #000000; stroke-width: 0.6"/>
      </g>
     </g>
    </g>
    <g id="ytick_31">
     <g id="line2d_36">
      <g>
       <use xlink:href="#m6b3ce5d31c" x="55.779096" y="161.062449" style="stroke: #000000; stroke-width: 0.6"/>
      </g>
     </g>
    </g>
    <g id="ytick_32">
     <g id="line2d_37">
      <g>
       <use xlink:href="#m6b3ce5d31c" x="55.779096" y="153.039673" style="stroke: #000000; stroke-width: 0.6"/>
      </g>
     </g>
    </g>
    <g id="ytick_33">
     <g id="line2d_38">
      <g>
       <use xlink:href="#m6b3ce5d31c" x="55.779096" y="147.347423" style="stroke: #000000; stroke-width: 0.6"/>
      </g>
     </g>
    </g>
    <g id="ytick_34">
     <g id="line2d_39">
      <g>
       <use xlink:href="#m6b3ce5d31c" x="55.779096" y="142.93217" style="stroke: #000000; stroke-width: 0.6"/>
      </g>
     </g>
    </g>
    <g id="ytick_35">
     <g id="line2d_40">
      <g>
       <use xlink:href="#m6b3ce5d31c" x="55.779096" y="139.324647" style="stroke: #000000; stroke-width: 0.6"/>
      </g>
     </g>
    </g>
    <g id="ytick_36">
     <g id="line2d_41">
      <g>
       <use xlink:href="#m6b3ce5d31c" x="55.779096" y="136.274529" style="stroke: #000000; stroke-width: 0.6"/>
      </g>
     </g>
    </g>
    <g id="ytick_37">
     <g id="line2d_42">
      <g>
       <use xlink:href="#m6b3ce5d31c" x="55.779096" y="133.632396" style="stroke: #000000; stroke-width: 0.6"/>
      </g>
     </g>
    </g>
    <g id="ytick_38">
     <g id="line2d_43">
      <g>
       <use xlink:href="#m6b3ce5d31c" x="55.779096" y="131.301871" style="stroke: #000000; stroke-width: 0.6"/>
      </g>
     </g>
    </g>
    <g id="ytick_39">
     <g id="line2d_44">
      <g>
       <use xlink:href="#m6b3ce5d31c" x="55.779096" y="115.502118" style="stroke: #000000; stroke-width: 0.6"/>
      </g>
     </g>
    </g>
    <g id="ytick_40">
     <g id="line2d_45">
      <g>
       <use xlink:href="#m6b3ce5d31c" x="55.779096" y="107.479342" style="stroke: #000000; stroke-width: 0.6"/>
      </g>
     </g>
    </g>
    <g id="ytick_41">
     <g id="line2d_46">
      <g>
       <use xlink:href="#m6b3ce5d31c" x="55.779096" y="101.787092" style="stroke: #000000; stroke-width: 0.6"/>
      </g>
     </g>
    </g>
    <g id="ytick_42">
     <g id="line2d_47">
      <g>
       <use xlink:href="#m6b3ce5d31c" x="55.779096" y="97.37184" style="stroke: #000000; stroke-width: 0.6"/>
      </g>
     </g>
    </g>
    <g id="ytick_43">
     <g id="line2d_48">
      <g>
       <use xlink:href="#m6b3ce5d31c" x="55.779096" y="93.764316" style="stroke: #000000; stroke-width: 0.6"/>
      </g>
     </g>
    </g>
    <g id="ytick_44">
     <g id="line2d_49">
      <g>
       <use xlink:href="#m6b3ce5d31c" x="55.779096" y="90.714198" style="stroke: #000000; stroke-width: 0.6"/>
      </g>
     </g>
    </g>
    <g id="ytick_45">
     <g id="line2d_50">
      <g>
       <use xlink:href="#m6b3ce5d31c" x="55.779096" y="88.072066" style="stroke: #000000; stroke-width: 0.6"/>
      </g>
     </g>
    </g>
    <g id="ytick_46">
     <g id="line2d_51">
      <g>
       <use xlink:href="#m6b3ce5d31c" x="55.779096" y="85.74154" style="stroke: #000000; stroke-width: 0.6"/>
      </g>
     </g>
    </g>
    <g id="ytick_47">
     <g id="line2d_52">
      <g>
       <use xlink:href="#m6b3ce5d31c" x="55.779096" y="69.941787" style="stroke: #000000; stroke-width: 0.6"/>
      </g>
     </g>
    </g>
    <g id="ytick_48">
     <g id="line2d_53">
      <g>
       <use xlink:href="#m6b3ce5d31c" x="55.779096" y="61.919011" style="stroke: #000000; stroke-width: 0.6"/>
      </g>
     </g>
    </g>
    <g id="ytick_49">
     <g id="line2d_54">
      <g>
       <use xlink:href="#m6b3ce5d31c" x="55.779096" y="56.226761" style="stroke: #000000; stroke-width: 0.6"/>
      </g>
     </g>
    </g>
    <g id="ytick_50">
     <g id="line2d_55">
      <g>
       <use xlink:href="#m6b3ce5d31c" x="55.779096" y="51.811509" style="stroke: #000000; stroke-width: 0.6"/>
      </g>
     </g>
    </g>
    <g id="ytick_51">
     <g id="line2d_56">
      <g>
       <use xlink:href="#m6b3ce5d31c" x="55.779096" y="48.203985" style="stroke: #000000; stroke-width: 0.6"/>
      </g>
     </g>
    </g>
    <g id="ytick_52">
     <g id="line2d_57">
      <g>
       <use xlink:href="#m6b3ce5d31c" x="55.779096" y="45.153867" style="stroke: #000000; stroke-width: 0.6"/>
      </g>
     </g>
    </g>
    <g id="ytick_53">
     <g id="line2d_58">
      <g>
       <use xlink:href="#m6b3ce5d31c" x="55.779096" y="42.511735" style="stroke: #000000; stroke-width: 0.6"/>
      </g>
     </g>
    </g>
    <g id="ytick_54">
     <g id="line2d_59">
      <g>
       <use xlink:href="#m6b3ce5d31c" x="55.779096" y="40.181209" style="stroke: #000000; stroke-width: 0.6"/>
      </g>
     </g>
    </g>
    <g id="text_13">
     <!-- LDOS_z -->
     <g transform="translate(18.921284 187.259151)rotate(-90)scale(0.1 -0.1)">
      <defs>
       <path id="DejaVuSans-4c" d="M 628 4666 
L 1259 4666 
L 1259 531 
L 3531 531 
L 3531 0 
L 628 0 
L 628 4666 
z
" transform="scale(0.015625)"/>
       <path id="DejaVuSans-44" d="M 1259 4147 
L 1259 519 
L 2022 519 
Q 2988 519 3436 956 
Q 3884 1394 3884 2338 
Q 3884 3275 3436 3711 
Q 2988 4147 2022 4147 
L 1259 4147 
z
M 628 4666 
L 1925 4666 
Q 3281 4666 3915 4102 
Q 4550 3538 4550 2338 
Q 4550 1131 3912 565 
Q 3275 0 1925 0 
L 628 0 
L 628 4666 
z
" transform="scale(0.015625)"/>
       <path id="DejaVuSans-4f" d="M 2522 4238 
Q 1834 4238 1429 3725 
Q 1025 3213 1025 2328 
Q 1025 1447 1429 934 
Q 1834 422 2522 422 
Q 3209 422 3611 934 
Q 4013 1447 4013 2328 
Q 4013 3213 3611 3725 
Q 3209 4238 2522 4238 
z
M 2522 4750 
Q 3503 4750 4090 4092 
Q 4678 3434 4678 2328 
Q 4678 1225 4090 567 
Q 3503 -91 2522 -91 
Q 1538 -91 948 565 
Q 359 1222 359 2328 
Q 359 3434 948 4092 
Q 1538 4750 2522 4750 
z
" transform="scale(0.015625)"/>
       <path id="DejaVuSans-53" d="M 3425 4513 
L 3425 3897 
Q 3066 4069 2747 4153 
Q 2428 4238 2131 4238 
Q 1616 4238 1336 4038 
Q 1056 3838 1056 3469 
Q 1056 3159 1242 3001 
Q 1428 2844 1947 2747 
L 2328 2669 
Q 3034 2534 3370 2195 
Q 3706 1856 3706 1288 
Q 3706 609 3251 259 
Q 2797 -91 1919 -91 
Q 1588 -91 1214 -16 
Q 841 59 441 206 
L 441 856 
Q 825 641 1194 531 
Q 1563 422 1919 422 
Q 2459 422 2753 634 
Q 3047 847 3047 1241 
Q 3047 1584 2836 1778 
Q 2625 1972 2144 2069 
L 1759 2144 
Q 1053 2284 737 2584 
Q 422 2884 422 3419 
Q 422 4038 858 4394 
Q 1294 4750 2059 4750 
Q 2388 4750 2728 4690 
Q 3069 4631 3425 4513 
z
" transform="scale(0.015625)"/>
       <path id="DejaVuSans-5f" d="M 3263 -1063 
L 3263 -1509 
L -63 -1509 
L -63 -1063 
L 3263 -1063 
z
" transform="scale(0.015625)"/>
      </defs>
      <use xlink:href="#DejaVuSans-4c"/>
      <use xlink:href="#DejaVuSans-44" x="55.712891"/>
      <use xlink:href="#DejaVuSans-4f" x="132.714844"/>
      <use xlink:href="#DejaVuSans-53" x="211.425781"/>
      <use xlink:href="#DejaVuSans-5f" x="274.902344"/>
      <use xlink:href="#DejaVuSans-7a" x="324.902344"/>
     </g>
    </g>
   </g>
   <g id="line2d_60">
    <path d="M 73.698228 45.433237 
L 77.680257 56.594367 
L 81.662287 66.745943 
L 85.644316 76.041321 
L 89.626345 84.597583 
L 93.608375 92.505169 
L 97.590404 99.834431 
L 101.572433 106.640239 
L 105.554463 112.965376 
L 109.536492 118.843152 
L 113.518521 124.299525 
L 117.500551 129.354917 
L 121.48258 134.02582 
L 125.464609 138.326247 
L 129.446639 142.269032 
L 133.428668 145.86693 
L 137.410697 149.133494 
L 141.392727 152.083669 
L 145.374756 154.73408 
L 149.356785 157.103036 
L 153.338815 159.210283 
L 157.320844 161.076574 
L 161.302873 162.723143 
L 165.284903 164.171165 
L 169.266932 165.441253 
L 173.248961 166.553049 
L 177.230991 167.524917 
L 181.21302 168.373749 
L 185.195049 169.114865 
L 189.177079 169.762005 
L 193.159108 170.327364 
L 197.141137 170.821687 
L 201.123167 171.25438 
L 205.105196 171.633636 
L 209.087225 171.966561 
L 213.069255 172.259307 
L 217.051284 172.517184 
L 221.033313 172.744773 
L 225.015343 172.94602 
L 228.997372 173.124327 
L 232.979401 173.282626 
L 236.961431 173.423444 
L 240.94346 173.548964 
L 244.925489 173.66107 
L 248.907519 173.761393 
L 252.889548 173.851347 
L 256.871577 173.932158 
L 260.853607 174.00489 
L 264.835636 174.070471 
L 268.817665 174.129711 
L 272.799695 174.183315 
L 276.781724 174.231903 
L 280.763753 174.276015 
L 284.745783 174.31613 
L 288.727812 174.352665 
L 292.709841 174.385991 
L 296.691871 174.416433 
L 300.6739 174.44428 
L 304.655929 174.469788 
L 308.637959 174.493185 
L 312.619988 174.514672 
L 316.602017 174.534429 
L 320.584047 174.552617 
L 324.566076 174.569379 
L 328.548105 174.584845 
L 332.530135 174.599128 
L 336.512164 174.612333 
L 340.494193 174.624553 
L 344.476223 174.635872 
L 348.458252 174.646365 
L 352.440281 174.6561 
L 356.422311 174.66514 
L 360.40434 174.67354 
L 364.386369 174.681351 
L 368.368399 174.688619 
L 372.350428 174.695386 
L 376.332457 174.701691 
L 380.314487 174.707568 
L 384.296516 174.71305 
L 388.278545 174.718164 
L 392.260575 174.722938 
L 396.242604 174.727396 
L 400.224633 174.731561 
L 404.206663 174.735452 
L 408.188692 174.73909 
L 412.170721 174.74249 
L 416.152751 174.74567 
L 420.13478 174.748644 
L 424.116809 174.751426 
L 428.098839 174.754027 
L 432.080868 174.756461 
" clip-path="url(#p2998e5c9d1)" style="fill: none; stroke-dasharray: 5.55,2.4; stroke-dashoffset: 0; stroke: #0000ff; stroke-width: 1.5"/>
   </g>
   <g id="line2d_61">
    <path d="M 73.698228 151.044819 
L 77.680257 157.201822 
L 81.662287 161.710048 
L 85.644316 164.966367 
L 89.626345 167.309694 
L 93.608375 169.003475 
L 97.590404 170.240111 
L 101.572433 171.155121 
L 105.554463 171.842333 
L 109.536492 172.366432 
L 113.518521 172.772178 
L 117.500551 173.090819 
L 121.48258 173.344423 
L 125.464609 173.548777 
L 129.446639 173.71533 
L 133.428668 173.852497 
L 137.410697 173.966547 
L 141.392727 174.062207 
L 145.374756 174.143087 
L 149.356785 174.211974 
L 153.338815 174.271043 
L 157.320844 174.322007 
L 161.302873 174.366231 
L 165.284903 174.40481 
L 169.266932 174.43863 
L 173.248961 174.468412 
L 177.230991 174.494751 
L 181.21302 174.518137 
L 185.195049 174.538977 
L 189.177079 174.557614 
L 193.159108 174.574334 
L 197.141137 174.589381 
L 201.123167 174.602962 
L 205.105196 174.615252 
L 209.087225 174.626402 
L 213.069255 174.636544 
L 217.051284 174.64579 
L 221.033313 174.654238 
L 225.015343 174.661972 
L 228.997372 174.669068 
L 232.979401 174.675589 
L 236.961431 174.681594 
L 240.94346 174.687133 
L 244.925489 174.692251 
L 248.907519 174.696987 
L 252.889548 174.701377 
L 256.871577 174.705451 
L 260.853607 174.709238 
L 264.835636 174.712763 
L 268.817665 174.716048 
L 272.799695 174.719113 
L 276.781724 174.721977 
L 280.763753 174.724656 
L 284.745783 174.727164 
L 288.727812 174.729515 
L 292.709841 174.731722 
L 296.691871 174.733795 
L 300.6739 174.735744 
L 304.655929 174.737578 
L 308.637959 174.739306 
L 312.619988 174.740936 
L 316.602017 174.742473 
L 320.584047 174.743926 
L 324.566076 174.745299 
L 328.548105 174.746597 
L 332.530135 174.747827 
L 336.512164 174.748992 
L 340.494193 174.750097 
L 344.476223 174.751145 
L 348.458252 174.75214 
L 352.440281 174.753086 
L 356.422311 174.753985 
L 360.40434 174.75484 
L 364.386369 174.755654 
L 368.368399 174.75643 
L 372.350428 174.757169 
L 376.332457 174.757874 
L 380.314487 174.758546 
L 384.296516 174.759188 
L 388.278545 174.759802 
L 392.260575 174.760388 
L 396.242604 174.760948 
L 400.224633 174.761485 
L 404.206663 174.761998 
L 408.188692 174.762489 
L 412.170721 174.76296 
L 416.152751 174.763411 
L 420.13478 174.763844 
L 424.116809 174.764259 
L 428.098839 174.764658 
L 432.080868 174.76504 
" clip-path="url(#p2998e5c9d1)" style="fill: none; stroke-dasharray: 5.55,2.4; stroke-dashoffset: 0; stroke: #ff0000; stroke-width: 1.5"/>
   </g>
   <g id="line2d_62">
    <path d="M 73.698228 45.528685 
L 77.680257 56.717373 
L 81.662287 66.909705 
L 85.644316 76.26383 
L 89.626345 84.902746 
L 93.608375 92.924025 
L 97.590404 100.406386 
L 101.572433 107.414276 
L 105.554463 114.00114 
L 109.536492 120.211804 
L 113.518521 126.08424 
L 117.500551 131.650912 
L 121.48258 136.939798 
L 125.464609 141.975187 
L 129.446639 146.778308 
L 133.428668 151.367828 
L 137.410697 155.760256 
L 141.392727 159.970264 
L 145.374756 164.010956 
L 149.356785 167.894085 
L 153.338815 171.630238 
L 157.320844 175.228985 
L 161.302873 178.699008 
L 165.284903 182.048208 
L 169.266932 185.283801 
L 173.248961 188.41239 
L 177.230991 191.44004 
L 181.21302 194.372329 
L 185.195049 197.214405 
L 189.177079 199.971026 
L 193.159108 202.646599 
L 197.141137 205.245215 
L 201.123167 207.770678 
L 205.105196 210.226532 
L 209.087225 212.616082 
L 213.069255 214.942416 
L 217.051284 217.208427 
L 221.033313 219.416821 
L 225.015343 221.57014 
L 228.997372 223.670773 
L 232.979401 225.720964 
L 236.961431 227.722829 
L 240.94346 229.67836 
L 244.925489 231.589439 
L 248.907519 233.457842 
L 252.889548 235.285248 
L 256.871577 237.073248 
L 260.853607 238.823346 
L 264.835636 240.536969 
L 268.817665 242.215471 
L 272.799695 243.860137 
L 276.781724 245.472187 
L 280.763753 247.052782 
L 284.745783 248.603027 
L 288.727812 250.123972 
L 292.709841 251.616619 
L 296.691871 253.081922 
L 300.6739 254.520792 
L 304.655929 255.934098 
L 308.637959 257.32267 
L 312.619988 258.6873 
L 316.602017 260.028746 
L 320.584047 261.347734 
L 324.566076 262.644956 
L 328.548105 263.921078 
L 332.530135 265.176734 
L 336.512164 266.412535 
L 340.494193 267.629065 
L 344.476223 268.826886 
L 348.458252 270.006534 
L 352.440281 271.168528 
L 356.422311 272.313362 
L 360.40434 273.441514 
L 364.386369 274.553443 
L 368.368399 275.649588 
L 372.350428 276.730375 
L 376.332457 277.79621 
L 380.314487 278.847488 
L 384.296516 279.884587 
L 388.278545 280.907871 
L 392.260575 281.917692 
L 396.242604 282.914388 
L 400.224633 283.898287 
L 404.206663 284.869705 
L 408.188692 285.828945 
L 412.170721 286.776301 
L 416.152751 287.712058 
L 420.13478 288.636489 
L 424.116809 289.549861 
L 428.098839 290.452428 
L 432.080868 291.34444 
" clip-path="url(#p2998e5c9d1)" style="fill: none; stroke-dasharray: 5.55,2.4; stroke-dashoffset: 0; stroke: #008000; stroke-width: 1.5"/>
   </g>
   <g id="line2d_63">
    <defs>
     <path id="md13b34b440" d="M 0 3 
C 0.795609 3 1.55874 2.683901 2.12132 2.12132 
C 2.683901 1.55874 3 0.795609 3 0 
C 3 -0.795609 2.683901 -1.55874 2.12132 -2.12132 
C 1.55874 -2.683901 0.795609 -3 0 -3 
C -0.795609 -3 -1.55874 -2.683901 -2.12132 -2.12132 
C -2.683901 -1.55874 -3 -0.795609 -3 0 
C -3 0.795609 -2.683901 1.55874 -2.12132 2.12132 
C -1.55874 2.683901 -0.795609 3 0 3 
z
" style="stroke: #0000ff"/>
    </defs>
    <g clip-path="url(#p2998e5c9d1)">
     <use xlink:href="#md13b34b440" x="73.698228" y="45.433237" style="fill: #0000ff; stroke: #0000ff"/>
     <use xlink:href="#md13b34b440" x="93.608375" y="92.505169" style="fill: #0000ff; stroke: #0000ff"/>
     <use xlink:href="#md13b34b440" x="113.518521" y="124.299525" style="fill: #0000ff; stroke: #0000ff"/>
     <use xlink:href="#md13b34b440" x="133.428668" y="145.86693" style="fill: #0000ff; stroke: #0000ff"/>
     <use xlink:href="#md13b34b440" x="153.338815" y="159.210283" style="fill: #0000ff; stroke: #0000ff"/>
     <use xlink:href="#md13b34b440" x="173.248961" y="166.553049" style="fill: #0000ff; stroke: #0000ff"/>
     <use xlink:href="#md13b34b440" x="193.159108" y="170.327364" style="fill: #0000ff; stroke: #0000ff"/>
     <use xlink:href="#md13b34b440" x="213.069255" y="172.259307" style="fill: #0000ff; stroke: #0000ff"/>
     <use xlink:href="#md13b34b440" x="232.979401" y="173.282626" style="fill: #0000ff; stroke: #0000ff"/>
     <use xlink:href="#md13b34b440" x="252.889548" y="173.851347" style="fill: #0000ff; stroke: #0000ff"/>
     <use xlink:href="#md13b34b440" x="272.799695" y="174.183315" style="fill: #0000ff; stroke: #0000ff"/>
     <use xlink:href="#md13b34b440" x="292.709841" y="174.385991" style="fill: #0000ff; stroke: #0000ff"/>
     <use xlink:href="#md13b34b440" x="312.619988" y="174.514672" style="fill: #0000ff; stroke: #0000ff"/>
     <use xlink:href="#md13b34b440" x="332.530135" y="174.599128" style="fill: #0000ff; stroke: #0000ff"/>
     <use xlink:href="#md13b34b440" x="352.440281" y="174.6561" style="fill: #0000ff; stroke: #0000ff"/>
     <use xlink:href="#md13b34b440" x="372.350428" y="174.695386" style="fill: #0000ff; stroke: #0000ff"/>
     <use xlink:href="#md13b34b440" x="392.260575" y="174.722938" style="fill: #0000ff; stroke: #0000ff"/>
     <use xlink:href="#md13b34b440" x="412.170721" y="174.74249" style="fill: #0000ff; stroke: #0000ff"/>
     <use xlink:href="#md13b34b440" x="432.080868" y="174.756461" style="fill: #0000ff; stroke: #0000ff"/>
    </g>
   </g>
   <g id="line2d_64">
    <defs>
     <path id="mc9b087bb63" d="M 0 3 
C 0.795609 3 1.55874 2.683901 2.12132 2.12132 
C 2.683901 1.55874 3 0.795609 3 0 
C 3 -0.795609 2.683901 -1.55874 2.12132 -2.12132 
C 1.55874 -2.683901 0.795609 -3 0 -3 
C -0.795609 -3 -1.55874 -2.683901 -2.12132 -2.12132 
C -2.683901 -1.55874 -3 -0.795609 -3 0 
C -3 0.795609 -2.683901 1.55874 -2.12132 2.12132 
C -1.55874 2.683901 -0.795609 3 0 3 
z
" style="stroke: #ff0000"/>
    </defs>
    <g clip-path="url(#p2998e5c9d1)">
     <use xlink:href="#mc9b087bb63" x="73.698228" y="151.026216" style="fill: #ff0000; stroke: #ff0000"/>
     <use xlink:href="#mc9b087bb63" x="93.608375" y="168.996179" style="fill: #ff0000; stroke: #ff0000"/>
     <use xlink:href="#mc9b087bb63" x="113.518521" y="172.786717" style="fill: #ff0000; stroke: #ff0000"/>
     <use xlink:href="#mc9b087bb63" x="133.428668" y="173.882397" style="fill: #ff0000; stroke: #ff0000"/>
     <use xlink:href="#mc9b087bb63" x="153.338815" y="174.311119" style="fill: #ff0000; stroke: #ff0000"/>
     <use xlink:href="#mc9b087bb63" x="173.248961" y="174.515335" style="fill: #ff0000; stroke: #ff0000"/>
     <use xlink:href="#mc9b087bb63" x="193.159108" y="174.625886" style="fill: #ff0000; stroke: #ff0000"/>
     <use xlink:href="#mc9b087bb63" x="213.069255" y="174.691164" style="fill: #ff0000; stroke: #ff0000"/>
     <use xlink:href="#mc9b087bb63" x="232.979401" y="174.732121" style="fill: #ff0000; stroke: #ff0000"/>
     <use xlink:href="#mc9b087bb63" x="252.889548" y="174.758929" style="fill: #ff0000; stroke: #ff0000"/>
     <use xlink:href="#mc9b087bb63" x="272.799695" y="174.776977" style="fill: #ff0000; stroke: #ff0000"/>
     <use xlink:href="#mc9b087bb63" x="292.709841" y="174.789321" style="fill: #ff0000; stroke: #ff0000"/>
     <use xlink:href="#mc9b087bb63" x="312.619988" y="174.797796" style="fill: #ff0000; stroke: #ff0000"/>
     <use xlink:href="#mc9b087bb63" x="332.530135" y="174.803552" style="fill: #ff0000; stroke: #ff0000"/>
     <use xlink:href="#mc9b087bb63" x="352.440281" y="174.807347" style="fill: #ff0000; stroke: #ff0000"/>
     <use xlink:href="#mc9b087bb63" x="372.350428" y="174.809692" style="fill: #ff0000; stroke: #ff0000"/>
     <use xlink:href="#mc9b087bb63" x="392.260575" y="174.810947" style="fill: #ff0000; stroke: #ff0000"/>
     <use xlink:href="#mc9b087bb63" x="412.170721" y="174.811372" style="fill: #ff0000; stroke: #ff0000"/>
     <use xlink:href="#mc9b087bb63" x="432.080868" y="174.811161" style="fill: #ff0000; stroke: #ff0000"/>
    </g>
   </g>
   <g id="line2d_65">
    <defs>
     <path id="m115580e1f4" d="M 0 3 
C 0.795609 3 1.55874 2.683901 2.12132 2.12132 
C 2.683901 1.55874 3 0.795609 3 0 
C 3 -0.795609 2.683901 -1.55874 2.12132 -2.12132 
C 1.55874 -2.683901 0.795609 -3 0 -3 
C -0.795609 -3 -1.55874 -2.683901 -2.12132 -2.12132 
C -2.683901 -1.55874 -3 -0.795609 -3 0 
C -3 0.795609 -2.683901 1.55874 -2.12132 2.12132 
C -1.55874 2.683901 -0.795609 3 0 3 
z
" style="stroke: #008000"/>
    </defs>
    <g clip-path="url(#p2998e5c9d1)">
     <use xlink:href="#m115580e1f4" x="73.698228" y="45.528685" style="fill: #008000; stroke: #008000"/>
     <use xlink:href="#m115580e1f4" x="93.608375" y="92.924025" style="fill: #008000; stroke: #008000"/>
     <use xlink:href="#m115580e1f4" x="113.518521" y="126.08424" style="fill: #008000; stroke: #008000"/>
     <use xlink:href="#m115580e1f4" x="133.428668" y="151.367828" style="fill: #008000; stroke: #008000"/>
     <use xlink:href="#m115580e1f4" x="153.338815" y="171.630238" style="fill: #008000; stroke: #008000"/>
     <use xlink:href="#m115580e1f4" x="173.248961" y="188.41239" style="fill: #008000; stroke: #008000"/>
     <use xlink:href="#m115580e1f4" x="193.159108" y="202.646599" style="fill: #008000; stroke: #008000"/>
     <use xlink:href="#m115580e1f4" x="213.069255" y="214.942416" style="fill: #008000; stroke: #008000"/>
     <use xlink:href="#m115580e1f4" x="232.979401" y="225.720964" style="fill: #008000; stroke: #008000"/>
     <use xlink:href="#m115580e1f4" x="252.889548" y="235.285248" style="fill: #008000; stroke: #008000"/>
     <use xlink:href="#m115580e1f4" x="272.799695" y="243.860137" style="fill: #008000; stroke: #008000"/>
     <use xlink:href="#m115580e1f4" x="292.709841" y="251.616619" style="fill: #008000; stroke: #008000"/>
     <use xlink:href="#m115580e1f4" x="312.619988" y="258.6873" style="fill: #008000; stroke: #008000"/>
     <use xlink:href="#m115580e1f4" x="332.530135" y="265.176734" style="fill: #008000; stroke: #008000"/>
     <use xlink:href="#m115580e1f4" x="352.440281" y="271.168528" style="fill: #008000; stroke: #008000"/>
     <use xlink:href="#m115580e1f4" x="372.350428" y="276.730375" style="fill: #008000; stroke: #008000"/>
     <use xlink:href="#m115580e1f4" x="392.260575" y="281.917692" style="fill: #008000; stroke: #008000"/>
     <use xlink:href="#m115580e1f4" x="412.170721" y="286.776301" style="fill: #008000; stroke: #008000"/>
     <use xlink:href="#m115580e1f4" x="432.080868" y="291.34444" style="fill: #008000; stroke: #008000"/>
    </g>
   </g>
   <g id="patch_3">
    <path d="M 55.779096 303.64 
L 55.779096 33.137676 
" style="fill: none; stroke: #000000; stroke-width: 0.8; stroke-linejoin: miter; stroke-linecap: square"/>
   </g>
   <g id="patch_4">
    <path d="M 450 303.64 
L 450 33.137676 
" style="fill: none; stroke: #000000; stroke-width: 0.8; stroke-linejoin: miter; stroke-linecap: square"/>
   </g>
   <g id="patch_5">
    <path d="M 55.779096 303.64 
L 450 303.64 
" style="fill: none; stroke: #000000; stroke-width: 0.8; stroke-linejoin: miter; stroke-linecap: square"/>
   </g>
   <g id="patch_6">
    <path d="M 55.779096 33.137676 
L 450 33.137676 
" style="fill: none; stroke: #000000; stroke-width: 0.8; stroke-linejoin: miter; stroke-linecap: square"/>
   </g>
   <g id="legend_1">
    <g id="patch_7">
     <path d="M 302.098437 129.206426 
L 443 129.206426 
Q 445 129.206426 445 127.206426 
L 445 40.137676 
Q 445 38.137676 443 38.137676 
L 302.098437 38.137676 
Q 300.098437 38.137676 300.098437 40.137676 
L 300.098437 127.206426 
Q 300.098437 129.206426 302.098437 129.206426 
z
" style="fill: #ffffff; opacity: 0.8; stroke: #cccccc; stroke-linejoin: miter"/>
    </g>
    <g id="line2d_66">
     <path d="M 304.098437 46.236114 
L 314.098437 46.236114 
L 324.098437 46.236114 
" style="fill: none; stroke-dasharray: 5.55,2.4; stroke-dashoffset: 0; stroke: #0000ff; stroke-width: 1.5"/>
    </g>
    <g id="text_14">
     <!-- total analytic -->
     <g transform="translate(332.098437 49.736114)scale(0.1 -0.1)">
      <defs>
       <path id="DejaVuSans-74" d="M 1172 4494 
L 1172 3500 
L 2356 3500 
L 2356 3053 
L 1172 3053 
L 1172 1153 
Q 1172 725 1289 603 
Q 1406 481 1766 481 
L 2356 481 
L 2356 0 
L 1766 0 
Q 1100 0 847 248 
Q 594 497 594 1153 
L 594 3053 
L 172 3053 
L 172 3500 
L 594 3500 
L 594 4494 
L 1172 4494 
z
" transform="scale(0.015625)"/>
       <path id="DejaVuSans-6f" d="M 1959 3097 
Q 1497 3097 1228 2736 
Q 959 2375 959 1747 
Q 959 1119 1226 758 
Q 1494 397 1959 397 
Q 2419 397 2687 759 
Q 2956 1122 2956 1747 
Q 2956 2369 2687 2733 
Q 2419 3097 1959 3097 
z
M 1959 3584 
Q 2709 3584 3137 3096 
Q 3566 2609 3566 1747 
Q 3566 888 3137 398 
Q 2709 -91 1959 -91 
Q 1206 -91 779 398 
Q 353 888 353 1747 
Q 353 2609 779 3096 
Q 1206 3584 1959 3584 
z
" transform="scale(0.015625)"/>
       <path id="DejaVuSans-61" d="M 2194 1759 
Q 1497 1759 1228 1600 
Q 959 1441 959 1056 
Q 959 750 1161 570 
Q 1363 391 1709 391 
Q 2188 391 2477 730 
Q 2766 1069 2766 1631 
L 2766 1759 
L 2194 1759 
z
M 3341 1997 
L 3341 0 
L 2766 0 
L 2766 531 
Q 2569 213 2275 61 
Q 1981 -91 1556 -91 
Q 1019 -91 701 211 
Q 384 513 384 1019 
Q 384 1609 779 1909 
Q 1175 2209 1959 2209 
L 2766 2209 
L 2766 2266 
Q 2766 2663 2505 2880 
Q 2244 3097 1772 3097 
Q 1472 3097 1187 3025 
Q 903 2953 641 2809 
L 641 3341 
Q 956 3463 1253 3523 
Q 1550 3584 1831 3584 
Q 2591 3584 2966 3190 
Q 3341 2797 3341 1997 
z
" transform="scale(0.015625)"/>
       <path id="DejaVuSans-6c" d="M 603 4863 
L 1178 4863 
L 1178 0 
L 603 0 
L 603 4863 
z
" transform="scale(0.015625)"/>
       <path id="DejaVuSans-79" d="M 2059 -325 
Q 1816 -950 1584 -1140 
Q 1353 -1331 966 -1331 
L 506 -1331 
L 506 -850 
L 844 -850 
Q 1081 -850 1212 -737 
Q 1344 -625 1503 -206 
L 1606 56 
L 191 3500 
L 800 3500 
L 1894 763 
L 2988 3500 
L 3597 3500 
L 2059 -325 
z
" transform="scale(0.015625)"/>
       <path id="DejaVuSans-69" d="M 603 3500 
L 1178 3500 
L 1178 0 
L 603 0 
L 603 3500 
z
M 603 4863 
L 1178 4863 
L 1178 4134 
L 603 4134 
L 603 4863 
z
" transform="scale(0.015625)"/>
       <path id="DejaVuSans-63" d="M 3122 3366 
L 3122 2828 
Q 2878 2963 2633 3030 
Q 2388 3097 2138 3097 
Q 1578 3097 1268 2742 
Q 959 2388 959 1747 
Q 959 1106 1268 751 
Q 1578 397 2138 397 
Q 2388 397 2633 464 
Q 2878 531 3122 666 
L 3122 134 
Q 2881 22 2623 -34 
Q 2366 -91 2075 -91 
Q 1284 -91 818 406 
Q 353 903 353 1747 
Q 353 2603 823 3093 
Q 1294 3584 2113 3584 
Q 2378 3584 2631 3529 
Q 2884 3475 3122 3366 
z
" transform="scale(0.015625)"/>
      </defs>
      <use xlink:href="#DejaVuSans-74"/>
      <use xlink:href="#DejaVuSans-6f" x="39.208984"/>
      <use xlink:href="#DejaVuSans-74" x="100.390625"/>
      <use xlink:href="#DejaVuSans-61" x="139.599609"/>
      <use xlink:href="#DejaVuSans-6c" x="200.878906"/>
      <use xlink:href="#DejaVuSans-20" x="228.662109"/>
      <use xlink:href="#DejaVuSans-61" x="260.449219"/>
      <use xlink:href="#DejaVuSans-6e" x="321.728516"/>
      <use xlink:href="#DejaVuSans-61" x="385.107422"/>
      <use xlink:href="#DejaVuSans-6c" x="446.386719"/>
      <use xlink:href="#DejaVuSans-79" x="474.169922"/>
      <use xlink:href="#DejaVuSans-74" x="533.349609"/>
      <use xlink:href="#DejaVuSans-69" x="572.558594"/>
      <use xlink:href="#DejaVuSans-63" x="600.341797"/>
     </g>
    </g>
    <g id="line2d_67">
     <path d="M 304.098437 60.914239 
L 314.098437 60.914239 
L 324.098437 60.914239 
" style="fill: none; stroke-dasharray: 5.55,2.4; stroke-dashoffset: 0; stroke: #ff0000; stroke-width: 1.5"/>
    </g>
    <g id="text_15">
     <!-- radiative analytic -->
     <g transform="translate(332.098437 64.414239)scale(0.1 -0.1)">
      <defs>
       <path id="DejaVuSans-72" d="M 2631 2963 
Q 2534 3019 2420 3045 
Q 2306 3072 2169 3072 
Q 1681 3072 1420 2755 
Q 1159 2438 1159 1844 
L 1159 0 
L 581 0 
L 581 3500 
L 1159 3500 
L 1159 2956 
Q 1341 3275 1631 3429 
Q 1922 3584 2338 3584 
Q 2397 3584 2469 3576 
Q 2541 3569 2628 3553 
L 2631 2963 
z
" transform="scale(0.015625)"/>
       <path id="DejaVuSans-64" d="M 2906 2969 
L 2906 4863 
L 3481 4863 
L 3481 0 
L 2906 0 
L 2906 525 
Q 2725 213 2448 61 
Q 2172 -91 1784 -91 
Q 1150 -91 751 415 
Q 353 922 353 1747 
Q 353 2572 751 3078 
Q 1150 3584 1784 3584 
Q 2172 3584 2448 3432 
Q 2725 3281 2906 2969 
z
M 947 1747 
Q 947 1113 1208 752 
Q 1469 391 1925 391 
Q 2381 391 2643 752 
Q 2906 1113 2906 1747 
Q 2906 2381 2643 2742 
Q 2381 3103 1925 3103 
Q 1469 3103 1208 2742 
Q 947 2381 947 1747 
z
" transform="scale(0.015625)"/>
       <path id="DejaVuSans-76" d="M 191 3500 
L 800 3500 
L 1894 563 
L 2988 3500 
L 3597 3500 
L 2284 0 
L 1503 0 
L 191 3500 
z
" transform="scale(0.015625)"/>
       <path id="DejaVuSans-65" d="M 3597 1894 
L 3597 1613 
L 953 1613 
Q 991 1019 1311 708 
Q 1631 397 2203 397 
Q 2534 397 2845 478 
Q 3156 559 3463 722 
L 3463 178 
Q 3153 47 2828 -22 
Q 2503 -91 2169 -91 
Q 1331 -91 842 396 
Q 353 884 353 1716 
Q 353 2575 817 3079 
Q 1281 3584 2069 3584 
Q 2775 3584 3186 3129 
Q 3597 2675 3597 1894 
z
M 3022 2063 
Q 3016 2534 2758 2815 
Q 2500 3097 2075 3097 
Q 1594 3097 1305 2825 
Q 1016 2553 972 2059 
L 3022 2063 
z
" transform="scale(0.015625)"/>
      </defs>
      <use xlink:href="#DejaVuSans-72"/>
      <use xlink:href="#DejaVuSans-61" x="41.113281"/>
      <use xlink:href="#DejaVuSans-64" x="102.392578"/>
      <use xlink:href="#DejaVuSans-69" x="165.869141"/>
      <use xlink:href="#DejaVuSans-61" x="193.652344"/>
      <use xlink:href="#DejaVuSans-74" x="254.931641"/>
      <use xlink:href="#DejaVuSans-69" x="294.140625"/>
      <use xlink:href="#DejaVuSans-76" x="321.923828"/>
      <use xlink:href="#DejaVuSans-65" x="381.103516"/>
      <use xlink:href="#DejaVuSans-20" x="442.626953"/>
      <use xlink:href="#DejaVuSans-61" x="474.414062"/>
      <use xlink:href="#DejaVuSans-6e" x="535.693359"/>
      <use xlink:href="#DejaVuSans-61" x="599.072266"/>
      <use xlink:href="#DejaVuSans-6c" x="660.351562"/>
      <use xlink:href="#DejaVuSans-79" x="688.134766"/>
      <use xlink:href="#DejaVuSans-74" x="747.314453"/>
      <use xlink:href="#DejaVuSans-69" x="786.523438"/>
      <use xlink:href="#DejaVuSans-63" x="814.306641"/>
     </g>
    </g>
    <g id="line2d_68">
     <path d="M 304.098437 75.592364 
L 314.098437 75.592364 
L 324.098437 75.592364 
" style="fill: none; stroke-dasharray: 5.55,2.4; stroke-dashoffset: 0; stroke: #008000; stroke-width: 1.5"/>
    </g>
    <g id="text_16">
     <!-- non radiative analytic -->
     <g transform="translate(332.098437 79.092364)scale(0.1 -0.1)">
      <use xlink:href="#DejaVuSans-6e"/>
      <use xlink:href="#DejaVuSans-6f" x="63.378906"/>
      <use xlink:href="#DejaVuSans-6e" x="124.560547"/>
      <use xlink:href="#DejaVuSans-20" x="187.939453"/>
      <use xlink:href="#DejaVuSans-72" x="219.726562"/>
      <use xlink:href="#DejaVuSans-61" x="260.839844"/>
      <use xlink:href="#DejaVuSans-64" x="322.119141"/>
      <use xlink:href="#DejaVuSans-69" x="385.595703"/>
      <use xlink:href="#DejaVuSans-61" x="413.378906"/>
      <use xlink:href="#DejaVuSans-74" x="474.658203"/>
      <use xlink:href="#DejaVuSans-69" x="513.867188"/>
      <use xlink:href="#DejaVuSans-76" x="541.650391"/>
      <use xlink:href="#DejaVuSans-65" x="600.830078"/>
      <use xlink:href="#DejaVuSans-20" x="662.353516"/>
      <use xlink:href="#DejaVuSans-61" x="694.140625"/>
      <use xlink:href="#DejaVuSans-6e" x="755.419922"/>
      <use xlink:href="#DejaVuSans-61" x="818.798828"/>
      <use xlink:href="#DejaVuSans-6c" x="880.078125"/>
      <use xlink:href="#DejaVuSans-79" x="907.861328"/>
      <use xlink:href="#DejaVuSans-74" x="967.041016"/>
      <use xlink:href="#DejaVuSans-69" x="1006.25"/>
      <use xlink:href="#DejaVuSans-63" x="1034.033203"/>
     </g>
    </g>
    <g id="line2d_69">
     <g>
      <use xlink:href="#md13b34b440" x="314.098437" y="90.270489" style="fill: #0000ff; stroke: #0000ff"/>
     </g>
    </g>
    <g id="text_17">
     <!-- total DDA -->
     <g transform="translate(332.098437 93.770489)scale(0.1 -0.1)">
      <defs>
       <path id="DejaVuSans-41" d="M 2188 4044 
L 1331 1722 
L 3047 1722 
L 2188 4044 
z
M 1831 4666 
L 2547 4666 
L 4325 0 
L 3669 0 
L 3244 1197 
L 1141 1197 
L 716 0 
L 50 0 
L 1831 4666 
z
" transform="scale(0.015625)"/>
      </defs>
      <use xlink:href="#DejaVuSans-74"/>
      <use xlink:href="#DejaVuSans-6f" x="39.208984"/>
      <use xlink:href="#DejaVuSans-74" x="100.390625"/>
      <use xlink:href="#DejaVuSans-61" x="139.599609"/>
      <use xlink:href="#DejaVuSans-6c" x="200.878906"/>
      <use xlink:href="#DejaVuSans-20" x="228.662109"/>
      <use xlink:href="#DejaVuSans-44" x="260.449219"/>
      <use xlink:href="#DejaVuSans-44" x="337.451172"/>
      <use xlink:href="#DejaVuSans-41" x="412.703125"/>
     </g>
    </g>
    <g id="line2d_70">
     <g>
      <use xlink:href="#mc9b087bb63" x="314.098437" y="104.948614" style="fill: #ff0000; stroke: #ff0000"/>
     </g>
    </g>
    <g id="text_18">
     <!-- radiative DDA -->
     <g transform="translate(332.098437 108.448614)scale(0.1 -0.1)">
      <use xlink:href="#DejaVuSans-72"/>
      <use xlink:href="#DejaVuSans-61" x="41.113281"/>
      <use xlink:href="#DejaVuSans-64" x="102.392578"/>
      <use xlink:href="#DejaVuSans-69" x="165.869141"/>
      <use xlink:href="#DejaVuSans-61" x="193.652344"/>
      <use xlink:href="#DejaVuSans-74" x="254.931641"/>
      <use xlink:href="#DejaVuSans-69" x="294.140625"/>
      <use xlink:href="#DejaVuSans-76" x="321.923828"/>
      <use xlink:href="#DejaVuSans-65" x="381.103516"/>
      <use xlink:href="#DejaVuSans-20" x="442.626953"/>
      <use xlink:href="#DejaVuSans-44" x="474.414062"/>
      <use xlink:href="#DejaVuSans-44" x="551.416016"/>
      <use xlink:href="#DejaVuSans-41" x="626.667969"/>
     </g>
    </g>
    <g id="line2d_71">
     <g>
      <use xlink:href="#m115580e1f4" x="314.098437" y="119.626739" style="fill: #008000; stroke: #008000"/>
     </g>
    </g>
    <g id="text_19">
     <!-- non radiative DDA -->
     <g transform="translate(332.098437 123.126739)scale(0.1 -0.1)">
      <use xlink:href="#DejaVuSans-6e"/>
      <use xlink:href="#DejaVuSans-6f" x="63.378906"/>
      <use xlink:href="#DejaVuSans-6e" x="124.560547"/>
      <use xlink:href="#DejaVuSans-20" x="187.939453"/>
      <use xlink:href="#DejaVuSans-72" x="219.726562"/>
      <use xlink:href="#DejaVuSans-61" x="260.839844"/>
      <use xlink:href="#DejaVuSans-64" x="322.119141"/>
      <use xlink:href="#DejaVuSans-69" x="385.595703"/>
      <use xlink:href="#DejaVuSans-61" x="413.378906"/>
      <use xlink:href="#DejaVuSans-74" x="474.658203"/>
      <use xlink:href="#DejaVuSans-69" x="513.867188"/>
      <use xlink:href="#DejaVuSans-76" x="541.650391"/>
      <use xlink:href="#DejaVuSans-65" x="600.830078"/>
      <use xlink:href="#DejaVuSans-20" x="662.353516"/>
      <use xlink:href="#DejaVuSans-44" x="694.140625"/>
      <use xlink:href="#DejaVuSans-44" x="771.142578"/>
      <use xlink:href="#DejaVuSans-41" x="846.394531"/>
     </g>
    </g>
   </g>
  </g>
  <g id="text_20">
   <!-- LDOSz lambda = 354 nm -->
   <g transform="translate(154.517812 16.030125)scale(0.12 -0.12)">
    <defs>
     <path id="DejaVuSans-62" d="M 3116 1747 
Q 3116 2381 2855 2742 
Q 2594 3103 2138 3103 
Q 1681 3103 1420 2742 
Q 1159 2381 1159 1747 
Q 1159 1113 1420 752 
Q 1681 391 2138 391 
Q 2594 391 2855 752 
Q 3116 1113 3116 1747 
z
M 1159 2969 
Q 1341 3281 1617 3432 
Q 1894 3584 2278 3584 
Q 2916 3584 3314 3078 
Q 3713 2572 3713 1747 
Q 3713 922 3314 415 
Q 2916 -91 2278 -91 
Q 1894 -91 1617 61 
Q 1341 213 1159 525 
L 1159 0 
L 581 0 
L 581 4863 
L 1159 4863 
L 1159 2969 
z
" transform="scale(0.015625)"/>
     <path id="DejaVuSans-3d" d="M 678 2906 
L 4684 2906 
L 4684 2381 
L 678 2381 
L 678 2906 
z
M 678 1631 
L 4684 1631 
L 4684 1100 
L 678 1100 
L 678 1631 
z
" transform="scale(0.015625)"/>
     <path id="DejaVuSans-35" d="M 691 4666 
L 3169 4666 
L 3169 4134 
L 1269 4134 
L 1269 2991 
Q 1406 3038 1543 3061 
Q 1681 3084 1819 3084 
Q 2600 3084 3056 2656 
Q 3513 2228 3513 1497 
Q 3513 744 3044 326 
Q 2575 -91 1722 -91 
Q 1428 -91 1123 -41 
Q 819 9 494 109 
L 494 744 
Q 775 591 1075 516 
Q 1375 441 1709 441 
Q 2250 441 2565 725 
Q 2881 1009 2881 1497 
Q 2881 1984 2565 2268 
Q 2250 2553 1709 2553 
Q 1456 2553 1204 2497 
Q 953 2441 691 2322 
L 691 4666 
z
" transform="scale(0.015625)"/>
    </defs>
    <use xlink:href="#DejaVuSans-4c"/>
    <use xlink:href="#DejaVuSans-44" x="55.712891"/>
    <use xlink:href="#DejaVuSans-4f" x="132.714844"/>
    <use xlink:href="#DejaVuSans-53" x="211.425781"/>
    <use xlink:href="#DejaVuSans-7a" x="274.902344"/>
    <use xlink:href="#DejaVuSans-20" x="327.392578"/>
    <use xlink:href="#DejaVuSans-6c" x="359.179688"/>
    <use xlink:href="#DejaVuSans-61" x="386.962891"/>
    <use xlink:href="#DejaVuSans-6d" x="448.242188"/>
    <use xlink:href="#DejaVuSans-62" x="545.654297"/>
    <use xlink:href="#DejaVuSans-64" x="609.130859"/>
    <use xlink:href="#DejaVuSans-61" x="672.607422"/>
    <use xlink:href="#DejaVuSans-20" x="733.886719"/>
    <use xlink:href="#DejaVuSans-3d" x="765.673828"/>
    <use xlink:href="#DejaVuSans-20" x="849.462891"/>
    <use xlink:href="#DejaVuSans-33" x="881.25"/>
    <use xlink:href="#DejaVuSans-35" x="944.873047"/>
    <use xlink:href="#DejaVuSans-34" x="1008.496094"/>
    <use xlink:href="#DejaVuSans-20" x="1072.119141"/>
    <use xlink:href="#DejaVuSans-6e" x="1103.90625"/>
    <use xlink:href="#DejaVuSans-6d" x="1167.285156"/>
   </g>
  </g>
 </g>
 <defs>
  <clipPath id="p2998e5c9d1">
   <rect x="55.779096" y="33.137676" width="394.220904" height="270.502324"/>
  </clipPath>
 </defs>
</svg>
