<?xml version="1.0" encoding="utf-8" standalone="no"?>
<!DOCTYPE svg PUBLIC "-//W3C//DTD SVG 1.1//EN"
  "http://www.w3.org/Graphics/SVG/1.1/DTD/svg11.dtd">
<svg xmlns:xlink="http://www.w3.org/1999/xlink" width="460.8pt" height="345.6pt" viewBox="0 0 460.8 345.6" xmlns="http://www.w3.org/2000/svg" version="1.1">
 <metadata>
  <rdf:RDF xmlns:dc="http://purl.org/dc/elements/1.1/" xmlns:cc="http://creativecommons.org/ns#" xmlns:rdf="http://www.w3.org/1999/02/22-rdf-syntax-ns#">
   <cc:Work>
    <dc:type rdf:resource="http://purl.org/dc/dcmitype/StillImage"/>
    <dc:date>2023-09-04T16:17:02.952930</dc:date>
    <dc:format>image/svg+xml</dc:format>
    <dc:creator>
     <cc:Agent>
      <dc:title>Matplotlib v3.5.1, https://matplotlib.org/</dc:title>
     </cc:Agent>
    </dc:creator>
   </cc:Work>
  </rdf:RDF>
 </metadata>
 <defs>
  <style type="text/css">*{stroke-linejoin: round; stroke-linecap: butt}</style>
 </defs>
 <g id="figure_1">
  <g id="patch_1">
   <path d="M 0 345.6 
L 460.8 345.6 
L 460.8 0 
L 0 0 
z
" style="fill: #ffffff"/>
  </g>
  <g id="axes_1">
   <g id="patch_2">
    <path d="M 67.142601 303.64 
L 450 303.64 
L 450 35.897442 
L 67.142601 35.897442 
z
" style="fill: #ffffff"/>
   </g>
   <g id="matplotlib.axis_1">
    <g id="xtick_1">
     <g id="line2d_1">
      <defs>
       <path id="m1c9da80908" d="M 0 0 
L 0 3.5 
" style="stroke: #000000; stroke-width: 0.8"/>
      </defs>
      <g>
       <use xlink:href="#m1c9da80908" x="123.217674" y="303.64" style="stroke: #000000; stroke-width: 0.8"/>
      </g>
     </g>
     <g id="text_1">
      <!-- 20 -->
      <g transform="translate(116.855174 318.238437)scale(0.1 -0.1)">
       <defs>
        <path id="DejaVuSans-32" d="M 1228 531 
L 3431 531 
L 3431 0 
L 469 0 
L 469 531 
Q 828 903 1448 1529 
Q 2069 2156 2228 2338 
Q 2531 2678 2651 2914 
Q 2772 3150 2772 3378 
Q 2772 3750 2511 3984 
Q 2250 4219 1831 4219 
Q 1534 4219 1204 4116 
Q 875 4013 500 3803 
L 500 4441 
Q 881 4594 1212 4672 
Q 1544 4750 1819 4750 
Q 2544 4750 2975 4387 
Q 3406 4025 3406 3419 
Q 3406 3131 3298 2873 
Q 3191 2616 2906 2266 
Q 2828 2175 2409 1742 
Q 1991 1309 1228 531 
z
" transform="scale(0.015625)"/>
        <path id="DejaVuSans-30" d="M 2034 4250 
Q 1547 4250 1301 3770 
Q 1056 3291 1056 2328 
Q 1056 1369 1301 889 
Q 1547 409 2034 409 
Q 2525 409 2770 889 
Q 3016 1369 3016 2328 
Q 3016 3291 2770 3770 
Q 2525 4250 2034 4250 
z
M 2034 4750 
Q 2819 4750 3233 4129 
Q 3647 3509 3647 2328 
Q 3647 1150 3233 529 
Q 2819 -91 2034 -91 
Q 1250 -91 836 529 
Q 422 1150 422 2328 
Q 422 3509 836 4129 
Q 1250 4750 2034 4750 
z
" transform="scale(0.015625)"/>
       </defs>
       <use xlink:href="#DejaVuSans-32"/>
       <use xlink:href="#DejaVuSans-30" x="63.623047"/>
      </g>
     </g>
    </g>
    <g id="xtick_2">
     <g id="line2d_2">
      <g>
       <use xlink:href="#m1c9da80908" x="200.562604" y="303.64" style="stroke: #000000; stroke-width: 0.8"/>
      </g>
     </g>
     <g id="text_2">
      <!-- 40 -->
      <g transform="translate(194.200104 318.238437)scale(0.1 -0.1)">
       <defs>
        <path id="DejaVuSans-34" d="M 2419 4116 
L 825 1625 
L 2419 1625 
L 2419 4116 
z
M 2253 4666 
L 3047 4666 
L 3047 1625 
L 3713 1625 
L 3713 1100 
L 3047 1100 
L 3047 0 
L 2419 0 
L 2419 1100 
L 313 1100 
L 313 1709 
L 2253 4666 
z
" transform="scale(0.015625)"/>
       </defs>
       <use xlink:href="#DejaVuSans-34"/>
       <use xlink:href="#DejaVuSans-30" x="63.623047"/>
      </g>
     </g>
    </g>
    <g id="xtick_3">
     <g id="line2d_3">
      <g>
       <use xlink:href="#m1c9da80908" x="277.907533" y="303.64" style="stroke: #000000; stroke-width: 0.8"/>
      </g>
     </g>
     <g id="text_3">
      <!-- 60 -->
      <g transform="translate(271.545033 318.238437)scale(0.1 -0.1)">
       <defs>
        <path id="DejaVuSans-36" d="M 2113 2584 
Q 1688 2584 1439 2293 
Q 1191 2003 1191 1497 
Q 1191 994 1439 701 
Q 1688 409 2113 409 
Q 2538 409 2786 701 
Q 3034 994 3034 1497 
Q 3034 2003 2786 2293 
Q 2538 2584 2113 2584 
z
M 3366 4563 
L 3366 3988 
Q 3128 4100 2886 4159 
Q 2644 4219 2406 4219 
Q 1781 4219 1451 3797 
Q 1122 3375 1075 2522 
Q 1259 2794 1537 2939 
Q 1816 3084 2150 3084 
Q 2853 3084 3261 2657 
Q 3669 2231 3669 1497 
Q 3669 778 3244 343 
Q 2819 -91 2113 -91 
Q 1303 -91 875 529 
Q 447 1150 447 2328 
Q 447 3434 972 4092 
Q 1497 4750 2381 4750 
Q 2619 4750 2861 4703 
Q 3103 4656 3366 4563 
z
" transform="scale(0.015625)"/>
       </defs>
       <use xlink:href="#DejaVuSans-36"/>
       <use xlink:href="#DejaVuSans-30" x="63.623047"/>
      </g>
     </g>
    </g>
    <g id="xtick_4">
     <g id="line2d_4">
      <g>
       <use xlink:href="#m1c9da80908" x="355.252462" y="303.64" style="stroke: #000000; stroke-width: 0.8"/>
      </g>
     </g>
     <g id="text_4">
      <!-- 80 -->
      <g transform="translate(348.889962 318.238437)scale(0.1 -0.1)">
       <defs>
        <path id="DejaVuSans-38" d="M 2034 2216 
Q 1584 2216 1326 1975 
Q 1069 1734 1069 1313 
Q 1069 891 1326 650 
Q 1584 409 2034 409 
Q 2484 409 2743 651 
Q 3003 894 3003 1313 
Q 3003 1734 2745 1975 
Q 2488 2216 2034 2216 
z
M 1403 2484 
Q 997 2584 770 2862 
Q 544 3141 544 3541 
Q 544 4100 942 4425 
Q 1341 4750 2034 4750 
Q 2731 4750 3128 4425 
Q 3525 4100 3525 3541 
Q 3525 3141 3298 2862 
Q 3072 2584 2669 2484 
Q 3125 2378 3379 2068 
Q 3634 1759 3634 1313 
Q 3634 634 3220 271 
Q 2806 -91 2034 -91 
Q 1263 -91 848 271 
Q 434 634 434 1313 
Q 434 1759 690 2068 
Q 947 2378 1403 2484 
z
M 1172 3481 
Q 1172 3119 1398 2916 
Q 1625 2713 2034 2713 
Q 2441 2713 2670 2916 
Q 2900 3119 2900 3481 
Q 2900 3844 2670 4047 
Q 2441 4250 2034 4250 
Q 1625 4250 1398 4047 
Q 1172 3844 1172 3481 
z
" transform="scale(0.015625)"/>
       </defs>
       <use xlink:href="#DejaVuSans-38"/>
       <use xlink:href="#DejaVuSans-30" x="63.623047"/>
      </g>
     </g>
    </g>
    <g id="xtick_5">
     <g id="line2d_5">
      <g>
       <use xlink:href="#m1c9da80908" x="432.597391" y="303.64" style="stroke: #000000; stroke-width: 0.8"/>
      </g>
     </g>
     <g id="text_5">
      <!-- 100 -->
      <g transform="translate(423.053641 318.238437)scale(0.1 -0.1)">
       <defs>
        <path id="DejaVuSans-31" d="M 794 531 
L 1825 531 
L 1825 4091 
L 703 3866 
L 703 4441 
L 1819 4666 
L 2450 4666 
L 2450 531 
L 3481 531 
L 3481 0 
L 794 0 
L 794 531 
z
" transform="scale(0.015625)"/>
       </defs>
       <use xlink:href="#DejaVuSans-31"/>
       <use xlink:href="#DejaVuSans-30" x="63.623047"/>
       <use xlink:href="#DejaVuSans-30" x="127.246094"/>
      </g>
     </g>
    </g>
    <g id="text_6">
     <!-- z (nm) -->
     <g transform="translate(242.417394 331.916562)scale(0.1 -0.1)">
      <defs>
       <path id="DejaVuSans-7a" d="M 353 3500 
L 3084 3500 
L 3084 2975 
L 922 459 
L 3084 459 
L 3084 0 
L 275 0 
L 275 525 
L 2438 3041 
L 353 3041 
L 353 3500 
z
" transform="scale(0.015625)"/>
       <path id="DejaVuSans-20" transform="scale(0.015625)"/>
       <path id="DejaVuSans-28" d="M 1984 4856 
Q 1566 4138 1362 3434 
Q 1159 2731 1159 2009 
Q 1159 1288 1364 580 
Q 1569 -128 1984 -844 
L 1484 -844 
Q 1016 -109 783 600 
Q 550 1309 550 2009 
Q 550 2706 781 3412 
Q 1013 4119 1484 4856 
L 1984 4856 
z
" transform="scale(0.015625)"/>
       <path id="DejaVuSans-6e" d="M 3513 2113 
L 3513 0 
L 2938 0 
L 2938 2094 
Q 2938 2591 2744 2837 
Q 2550 3084 2163 3084 
Q 1697 3084 1428 2787 
Q 1159 2491 1159 1978 
L 1159 0 
L 581 0 
L 581 3500 
L 1159 3500 
L 1159 2956 
Q 1366 3272 1645 3428 
Q 1925 3584 2291 3584 
Q 2894 3584 3203 3211 
Q 3513 2838 3513 2113 
z
" transform="scale(0.015625)"/>
       <path id="DejaVuSans-6d" d="M 3328 2828 
Q 3544 3216 3844 3400 
Q 4144 3584 4550 3584 
Q 5097 3584 5394 3201 
Q 5691 2819 5691 2113 
L 5691 0 
L 5113 0 
L 5113 2094 
Q 5113 2597 4934 2840 
Q 4756 3084 4391 3084 
Q 3944 3084 3684 2787 
Q 3425 2491 3425 1978 
L 3425 0 
L 2847 0 
L 2847 2094 
Q 2847 2600 2669 2842 
Q 2491 3084 2119 3084 
Q 1678 3084 1418 2786 
Q 1159 2488 1159 1978 
L 1159 0 
L 581 0 
L 581 3500 
L 1159 3500 
L 1159 2956 
Q 1356 3278 1631 3431 
Q 1906 3584 2284 3584 
Q 2666 3584 2933 3390 
Q 3200 3197 3328 2828 
z
" transform="scale(0.015625)"/>
       <path id="DejaVuSans-29" d="M 513 4856 
L 1013 4856 
Q 1481 4119 1714 3412 
Q 1947 2706 1947 2009 
Q 1947 1309 1714 600 
Q 1481 -109 1013 -844 
L 513 -844 
Q 928 -128 1133 580 
Q 1338 1288 1338 2009 
Q 1338 2731 1133 3434 
Q 928 4138 513 4856 
z
" transform="scale(0.015625)"/>
      </defs>
      <use xlink:href="#DejaVuSans-7a"/>
      <use xlink:href="#DejaVuSans-20" x="52.490234"/>
      <use xlink:href="#DejaVuSans-28" x="84.277344"/>
      <use xlink:href="#DejaVuSans-6e" x="123.291016"/>
      <use xlink:href="#DejaVuSans-6d" x="186.669922"/>
      <use xlink:href="#DejaVuSans-29" x="284.082031"/>
     </g>
    </g>
   </g>
   <g id="matplotlib.axis_2">
    <g id="ytick_1">
     <g id="line2d_6">
      <defs>
       <path id="med7215e916" d="M 0 0 
L -3.5 0 
" style="stroke: #000000; stroke-width: 0.8"/>
      </defs>
      <g>
       <use xlink:href="#med7215e916" x="67.142601" y="290.132917" style="stroke: #000000; stroke-width: 0.8"/>
      </g>
     </g>
     <g id="text_7">
      <!-- $\mathdefault{10^{0}}$ -->
      <g transform="translate(42.542601 293.932135)scale(0.1 -0.1)">
       <use xlink:href="#DejaVuSans-31" transform="translate(0 0.765625)"/>
       <use xlink:href="#DejaVuSans-30" transform="translate(63.623047 0.765625)"/>
       <use xlink:href="#DejaVuSans-30" transform="translate(128.203125 39.046875)scale(0.7)"/>
      </g>
     </g>
    </g>
    <g id="ytick_2">
     <g id="line2d_7">
      <defs>
       <path id="mf4fe74ec70" d="M 0 0 
L -2 0 
" style="stroke: #000000; stroke-width: 0.6"/>
      </defs>
      <g>
       <use xlink:href="#mf4fe74ec70" x="67.142601" y="164.080949" style="stroke: #000000; stroke-width: 0.6"/>
      </g>
     </g>
     <g id="text_8">
      <!-- $\mathdefault{2\times10^{0}}$ -->
      <g transform="translate(25.542601 167.880168)scale(0.1 -0.1)">
       <defs>
        <path id="DejaVuSans-d7" d="M 4488 3438 
L 3059 2003 
L 4488 575 
L 4116 197 
L 2681 1631 
L 1247 197 
L 878 575 
L 2303 2003 
L 878 3438 
L 1247 3816 
L 2681 2381 
L 4116 3816 
L 4488 3438 
z
" transform="scale(0.015625)"/>
       </defs>
       <use xlink:href="#DejaVuSans-32" transform="translate(0 0.765625)"/>
       <use xlink:href="#DejaVuSans-d7" transform="translate(83.105469 0.765625)"/>
       <use xlink:href="#DejaVuSans-31" transform="translate(186.376953 0.765625)"/>
       <use xlink:href="#DejaVuSans-30" transform="translate(250 0.765625)"/>
       <use xlink:href="#DejaVuSans-30" transform="translate(314.580078 39.046875)scale(0.7)"/>
      </g>
     </g>
    </g>
    <g id="ytick_3">
     <g id="line2d_8">
      <g>
       <use xlink:href="#mf4fe74ec70" x="67.142601" y="90.345275" style="stroke: #000000; stroke-width: 0.6"/>
      </g>
     </g>
     <g id="text_9">
      <!-- $\mathdefault{3\times10^{0}}$ -->
      <g transform="translate(25.542601 94.144493)scale(0.1 -0.1)">
       <defs>
        <path id="DejaVuSans-33" d="M 2597 2516 
Q 3050 2419 3304 2112 
Q 3559 1806 3559 1356 
Q 3559 666 3084 287 
Q 2609 -91 1734 -91 
Q 1441 -91 1130 -33 
Q 819 25 488 141 
L 488 750 
Q 750 597 1062 519 
Q 1375 441 1716 441 
Q 2309 441 2620 675 
Q 2931 909 2931 1356 
Q 2931 1769 2642 2001 
Q 2353 2234 1838 2234 
L 1294 2234 
L 1294 2753 
L 1863 2753 
Q 2328 2753 2575 2939 
Q 2822 3125 2822 3475 
Q 2822 3834 2567 4026 
Q 2313 4219 1838 4219 
Q 1578 4219 1281 4162 
Q 984 4106 628 3988 
L 628 4550 
Q 988 4650 1302 4700 
Q 1616 4750 1894 4750 
Q 2613 4750 3031 4423 
Q 3450 4097 3450 3541 
Q 3450 3153 3228 2886 
Q 3006 2619 2597 2516 
z
" transform="scale(0.015625)"/>
       </defs>
       <use xlink:href="#DejaVuSans-33" transform="translate(0 0.765625)"/>
       <use xlink:href="#DejaVuSans-d7" transform="translate(83.105469 0.765625)"/>
       <use xlink:href="#DejaVuSans-31" transform="translate(186.376953 0.765625)"/>
       <use xlink:href="#DejaVuSans-30" transform="translate(250 0.765625)"/>
       <use xlink:href="#DejaVuSans-30" transform="translate(314.580078 39.046875)scale(0.7)"/>
      </g>
     </g>
    </g>
    <g id="ytick_4">
     <g id="line2d_9">
      <g>
       <use xlink:href="#mf4fe74ec70" x="67.142601" y="38.028981" style="stroke: #000000; stroke-width: 0.6"/>
      </g>
     </g>
     <g id="text_10">
      <!-- $\mathdefault{4\times10^{0}}$ -->
      <g transform="translate(25.542601 41.8282)scale(0.1 -0.1)">
       <use xlink:href="#DejaVuSans-34" transform="translate(0 0.765625)"/>
       <use xlink:href="#DejaVuSans-d7" transform="translate(83.105469 0.765625)"/>
       <use xlink:href="#DejaVuSans-31" transform="translate(186.376953 0.765625)"/>
       <use xlink:href="#DejaVuSans-30" transform="translate(250 0.765625)"/>
       <use xlink:href="#DejaVuSans-30" transform="translate(314.580078 39.046875)scale(0.7)"/>
      </g>
     </g>
    </g>
    <g id="text_11">
     <!-- LDOS_x -->
     <g transform="translate(19.184788 188.97419)rotate(-90)scale(0.1 -0.1)">
      <defs>
       <path id="DejaVuSans-4c" d="M 628 4666 
L 1259 4666 
L 1259 531 
L 3531 531 
L 3531 0 
L 628 0 
L 628 4666 
z
" transform="scale(0.015625)"/>
       <path id="DejaVuSans-44" d="M 1259 4147 
L 1259 519 
L 2022 519 
Q 2988 519 3436 956 
Q 3884 1394 3884 2338 
Q 3884 3275 3436 3711 
Q 2988 4147 2022 4147 
L 1259 4147 
z
M 628 4666 
L 1925 4666 
Q 3281 4666 3915 4102 
Q 4550 3538 4550 2338 
Q 4550 1131 3912 565 
Q 3275 0 1925 0 
L 628 0 
L 628 4666 
z
" transform="scale(0.015625)"/>
       <path id="DejaVuSans-4f" d="M 2522 4238 
Q 1834 4238 1429 3725 
Q 1025 3213 1025 2328 
Q 1025 1447 1429 934 
Q 1834 422 2522 422 
Q 3209 422 3611 934 
Q 4013 1447 4013 2328 
Q 4013 3213 3611 3725 
Q 3209 4238 2522 4238 
z
M 2522 4750 
Q 3503 4750 4090 4092 
Q 4678 3434 4678 2328 
Q 4678 1225 4090 567 
Q 3503 -91 2522 -91 
Q 1538 -91 948 565 
Q 359 1222 359 2328 
Q 359 3434 948 4092 
Q 1538 4750 2522 4750 
z
" transform="scale(0.015625)"/>
       <path id="DejaVuSans-53" d="M 3425 4513 
L 3425 3897 
Q 3066 4069 2747 4153 
Q 2428 4238 2131 4238 
Q 1616 4238 1336 4038 
Q 1056 3838 1056 3469 
Q 1056 3159 1242 3001 
Q 1428 2844 1947 2747 
L 2328 2669 
Q 3034 2534 3370 2195 
Q 3706 1856 3706 1288 
Q 3706 609 3251 259 
Q 2797 -91 1919 -91 
Q 1588 -91 1214 -16 
Q 841 59 441 206 
L 441 856 
Q 825 641 1194 531 
Q 1563 422 1919 422 
Q 2459 422 2753 634 
Q 3047 847 3047 1241 
Q 3047 1584 2836 1778 
Q 2625 1972 2144 2069 
L 1759 2144 
Q 1053 2284 737 2584 
Q 422 2884 422 3419 
Q 422 4038 858 4394 
Q 1294 4750 2059 4750 
Q 2388 4750 2728 4690 
Q 3069 4631 3425 4513 
z
" transform="scale(0.015625)"/>
       <path id="DejaVuSans-5f" d="M 3263 -1063 
L 3263 -1509 
L -63 -1509 
L -63 -1063 
L 3263 -1063 
z
" transform="scale(0.015625)"/>
       <path id="DejaVuSans-78" d="M 3513 3500 
L 2247 1797 
L 3578 0 
L 2900 0 
L 1881 1375 
L 863 0 
L 184 0 
L 1544 1831 
L 300 3500 
L 978 3500 
L 1906 2253 
L 2834 3500 
L 3513 3500 
z
" transform="scale(0.015625)"/>
      </defs>
      <use xlink:href="#DejaVuSans-4c"/>
      <use xlink:href="#DejaVuSans-44" x="55.712891"/>
      <use xlink:href="#DejaVuSans-4f" x="132.714844"/>
      <use xlink:href="#DejaVuSans-53" x="211.425781"/>
      <use xlink:href="#DejaVuSans-5f" x="274.902344"/>
      <use xlink:href="#DejaVuSans-78" x="324.902344"/>
     </g>
    </g>
   </g>
   <g id="line2d_10">
    <path d="M 84.54521 48.067559 
L 88.412456 122.65 
L 92.279703 177.841289 
L 96.146949 216.696864 
L 100.014196 242.983545 
L 103.881442 260.300602 
L 107.748689 271.542604 
L 111.615935 278.795127 
L 115.483181 283.466315 
L 119.350428 286.474488 
L 123.217674 288.409343 
L 127.084921 289.648124 
L 130.952167 290.432857 
L 134.819414 290.919822 
L 138.68666 291.210745 
L 142.553907 291.372399 
L 146.421153 291.448965 
L 150.2884 291.469884 
L 154.155646 291.454883 
L 158.022893 291.417237 
L 161.890139 291.365891 
L 165.757385 291.306872 
L 169.624632 291.244218 
L 173.491878 291.180616 
L 177.359125 291.117822 
L 181.226371 291.056957 
L 185.093618 290.998704 
L 188.960864 290.943447 
L 192.828111 290.891366 
L 196.695357 290.842507 
L 200.562604 290.796825 
L 204.42985 290.754215 
L 208.297096 290.714538 
L 212.164343 290.677637 
L 216.031589 290.643342 
L 219.898836 290.611483 
L 223.766082 290.581892 
L 227.633329 290.554408 
L 231.500575 290.528875 
L 235.367822 290.50515 
L 239.235068 290.483094 
L 243.102315 290.462582 
L 246.969561 290.443495 
L 250.836807 290.425724 
L 254.704054 290.409169 
L 258.5713 290.393736 
L 262.438547 290.379342 
L 266.305793 290.365906 
L 270.17304 290.353358 
L 274.040286 290.34163 
L 277.907533 290.330663 
L 281.774779 290.320399 
L 285.642026 290.310788 
L 289.509272 290.301782 
L 293.376519 290.293338 
L 297.243765 290.285416 
L 301.111011 290.277978 
L 304.978258 290.270992 
L 308.845504 290.264426 
L 312.712751 290.258251 
L 316.579997 290.25244 
L 320.447244 290.24697 
L 324.31449 290.241816 
L 328.181737 290.236959 
L 332.048983 290.232379 
L 335.91623 290.228057 
L 339.783476 290.223978 
L 343.650722 290.220125 
L 347.517969 290.216485 
L 351.385215 290.213044 
L 355.252462 290.20979 
L 359.119708 290.206711 
L 362.986955 290.203797 
L 366.854201 290.201037 
L 370.721448 290.198422 
L 374.588694 290.195944 
L 378.455941 290.193595 
L 382.323187 290.191366 
L 386.190433 290.189252 
L 390.05768 290.187245 
L 393.924926 290.185339 
L 397.792173 290.183528 
L 401.659419 290.181808 
L 405.526666 290.180172 
L 409.393912 290.178617 
L 413.261159 290.177138 
L 417.128405 290.17573 
L 420.995652 290.17439 
L 424.862898 290.173114 
L 428.730144 290.171898 
L 432.597391 290.17074 
" clip-path="url(#p6d498650a9)" style="fill: none; stroke-dasharray: 5.55,2.4; stroke-dashoffset: 0; stroke: #1f77b4; stroke-width: 1.5"/>
   </g>
   <g id="line2d_11">
    <defs>
     <path id="m379cf8730f" d="M 0 3 
C 0.795609 3 1.55874 2.683901 2.12132 2.12132 
C 2.683901 1.55874 3 0.795609 3 0 
C 3 -0.795609 2.683901 -1.55874 2.12132 -2.12132 
C 1.55874 -2.683901 0.795609 -3 0 -3 
C -0.795609 -3 -1.55874 -2.683901 -2.12132 -2.12132 
C -2.683901 -1.55874 -3 -0.795609 -3 0 
C -3 0.795609 -2.683901 1.55874 -2.12132 2.12132 
C -1.55874 2.683901 -0.795609 3 0 3 
z
" style="stroke: #ff7f0e"/>
    </defs>
    <g clip-path="url(#p6d498650a9)">
     <use xlink:href="#m379cf8730f" x="84.54521" y="48.067559" style="fill: #ff7f0e; stroke: #ff7f0e"/>
     <use xlink:href="#m379cf8730f" x="88.412456" y="122.65" style="fill: #ff7f0e; stroke: #ff7f0e"/>
     <use xlink:href="#m379cf8730f" x="92.279703" y="177.841289" style="fill: #ff7f0e; stroke: #ff7f0e"/>
     <use xlink:href="#m379cf8730f" x="96.146949" y="216.696864" style="fill: #ff7f0e; stroke: #ff7f0e"/>
     <use xlink:href="#m379cf8730f" x="100.014196" y="242.983545" style="fill: #ff7f0e; stroke: #ff7f0e"/>
     <use xlink:href="#m379cf8730f" x="103.881442" y="260.300602" style="fill: #ff7f0e; stroke: #ff7f0e"/>
     <use xlink:href="#m379cf8730f" x="107.748689" y="271.542604" style="fill: #ff7f0e; stroke: #ff7f0e"/>
     <use xlink:href="#m379cf8730f" x="111.615935" y="278.795127" style="fill: #ff7f0e; stroke: #ff7f0e"/>
     <use xlink:href="#m379cf8730f" x="115.483181" y="283.466315" style="fill: #ff7f0e; stroke: #ff7f0e"/>
     <use xlink:href="#m379cf8730f" x="119.350428" y="286.474488" style="fill: #ff7f0e; stroke: #ff7f0e"/>
     <use xlink:href="#m379cf8730f" x="123.217674" y="288.409343" style="fill: #ff7f0e; stroke: #ff7f0e"/>
     <use xlink:href="#m379cf8730f" x="127.084921" y="289.648124" style="fill: #ff7f0e; stroke: #ff7f0e"/>
     <use xlink:href="#m379cf8730f" x="130.952167" y="290.432857" style="fill: #ff7f0e; stroke: #ff7f0e"/>
     <use xlink:href="#m379cf8730f" x="134.819414" y="290.919822" style="fill: #ff7f0e; stroke: #ff7f0e"/>
     <use xlink:href="#m379cf8730f" x="138.68666" y="291.210745" style="fill: #ff7f0e; stroke: #ff7f0e"/>
     <use xlink:href="#m379cf8730f" x="142.553907" y="291.372399" style="fill: #ff7f0e; stroke: #ff7f0e"/>
     <use xlink:href="#m379cf8730f" x="146.421153" y="291.448965" style="fill: #ff7f0e; stroke: #ff7f0e"/>
     <use xlink:href="#m379cf8730f" x="150.2884" y="291.469884" style="fill: #ff7f0e; stroke: #ff7f0e"/>
     <use xlink:href="#m379cf8730f" x="154.155646" y="291.454883" style="fill: #ff7f0e; stroke: #ff7f0e"/>
     <use xlink:href="#m379cf8730f" x="158.022893" y="291.417237" style="fill: #ff7f0e; stroke: #ff7f0e"/>
     <use xlink:href="#m379cf8730f" x="161.890139" y="291.365891" style="fill: #ff7f0e; stroke: #ff7f0e"/>
     <use xlink:href="#m379cf8730f" x="165.757385" y="291.306872" style="fill: #ff7f0e; stroke: #ff7f0e"/>
     <use xlink:href="#m379cf8730f" x="169.624632" y="291.244218" style="fill: #ff7f0e; stroke: #ff7f0e"/>
     <use xlink:href="#m379cf8730f" x="173.491878" y="291.180616" style="fill: #ff7f0e; stroke: #ff7f0e"/>
     <use xlink:href="#m379cf8730f" x="177.359125" y="291.117822" style="fill: #ff7f0e; stroke: #ff7f0e"/>
     <use xlink:href="#m379cf8730f" x="181.226371" y="291.056957" style="fill: #ff7f0e; stroke: #ff7f0e"/>
     <use xlink:href="#m379cf8730f" x="185.093618" y="290.998704" style="fill: #ff7f0e; stroke: #ff7f0e"/>
     <use xlink:href="#m379cf8730f" x="188.960864" y="290.943447" style="fill: #ff7f0e; stroke: #ff7f0e"/>
     <use xlink:href="#m379cf8730f" x="192.828111" y="290.891366" style="fill: #ff7f0e; stroke: #ff7f0e"/>
     <use xlink:href="#m379cf8730f" x="196.695357" y="290.842507" style="fill: #ff7f0e; stroke: #ff7f0e"/>
     <use xlink:href="#m379cf8730f" x="200.562604" y="290.796825" style="fill: #ff7f0e; stroke: #ff7f0e"/>
     <use xlink:href="#m379cf8730f" x="204.42985" y="290.754215" style="fill: #ff7f0e; stroke: #ff7f0e"/>
     <use xlink:href="#m379cf8730f" x="208.297096" y="290.714538" style="fill: #ff7f0e; stroke: #ff7f0e"/>
     <use xlink:href="#m379cf8730f" x="212.164343" y="290.677637" style="fill: #ff7f0e; stroke: #ff7f0e"/>
     <use xlink:href="#m379cf8730f" x="216.031589" y="290.643342" style="fill: #ff7f0e; stroke: #ff7f0e"/>
     <use xlink:href="#m379cf8730f" x="219.898836" y="290.611483" style="fill: #ff7f0e; stroke: #ff7f0e"/>
     <use xlink:href="#m379cf8730f" x="223.766082" y="290.581892" style="fill: #ff7f0e; stroke: #ff7f0e"/>
     <use xlink:href="#m379cf8730f" x="227.633329" y="290.554408" style="fill: #ff7f0e; stroke: #ff7f0e"/>
     <use xlink:href="#m379cf8730f" x="231.500575" y="290.528875" style="fill: #ff7f0e; stroke: #ff7f0e"/>
     <use xlink:href="#m379cf8730f" x="235.367822" y="290.50515" style="fill: #ff7f0e; stroke: #ff7f0e"/>
     <use xlink:href="#m379cf8730f" x="239.235068" y="290.483094" style="fill: #ff7f0e; stroke: #ff7f0e"/>
     <use xlink:href="#m379cf8730f" x="243.102315" y="290.462582" style="fill: #ff7f0e; stroke: #ff7f0e"/>
     <use xlink:href="#m379cf8730f" x="246.969561" y="290.443495" style="fill: #ff7f0e; stroke: #ff7f0e"/>
     <use xlink:href="#m379cf8730f" x="250.836807" y="290.425724" style="fill: #ff7f0e; stroke: #ff7f0e"/>
     <use xlink:href="#m379cf8730f" x="254.704054" y="290.409169" style="fill: #ff7f0e; stroke: #ff7f0e"/>
     <use xlink:href="#m379cf8730f" x="258.5713" y="290.393736" style="fill: #ff7f0e; stroke: #ff7f0e"/>
     <use xlink:href="#m379cf8730f" x="262.438547" y="290.379342" style="fill: #ff7f0e; stroke: #ff7f0e"/>
     <use xlink:href="#m379cf8730f" x="266.305793" y="290.365906" style="fill: #ff7f0e; stroke: #ff7f0e"/>
     <use xlink:href="#m379cf8730f" x="270.17304" y="290.353358" style="fill: #ff7f0e; stroke: #ff7f0e"/>
     <use xlink:href="#m379cf8730f" x="274.040286" y="290.34163" style="fill: #ff7f0e; stroke: #ff7f0e"/>
     <use xlink:href="#m379cf8730f" x="277.907533" y="290.330663" style="fill: #ff7f0e; stroke: #ff7f0e"/>
     <use xlink:href="#m379cf8730f" x="281.774779" y="290.320399" style="fill: #ff7f0e; stroke: #ff7f0e"/>
     <use xlink:href="#m379cf8730f" x="285.642026" y="290.310788" style="fill: #ff7f0e; stroke: #ff7f0e"/>
     <use xlink:href="#m379cf8730f" x="289.509272" y="290.301782" style="fill: #ff7f0e; stroke: #ff7f0e"/>
     <use xlink:href="#m379cf8730f" x="293.376519" y="290.293338" style="fill: #ff7f0e; stroke: #ff7f0e"/>
     <use xlink:href="#m379cf8730f" x="297.243765" y="290.285416" style="fill: #ff7f0e; stroke: #ff7f0e"/>
     <use xlink:href="#m379cf8730f" x="301.111011" y="290.277978" style="fill: #ff7f0e; stroke: #ff7f0e"/>
     <use xlink:href="#m379cf8730f" x="304.978258" y="290.270992" style="fill: #ff7f0e; stroke: #ff7f0e"/>
     <use xlink:href="#m379cf8730f" x="308.845504" y="290.264426" style="fill: #ff7f0e; stroke: #ff7f0e"/>
     <use xlink:href="#m379cf8730f" x="312.712751" y="290.258251" style="fill: #ff7f0e; stroke: #ff7f0e"/>
     <use xlink:href="#m379cf8730f" x="316.579997" y="290.25244" style="fill: #ff7f0e; stroke: #ff7f0e"/>
     <use xlink:href="#m379cf8730f" x="320.447244" y="290.24697" style="fill: #ff7f0e; stroke: #ff7f0e"/>
     <use xlink:href="#m379cf8730f" x="324.31449" y="290.241816" style="fill: #ff7f0e; stroke: #ff7f0e"/>
     <use xlink:href="#m379cf8730f" x="328.181737" y="290.236959" style="fill: #ff7f0e; stroke: #ff7f0e"/>
     <use xlink:href="#m379cf8730f" x="332.048983" y="290.232379" style="fill: #ff7f0e; stroke: #ff7f0e"/>
     <use xlink:href="#m379cf8730f" x="335.91623" y="290.228057" style="fill: #ff7f0e; stroke: #ff7f0e"/>
     <use xlink:href="#m379cf8730f" x="339.783476" y="290.223978" style="fill: #ff7f0e; stroke: #ff7f0e"/>
     <use xlink:href="#m379cf8730f" x="343.650722" y="290.220125" style="fill: #ff7f0e; stroke: #ff7f0e"/>
     <use xlink:href="#m379cf8730f" x="347.517969" y="290.216485" style="fill: #ff7f0e; stroke: #ff7f0e"/>
     <use xlink:href="#m379cf8730f" x="351.385215" y="290.213044" style="fill: #ff7f0e; stroke: #ff7f0e"/>
     <use xlink:href="#m379cf8730f" x="355.252462" y="290.20979" style="fill: #ff7f0e; stroke: #ff7f0e"/>
     <use xlink:href="#m379cf8730f" x="359.119708" y="290.206711" style="fill: #ff7f0e; stroke: #ff7f0e"/>
     <use xlink:href="#m379cf8730f" x="362.986955" y="290.203797" style="fill: #ff7f0e; stroke: #ff7f0e"/>
     <use xlink:href="#m379cf8730f" x="366.854201" y="290.201037" style="fill: #ff7f0e; stroke: #ff7f0e"/>
     <use xlink:href="#m379cf8730f" x="370.721448" y="290.198422" style="fill: #ff7f0e; stroke: #ff7f0e"/>
     <use xlink:href="#m379cf8730f" x="374.588694" y="290.195944" style="fill: #ff7f0e; stroke: #ff7f0e"/>
     <use xlink:href="#m379cf8730f" x="378.455941" y="290.193595" style="fill: #ff7f0e; stroke: #ff7f0e"/>
     <use xlink:href="#m379cf8730f" x="382.323187" y="290.191366" style="fill: #ff7f0e; stroke: #ff7f0e"/>
     <use xlink:href="#m379cf8730f" x="386.190433" y="290.189252" style="fill: #ff7f0e; stroke: #ff7f0e"/>
     <use xlink:href="#m379cf8730f" x="390.05768" y="290.187245" style="fill: #ff7f0e; stroke: #ff7f0e"/>
     <use xlink:href="#m379cf8730f" x="393.924926" y="290.185339" style="fill: #ff7f0e; stroke: #ff7f0e"/>
     <use xlink:href="#m379cf8730f" x="397.792173" y="290.183528" style="fill: #ff7f0e; stroke: #ff7f0e"/>
     <use xlink:href="#m379cf8730f" x="401.659419" y="290.181808" style="fill: #ff7f0e; stroke: #ff7f0e"/>
     <use xlink:href="#m379cf8730f" x="405.526666" y="290.180172" style="fill: #ff7f0e; stroke: #ff7f0e"/>
     <use xlink:href="#m379cf8730f" x="409.393912" y="290.178617" style="fill: #ff7f0e; stroke: #ff7f0e"/>
     <use xlink:href="#m379cf8730f" x="413.261159" y="290.177138" style="fill: #ff7f0e; stroke: #ff7f0e"/>
     <use xlink:href="#m379cf8730f" x="417.128405" y="290.17573" style="fill: #ff7f0e; stroke: #ff7f0e"/>
     <use xlink:href="#m379cf8730f" x="420.995652" y="290.17439" style="fill: #ff7f0e; stroke: #ff7f0e"/>
     <use xlink:href="#m379cf8730f" x="424.862898" y="290.173114" style="fill: #ff7f0e; stroke: #ff7f0e"/>
     <use xlink:href="#m379cf8730f" x="428.730144" y="290.171898" style="fill: #ff7f0e; stroke: #ff7f0e"/>
     <use xlink:href="#m379cf8730f" x="432.597391" y="290.17074" style="fill: #ff7f0e; stroke: #ff7f0e"/>
    </g>
   </g>
   <g id="patch_3">
    <path d="M 67.142601 303.64 
L 67.142601 35.897442 
" style="fill: none; stroke: #000000; stroke-width: 0.8; stroke-linejoin: miter; stroke-linecap: square"/>
   </g>
   <g id="patch_4">
    <path d="M 450 303.64 
L 450 35.897442 
" style="fill: none; stroke: #000000; stroke-width: 0.8; stroke-linejoin: miter; stroke-linecap: square"/>
   </g>
   <g id="patch_5">
    <path d="M 67.142601 303.64 
L 450 303.64 
" style="fill: none; stroke: #000000; stroke-width: 0.8; stroke-linejoin: miter; stroke-linecap: square"/>
   </g>
   <g id="patch_6">
    <path d="M 67.142601 35.897442 
L 450 35.897442 
" style="fill: none; stroke: #000000; stroke-width: 0.8; stroke-linejoin: miter; stroke-linecap: square"/>
   </g>
   <g id="legend_1">
    <g id="patch_7">
     <path d="M 334.923437 73.253692 
L 443 73.253692 
Q 445 73.253692 445 71.253692 
L 445 42.897442 
Q 445 40.897442 443 40.897442 
L 334.923437 40.897442 
Q 332.923437 40.897442 332.923437 42.897442 
L 332.923437 71.253692 
Q 332.923437 73.253692 334.923437 73.253692 
z
" style="fill: #ffffff; opacity: 0.8; stroke: #cccccc; stroke-linejoin: miter"/>
    </g>
    <g id="line2d_12">
     <path d="M 336.923437 48.99588 
L 346.923437 48.99588 
L 356.923437 48.99588 
" style="fill: none; stroke-dasharray: 5.55,2.4; stroke-dashoffset: 0; stroke: #1f77b4; stroke-width: 1.5"/>
    </g>
    <g id="text_12">
     <!-- LDOSx analytic -->
     <g transform="translate(364.923437 52.49588)scale(0.1 -0.1)">
      <defs>
       <path id="DejaVuSans-61" d="M 2194 1759 
Q 1497 1759 1228 1600 
Q 959 1441 959 1056 
Q 959 750 1161 570 
Q 1363 391 1709 391 
Q 2188 391 2477 730 
Q 2766 1069 2766 1631 
L 2766 1759 
L 2194 1759 
z
M 3341 1997 
L 3341 0 
L 2766 0 
L 2766 531 
Q 2569 213 2275 61 
Q 1981 -91 1556 -91 
Q 1019 -91 701 211 
Q 384 513 384 1019 
Q 384 1609 779 1909 
Q 1175 2209 1959 2209 
L 2766 2209 
L 2766 2266 
Q 2766 2663 2505 2880 
Q 2244 3097 1772 3097 
Q 1472 3097 1187 3025 
Q 903 2953 641 2809 
L 641 3341 
Q 956 3463 1253 3523 
Q 1550 3584 1831 3584 
Q 2591 3584 2966 3190 
Q 3341 2797 3341 1997 
z
" transform="scale(0.015625)"/>
       <path id="DejaVuSans-6c" d="M 603 4863 
L 1178 4863 
L 1178 0 
L 603 0 
L 603 4863 
z
" transform="scale(0.015625)"/>
       <path id="DejaVuSans-79" d="M 2059 -325 
Q 1816 -950 1584 -1140 
Q 1353 -1331 966 -1331 
L 506 -1331 
L 506 -850 
L 844 -850 
Q 1081 -850 1212 -737 
Q 1344 -625 1503 -206 
L 1606 56 
L 191 3500 
L 800 3500 
L 1894 763 
L 2988 3500 
L 3597 3500 
L 2059 -325 
z
" transform="scale(0.015625)"/>
       <path id="DejaVuSans-74" d="M 1172 4494 
L 1172 3500 
L 2356 3500 
L 2356 3053 
L 1172 3053 
L 1172 1153 
Q 1172 725 1289 603 
Q 1406 481 1766 481 
L 2356 481 
L 2356 0 
L 1766 0 
Q 1100 0 847 248 
Q 594 497 594 1153 
L 594 3053 
L 172 3053 
L 172 3500 
L 594 3500 
L 594 4494 
L 1172 4494 
z
" transform="scale(0.015625)"/>
       <path id="DejaVuSans-69" d="M 603 3500 
L 1178 3500 
L 1178 0 
L 603 0 
L 603 3500 
z
M 603 4863 
L 1178 4863 
L 1178 4134 
L 603 4134 
L 603 4863 
z
" transform="scale(0.015625)"/>
       <path id="DejaVuSans-63" d="M 3122 3366 
L 3122 2828 
Q 2878 2963 2633 3030 
Q 2388 3097 2138 3097 
Q 1578 3097 1268 2742 
Q 959 2388 959 1747 
Q 959 1106 1268 751 
Q 1578 397 2138 397 
Q 2388 397 2633 464 
Q 2878 531 3122 666 
L 3122 134 
Q 2881 22 2623 -34 
Q 2366 -91 2075 -91 
Q 1284 -91 818 406 
Q 353 903 353 1747 
Q 353 2603 823 3093 
Q 1294 3584 2113 3584 
Q 2378 3584 2631 3529 
Q 2884 3475 3122 3366 
z
" transform="scale(0.015625)"/>
      </defs>
      <use xlink:href="#DejaVuSans-4c"/>
      <use xlink:href="#DejaVuSans-44" x="55.712891"/>
      <use xlink:href="#DejaVuSans-4f" x="132.714844"/>
      <use xlink:href="#DejaVuSans-53" x="211.425781"/>
      <use xlink:href="#DejaVuSans-78" x="274.902344"/>
      <use xlink:href="#DejaVuSans-20" x="334.082031"/>
      <use xlink:href="#DejaVuSans-61" x="365.869141"/>
      <use xlink:href="#DejaVuSans-6e" x="427.148438"/>
      <use xlink:href="#DejaVuSans-61" x="490.527344"/>
      <use xlink:href="#DejaVuSans-6c" x="551.806641"/>
      <use xlink:href="#DejaVuSans-79" x="579.589844"/>
      <use xlink:href="#DejaVuSans-74" x="638.769531"/>
      <use xlink:href="#DejaVuSans-69" x="677.978516"/>
      <use xlink:href="#DejaVuSans-63" x="705.761719"/>
     </g>
    </g>
    <g id="line2d_13">
     <g>
      <use xlink:href="#m379cf8730f" x="346.923437" y="63.674005" style="fill: #ff7f0e; stroke: #ff7f0e"/>
     </g>
    </g>
    <g id="text_13">
     <!-- LDOSx DDA -->
     <g transform="translate(364.923437 67.174005)scale(0.1 -0.1)">
      <defs>
       <path id="DejaVuSans-41" d="M 2188 4044 
L 1331 1722 
L 3047 1722 
L 2188 4044 
z
M 1831 4666 
L 2547 4666 
L 4325 0 
L 3669 0 
L 3244 1197 
L 1141 1197 
L 716 0 
L 50 0 
L 1831 4666 
z
" transform="scale(0.015625)"/>
      </defs>
      <use xlink:href="#DejaVuSans-4c"/>
      <use xlink:href="#DejaVuSans-44" x="55.712891"/>
      <use xlink:href="#DejaVuSans-4f" x="132.714844"/>
      <use xlink:href="#DejaVuSans-53" x="211.425781"/>
      <use xlink:href="#DejaVuSans-78" x="274.902344"/>
      <use xlink:href="#DejaVuSans-20" x="334.082031"/>
      <use xlink:href="#DejaVuSans-44" x="365.869141"/>
      <use xlink:href="#DejaVuSans-44" x="442.871094"/>
      <use xlink:href="#DejaVuSans-41" x="518.123047"/>
     </g>
    </g>
   </g>
  </g>
  <g id="text_14">
   <!-- LDOSx lambda = 612 nm -->
   <g transform="translate(154.115625 16.030125)scale(0.12 -0.12)">
    <defs>
     <path id="DejaVuSans-62" d="M 3116 1747 
Q 3116 2381 2855 2742 
Q 2594 3103 2138 3103 
Q 1681 3103 1420 2742 
Q 1159 2381 1159 1747 
Q 1159 1113 1420 752 
Q 1681 391 2138 391 
Q 2594 391 2855 752 
Q 3116 1113 3116 1747 
z
M 1159 2969 
Q 1341 3281 1617 3432 
Q 1894 3584 2278 3584 
Q 2916 3584 3314 3078 
Q 3713 2572 3713 1747 
Q 3713 922 3314 415 
Q 2916 -91 2278 -91 
Q 1894 -91 1617 61 
Q 1341 213 1159 525 
L 1159 0 
L 581 0 
L 581 4863 
L 1159 4863 
L 1159 2969 
z
" transform="scale(0.015625)"/>
     <path id="DejaVuSans-64" d="M 2906 2969 
L 2906 4863 
L 3481 4863 
L 3481 0 
L 2906 0 
L 2906 525 
Q 2725 213 2448 61 
Q 2172 -91 1784 -91 
Q 1150 -91 751 415 
Q 353 922 353 1747 
Q 353 2572 751 3078 
Q 1150 3584 1784 3584 
Q 2172 3584 2448 3432 
Q 2725 3281 2906 2969 
z
M 947 1747 
Q 947 1113 1208 752 
Q 1469 391 1925 391 
Q 2381 391 2643 752 
Q 2906 1113 2906 1747 
Q 2906 2381 2643 2742 
Q 2381 3103 1925 3103 
Q 1469 3103 1208 2742 
Q 947 2381 947 1747 
z
" transform="scale(0.015625)"/>
     <path id="DejaVuSans-3d" d="M 678 2906 
L 4684 2906 
L 4684 2381 
L 678 2381 
L 678 2906 
z
M 678 1631 
L 4684 1631 
L 4684 1100 
L 678 1100 
L 678 1631 
z
" transform="scale(0.015625)"/>
    </defs>
    <use xlink:href="#DejaVuSans-4c"/>
    <use xlink:href="#DejaVuSans-44" x="55.712891"/>
    <use xlink:href="#DejaVuSans-4f" x="132.714844"/>
    <use xlink:href="#DejaVuSans-53" x="211.425781"/>
    <use xlink:href="#DejaVuSans-78" x="274.902344"/>
    <use xlink:href="#DejaVuSans-20" x="334.082031"/>
    <use xlink:href="#DejaVuSans-6c" x="365.869141"/>
    <use xlink:href="#DejaVuSans-61" x="393.652344"/>
    <use xlink:href="#DejaVuSans-6d" x="454.931641"/>
    <use xlink:href="#DejaVuSans-62" x="552.34375"/>
    <use xlink:href="#DejaVuSans-64" x="615.820312"/>
    <use xlink:href="#DejaVuSans-61" x="679.296875"/>
    <use xlink:href="#DejaVuSans-20" x="740.576172"/>
    <use xlink:href="#DejaVuSans-3d" x="772.363281"/>
    <use xlink:href="#DejaVuSans-20" x="856.152344"/>
    <use xlink:href="#DejaVuSans-36" x="887.939453"/>
    <use xlink:href="#DejaVuSans-31" x="951.5625"/>
    <use xlink:href="#DejaVuSans-32" x="1015.185547"/>
    <use xlink:href="#DejaVuSans-20" x="1078.808594"/>
    <use xlink:href="#DejaVuSans-6e" x="1110.595703"/>
    <use xlink:href="#DejaVuSans-6d" x="1173.974609"/>
   </g>
  </g>
 </g>
 <defs>
  <clipPath id="p6d498650a9">
   <rect x="67.142601" y="35.897442" width="382.857399" height="267.742558"/>
  </clipPath>
 </defs>
</svg>
