<?xml version="1.0" encoding="utf-8" standalone="no"?>
<!DOCTYPE svg PUBLIC "-//W3C//DTD SVG 1.1//EN"
  "http://www.w3.org/Graphics/SVG/1.1/DTD/svg11.dtd">
<svg xmlns:xlink="http://www.w3.org/1999/xlink" width="460.8pt" height="345.6pt" viewBox="0 0 460.8 345.6" xmlns="http://www.w3.org/2000/svg" version="1.1">
 <metadata>
  <rdf:RDF xmlns:dc="http://purl.org/dc/elements/1.1/" xmlns:cc="http://creativecommons.org/ns#" xmlns:rdf="http://www.w3.org/1999/02/22-rdf-syntax-ns#">
   <cc:Work>
    <dc:type rdf:resource="http://purl.org/dc/dcmitype/StillImage"/>
    <dc:date>2023-09-12T15:07:43.227182</dc:date>
    <dc:format>image/svg+xml</dc:format>
    <dc:creator>
     <cc:Agent>
      <dc:title>Matplotlib v3.5.1, https://matplotlib.org/</dc:title>
     </cc:Agent>
    </dc:creator>
   </cc:Work>
  </rdf:RDF>
 </metadata>
 <defs>
  <style type="text/css">*{stroke-linejoin: round; stroke-linecap: butt}</style>
 </defs>
 <g id="figure_1">
  <g id="patch_1">
   <path d="M 0 345.6 
L 460.8 345.6 
L 460.8 0 
L 0 0 
z
" style="fill: #ffffff"/>
  </g>
  <g id="axes_1">
   <g id="patch_2">
    <path d="M 56.015346 303.64 
L 450 303.64 
L 450 32.4 
L 56.015346 32.4 
z
" style="fill: #ffffff"/>
   </g>
   <g id="matplotlib.axis_1">
    <g id="xtick_1">
     <g id="line2d_1">
      <defs>
       <path id="mf3d61194d4" d="M 0 0 
L 0 3.5 
" style="stroke: #000000; stroke-width: 0.8"/>
      </defs>
      <g>
       <use xlink:href="#mf3d61194d4" x="113.720169" y="303.64" style="stroke: #000000; stroke-width: 0.8"/>
      </g>
     </g>
     <g id="text_1">
      <!-- 20 -->
      <g transform="translate(107.357669 318.238437)scale(0.1 -0.1)">
       <defs>
        <path id="DejaVuSans-32" d="M 1228 531 
L 3431 531 
L 3431 0 
L 469 0 
L 469 531 
Q 828 903 1448 1529 
Q 2069 2156 2228 2338 
Q 2531 2678 2651 2914 
Q 2772 3150 2772 3378 
Q 2772 3750 2511 3984 
Q 2250 4219 1831 4219 
Q 1534 4219 1204 4116 
Q 875 4013 500 3803 
L 500 4441 
Q 881 4594 1212 4672 
Q 1544 4750 1819 4750 
Q 2544 4750 2975 4387 
Q 3406 4025 3406 3419 
Q 3406 3131 3298 2873 
Q 3191 2616 2906 2266 
Q 2828 2175 2409 1742 
Q 1991 1309 1228 531 
z
" transform="scale(0.015625)"/>
        <path id="DejaVuSans-30" d="M 2034 4250 
Q 1547 4250 1301 3770 
Q 1056 3291 1056 2328 
Q 1056 1369 1301 889 
Q 1547 409 2034 409 
Q 2525 409 2770 889 
Q 3016 1369 3016 2328 
Q 3016 3291 2770 3770 
Q 2525 4250 2034 4250 
z
M 2034 4750 
Q 2819 4750 3233 4129 
Q 3647 3509 3647 2328 
Q 3647 1150 3233 529 
Q 2819 -91 2034 -91 
Q 1250 -91 836 529 
Q 422 1150 422 2328 
Q 422 3509 836 4129 
Q 1250 4750 2034 4750 
z
" transform="scale(0.015625)"/>
       </defs>
       <use xlink:href="#DejaVuSans-32"/>
       <use xlink:href="#DejaVuSans-30" x="63.623047"/>
      </g>
     </g>
    </g>
    <g id="xtick_2">
     <g id="line2d_2">
      <g>
       <use xlink:href="#mf3d61194d4" x="193.313029" y="303.64" style="stroke: #000000; stroke-width: 0.8"/>
      </g>
     </g>
     <g id="text_2">
      <!-- 40 -->
      <g transform="translate(186.950529 318.238437)scale(0.1 -0.1)">
       <defs>
        <path id="DejaVuSans-34" d="M 2419 4116 
L 825 1625 
L 2419 1625 
L 2419 4116 
z
M 2253 4666 
L 3047 4666 
L 3047 1625 
L 3713 1625 
L 3713 1100 
L 3047 1100 
L 3047 0 
L 2419 0 
L 2419 1100 
L 313 1100 
L 313 1709 
L 2253 4666 
z
" transform="scale(0.015625)"/>
       </defs>
       <use xlink:href="#DejaVuSans-34"/>
       <use xlink:href="#DejaVuSans-30" x="63.623047"/>
      </g>
     </g>
    </g>
    <g id="xtick_3">
     <g id="line2d_3">
      <g>
       <use xlink:href="#mf3d61194d4" x="272.905888" y="303.64" style="stroke: #000000; stroke-width: 0.8"/>
      </g>
     </g>
     <g id="text_3">
      <!-- 60 -->
      <g transform="translate(266.543388 318.238437)scale(0.1 -0.1)">
       <defs>
        <path id="DejaVuSans-36" d="M 2113 2584 
Q 1688 2584 1439 2293 
Q 1191 2003 1191 1497 
Q 1191 994 1439 701 
Q 1688 409 2113 409 
Q 2538 409 2786 701 
Q 3034 994 3034 1497 
Q 3034 2003 2786 2293 
Q 2538 2584 2113 2584 
z
M 3366 4563 
L 3366 3988 
Q 3128 4100 2886 4159 
Q 2644 4219 2406 4219 
Q 1781 4219 1451 3797 
Q 1122 3375 1075 2522 
Q 1259 2794 1537 2939 
Q 1816 3084 2150 3084 
Q 2853 3084 3261 2657 
Q 3669 2231 3669 1497 
Q 3669 778 3244 343 
Q 2819 -91 2113 -91 
Q 1303 -91 875 529 
Q 447 1150 447 2328 
Q 447 3434 972 4092 
Q 1497 4750 2381 4750 
Q 2619 4750 2861 4703 
Q 3103 4656 3366 4563 
z
" transform="scale(0.015625)"/>
       </defs>
       <use xlink:href="#DejaVuSans-36"/>
       <use xlink:href="#DejaVuSans-30" x="63.623047"/>
      </g>
     </g>
    </g>
    <g id="xtick_4">
     <g id="line2d_4">
      <g>
       <use xlink:href="#mf3d61194d4" x="352.498747" y="303.64" style="stroke: #000000; stroke-width: 0.8"/>
      </g>
     </g>
     <g id="text_4">
      <!-- 80 -->
      <g transform="translate(346.136247 318.238437)scale(0.1 -0.1)">
       <defs>
        <path id="DejaVuSans-38" d="M 2034 2216 
Q 1584 2216 1326 1975 
Q 1069 1734 1069 1313 
Q 1069 891 1326 650 
Q 1584 409 2034 409 
Q 2484 409 2743 651 
Q 3003 894 3003 1313 
Q 3003 1734 2745 1975 
Q 2488 2216 2034 2216 
z
M 1403 2484 
Q 997 2584 770 2862 
Q 544 3141 544 3541 
Q 544 4100 942 4425 
Q 1341 4750 2034 4750 
Q 2731 4750 3128 4425 
Q 3525 4100 3525 3541 
Q 3525 3141 3298 2862 
Q 3072 2584 2669 2484 
Q 3125 2378 3379 2068 
Q 3634 1759 3634 1313 
Q 3634 634 3220 271 
Q 2806 -91 2034 -91 
Q 1263 -91 848 271 
Q 434 634 434 1313 
Q 434 1759 690 2068 
Q 947 2378 1403 2484 
z
M 1172 3481 
Q 1172 3119 1398 2916 
Q 1625 2713 2034 2713 
Q 2441 2713 2670 2916 
Q 2900 3119 2900 3481 
Q 2900 3844 2670 4047 
Q 2441 4250 2034 4250 
Q 1625 4250 1398 4047 
Q 1172 3844 1172 3481 
z
" transform="scale(0.015625)"/>
       </defs>
       <use xlink:href="#DejaVuSans-38"/>
       <use xlink:href="#DejaVuSans-30" x="63.623047"/>
      </g>
     </g>
    </g>
    <g id="xtick_5">
     <g id="line2d_5">
      <g>
       <use xlink:href="#mf3d61194d4" x="432.091607" y="303.64" style="stroke: #000000; stroke-width: 0.8"/>
      </g>
     </g>
     <g id="text_5">
      <!-- 100 -->
      <g transform="translate(422.547857 318.238437)scale(0.1 -0.1)">
       <defs>
        <path id="DejaVuSans-31" d="M 794 531 
L 1825 531 
L 1825 4091 
L 703 3866 
L 703 4441 
L 1819 4666 
L 2450 4666 
L 2450 531 
L 3481 531 
L 3481 0 
L 794 0 
L 794 531 
z
" transform="scale(0.015625)"/>
       </defs>
       <use xlink:href="#DejaVuSans-31"/>
       <use xlink:href="#DejaVuSans-30" x="63.623047"/>
       <use xlink:href="#DejaVuSans-30" x="127.246094"/>
      </g>
     </g>
    </g>
    <g id="text_6">
     <!-- z (nm) -->
     <g transform="translate(236.853767 331.916562)scale(0.1 -0.1)">
      <defs>
       <path id="DejaVuSans-7a" d="M 353 3500 
L 3084 3500 
L 3084 2975 
L 922 459 
L 3084 459 
L 3084 0 
L 275 0 
L 275 525 
L 2438 3041 
L 353 3041 
L 353 3500 
z
" transform="scale(0.015625)"/>
       <path id="DejaVuSans-20" transform="scale(0.015625)"/>
       <path id="DejaVuSans-28" d="M 1984 4856 
Q 1566 4138 1362 3434 
Q 1159 2731 1159 2009 
Q 1159 1288 1364 580 
Q 1569 -128 1984 -844 
L 1484 -844 
Q 1016 -109 783 600 
Q 550 1309 550 2009 
Q 550 2706 781 3412 
Q 1013 4119 1484 4856 
L 1984 4856 
z
" transform="scale(0.015625)"/>
       <path id="DejaVuSans-6e" d="M 3513 2113 
L 3513 0 
L 2938 0 
L 2938 2094 
Q 2938 2591 2744 2837 
Q 2550 3084 2163 3084 
Q 1697 3084 1428 2787 
Q 1159 2491 1159 1978 
L 1159 0 
L 581 0 
L 581 3500 
L 1159 3500 
L 1159 2956 
Q 1366 3272 1645 3428 
Q 1925 3584 2291 3584 
Q 2894 3584 3203 3211 
Q 3513 2838 3513 2113 
z
" transform="scale(0.015625)"/>
       <path id="DejaVuSans-6d" d="M 3328 2828 
Q 3544 3216 3844 3400 
Q 4144 3584 4550 3584 
Q 5097 3584 5394 3201 
Q 5691 2819 5691 2113 
L 5691 0 
L 5113 0 
L 5113 2094 
Q 5113 2597 4934 2840 
Q 4756 3084 4391 3084 
Q 3944 3084 3684 2787 
Q 3425 2491 3425 1978 
L 3425 0 
L 2847 0 
L 2847 2094 
Q 2847 2600 2669 2842 
Q 2491 3084 2119 3084 
Q 1678 3084 1418 2786 
Q 1159 2488 1159 1978 
L 1159 0 
L 581 0 
L 581 3500 
L 1159 3500 
L 1159 2956 
Q 1356 3278 1631 3431 
Q 1906 3584 2284 3584 
Q 2666 3584 2933 3390 
Q 3200 3197 3328 2828 
z
" transform="scale(0.015625)"/>
       <path id="DejaVuSans-29" d="M 513 4856 
L 1013 4856 
Q 1481 4119 1714 3412 
Q 1947 2706 1947 2009 
Q 1947 1309 1714 600 
Q 1481 -109 1013 -844 
L 513 -844 
Q 928 -128 1133 580 
Q 1338 1288 1338 2009 
Q 1338 2731 1133 3434 
Q 928 4138 513 4856 
z
" transform="scale(0.015625)"/>
      </defs>
      <use xlink:href="#DejaVuSans-7a"/>
      <use xlink:href="#DejaVuSans-20" x="52.490234"/>
      <use xlink:href="#DejaVuSans-28" x="84.277344"/>
      <use xlink:href="#DejaVuSans-6e" x="123.291016"/>
      <use xlink:href="#DejaVuSans-6d" x="186.669922"/>
      <use xlink:href="#DejaVuSans-29" x="284.082031"/>
     </g>
    </g>
   </g>
   <g id="matplotlib.axis_2">
    <g id="ytick_1">
     <g id="line2d_6">
      <defs>
       <path id="m235b268d76" d="M 0 0 
L -3.5 0 
" style="stroke: #000000; stroke-width: 0.8"/>
      </defs>
      <g>
       <use xlink:href="#m235b268d76" x="56.015346" y="265.822963" style="stroke: #000000; stroke-width: 0.8"/>
      </g>
     </g>
     <g id="text_7">
      <!-- $\mathdefault{10^{-4}}$ -->
      <g transform="translate(25.515346 269.622182)scale(0.1 -0.1)">
       <defs>
        <path id="DejaVuSans-2212" d="M 678 2272 
L 4684 2272 
L 4684 1741 
L 678 1741 
L 678 2272 
z
" transform="scale(0.015625)"/>
       </defs>
       <use xlink:href="#DejaVuSans-31" transform="translate(0 0.684375)"/>
       <use xlink:href="#DejaVuSans-30" transform="translate(63.623047 0.684375)"/>
       <use xlink:href="#DejaVuSans-2212" transform="translate(128.203125 38.965625)scale(0.7)"/>
       <use xlink:href="#DejaVuSans-34" transform="translate(186.855469 38.965625)scale(0.7)"/>
      </g>
     </g>
    </g>
    <g id="ytick_2">
     <g id="line2d_7">
      <g>
       <use xlink:href="#m235b268d76" x="56.015346" y="222.921155" style="stroke: #000000; stroke-width: 0.8"/>
      </g>
     </g>
     <g id="text_8">
      <!-- $\mathdefault{10^{-3}}$ -->
      <g transform="translate(25.515346 226.720374)scale(0.1 -0.1)">
       <defs>
        <path id="DejaVuSans-33" d="M 2597 2516 
Q 3050 2419 3304 2112 
Q 3559 1806 3559 1356 
Q 3559 666 3084 287 
Q 2609 -91 1734 -91 
Q 1441 -91 1130 -33 
Q 819 25 488 141 
L 488 750 
Q 750 597 1062 519 
Q 1375 441 1716 441 
Q 2309 441 2620 675 
Q 2931 909 2931 1356 
Q 2931 1769 2642 2001 
Q 2353 2234 1838 2234 
L 1294 2234 
L 1294 2753 
L 1863 2753 
Q 2328 2753 2575 2939 
Q 2822 3125 2822 3475 
Q 2822 3834 2567 4026 
Q 2313 4219 1838 4219 
Q 1578 4219 1281 4162 
Q 984 4106 628 3988 
L 628 4550 
Q 988 4650 1302 4700 
Q 1616 4750 1894 4750 
Q 2613 4750 3031 4423 
Q 3450 4097 3450 3541 
Q 3450 3153 3228 2886 
Q 3006 2619 2597 2516 
z
" transform="scale(0.015625)"/>
       </defs>
       <use xlink:href="#DejaVuSans-31" transform="translate(0 0.765625)"/>
       <use xlink:href="#DejaVuSans-30" transform="translate(63.623047 0.765625)"/>
       <use xlink:href="#DejaVuSans-2212" transform="translate(128.203125 39.046875)scale(0.7)"/>
       <use xlink:href="#DejaVuSans-33" transform="translate(186.855469 39.046875)scale(0.7)"/>
      </g>
     </g>
    </g>
    <g id="ytick_3">
     <g id="line2d_8">
      <g>
       <use xlink:href="#m235b268d76" x="56.015346" y="180.019348" style="stroke: #000000; stroke-width: 0.8"/>
      </g>
     </g>
     <g id="text_9">
      <!-- $\mathdefault{10^{-2}}$ -->
      <g transform="translate(25.515346 183.818566)scale(0.1 -0.1)">
       <use xlink:href="#DejaVuSans-31" transform="translate(0 0.765625)"/>
       <use xlink:href="#DejaVuSans-30" transform="translate(63.623047 0.765625)"/>
       <use xlink:href="#DejaVuSans-2212" transform="translate(128.203125 39.046875)scale(0.7)"/>
       <use xlink:href="#DejaVuSans-32" transform="translate(186.855469 39.046875)scale(0.7)"/>
      </g>
     </g>
    </g>
    <g id="ytick_4">
     <g id="line2d_9">
      <g>
       <use xlink:href="#m235b268d76" x="56.015346" y="137.11754" style="stroke: #000000; stroke-width: 0.8"/>
      </g>
     </g>
     <g id="text_10">
      <!-- $\mathdefault{10^{-1}}$ -->
      <g transform="translate(25.515346 140.916758)scale(0.1 -0.1)">
       <use xlink:href="#DejaVuSans-31" transform="translate(0 0.684375)"/>
       <use xlink:href="#DejaVuSans-30" transform="translate(63.623047 0.684375)"/>
       <use xlink:href="#DejaVuSans-2212" transform="translate(128.203125 38.965625)scale(0.7)"/>
       <use xlink:href="#DejaVuSans-31" transform="translate(186.855469 38.965625)scale(0.7)"/>
      </g>
     </g>
    </g>
    <g id="ytick_5">
     <g id="line2d_10">
      <g>
       <use xlink:href="#m235b268d76" x="56.015346" y="94.215732" style="stroke: #000000; stroke-width: 0.8"/>
      </g>
     </g>
     <g id="text_11">
      <!-- $\mathdefault{10^{0}}$ -->
      <g transform="translate(31.415346 98.014951)scale(0.1 -0.1)">
       <use xlink:href="#DejaVuSans-31" transform="translate(0 0.765625)"/>
       <use xlink:href="#DejaVuSans-30" transform="translate(63.623047 0.765625)"/>
       <use xlink:href="#DejaVuSans-30" transform="translate(128.203125 39.046875)scale(0.7)"/>
      </g>
     </g>
    </g>
    <g id="ytick_6">
     <g id="line2d_11">
      <g>
       <use xlink:href="#m235b268d76" x="56.015346" y="51.313924" style="stroke: #000000; stroke-width: 0.8"/>
      </g>
     </g>
     <g id="text_12">
      <!-- $\mathdefault{10^{1}}$ -->
      <g transform="translate(31.415346 55.113143)scale(0.1 -0.1)">
       <use xlink:href="#DejaVuSans-31" transform="translate(0 0.684375)"/>
       <use xlink:href="#DejaVuSans-30" transform="translate(63.623047 0.684375)"/>
       <use xlink:href="#DejaVuSans-31" transform="translate(128.203125 38.965625)scale(0.7)"/>
      </g>
     </g>
    </g>
    <g id="ytick_7">
     <g id="line2d_12">
      <defs>
       <path id="m9252d91362" d="M 0 0 
L -2 0 
" style="stroke: #000000; stroke-width: 0.6"/>
      </defs>
      <g>
       <use xlink:href="#m9252d91362" x="56.015346" y="295.81004" style="stroke: #000000; stroke-width: 0.6"/>
      </g>
     </g>
    </g>
    <g id="ytick_8">
     <g id="line2d_13">
      <g>
       <use xlink:href="#m9252d91362" x="56.015346" y="288.255407" style="stroke: #000000; stroke-width: 0.6"/>
      </g>
     </g>
    </g>
    <g id="ytick_9">
     <g id="line2d_14">
      <g>
       <use xlink:href="#m9252d91362" x="56.015346" y="282.895309" style="stroke: #000000; stroke-width: 0.6"/>
      </g>
     </g>
    </g>
    <g id="ytick_10">
     <g id="line2d_15">
      <g>
       <use xlink:href="#m9252d91362" x="56.015346" y="278.737694" style="stroke: #000000; stroke-width: 0.6"/>
      </g>
     </g>
    </g>
    <g id="ytick_11">
     <g id="line2d_16">
      <g>
       <use xlink:href="#m9252d91362" x="56.015346" y="275.340676" style="stroke: #000000; stroke-width: 0.6"/>
      </g>
     </g>
    </g>
    <g id="ytick_12">
     <g id="line2d_17">
      <g>
       <use xlink:href="#m9252d91362" x="56.015346" y="272.468537" style="stroke: #000000; stroke-width: 0.6"/>
      </g>
     </g>
    </g>
    <g id="ytick_13">
     <g id="line2d_18">
      <g>
       <use xlink:href="#m9252d91362" x="56.015346" y="269.980578" style="stroke: #000000; stroke-width: 0.6"/>
      </g>
     </g>
    </g>
    <g id="ytick_14">
     <g id="line2d_19">
      <g>
       <use xlink:href="#m9252d91362" x="56.015346" y="267.786042" style="stroke: #000000; stroke-width: 0.6"/>
      </g>
     </g>
    </g>
    <g id="ytick_15">
     <g id="line2d_20">
      <g>
       <use xlink:href="#m9252d91362" x="56.015346" y="252.908232" style="stroke: #000000; stroke-width: 0.6"/>
      </g>
     </g>
    </g>
    <g id="ytick_16">
     <g id="line2d_21">
      <g>
       <use xlink:href="#m9252d91362" x="56.015346" y="245.353599" style="stroke: #000000; stroke-width: 0.6"/>
      </g>
     </g>
    </g>
    <g id="ytick_17">
     <g id="line2d_22">
      <g>
       <use xlink:href="#m9252d91362" x="56.015346" y="239.993501" style="stroke: #000000; stroke-width: 0.6"/>
      </g>
     </g>
    </g>
    <g id="ytick_18">
     <g id="line2d_23">
      <g>
       <use xlink:href="#m9252d91362" x="56.015346" y="235.835886" style="stroke: #000000; stroke-width: 0.6"/>
      </g>
     </g>
    </g>
    <g id="ytick_19">
     <g id="line2d_24">
      <g>
       <use xlink:href="#m9252d91362" x="56.015346" y="232.438868" style="stroke: #000000; stroke-width: 0.6"/>
      </g>
     </g>
    </g>
    <g id="ytick_20">
     <g id="line2d_25">
      <g>
       <use xlink:href="#m9252d91362" x="56.015346" y="229.566729" style="stroke: #000000; stroke-width: 0.6"/>
      </g>
     </g>
    </g>
    <g id="ytick_21">
     <g id="line2d_26">
      <g>
       <use xlink:href="#m9252d91362" x="56.015346" y="227.07877" style="stroke: #000000; stroke-width: 0.6"/>
      </g>
     </g>
    </g>
    <g id="ytick_22">
     <g id="line2d_27">
      <g>
       <use xlink:href="#m9252d91362" x="56.015346" y="224.884234" style="stroke: #000000; stroke-width: 0.6"/>
      </g>
     </g>
    </g>
    <g id="ytick_23">
     <g id="line2d_28">
      <g>
       <use xlink:href="#m9252d91362" x="56.015346" y="210.006424" style="stroke: #000000; stroke-width: 0.6"/>
      </g>
     </g>
    </g>
    <g id="ytick_24">
     <g id="line2d_29">
      <g>
       <use xlink:href="#m9252d91362" x="56.015346" y="202.451791" style="stroke: #000000; stroke-width: 0.6"/>
      </g>
     </g>
    </g>
    <g id="ytick_25">
     <g id="line2d_30">
      <g>
       <use xlink:href="#m9252d91362" x="56.015346" y="197.091693" style="stroke: #000000; stroke-width: 0.6"/>
      </g>
     </g>
    </g>
    <g id="ytick_26">
     <g id="line2d_31">
      <g>
       <use xlink:href="#m9252d91362" x="56.015346" y="192.934079" style="stroke: #000000; stroke-width: 0.6"/>
      </g>
     </g>
    </g>
    <g id="ytick_27">
     <g id="line2d_32">
      <g>
       <use xlink:href="#m9252d91362" x="56.015346" y="189.53706" style="stroke: #000000; stroke-width: 0.6"/>
      </g>
     </g>
    </g>
    <g id="ytick_28">
     <g id="line2d_33">
      <g>
       <use xlink:href="#m9252d91362" x="56.015346" y="186.664922" style="stroke: #000000; stroke-width: 0.6"/>
      </g>
     </g>
    </g>
    <g id="ytick_29">
     <g id="line2d_34">
      <g>
       <use xlink:href="#m9252d91362" x="56.015346" y="184.176962" style="stroke: #000000; stroke-width: 0.6"/>
      </g>
     </g>
    </g>
    <g id="ytick_30">
     <g id="line2d_35">
      <g>
       <use xlink:href="#m9252d91362" x="56.015346" y="181.982427" style="stroke: #000000; stroke-width: 0.6"/>
      </g>
     </g>
    </g>
    <g id="ytick_31">
     <g id="line2d_36">
      <g>
       <use xlink:href="#m9252d91362" x="56.015346" y="167.104616" style="stroke: #000000; stroke-width: 0.6"/>
      </g>
     </g>
    </g>
    <g id="ytick_32">
     <g id="line2d_37">
      <g>
       <use xlink:href="#m9252d91362" x="56.015346" y="159.549983" style="stroke: #000000; stroke-width: 0.6"/>
      </g>
     </g>
    </g>
    <g id="ytick_33">
     <g id="line2d_38">
      <g>
       <use xlink:href="#m9252d91362" x="56.015346" y="154.189885" style="stroke: #000000; stroke-width: 0.6"/>
      </g>
     </g>
    </g>
    <g id="ytick_34">
     <g id="line2d_39">
      <g>
       <use xlink:href="#m9252d91362" x="56.015346" y="150.032271" style="stroke: #000000; stroke-width: 0.6"/>
      </g>
     </g>
    </g>
    <g id="ytick_35">
     <g id="line2d_40">
      <g>
       <use xlink:href="#m9252d91362" x="56.015346" y="146.635252" style="stroke: #000000; stroke-width: 0.6"/>
      </g>
     </g>
    </g>
    <g id="ytick_36">
     <g id="line2d_41">
      <g>
       <use xlink:href="#m9252d91362" x="56.015346" y="143.763114" style="stroke: #000000; stroke-width: 0.6"/>
      </g>
     </g>
    </g>
    <g id="ytick_37">
     <g id="line2d_42">
      <g>
       <use xlink:href="#m9252d91362" x="56.015346" y="141.275154" style="stroke: #000000; stroke-width: 0.6"/>
      </g>
     </g>
    </g>
    <g id="ytick_38">
     <g id="line2d_43">
      <g>
       <use xlink:href="#m9252d91362" x="56.015346" y="139.080619" style="stroke: #000000; stroke-width: 0.6"/>
      </g>
     </g>
    </g>
    <g id="ytick_39">
     <g id="line2d_44">
      <g>
       <use xlink:href="#m9252d91362" x="56.015346" y="124.202809" style="stroke: #000000; stroke-width: 0.6"/>
      </g>
     </g>
    </g>
    <g id="ytick_40">
     <g id="line2d_45">
      <g>
       <use xlink:href="#m9252d91362" x="56.015346" y="116.648175" style="stroke: #000000; stroke-width: 0.6"/>
      </g>
     </g>
    </g>
    <g id="ytick_41">
     <g id="line2d_46">
      <g>
       <use xlink:href="#m9252d91362" x="56.015346" y="111.288078" style="stroke: #000000; stroke-width: 0.6"/>
      </g>
     </g>
    </g>
    <g id="ytick_42">
     <g id="line2d_47">
      <g>
       <use xlink:href="#m9252d91362" x="56.015346" y="107.130463" style="stroke: #000000; stroke-width: 0.6"/>
      </g>
     </g>
    </g>
    <g id="ytick_43">
     <g id="line2d_48">
      <g>
       <use xlink:href="#m9252d91362" x="56.015346" y="103.733444" style="stroke: #000000; stroke-width: 0.6"/>
      </g>
     </g>
    </g>
    <g id="ytick_44">
     <g id="line2d_49">
      <g>
       <use xlink:href="#m9252d91362" x="56.015346" y="100.861306" style="stroke: #000000; stroke-width: 0.6"/>
      </g>
     </g>
    </g>
    <g id="ytick_45">
     <g id="line2d_50">
      <g>
       <use xlink:href="#m9252d91362" x="56.015346" y="98.373347" style="stroke: #000000; stroke-width: 0.6"/>
      </g>
     </g>
    </g>
    <g id="ytick_46">
     <g id="line2d_51">
      <g>
       <use xlink:href="#m9252d91362" x="56.015346" y="96.178811" style="stroke: #000000; stroke-width: 0.6"/>
      </g>
     </g>
    </g>
    <g id="ytick_47">
     <g id="line2d_52">
      <g>
       <use xlink:href="#m9252d91362" x="56.015346" y="81.301001" style="stroke: #000000; stroke-width: 0.6"/>
      </g>
     </g>
    </g>
    <g id="ytick_48">
     <g id="line2d_53">
      <g>
       <use xlink:href="#m9252d91362" x="56.015346" y="73.746368" style="stroke: #000000; stroke-width: 0.6"/>
      </g>
     </g>
    </g>
    <g id="ytick_49">
     <g id="line2d_54">
      <g>
       <use xlink:href="#m9252d91362" x="56.015346" y="68.38627" style="stroke: #000000; stroke-width: 0.6"/>
      </g>
     </g>
    </g>
    <g id="ytick_50">
     <g id="line2d_55">
      <g>
       <use xlink:href="#m9252d91362" x="56.015346" y="64.228655" style="stroke: #000000; stroke-width: 0.6"/>
      </g>
     </g>
    </g>
    <g id="ytick_51">
     <g id="line2d_56">
      <g>
       <use xlink:href="#m9252d91362" x="56.015346" y="60.831637" style="stroke: #000000; stroke-width: 0.6"/>
      </g>
     </g>
    </g>
    <g id="ytick_52">
     <g id="line2d_57">
      <g>
       <use xlink:href="#m9252d91362" x="56.015346" y="57.959498" style="stroke: #000000; stroke-width: 0.6"/>
      </g>
     </g>
    </g>
    <g id="ytick_53">
     <g id="line2d_58">
      <g>
       <use xlink:href="#m9252d91362" x="56.015346" y="55.471539" style="stroke: #000000; stroke-width: 0.6"/>
      </g>
     </g>
    </g>
    <g id="ytick_54">
     <g id="line2d_59">
      <g>
       <use xlink:href="#m9252d91362" x="56.015346" y="53.277003" style="stroke: #000000; stroke-width: 0.6"/>
      </g>
     </g>
    </g>
    <g id="ytick_55">
     <g id="line2d_60">
      <g>
       <use xlink:href="#m9252d91362" x="56.015346" y="38.399193" style="stroke: #000000; stroke-width: 0.6"/>
      </g>
     </g>
    </g>
    <g id="text_13">
     <!-- LDOS_z -->
     <g transform="translate(19.157534 186.890312)rotate(-90)scale(0.1 -0.1)">
      <defs>
       <path id="DejaVuSans-4c" d="M 628 4666 
L 1259 4666 
L 1259 531 
L 3531 531 
L 3531 0 
L 628 0 
L 628 4666 
z
" transform="scale(0.015625)"/>
       <path id="DejaVuSans-44" d="M 1259 4147 
L 1259 519 
L 2022 519 
Q 2988 519 3436 956 
Q 3884 1394 3884 2338 
Q 3884 3275 3436 3711 
Q 2988 4147 2022 4147 
L 1259 4147 
z
M 628 4666 
L 1925 4666 
Q 3281 4666 3915 4102 
Q 4550 3538 4550 2338 
Q 4550 1131 3912 565 
Q 3275 0 1925 0 
L 628 0 
L 628 4666 
z
" transform="scale(0.015625)"/>
       <path id="DejaVuSans-4f" d="M 2522 4238 
Q 1834 4238 1429 3725 
Q 1025 3213 1025 2328 
Q 1025 1447 1429 934 
Q 1834 422 2522 422 
Q 3209 422 3611 934 
Q 4013 1447 4013 2328 
Q 4013 3213 3611 3725 
Q 3209 4238 2522 4238 
z
M 2522 4750 
Q 3503 4750 4090 4092 
Q 4678 3434 4678 2328 
Q 4678 1225 4090 567 
Q 3503 -91 2522 -91 
Q 1538 -91 948 565 
Q 359 1222 359 2328 
Q 359 3434 948 4092 
Q 1538 4750 2522 4750 
z
" transform="scale(0.015625)"/>
       <path id="DejaVuSans-53" d="M 3425 4513 
L 3425 3897 
Q 3066 4069 2747 4153 
Q 2428 4238 2131 4238 
Q 1616 4238 1336 4038 
Q 1056 3838 1056 3469 
Q 1056 3159 1242 3001 
Q 1428 2844 1947 2747 
L 2328 2669 
Q 3034 2534 3370 2195 
Q 3706 1856 3706 1288 
Q 3706 609 3251 259 
Q 2797 -91 1919 -91 
Q 1588 -91 1214 -16 
Q 841 59 441 206 
L 441 856 
Q 825 641 1194 531 
Q 1563 422 1919 422 
Q 2459 422 2753 634 
Q 3047 847 3047 1241 
Q 3047 1584 2836 1778 
Q 2625 1972 2144 2069 
L 1759 2144 
Q 1053 2284 737 2584 
Q 422 2884 422 3419 
Q 422 4038 858 4394 
Q 1294 4750 2059 4750 
Q 2388 4750 2728 4690 
Q 3069 4631 3425 4513 
z
" transform="scale(0.015625)"/>
       <path id="DejaVuSans-5f" d="M 3263 -1063 
L 3263 -1509 
L -63 -1509 
L -63 -1063 
L 3263 -1063 
z
" transform="scale(0.015625)"/>
      </defs>
      <use xlink:href="#DejaVuSans-4c"/>
      <use xlink:href="#DejaVuSans-44" x="55.712891"/>
      <use xlink:href="#DejaVuSans-4f" x="132.714844"/>
      <use xlink:href="#DejaVuSans-53" x="211.425781"/>
      <use xlink:href="#DejaVuSans-5f" x="274.902344"/>
      <use xlink:href="#DejaVuSans-7a" x="324.902344"/>
     </g>
    </g>
   </g>
   <g id="line2d_61">
    <path d="M 73.923739 44.729091 
L 77.903382 54.114384 
L 81.883025 62.103 
L 85.862668 68.784281 
L 89.842311 74.257173 
L 93.821954 78.645914 
L 97.801597 82.098801 
L 101.78124 84.77513 
L 105.760883 86.829117 
L 109.740526 88.397762 
L 113.720169 89.595067 
L 117.699812 90.511553 
L 121.679455 91.216857 
L 125.659098 91.763493 
L 129.638741 92.19062 
L 133.618384 92.527296 
L 137.598027 92.795073 
L 141.57767 93.009979 
L 145.557313 93.183989 
L 149.536956 93.326104 
L 153.516599 93.443136 
L 157.496242 93.54028 
L 161.475885 93.621528 
L 165.455528 93.68997 
L 169.435171 93.748018 
L 173.414814 93.797567 
L 177.394457 93.84012 
L 181.3741 93.876873 
L 185.353743 93.90879 
L 189.333386 93.936648 
L 193.313029 93.961081 
L 197.292672 93.982607 
L 201.272314 94.001653 
L 205.251957 94.018574 
L 209.2316 94.033663 
L 213.211243 94.047168 
L 217.190886 94.059296 
L 221.170529 94.070223 
L 225.150172 94.080098 
L 229.129815 94.089048 
L 233.109458 94.097182 
L 237.089101 94.104594 
L 241.068744 94.111365 
L 245.048387 94.117564 
L 249.02803 94.123254 
L 253.007673 94.128486 
L 256.987316 94.133308 
L 260.966959 94.13776 
L 264.946602 94.141879 
L 268.926245 94.145696 
L 272.905888 94.149239 
L 276.885531 94.152534 
L 280.865174 94.155602 
L 284.844817 94.158464 
L 288.82446 94.161137 
L 292.804103 94.163638 
L 296.783746 94.165979 
L 300.763389 94.168175 
L 304.743032 94.170237 
L 308.722675 94.172176 
L 312.702318 94.174 
L 316.681961 94.175719 
L 320.661604 94.177341 
L 324.641246 94.178872 
L 328.620889 94.180318 
L 332.600532 94.181687 
L 336.580175 94.182984 
L 340.559818 94.184212 
L 344.539461 94.185378 
L 348.519104 94.186484 
L 352.498747 94.187536 
L 356.47839 94.188536 
L 360.458033 94.189488 
L 364.437676 94.190395 
L 368.417319 94.191259 
L 372.396962 94.192083 
L 376.376605 94.19287 
L 380.356248 94.193622 
L 384.335891 94.19434 
L 388.315534 94.195027 
L 392.295177 94.195685 
L 396.27482 94.196314 
L 400.254463 94.196918 
L 404.234106 94.197496 
L 408.213749 94.198051 
L 412.193392 94.198584 
L 416.173035 94.199095 
L 420.152678 94.199587 
L 424.132321 94.200059 
L 428.111964 94.200514 
L 432.091607 94.200951 
" clip-path="url(#p35997fcc1d)" style="fill: none; stroke-dasharray: 5.55,2.4; stroke-dashoffset: 0; stroke: #0000ff; stroke-width: 1.5"/>
   </g>
   <g id="line2d_62">
    <path d="M 73.923739 84.22311 
L 77.903382 86.469511 
L 81.883025 88.112354 
L 85.862668 89.334217 
L 89.842311 90.257828 
L 93.821954 90.966728 
L 97.801597 91.518605 
L 101.78124 91.953906 
L 105.760883 92.301415 
L 109.740526 92.581924 
L 113.720169 92.810662 
L 117.699812 92.998933 
L 121.679455 93.155233 
L 125.659098 93.286021 
L 129.638741 93.396266 
L 133.618384 93.489825 
L 137.598027 93.569724 
L 141.57767 93.638357 
L 145.557313 93.697633 
L 149.536956 93.749089 
L 153.516599 93.793968 
L 157.496242 93.833286 
L 161.475885 93.867875 
L 165.455528 93.898424 
L 169.435171 93.925505 
L 173.414814 93.949595 
L 177.394457 93.971095 
L 181.3741 93.990344 
L 185.353743 94.007628 
L 189.333386 94.02319 
L 193.313029 94.037241 
L 197.292672 94.049959 
L 201.272314 94.061498 
L 205.251957 94.071991 
L 209.2316 94.081554 
L 213.211243 94.090288 
L 217.190886 94.098281 
L 221.170529 94.10561 
L 225.150172 94.112341 
L 229.129815 94.118536 
L 233.109458 94.124245 
L 237.089101 94.129516 
L 241.068744 94.13439 
L 245.048387 94.138904 
L 249.02803 94.14309 
L 253.007673 94.146978 
L 256.987316 94.150593 
L 260.966959 94.153959 
L 264.946602 94.157097 
L 268.926245 94.160026 
L 272.905888 94.162764 
L 276.885531 94.165325 
L 280.865174 94.167723 
L 284.844817 94.169972 
L 288.82446 94.172083 
L 292.804103 94.174065 
L 296.783746 94.17593 
L 300.763389 94.177685 
L 304.743032 94.179338 
L 308.722675 94.180897 
L 312.702318 94.182368 
L 316.681961 94.183758 
L 320.661604 94.185071 
L 324.641246 94.186314 
L 328.620889 94.18749 
L 332.600532 94.188604 
L 336.580175 94.189661 
L 340.559818 94.190663 
L 344.539461 94.191615 
L 348.519104 94.192519 
L 352.498747 94.193378 
L 356.47839 94.194196 
L 360.458033 94.194974 
L 364.437676 94.195715 
L 368.417319 94.196421 
L 372.396962 94.197095 
L 376.376605 94.197737 
L 380.356248 94.198351 
L 384.335891 94.198936 
L 388.315534 94.199496 
L 392.295177 94.200031 
L 396.27482 94.200543 
L 400.254463 94.201033 
L 404.234106 94.201502 
L 408.213749 94.201951 
L 412.193392 94.202382 
L 416.173035 94.202795 
L 420.152678 94.203191 
L 424.132321 94.203571 
L 428.111964 94.203935 
L 432.091607 94.204286 
" clip-path="url(#p35997fcc1d)" style="fill: none; stroke-dasharray: 5.55,2.4; stroke-dashoffset: 0; stroke: #ff0000; stroke-width: 1.5"/>
   </g>
   <g id="line2d_63">
    <path d="M 73.923739 47.116184 
L 77.903382 57.730343 
L 81.883025 67.412981 
L 85.862668 76.312824 
L 89.842311 84.545486 
L 93.821954 92.202628 
L 97.801597 99.35815 
L 101.78124 106.072506 
L 105.760883 112.39578 
L 109.740526 118.369937 
L 113.720169 124.030484 
L 117.699812 129.407738 
L 121.679455 134.527786 
L 125.659098 139.413247 
L 129.638741 144.083852 
L 133.618384 148.556927 
L 137.598027 152.847761 
L 141.57767 156.969922 
L 145.557313 160.9355 
L 149.536956 164.755321 
L 153.516599 168.439116 
L 157.496242 171.995662 
L 161.475885 175.432908 
L 165.455528 178.758074 
L 169.435171 181.97774 
L 173.414814 185.097918 
L 177.394457 188.124116 
L 181.3741 191.061397 
L 185.353743 193.914421 
L 189.333386 196.687492 
L 193.313029 199.38459 
L 197.292672 202.009405 
L 201.272314 204.565365 
L 205.251957 207.055659 
L 209.2316 209.483261 
L 213.211243 211.850948 
L 217.190886 214.161317 
L 221.170529 216.416801 
L 225.150172 218.619684 
L 229.129815 220.772111 
L 233.109458 222.876098 
L 237.089101 224.933548 
L 241.068744 226.946253 
L 245.048387 228.915906 
L 249.02803 230.844108 
L 253.007673 232.732374 
L 256.987316 234.582141 
L 260.966959 236.394768 
L 264.946602 238.171548 
L 268.926245 239.91371 
L 272.905888 241.622422 
L 276.885531 243.298794 
L 280.865174 244.943888 
L 284.844817 246.558712 
L 288.82446 248.144231 
L 292.804103 249.701364 
L 296.783746 251.230992 
L 300.763389 252.733955 
L 304.743032 254.211057 
L 308.722675 255.663071 
L 312.702318 257.090734 
L 316.681961 258.494754 
L 320.661604 259.87581 
L 324.641246 261.234554 
L 328.620889 262.571612 
L 332.600532 263.887585 
L 336.580175 265.183053 
L 340.559818 266.45857 
L 344.539461 267.714673 
L 348.519104 268.951876 
L 352.498747 270.170676 
L 356.47839 271.371552 
L 360.458033 272.554964 
L 364.437676 273.721356 
L 368.417319 274.871159 
L 372.396962 276.004787 
L 376.376605 277.122638 
L 380.356248 278.2251 
L 384.335891 279.312545 
L 388.315534 280.385334 
L 392.295177 281.443816 
L 396.27482 282.488329 
L 400.254463 283.519199 
L 404.234106 284.536742 
L 408.213749 285.541263 
L 412.193392 286.53306 
L 416.173035 287.512418 
L 420.152678 288.479617 
L 424.132321 289.434925 
L 428.111964 290.378605 
L 432.091607 291.310909 
" clip-path="url(#p35997fcc1d)" style="fill: none; stroke-dasharray: 5.55,2.4; stroke-dashoffset: 0; stroke: #008000; stroke-width: 1.5"/>
   </g>
   <g id="line2d_64">
    <defs>
     <path id="m1ba617c6d4" d="M 0 3 
C 0.795609 3 1.55874 2.683901 2.12132 2.12132 
C 2.683901 1.55874 3 0.795609 3 0 
C 3 -0.795609 2.683901 -1.55874 2.12132 -2.12132 
C 1.55874 -2.683901 0.795609 -3 0 -3 
C -0.795609 -3 -1.55874 -2.683901 -2.12132 -2.12132 
C -2.683901 -1.55874 -3 -0.795609 -3 0 
C -3 0.795609 -2.683901 1.55874 -2.12132 2.12132 
C -1.55874 2.683901 -0.795609 3 0 3 
z
" style="stroke: #0000ff"/>
    </defs>
    <g clip-path="url(#p35997fcc1d)">
     <use xlink:href="#m1ba617c6d4" x="73.923739" y="44.729091" style="fill: #0000ff; stroke: #0000ff"/>
     <use xlink:href="#m1ba617c6d4" x="93.821954" y="78.645914" style="fill: #0000ff; stroke: #0000ff"/>
     <use xlink:href="#m1ba617c6d4" x="113.720169" y="89.595067" style="fill: #0000ff; stroke: #0000ff"/>
     <use xlink:href="#m1ba617c6d4" x="133.618384" y="92.527296" style="fill: #0000ff; stroke: #0000ff"/>
     <use xlink:href="#m1ba617c6d4" x="153.516599" y="93.443136" style="fill: #0000ff; stroke: #0000ff"/>
     <use xlink:href="#m1ba617c6d4" x="173.414814" y="93.797567" style="fill: #0000ff; stroke: #0000ff"/>
     <use xlink:href="#m1ba617c6d4" x="193.313029" y="93.961081" style="fill: #0000ff; stroke: #0000ff"/>
     <use xlink:href="#m1ba617c6d4" x="213.211243" y="94.047168" style="fill: #0000ff; stroke: #0000ff"/>
     <use xlink:href="#m1ba617c6d4" x="233.109458" y="94.097182" style="fill: #0000ff; stroke: #0000ff"/>
     <use xlink:href="#m1ba617c6d4" x="253.007673" y="94.128486" style="fill: #0000ff; stroke: #0000ff"/>
     <use xlink:href="#m1ba617c6d4" x="272.905888" y="94.149239" style="fill: #0000ff; stroke: #0000ff"/>
     <use xlink:href="#m1ba617c6d4" x="292.804103" y="94.163638" style="fill: #0000ff; stroke: #0000ff"/>
     <use xlink:href="#m1ba617c6d4" x="312.702318" y="94.174" style="fill: #0000ff; stroke: #0000ff"/>
     <use xlink:href="#m1ba617c6d4" x="332.600532" y="94.181687" style="fill: #0000ff; stroke: #0000ff"/>
     <use xlink:href="#m1ba617c6d4" x="352.498747" y="94.187536" style="fill: #0000ff; stroke: #0000ff"/>
     <use xlink:href="#m1ba617c6d4" x="372.396962" y="94.192083" style="fill: #0000ff; stroke: #0000ff"/>
     <use xlink:href="#m1ba617c6d4" x="392.295177" y="94.195685" style="fill: #0000ff; stroke: #0000ff"/>
     <use xlink:href="#m1ba617c6d4" x="412.193392" y="94.198584" style="fill: #0000ff; stroke: #0000ff"/>
     <use xlink:href="#m1ba617c6d4" x="432.091607" y="94.200951" style="fill: #0000ff; stroke: #0000ff"/>
    </g>
   </g>
   <g id="line2d_65">
    <defs>
     <path id="mac3c076388" d="M 0 3 
C 0.795609 3 1.55874 2.683901 2.12132 2.12132 
C 2.683901 1.55874 3 0.795609 3 0 
C 3 -0.795609 2.683901 -1.55874 2.12132 -2.12132 
C 1.55874 -2.683901 0.795609 -3 0 -3 
C -0.795609 -3 -1.55874 -2.683901 -2.12132 -2.12132 
C -2.683901 -1.55874 -3 -0.795609 -3 0 
C -3 0.795609 -2.683901 1.55874 -2.12132 2.12132 
C -1.55874 2.683901 -0.795609 3 0 3 
z
" style="stroke: #ff0000"/>
    </defs>
    <g clip-path="url(#p35997fcc1d)">
     <use xlink:href="#mac3c076388" x="73.923739" y="84.195067" style="fill: #ff0000; stroke: #ff0000"/>
     <use xlink:href="#mac3c076388" x="93.821954" y="90.940047" style="fill: #ff0000; stroke: #ff0000"/>
     <use xlink:href="#mac3c076388" x="113.720169" y="92.788757" style="fill: #ff0000; stroke: #ff0000"/>
     <use xlink:href="#mac3c076388" x="133.618384" y="93.471845" style="fill: #ff0000; stroke: #ff0000"/>
     <use xlink:href="#mac3c076388" x="153.516599" y="93.778938" style="fill: #ff0000; stroke: #ff0000"/>
     <use xlink:href="#mac3c076388" x="173.414814" y="93.936805" style="fill: #ff0000; stroke: #ff0000"/>
     <use xlink:href="#mac3c076388" x="193.313029" y="94.026199" style="fill: #ff0000; stroke: #ff0000"/>
     <use xlink:href="#mac3c076388" x="213.211243" y="94.080645" style="fill: #ff0000; stroke: #ff0000"/>
     <use xlink:href="#mac3c076388" x="233.109458" y="94.11575" style="fill: #ff0000; stroke: #ff0000"/>
     <use xlink:href="#mac3c076388" x="253.007673" y="94.139442" style="fill: #ff0000; stroke: #ff0000"/>
     <use xlink:href="#mac3c076388" x="272.905888" y="94.156045" style="fill: #ff0000; stroke: #ff0000"/>
     <use xlink:href="#mac3c076388" x="292.804103" y="94.168052" style="fill: #ff0000; stroke: #ff0000"/>
     <use xlink:href="#mac3c076388" x="312.702318" y="94.176971" style="fill: #ff0000; stroke: #ff0000"/>
     <use xlink:href="#mac3c076388" x="332.600532" y="94.183751" style="fill: #ff0000; stroke: #ff0000"/>
     <use xlink:href="#mac3c076388" x="352.498747" y="94.189009" style="fill: #ff0000; stroke: #ff0000"/>
     <use xlink:href="#mac3c076388" x="372.396962" y="94.193161" style="fill: #ff0000; stroke: #ff0000"/>
     <use xlink:href="#mac3c076388" x="392.295177" y="94.196489" style="fill: #ff0000; stroke: #ff0000"/>
     <use xlink:href="#mac3c076388" x="412.193392" y="94.199196" style="fill: #ff0000; stroke: #ff0000"/>
     <use xlink:href="#mac3c076388" x="432.091607" y="94.201425" style="fill: #ff0000; stroke: #ff0000"/>
    </g>
   </g>
   <g id="line2d_66">
    <defs>
     <path id="m29a292debf" d="M 0 3 
C 0.795609 3 1.55874 2.683901 2.12132 2.12132 
C 2.683901 1.55874 3 0.795609 3 0 
C 3 -0.795609 2.683901 -1.55874 2.12132 -2.12132 
C 1.55874 -2.683901 0.795609 -3 0 -3 
C -0.795609 -3 -1.55874 -2.683901 -2.12132 -2.12132 
C -2.683901 -1.55874 -3 -0.795609 -3 0 
C -3 0.795609 -2.683901 1.55874 -2.12132 2.12132 
C -1.55874 2.683901 -0.795609 3 0 3 
z
" style="stroke: #008000"/>
    </defs>
    <g clip-path="url(#p35997fcc1d)">
     <use xlink:href="#m29a292debf" x="73.923739" y="47.116184" style="fill: #008000; stroke: #008000"/>
     <use xlink:href="#m29a292debf" x="93.821954" y="92.202628" style="fill: #008000; stroke: #008000"/>
     <use xlink:href="#m29a292debf" x="113.720169" y="124.030484" style="fill: #008000; stroke: #008000"/>
     <use xlink:href="#m29a292debf" x="133.618384" y="148.556927" style="fill: #008000; stroke: #008000"/>
     <use xlink:href="#m29a292debf" x="153.516599" y="168.439116" style="fill: #008000; stroke: #008000"/>
     <use xlink:href="#m29a292debf" x="173.414814" y="185.097918" style="fill: #008000; stroke: #008000"/>
     <use xlink:href="#m29a292debf" x="193.313029" y="199.38459" style="fill: #008000; stroke: #008000"/>
     <use xlink:href="#m29a292debf" x="213.211243" y="211.850948" style="fill: #008000; stroke: #008000"/>
     <use xlink:href="#m29a292debf" x="233.109458" y="222.876098" style="fill: #008000; stroke: #008000"/>
     <use xlink:href="#m29a292debf" x="253.007673" y="232.732374" style="fill: #008000; stroke: #008000"/>
     <use xlink:href="#m29a292debf" x="272.905888" y="241.622422" style="fill: #008000; stroke: #008000"/>
     <use xlink:href="#m29a292debf" x="292.804103" y="249.701364" style="fill: #008000; stroke: #008000"/>
     <use xlink:href="#m29a292debf" x="312.702318" y="257.090734" style="fill: #008000; stroke: #008000"/>
     <use xlink:href="#m29a292debf" x="332.600532" y="263.887585" style="fill: #008000; stroke: #008000"/>
     <use xlink:href="#m29a292debf" x="352.498747" y="270.170676" style="fill: #008000; stroke: #008000"/>
     <use xlink:href="#m29a292debf" x="372.396962" y="276.004787" style="fill: #008000; stroke: #008000"/>
     <use xlink:href="#m29a292debf" x="392.295177" y="281.443816" style="fill: #008000; stroke: #008000"/>
     <use xlink:href="#m29a292debf" x="412.193392" y="286.53306" style="fill: #008000; stroke: #008000"/>
     <use xlink:href="#m29a292debf" x="432.091607" y="291.310909" style="fill: #008000; stroke: #008000"/>
    </g>
   </g>
   <g id="patch_3">
    <path d="M 56.015346 303.64 
L 56.015346 32.4 
" style="fill: none; stroke: #000000; stroke-width: 0.8; stroke-linejoin: miter; stroke-linecap: square"/>
   </g>
   <g id="patch_4">
    <path d="M 450 303.64 
L 450 32.4 
" style="fill: none; stroke: #000000; stroke-width: 0.8; stroke-linejoin: miter; stroke-linecap: square"/>
   </g>
   <g id="patch_5">
    <path d="M 56.015346 303.64 
L 450 303.64 
" style="fill: none; stroke: #000000; stroke-width: 0.8; stroke-linejoin: miter; stroke-linecap: square"/>
   </g>
   <g id="patch_6">
    <path d="M 56.015346 32.4 
L 450 32.4 
" style="fill: none; stroke: #000000; stroke-width: 0.8; stroke-linejoin: miter; stroke-linecap: square"/>
   </g>
   <g id="legend_1">
    <g id="patch_7">
     <path d="M 63.015346 298.64 
L 203.916909 298.64 
Q 205.916909 298.64 205.916909 296.64 
L 205.916909 209.57125 
Q 205.916909 207.57125 203.916909 207.57125 
L 63.015346 207.57125 
Q 61.015346 207.57125 61.015346 209.57125 
L 61.015346 296.64 
Q 61.015346 298.64 63.015346 298.64 
z
" style="fill: #ffffff; opacity: 0.8; stroke: #cccccc; stroke-linejoin: miter"/>
    </g>
    <g id="line2d_67">
     <path d="M 65.015346 215.669687 
L 75.015346 215.669687 
L 85.015346 215.669687 
" style="fill: none; stroke-dasharray: 5.55,2.4; stroke-dashoffset: 0; stroke: #0000ff; stroke-width: 1.5"/>
    </g>
    <g id="text_14">
     <!-- total analytic -->
     <g transform="translate(93.015346 219.169687)scale(0.1 -0.1)">
      <defs>
       <path id="DejaVuSans-74" d="M 1172 4494 
L 1172 3500 
L 2356 3500 
L 2356 3053 
L 1172 3053 
L 1172 1153 
Q 1172 725 1289 603 
Q 1406 481 1766 481 
L 2356 481 
L 2356 0 
L 1766 0 
Q 1100 0 847 248 
Q 594 497 594 1153 
L 594 3053 
L 172 3053 
L 172 3500 
L 594 3500 
L 594 4494 
L 1172 4494 
z
" transform="scale(0.015625)"/>
       <path id="DejaVuSans-6f" d="M 1959 3097 
Q 1497 3097 1228 2736 
Q 959 2375 959 1747 
Q 959 1119 1226 758 
Q 1494 397 1959 397 
Q 2419 397 2687 759 
Q 2956 1122 2956 1747 
Q 2956 2369 2687 2733 
Q 2419 3097 1959 3097 
z
M 1959 3584 
Q 2709 3584 3137 3096 
Q 3566 2609 3566 1747 
Q 3566 888 3137 398 
Q 2709 -91 1959 -91 
Q 1206 -91 779 398 
Q 353 888 353 1747 
Q 353 2609 779 3096 
Q 1206 3584 1959 3584 
z
" transform="scale(0.015625)"/>
       <path id="DejaVuSans-61" d="M 2194 1759 
Q 1497 1759 1228 1600 
Q 959 1441 959 1056 
Q 959 750 1161 570 
Q 1363 391 1709 391 
Q 2188 391 2477 730 
Q 2766 1069 2766 1631 
L 2766 1759 
L 2194 1759 
z
M 3341 1997 
L 3341 0 
L 2766 0 
L 2766 531 
Q 2569 213 2275 61 
Q 1981 -91 1556 -91 
Q 1019 -91 701 211 
Q 384 513 384 1019 
Q 384 1609 779 1909 
Q 1175 2209 1959 2209 
L 2766 2209 
L 2766 2266 
Q 2766 2663 2505 2880 
Q 2244 3097 1772 3097 
Q 1472 3097 1187 3025 
Q 903 2953 641 2809 
L 641 3341 
Q 956 3463 1253 3523 
Q 1550 3584 1831 3584 
Q 2591 3584 2966 3190 
Q 3341 2797 3341 1997 
z
" transform="scale(0.015625)"/>
       <path id="DejaVuSans-6c" d="M 603 4863 
L 1178 4863 
L 1178 0 
L 603 0 
L 603 4863 
z
" transform="scale(0.015625)"/>
       <path id="DejaVuSans-79" d="M 2059 -325 
Q 1816 -950 1584 -1140 
Q 1353 -1331 966 -1331 
L 506 -1331 
L 506 -850 
L 844 -850 
Q 1081 -850 1212 -737 
Q 1344 -625 1503 -206 
L 1606 56 
L 191 3500 
L 800 3500 
L 1894 763 
L 2988 3500 
L 3597 3500 
L 2059 -325 
z
" transform="scale(0.015625)"/>
       <path id="DejaVuSans-69" d="M 603 3500 
L 1178 3500 
L 1178 0 
L 603 0 
L 603 3500 
z
M 603 4863 
L 1178 4863 
L 1178 4134 
L 603 4134 
L 603 4863 
z
" transform="scale(0.015625)"/>
       <path id="DejaVuSans-63" d="M 3122 3366 
L 3122 2828 
Q 2878 2963 2633 3030 
Q 2388 3097 2138 3097 
Q 1578 3097 1268 2742 
Q 959 2388 959 1747 
Q 959 1106 1268 751 
Q 1578 397 2138 397 
Q 2388 397 2633 464 
Q 2878 531 3122 666 
L 3122 134 
Q 2881 22 2623 -34 
Q 2366 -91 2075 -91 
Q 1284 -91 818 406 
Q 353 903 353 1747 
Q 353 2603 823 3093 
Q 1294 3584 2113 3584 
Q 2378 3584 2631 3529 
Q 2884 3475 3122 3366 
z
" transform="scale(0.015625)"/>
      </defs>
      <use xlink:href="#DejaVuSans-74"/>
      <use xlink:href="#DejaVuSans-6f" x="39.208984"/>
      <use xlink:href="#DejaVuSans-74" x="100.390625"/>
      <use xlink:href="#DejaVuSans-61" x="139.599609"/>
      <use xlink:href="#DejaVuSans-6c" x="200.878906"/>
      <use xlink:href="#DejaVuSans-20" x="228.662109"/>
      <use xlink:href="#DejaVuSans-61" x="260.449219"/>
      <use xlink:href="#DejaVuSans-6e" x="321.728516"/>
      <use xlink:href="#DejaVuSans-61" x="385.107422"/>
      <use xlink:href="#DejaVuSans-6c" x="446.386719"/>
      <use xlink:href="#DejaVuSans-79" x="474.169922"/>
      <use xlink:href="#DejaVuSans-74" x="533.349609"/>
      <use xlink:href="#DejaVuSans-69" x="572.558594"/>
      <use xlink:href="#DejaVuSans-63" x="600.341797"/>
     </g>
    </g>
    <g id="line2d_68">
     <path d="M 65.015346 230.347812 
L 75.015346 230.347812 
L 85.015346 230.347812 
" style="fill: none; stroke-dasharray: 5.55,2.4; stroke-dashoffset: 0; stroke: #ff0000; stroke-width: 1.5"/>
    </g>
    <g id="text_15">
     <!-- radiative analytic -->
     <g transform="translate(93.015346 233.847812)scale(0.1 -0.1)">
      <defs>
       <path id="DejaVuSans-72" d="M 2631 2963 
Q 2534 3019 2420 3045 
Q 2306 3072 2169 3072 
Q 1681 3072 1420 2755 
Q 1159 2438 1159 1844 
L 1159 0 
L 581 0 
L 581 3500 
L 1159 3500 
L 1159 2956 
Q 1341 3275 1631 3429 
Q 1922 3584 2338 3584 
Q 2397 3584 2469 3576 
Q 2541 3569 2628 3553 
L 2631 2963 
z
" transform="scale(0.015625)"/>
       <path id="DejaVuSans-64" d="M 2906 2969 
L 2906 4863 
L 3481 4863 
L 3481 0 
L 2906 0 
L 2906 525 
Q 2725 213 2448 61 
Q 2172 -91 1784 -91 
Q 1150 -91 751 415 
Q 353 922 353 1747 
Q 353 2572 751 3078 
Q 1150 3584 1784 3584 
Q 2172 3584 2448 3432 
Q 2725 3281 2906 2969 
z
M 947 1747 
Q 947 1113 1208 752 
Q 1469 391 1925 391 
Q 2381 391 2643 752 
Q 2906 1113 2906 1747 
Q 2906 2381 2643 2742 
Q 2381 3103 1925 3103 
Q 1469 3103 1208 2742 
Q 947 2381 947 1747 
z
" transform="scale(0.015625)"/>
       <path id="DejaVuSans-76" d="M 191 3500 
L 800 3500 
L 1894 563 
L 2988 3500 
L 3597 3500 
L 2284 0 
L 1503 0 
L 191 3500 
z
" transform="scale(0.015625)"/>
       <path id="DejaVuSans-65" d="M 3597 1894 
L 3597 1613 
L 953 1613 
Q 991 1019 1311 708 
Q 1631 397 2203 397 
Q 2534 397 2845 478 
Q 3156 559 3463 722 
L 3463 178 
Q 3153 47 2828 -22 
Q 2503 -91 2169 -91 
Q 1331 -91 842 396 
Q 353 884 353 1716 
Q 353 2575 817 3079 
Q 1281 3584 2069 3584 
Q 2775 3584 3186 3129 
Q 3597 2675 3597 1894 
z
M 3022 2063 
Q 3016 2534 2758 2815 
Q 2500 3097 2075 3097 
Q 1594 3097 1305 2825 
Q 1016 2553 972 2059 
L 3022 2063 
z
" transform="scale(0.015625)"/>
      </defs>
      <use xlink:href="#DejaVuSans-72"/>
      <use xlink:href="#DejaVuSans-61" x="41.113281"/>
      <use xlink:href="#DejaVuSans-64" x="102.392578"/>
      <use xlink:href="#DejaVuSans-69" x="165.869141"/>
      <use xlink:href="#DejaVuSans-61" x="193.652344"/>
      <use xlink:href="#DejaVuSans-74" x="254.931641"/>
      <use xlink:href="#DejaVuSans-69" x="294.140625"/>
      <use xlink:href="#DejaVuSans-76" x="321.923828"/>
      <use xlink:href="#DejaVuSans-65" x="381.103516"/>
      <use xlink:href="#DejaVuSans-20" x="442.626953"/>
      <use xlink:href="#DejaVuSans-61" x="474.414062"/>
      <use xlink:href="#DejaVuSans-6e" x="535.693359"/>
      <use xlink:href="#DejaVuSans-61" x="599.072266"/>
      <use xlink:href="#DejaVuSans-6c" x="660.351562"/>
      <use xlink:href="#DejaVuSans-79" x="688.134766"/>
      <use xlink:href="#DejaVuSans-74" x="747.314453"/>
      <use xlink:href="#DejaVuSans-69" x="786.523438"/>
      <use xlink:href="#DejaVuSans-63" x="814.306641"/>
     </g>
    </g>
    <g id="line2d_69">
     <path d="M 65.015346 245.025937 
L 75.015346 245.025937 
L 85.015346 245.025937 
" style="fill: none; stroke-dasharray: 5.55,2.4; stroke-dashoffset: 0; stroke: #008000; stroke-width: 1.5"/>
    </g>
    <g id="text_16">
     <!-- non radiative analytic -->
     <g transform="translate(93.015346 248.525937)scale(0.1 -0.1)">
      <use xlink:href="#DejaVuSans-6e"/>
      <use xlink:href="#DejaVuSans-6f" x="63.378906"/>
      <use xlink:href="#DejaVuSans-6e" x="124.560547"/>
      <use xlink:href="#DejaVuSans-20" x="187.939453"/>
      <use xlink:href="#DejaVuSans-72" x="219.726562"/>
      <use xlink:href="#DejaVuSans-61" x="260.839844"/>
      <use xlink:href="#DejaVuSans-64" x="322.119141"/>
      <use xlink:href="#DejaVuSans-69" x="385.595703"/>
      <use xlink:href="#DejaVuSans-61" x="413.378906"/>
      <use xlink:href="#DejaVuSans-74" x="474.658203"/>
      <use xlink:href="#DejaVuSans-69" x="513.867188"/>
      <use xlink:href="#DejaVuSans-76" x="541.650391"/>
      <use xlink:href="#DejaVuSans-65" x="600.830078"/>
      <use xlink:href="#DejaVuSans-20" x="662.353516"/>
      <use xlink:href="#DejaVuSans-61" x="694.140625"/>
      <use xlink:href="#DejaVuSans-6e" x="755.419922"/>
      <use xlink:href="#DejaVuSans-61" x="818.798828"/>
      <use xlink:href="#DejaVuSans-6c" x="880.078125"/>
      <use xlink:href="#DejaVuSans-79" x="907.861328"/>
      <use xlink:href="#DejaVuSans-74" x="967.041016"/>
      <use xlink:href="#DejaVuSans-69" x="1006.25"/>
      <use xlink:href="#DejaVuSans-63" x="1034.033203"/>
     </g>
    </g>
    <g id="line2d_70">
     <g>
      <use xlink:href="#m1ba617c6d4" x="75.015346" y="259.704062" style="fill: #0000ff; stroke: #0000ff"/>
     </g>
    </g>
    <g id="text_17">
     <!-- total DDA -->
     <g transform="translate(93.015346 263.204062)scale(0.1 -0.1)">
      <defs>
       <path id="DejaVuSans-41" d="M 2188 4044 
L 1331 1722 
L 3047 1722 
L 2188 4044 
z
M 1831 4666 
L 2547 4666 
L 4325 0 
L 3669 0 
L 3244 1197 
L 1141 1197 
L 716 0 
L 50 0 
L 1831 4666 
z
" transform="scale(0.015625)"/>
      </defs>
      <use xlink:href="#DejaVuSans-74"/>
      <use xlink:href="#DejaVuSans-6f" x="39.208984"/>
      <use xlink:href="#DejaVuSans-74" x="100.390625"/>
      <use xlink:href="#DejaVuSans-61" x="139.599609"/>
      <use xlink:href="#DejaVuSans-6c" x="200.878906"/>
      <use xlink:href="#DejaVuSans-20" x="228.662109"/>
      <use xlink:href="#DejaVuSans-44" x="260.449219"/>
      <use xlink:href="#DejaVuSans-44" x="337.451172"/>
      <use xlink:href="#DejaVuSans-41" x="412.703125"/>
     </g>
    </g>
    <g id="line2d_71">
     <g>
      <use xlink:href="#mac3c076388" x="75.015346" y="274.382187" style="fill: #ff0000; stroke: #ff0000"/>
     </g>
    </g>
    <g id="text_18">
     <!-- radiative DDA -->
     <g transform="translate(93.015346 277.882187)scale(0.1 -0.1)">
      <use xlink:href="#DejaVuSans-72"/>
      <use xlink:href="#DejaVuSans-61" x="41.113281"/>
      <use xlink:href="#DejaVuSans-64" x="102.392578"/>
      <use xlink:href="#DejaVuSans-69" x="165.869141"/>
      <use xlink:href="#DejaVuSans-61" x="193.652344"/>
      <use xlink:href="#DejaVuSans-74" x="254.931641"/>
      <use xlink:href="#DejaVuSans-69" x="294.140625"/>
      <use xlink:href="#DejaVuSans-76" x="321.923828"/>
      <use xlink:href="#DejaVuSans-65" x="381.103516"/>
      <use xlink:href="#DejaVuSans-20" x="442.626953"/>
      <use xlink:href="#DejaVuSans-44" x="474.414062"/>
      <use xlink:href="#DejaVuSans-44" x="551.416016"/>
      <use xlink:href="#DejaVuSans-41" x="626.667969"/>
     </g>
    </g>
    <g id="line2d_72">
     <g>
      <use xlink:href="#m29a292debf" x="75.015346" y="289.060312" style="fill: #008000; stroke: #008000"/>
     </g>
    </g>
    <g id="text_19">
     <!-- non radiative DDA -->
     <g transform="translate(93.015346 292.560312)scale(0.1 -0.1)">
      <use xlink:href="#DejaVuSans-6e"/>
      <use xlink:href="#DejaVuSans-6f" x="63.378906"/>
      <use xlink:href="#DejaVuSans-6e" x="124.560547"/>
      <use xlink:href="#DejaVuSans-20" x="187.939453"/>
      <use xlink:href="#DejaVuSans-72" x="219.726562"/>
      <use xlink:href="#DejaVuSans-61" x="260.839844"/>
      <use xlink:href="#DejaVuSans-64" x="322.119141"/>
      <use xlink:href="#DejaVuSans-69" x="385.595703"/>
      <use xlink:href="#DejaVuSans-61" x="413.378906"/>
      <use xlink:href="#DejaVuSans-74" x="474.658203"/>
      <use xlink:href="#DejaVuSans-69" x="513.867188"/>
      <use xlink:href="#DejaVuSans-76" x="541.650391"/>
      <use xlink:href="#DejaVuSans-65" x="600.830078"/>
      <use xlink:href="#DejaVuSans-20" x="662.353516"/>
      <use xlink:href="#DejaVuSans-44" x="694.140625"/>
      <use xlink:href="#DejaVuSans-44" x="771.142578"/>
      <use xlink:href="#DejaVuSans-41" x="846.394531"/>
     </g>
    </g>
   </g>
  </g>
  <g id="text_20">
   <!-- LDOSz lambda = 612 nm -->
   <g transform="translate(154.517812 16.030125)scale(0.12 -0.12)">
    <defs>
     <path id="DejaVuSans-62" d="M 3116 1747 
Q 3116 2381 2855 2742 
Q 2594 3103 2138 3103 
Q 1681 3103 1420 2742 
Q 1159 2381 1159 1747 
Q 1159 1113 1420 752 
Q 1681 391 2138 391 
Q 2594 391 2855 752 
Q 3116 1113 3116 1747 
z
M 1159 2969 
Q 1341 3281 1617 3432 
Q 1894 3584 2278 3584 
Q 2916 3584 3314 3078 
Q 3713 2572 3713 1747 
Q 3713 922 3314 415 
Q 2916 -91 2278 -91 
Q 1894 -91 1617 61 
Q 1341 213 1159 525 
L 1159 0 
L 581 0 
L 581 4863 
L 1159 4863 
L 1159 2969 
z
" transform="scale(0.015625)"/>
     <path id="DejaVuSans-3d" d="M 678 2906 
L 4684 2906 
L 4684 2381 
L 678 2381 
L 678 2906 
z
M 678 1631 
L 4684 1631 
L 4684 1100 
L 678 1100 
L 678 1631 
z
" transform="scale(0.015625)"/>
    </defs>
    <use xlink:href="#DejaVuSans-4c"/>
    <use xlink:href="#DejaVuSans-44" x="55.712891"/>
    <use xlink:href="#DejaVuSans-4f" x="132.714844"/>
    <use xlink:href="#DejaVuSans-53" x="211.425781"/>
    <use xlink:href="#DejaVuSans-7a" x="274.902344"/>
    <use xlink:href="#DejaVuSans-20" x="327.392578"/>
    <use xlink:href="#DejaVuSans-6c" x="359.179688"/>
    <use xlink:href="#DejaVuSans-61" x="386.962891"/>
    <use xlink:href="#DejaVuSans-6d" x="448.242188"/>
    <use xlink:href="#DejaVuSans-62" x="545.654297"/>
    <use xlink:href="#DejaVuSans-64" x="609.130859"/>
    <use xlink:href="#DejaVuSans-61" x="672.607422"/>
    <use xlink:href="#DejaVuSans-20" x="733.886719"/>
    <use xlink:href="#DejaVuSans-3d" x="765.673828"/>
    <use xlink:href="#DejaVuSans-20" x="849.462891"/>
    <use xlink:href="#DejaVuSans-36" x="881.25"/>
    <use xlink:href="#DejaVuSans-31" x="944.873047"/>
    <use xlink:href="#DejaVuSans-32" x="1008.496094"/>
    <use xlink:href="#DejaVuSans-20" x="1072.119141"/>
    <use xlink:href="#DejaVuSans-6e" x="1103.90625"/>
    <use xlink:href="#DejaVuSans-6d" x="1167.285156"/>
   </g>
  </g>
 </g>
 <defs>
  <clipPath id="p35997fcc1d">
   <rect x="56.015346" y="32.4" width="393.984654" height="271.24"/>
  </clipPath>
 </defs>
</svg>
